<svg width="50" height="50" viewBox="0 0 50 50" fill="none" xmlns="http://www.w3.org/2000/svg">
<g clip-path="url(#clip0_276_546)">
<path d="M12.3519 16.2807C12.3519 15.7371 12.7926 15.2963 13.3363 15.2963C13.8801 15.2963 14.3208 15.737 14.3208 16.2807C14.3208 16.8245 13.8801 17.2652 13.3363 17.2652C12.7926 17.2652 12.3519 16.8244 12.3519 16.2807ZM42.7059 29.4446L31.7302 28.4474L28.6792 37.0065H34.1045C34.6481 37.0065 35.0889 37.4473 35.0889 37.9908V40.9439H37.0576C37.6012 40.9439 38.042 41.3847 38.042 41.9283V48.0314H38.5342C39.0777 48.0314 39.5185 48.4722 39.5185 49.0157C39.5185 49.5593 39.0777 50.0001 38.5342 50.0001H11.9563C11.4127 50.0001 10.9719 49.5593 10.9719 49.0157C10.9719 48.4722 11.4127 48.0314 11.9563 48.0314H12.4485V41.9283C12.4485 41.3847 12.8892 40.9439 13.4328 40.9439H15.4016V37.9908C15.4016 37.4473 15.8423 37.0065 16.3859 37.0065H22.0254L18.2769 25.5022L6.81974 20.9977C6.19566 20.8152 5.87859 19.7864 6.66323 19.2436L9.04933 17.77C9.05032 17.77 9.0514 17.77 9.0514 17.7689C10.1478 17.0936 11.1803 18.77 10.0839 19.4453L9.37132 19.8853L19.4296 23.8396C19.7032 23.9479 19.9139 24.1702 20.0054 24.4509L24.0967 37.0065H26.5895L30.1315 27.0672C30.2812 26.6479 30.7035 26.3772 31.1484 26.4175L40.9438 27.3074L35.3989 18.1528C35.2433 17.8959 35.2149 17.575 35.3211 17.2936L39.2025 7.07179L29.0369 9.90392C28.7337 9.98759 28.3961 9.9177 28.152 9.71885L19.8312 2.95025L19.1874 13.3343C19.1677 13.6533 18.9945 13.9437 18.7228 14.1111L17.6222 14.7912C16.506 15.4804 15.4714 13.8051 16.5876 13.1158L17.254 12.7043L17.9845 0.917537C18.0434 0.191075 18.9293 -0.304258 19.5881 0.2147L28.9995 7.87012L40.55 4.65321C41.411 4.46834 42.0207 5.23034 41.7342 5.95149L37.3321 17.5434L43.637 27.955C44.0974 28.5886 43.5259 29.503 42.7059 29.4446ZM18.5515 42.9127H14.4172V48.0314H18.5515V42.9127ZM29.9702 42.9127H20.5203V48.0314H29.9702V42.9127ZM31.9389 42.9127V48.0314H36.0732V42.9127H31.9389ZM33.1201 38.9752H17.3703V40.9439H33.1201V38.9752Z" fill="#BF9444"/>
</g>
<defs>
<clipPath id="clip0_276_546">
<rect width="50" height="50" fill="white"/>
</clipPath>
</defs>
</svg>
