<svg width="42" height="42" viewBox="0 0 42 42" fill="none" xmlns="http://www.w3.org/2000/svg">
<mask id="mask0_548_202" style="mask-type:alpha" maskUnits="userSpaceOnUse" x="0" y="0" width="42" height="42">
<circle cx="21" cy="21" r="21" fill="#D9D9D9"/>
</mask>
<g mask="url(#mask0_548_202)">
<path d="M21 42C9.42064 42 0 32.5794 0 21C0 9.42057 9.42064 0 21 0C32.5795 0 42 9.42057 42 21C42 32.5794 32.5795 42 21 42Z" fill="url(#paint0_linear_548_202)"/>
<path d="M20.9999 41.2787C32.1997 41.2787 41.2789 32.1995 41.2789 20.9997C41.2789 9.79993 32.1997 0.720703 20.9999 0.720703C9.80015 0.720703 0.720947 9.79993 0.720947 20.9997C0.720947 32.1995 9.80015 41.2787 20.9999 41.2787Z" fill="url(#paint1_linear_548_202)"/>
<path d="M21 40.5582C10.2156 40.5582 1.44214 31.7846 1.44214 21.0003C1.44214 10.216 10.2157 1.44238 21 1.44238C31.7842 1.44238 40.5579 10.216 40.5579 21.0003C40.5579 31.7846 31.7842 40.5582 21 40.5582Z" fill="url(#paint2_linear_548_202)"/>
<path d="M18.3948 35.7621C17.3674 35.7622 16.4118 35.3011 15.7729 34.4969C15.2694 33.8633 14.5201 33.5016 13.7144 33.5016C12.1261 33.5018 10.7837 32.429 10.4364 30.8931C10.2569 30.1001 9.7365 29.4479 9.00707 29.0991C7.58198 28.4175 6.83449 26.867 7.18898 25.3283C7.37064 24.5391 7.18567 23.7267 6.68178 23.0965C5.6932 21.8595 5.6932 20.1408 6.67659 18.9104C7.18558 18.2736 7.37064 17.4611 7.18951 16.6749C6.83538 15.1374 7.57796 13.5911 8.99483 12.907L9.00707 12.9011C9.73641 12.5523 10.2569 11.9001 10.4354 11.1114C10.7837 9.57128 12.126 8.49861 13.7008 8.49861C14.5202 8.49861 15.2696 8.13689 15.7706 7.50619C16.4117 6.69946 17.3672 6.23828 18.3946 6.23828C18.9037 6.23828 19.3946 6.35132 19.854 6.574C20.209 6.7462 20.6051 6.83708 20.9998 6.83708C21.3943 6.83708 21.7906 6.74611 22.1457 6.57391C22.6048 6.35123 23.0957 6.23828 23.6048 6.23828C24.6321 6.23828 25.5878 6.69937 26.2267 7.50342C26.7301 8.13707 27.4796 8.49879 28.2852 8.49879C29.8735 8.4987 31.2159 9.57137 31.5633 11.1073C31.7426 11.9002 32.2632 12.5525 32.9926 12.9012C34.4176 13.5828 35.1652 15.1333 34.8108 16.6721C34.6291 17.4612 34.8141 18.2736 35.3179 18.9039C36.3066 20.1409 36.3066 21.8595 35.3231 23.0899C34.8141 23.7269 34.629 24.5392 34.8101 25.3254C35.1642 26.8631 34.4217 28.4096 33.0044 29.0936L32.9926 29.0993C32.2632 29.448 31.7426 30.1003 31.5643 30.8888C31.216 32.429 29.8737 33.5017 28.2989 33.5017C27.4795 33.5017 26.7301 33.8634 26.229 34.4942C25.588 35.3009 24.6325 35.7621 23.6051 35.7621C23.0961 35.7621 22.6051 35.6491 22.1457 35.4264C21.7907 35.2542 21.3945 35.1633 21 35.1633C20.6053 35.1633 20.2091 35.2542 19.854 35.4265C19.3949 35.6491 18.9041 35.7621 18.3948 35.7621Z" fill="url(#paint3_linear_548_202)"/>
<path d="M35.0418 22.8647L35.0364 22.8713C34.4669 23.5837 34.2543 24.5173 34.4589 25.4062L34.4596 25.4092C34.7735 26.7721 34.0996 28.1702 32.8378 28.7736L32.8373 28.7739C32.013 29.1681 31.4144 29.918 31.2129 30.8092L31.2119 30.8134C30.9037 32.1758 29.6923 33.1425 28.2956 33.1409H28.2886C27.3766 33.1399 26.5141 33.5556 25.9468 34.2696L25.9447 34.2724C25.0748 35.3674 23.5615 35.7121 22.3032 35.1018C21.4803 34.7027 20.5198 34.7027 19.6968 35.1018C18.4385 35.7121 16.9252 35.3674 16.0553 34.2725L16.0531 34.2696C15.4857 33.5556 14.6233 33.1399 13.7114 33.1409H13.7044C12.3075 33.1425 11.0962 32.1758 10.7881 30.8133L10.7871 30.8091C10.5855 29.9178 9.98705 29.1679 9.16262 28.7738L9.16218 28.7735C7.90052 28.1701 7.22649 26.7719 7.54041 25.4091L7.54112 25.4062C7.74584 24.5173 7.53308 23.5837 6.96369 22.8713L6.95832 22.8647C6.08681 21.7743 6.08681 20.2257 6.95832 19.1354L6.96369 19.1287C7.53317 18.4163 7.74584 17.4827 7.54112 16.5938L7.54041 16.5909C7.22649 15.228 7.90052 13.8298 9.16218 13.2264L9.1628 13.2261C9.98714 12.832 10.5857 12.0821 10.7873 11.1908L10.7882 11.1866C11.0963 9.82416 12.3077 8.85748 13.7045 8.859L13.7115 8.85909C14.6235 8.86016 15.4859 8.44437 16.0532 7.7304L16.0554 7.72763C16.9253 6.63262 18.4386 6.28797 19.6968 6.8982C20.5198 7.29727 21.4804 7.29727 22.3033 6.8982C23.5616 6.28788 25.0749 6.63262 25.9448 7.72754L25.947 7.7304C26.5143 8.44446 27.3767 8.86016 28.2887 8.85909H28.2957C29.6925 8.85748 30.9039 9.82425 31.2121 11.1866L31.2129 11.1909C31.4145 12.0821 32.0131 12.8321 32.8374 13.2262L32.8379 13.2265C34.0997 13.8299 34.7737 15.2281 34.4597 16.591L34.4591 16.5938C34.2544 17.4826 34.467 18.4163 35.0365 19.1287L35.0419 19.1354C35.9133 20.2256 35.9133 21.7742 35.0418 22.8647Z" fill="url(#paint4_linear_548_202)"/>
<path d="M18.3949 34.6801C17.6993 34.6801 17.0523 34.368 16.6198 33.8238C15.9102 32.9304 14.852 32.4197 13.7145 32.4197L13.695 32.4199C12.6351 32.4198 11.7265 31.6937 11.4913 30.6541C11.2386 29.5364 10.5034 28.6154 9.47374 28.1231C8.50893 27.6617 8.00307 26.6122 8.243 25.5707C8.49928 24.4577 8.23808 23.3107 7.52679 22.4208C6.85588 21.5814 6.85588 20.4182 7.52152 19.5854C8.23808 18.6889 8.49919 17.5419 8.24353 16.4318C8.00316 15.3873 8.50893 14.3378 9.4732 13.8767L9.5001 13.8636C10.516 13.3682 11.2408 12.4535 11.4904 11.3497C11.7266 10.3058 12.6352 9.57976 13.7009 9.57976C14.8521 9.57976 15.9102 9.06898 16.6176 8.17852C17.0522 7.63156 17.6992 7.31934 18.3949 7.31934C18.7391 7.31934 19.0711 7.39574 19.3821 7.54666C19.8835 7.78972 20.4429 7.91813 21 7.91813C21.557 7.91813 22.1165 7.78972 22.6178 7.54666C22.9289 7.39583 23.2609 7.31934 23.6051 7.31934C24.3008 7.31934 24.9478 7.63156 25.3802 8.17566C26.09 9.06916 27.1482 9.57976 28.2855 9.57976L28.305 9.57958C29.365 9.57967 30.2736 10.3057 30.5088 11.3452C30.7616 12.4629 31.4965 13.3839 32.5263 13.8763C33.491 14.3377 33.9969 15.3872 33.757 16.4288C33.5008 17.5417 33.762 18.6886 34.4733 19.5785C35.1442 20.4179 35.1442 21.5811 34.4785 22.4139C33.762 23.3105 33.5007 24.4575 33.7564 25.5675C33.9969 26.612 33.4911 27.6615 32.5268 28.1226L32.4999 28.1357C31.4838 28.6311 30.7592 29.5458 30.5097 30.6497C30.2735 31.6935 29.3649 32.4195 28.2991 32.4195C27.1479 32.4195 26.0899 32.9303 25.3823 33.8208C24.9479 34.3677 24.3007 34.6799 23.6052 34.6799C23.261 34.6799 22.9289 34.6035 22.6179 34.4526C22.1166 34.2096 21.5571 34.0812 21.0001 34.0812C20.443 34.0812 19.8836 34.2096 19.3823 34.4526C19.0713 34.6037 18.7392 34.6801 18.3949 34.6801Z" fill="url(#paint5_linear_548_202)"/>
<path d="M18.5481 17.6895C18.6376 17.9237 18.724 18.1591 18.8034 18.3973H21.0001H23.1969C23.2763 18.1591 23.3627 17.9237 23.4522 17.6895H18.5481Z" fill="url(#paint6_linear_548_202)"/>
<path d="M25.0648 14.5004C24.4815 15.4068 23.9835 16.366 23.5791 17.3634H21.8729C21.5556 17.208 21.2611 17.0079 20.9999 16.7696C20.7388 17.008 20.4442 17.2081 20.1269 17.3634H18.4207C18.0164 16.3659 17.5184 15.4067 16.9351 14.5004C16.9872 14.4663 17.0335 14.4239 17.0718 14.3751L17.9463 15.0756C18.9862 15.9071 20.5368 15.314 20.7566 14.0008L20.8859 13.2246C20.9225 13.2311 20.9608 13.2344 20.9997 13.2344C21.0389 13.2344 21.077 13.231 21.1136 13.2246L21.243 14.0008C21.4627 15.314 23.0134 15.9071 24.0532 15.0756L24.9277 14.3751C24.9663 14.4239 25.0127 14.4663 25.0648 14.5004Z" fill="url(#paint7_linear_548_202)"/>
<path d="M21.5332 12.5387C21.5332 12.8032 21.3404 13.0229 21.0873 13.0643C21.0589 13.0692 21.0303 13.0716 21.0002 13.0716C20.9701 13.0716 20.9417 13.0692 20.9132 13.0643C20.6601 13.0229 20.4673 12.8032 20.4673 12.5387C20.4673 12.2442 20.7057 12.0059 21.0002 12.0059C21.2948 12.0059 21.5332 12.2443 21.5332 12.5387Z" fill="url(#paint8_linear_548_202)"/>
<path d="M25.8273 14.0029C25.8273 14.2429 25.6336 14.4366 25.3936 14.4366C25.3042 14.4366 25.222 14.4105 25.1536 14.3642C25.1162 14.3398 25.0828 14.3088 25.0551 14.2738C24.9949 14.1999 24.96 14.1063 24.96 14.0029C24.96 13.7629 25.1536 13.5693 25.3936 13.5693C25.6336 13.5692 25.8273 13.7629 25.8273 14.0029Z" fill="url(#paint9_linear_548_202)"/>
<path d="M17.0403 14.0029C17.0403 14.1062 17.0052 14.1999 16.9451 14.2738C16.9174 14.3089 16.884 14.3398 16.8466 14.3642C16.7783 14.4106 16.696 14.4366 16.6065 14.4366C16.3665 14.4366 16.1729 14.2429 16.1729 14.0029C16.1729 13.7629 16.3665 13.5693 16.6065 13.5693C16.8466 13.5692 17.0403 13.7629 17.0403 14.0029Z" fill="url(#paint10_linear_548_202)"/>
<path d="M13.8198 19.6479C15.0166 19.593 16.2132 19.5562 17.41 19.5374C18.6067 19.5148 19.8034 19.5087 21.0001 19.5059C22.1968 19.5084 23.3935 19.5144 24.5902 19.537C25.787 19.5556 26.9836 19.5927 28.1804 19.6479C26.9837 19.7033 25.787 19.7403 24.5902 19.7589C23.3935 19.7815 22.1968 19.7876 21.0001 19.7901C19.8034 19.7873 18.6067 19.7812 17.41 19.7585C16.2132 19.7398 15.0166 19.7029 13.8198 19.6479Z" fill="#4D2D0B"/>
<path d="M15.5919 28.0858C15.5955 28.2192 15.6676 28.2589 15.7938 28.2444C15.9525 28.2263 16.1508 28.0713 16.2157 28.0209C16.0716 28.2625 15.7938 28.4139 15.6604 28.4247C15.3755 28.45 15.3179 28.2336 15.3179 28.0893C15.3323 27.2023 16.771 25.6733 18.0332 25.6517C18.5199 25.6409 18.9382 25.8753 18.9347 26.4342C18.9238 27.2852 17.9827 28.2876 17.2542 28.7744C18.1016 29.0881 18.6316 29.6001 18.6713 29.7804C18.6821 29.8418 18.2278 29.171 17.0198 28.9114C16.6592 29.1096 16.2229 29.2756 15.7794 29.2828C15.646 29.2864 15.3936 29.2611 15.3972 29.0484C15.4008 28.8429 15.747 28.5869 16.2193 28.5797C16.4753 28.5724 16.7097 28.6122 16.9225 28.6698C17.7591 28.1109 18.6857 26.9354 18.6929 26.2791C18.6965 25.886 18.4334 25.7454 18.098 25.7526C17.0235 25.7744 15.6063 27.2889 15.5919 28.0858ZM16.6592 28.8466C16.5223 28.8323 16.3997 28.8215 16.2735 28.8215C15.9345 28.8287 15.4874 28.9007 15.4874 29.0667C15.4874 29.1821 15.6821 29.1964 15.765 29.1964C16.0823 29.1893 16.3635 29.0306 16.6592 28.8466Z" fill="#4D2D0B"/>
<path d="M19.5721 27.7575C19.2079 28.1289 18.7247 28.6481 18.5083 28.6915C18.5011 28.6915 18.4795 28.6915 18.4795 28.6915C18.4218 28.6915 18.3101 28.5941 18.3101 28.5075C18.3101 28.3525 18.5083 27.9883 18.7139 27.7034C18.8401 27.5267 18.9915 27.3536 19.0817 27.2815C19.0997 27.2635 19.1213 27.2599 19.1322 27.2599C19.2187 27.2599 19.3593 27.4006 19.3593 27.4943C19.3593 27.5087 19.3449 27.4907 19.3125 27.4871C19.2582 27.4798 19.107 27.6674 18.9844 27.826C18.8003 28.0676 18.6201 28.3814 18.6201 28.4859C18.7933 28.4137 19.161 28.0892 19.3341 27.9233C19.5216 27.7394 19.7884 27.4258 19.9939 27.2671C20.012 27.2527 20.03 27.249 20.0444 27.249C20.131 27.249 20.268 27.3897 20.268 27.4797C20.268 27.4942 20.2572 27.4762 20.2247 27.4725C20.1995 27.4725 20.1526 27.5049 20.1057 27.5555C20.0517 27.6132 19.9507 27.743 19.8317 27.9017C19.6514 28.1433 19.518 28.3992 19.518 28.5003C19.7452 28.4317 20.2572 27.9413 20.4772 27.7322C20.4988 27.7141 20.5169 27.743 20.506 27.7539C20.1922 28.0964 19.6044 28.6986 19.3881 28.6986C19.3701 28.6986 19.3485 28.6914 19.3304 28.677C19.2727 28.6481 19.2006 28.5652 19.2006 28.5003C19.2006 28.4642 19.2222 28.3993 19.2403 28.3452C19.3017 28.1793 19.4387 27.9233 19.5721 27.7575Z" fill="#4D2D0B"/>
<path d="M21.1511 27.9846C21.0429 28.0928 20.3397 28.6986 20.1883 28.6986C20.1811 28.6986 20.1632 28.6914 20.1559 28.6878C20.091 28.6554 19.9973 28.5183 19.9973 28.4462C19.9973 28.0531 20.8231 27.249 21.4865 27.249C21.6236 27.249 21.8039 27.3067 21.8039 27.4762C21.8039 27.5375 21.7714 27.5988 21.7353 27.6457C21.7281 27.6493 21.7209 27.6457 21.7245 27.6421C21.7426 27.6096 21.7642 27.5664 21.7642 27.5123C21.7642 27.4041 21.6956 27.35 21.5874 27.3572C21.3783 27.368 21.115 27.5195 20.8806 27.7178C20.5381 28.0099 20.2677 28.4643 20.3001 28.4824C20.3073 28.4859 20.3145 28.4859 20.3253 28.4824C20.4444 28.4427 20.9492 28.0785 21.1366 27.9198C21.2016 27.8621 21.436 27.635 21.5262 27.5845C21.5983 27.5485 21.7208 27.7468 21.7064 27.79C21.6883 27.754 21.3639 28.1471 21.2557 28.3778C21.234 28.4283 21.2196 28.4715 21.2196 28.5004C21.4468 28.4354 21.9624 27.9414 22.186 27.7323C22.204 27.7142 22.222 27.7431 22.2112 27.754C21.8975 28.0965 21.3097 28.6987 21.0934 28.6987C21.0753 28.6987 21.0574 28.6915 21.032 28.6771C20.9815 28.6482 20.913 28.5725 20.913 28.5076C20.913 28.4715 20.9274 28.4283 20.9418 28.3742C20.9852 28.2407 21.0827 28.0748 21.1511 27.9846Z" fill="#4D2D0B"/>
<path d="M23.0041 26.4232C23.1123 26.2825 23.2133 26.1672 23.3033 26.095C23.3574 26.0517 23.4043 26.0229 23.4367 26.0229C23.6387 26.0121 23.7829 26.2212 23.7144 26.1816C23.5881 26.1238 23.3538 26.4628 23.1952 26.6575C23.0402 26.8559 22.8923 27.0686 22.7119 27.3319C22.3983 27.8079 22.1278 28.2659 22.0413 28.4966C22.1963 28.5146 22.795 27.9268 23.0076 27.732C23.0293 27.714 23.0436 27.7428 23.0328 27.7537C22.8562 27.9556 22.2287 28.612 22.0124 28.6913C21.9655 28.7094 21.9294 28.6949 21.897 28.6768C21.8681 28.6624 21.7888 28.5867 21.7672 28.5326C21.7636 28.5254 21.7563 28.5181 21.7563 28.4786C21.7563 28.3704 21.9222 28.0207 22.3621 27.3319C22.5857 26.9821 22.8165 26.6683 23.0041 26.4232Z" fill="#4D2D0B"/>
<path d="M22.7191 28.6953C22.6614 28.6772 22.5713 28.5871 22.5713 28.5221C22.5713 28.313 23.0941 27.5269 23.3249 27.343C23.3429 27.325 23.3646 27.3214 23.379 27.3214C23.4619 27.3214 23.6062 27.4655 23.6062 27.5558C23.6062 27.5703 23.5881 27.5521 23.5593 27.5486C23.4115 27.5341 22.9175 28.3563 22.8741 28.5041C23.0941 28.4464 23.6206 27.9452 23.8405 27.7325C23.8658 27.7144 23.8837 27.7433 23.873 27.7542C23.5592 28.0931 22.9858 28.6809 22.7622 28.6989C22.7479 28.6989 22.737 28.6989 22.7191 28.6953ZM23.9235 26.8852C23.9559 26.9212 23.9775 26.9752 23.9631 26.9752C23.9559 26.9752 23.927 26.9607 23.8874 26.9788C23.8261 27.004 23.6601 27.1518 23.617 27.2132C23.5665 27.2781 23.4908 27.2024 23.4871 27.1374C23.4836 27.0329 23.6205 26.7985 23.7144 26.7696C23.7973 26.759 23.8766 26.831 23.9235 26.8852Z" fill="#4D2D0B"/>
<path d="M24.9834 26.095C25.0375 26.0517 25.0844 26.0229 25.1168 26.0229C25.3188 26.0121 25.463 26.2212 25.3944 26.1816C25.279 26.1274 25.0663 26.416 24.9077 26.6215C25.4882 26.5926 26.2491 26.6215 26.7647 26.7296C26.7935 26.7368 26.8079 26.7441 26.7647 26.7404C26.0507 26.6791 25.3908 26.6827 24.7887 26.7729C24.6553 26.9388 24.5363 27.119 24.392 27.3318C24.0782 27.8078 23.8078 28.2658 23.7212 28.4965C23.8763 28.5145 24.4749 27.9267 24.6877 27.7319C24.7092 27.7139 24.7236 27.7428 24.7128 27.7537C24.5361 27.9555 23.9087 28.6119 23.6923 28.6912C23.6456 28.7093 23.6094 28.6948 23.5769 28.6767C23.5481 28.6623 23.4687 28.5866 23.4471 28.5325C23.4435 28.5253 23.4363 28.518 23.4363 28.4785C23.4363 28.3703 23.5986 28.017 24.0421 27.3318C24.1394 27.1839 24.244 27.0252 24.3775 26.8485C24.0349 26.9171 23.8221 27.0902 23.9159 27.1442C23.8582 27.1442 23.7356 27.0758 23.7248 26.9603C23.7103 26.7981 24.107 26.6971 24.5109 26.6503C24.7923 26.2825 24.8933 26.1672 24.9834 26.095Z" fill="#4D2D0B"/>
<path d="M25.6034 28.1072C25.3221 28.457 24.7488 29.4846 24.536 29.885C24.821 29.4919 25.3437 29.0123 25.4483 28.9799C25.4663 28.9799 25.4663 29.0015 25.4663 29.0015C24.9507 29.4127 24.4747 30.1698 24.435 30.343C24.4278 30.3501 24.4134 30.3537 24.3954 30.3537C24.2512 30.3682 24.1971 30.1698 24.2079 30.105C24.2187 29.9968 24.2944 29.8382 24.3593 29.6866C24.5468 29.2756 25.0372 28.32 25.5456 27.7359C25.1814 28.1073 24.6729 28.6481 24.4566 28.6915C24.4458 28.6915 24.4349 28.6915 24.4277 28.6915C24.3701 28.6915 24.2584 28.5941 24.2584 28.5075C24.2584 28.3525 24.4567 27.9883 24.6621 27.7034C24.7847 27.5267 24.9326 27.3644 25.0227 27.2924C25.0408 27.2743 25.0624 27.2707 25.0732 27.2707C25.1597 27.2707 25.2968 27.4114 25.2968 27.5051C25.2968 27.5196 25.2859 27.5015 25.2571 27.4979C25.1993 27.4907 25.0516 27.6638 24.929 27.826C24.7449 28.064 24.5684 28.3814 24.5684 28.4859C24.7413 28.4137 25.1092 28.0892 25.2788 27.9233C25.4698 27.7394 25.7511 27.4293 25.9495 27.2706C25.971 27.2526 25.9855 27.249 26.0035 27.249C26.0866 27.249 26.2272 27.3932 26.2272 27.4834C26.2272 27.4978 26.2127 27.4798 26.1875 27.4762C26.1587 27.4726 26.1117 27.505 26.0613 27.5592C25.9099 27.7178 25.7621 27.9126 25.6034 28.1072Z" fill="#4D2D0B"/>
<path d="M13.4312 24.9495C13.2237 24.9495 13.0301 24.9234 12.8503 24.8715C12.6706 24.8198 12.5185 24.7587 12.394 24.6882L12.2286 24.856H12.0251L11.9939 23.6271H12.2C12.2462 23.7438 12.3054 23.867 12.3772 23.9968C12.449 24.1265 12.532 24.2425 12.6264 24.345C12.7238 24.4522 12.8328 24.5394 12.9533 24.6066C13.0739 24.6738 13.2149 24.7074 13.3761 24.7074C13.5933 24.7074 13.7598 24.6543 13.8757 24.5481C13.9913 24.4418 14.0492 24.3078 14.0492 24.1465C14.0492 24.0137 14.0001 23.9023 13.9019 23.812C13.8036 23.7216 13.6516 23.6437 13.4457 23.5779C13.3115 23.5346 13.1881 23.4944 13.0754 23.4577C12.9629 23.4207 12.857 23.3831 12.758 23.3445C12.5297 23.2533 12.36 23.123 12.2489 22.9535C12.1379 22.784 12.0825 22.5946 12.0825 22.3851C12.0825 22.2524 12.1113 22.1248 12.1688 22.0025C12.2263 21.8801 12.31 21.7702 12.4202 21.6727C12.5257 21.5816 12.6607 21.5071 12.8251 21.4495C12.9895 21.392 13.1685 21.3633 13.3618 21.3633C13.5502 21.3633 13.7267 21.3896 13.8912 21.4423C14.0558 21.4949 14.185 21.5477 14.2793 21.6004L14.4254 21.4568H14.6339L14.6531 22.6161H14.4469C14.3991 22.4913 14.3427 22.3637 14.2781 22.2332C14.2135 22.1025 14.1452 21.9942 14.0732 21.9077C13.995 21.8149 13.9047 21.7407 13.8026 21.6855C13.7003 21.6304 13.5805 21.6028 13.4431 21.6028C13.2706 21.6028 13.1298 21.6516 13.0204 21.749C12.911 21.8467 12.8563 21.9675 12.8563 22.1115C12.8563 22.2474 12.9037 22.3586 12.9989 22.4449C13.0937 22.5313 13.2421 22.6073 13.4432 22.6728C13.5615 22.713 13.682 22.7529 13.805 22.7929C13.9281 22.8329 14.0374 22.8712 14.1333 22.908C14.3648 22.9977 14.5409 23.1212 14.6615 23.2785C14.782 23.4361 14.8423 23.6317 14.8423 23.8651C14.8423 24.0122 14.808 24.1547 14.7394 24.2921C14.6706 24.4296 14.5779 24.544 14.4614 24.6352C14.3336 24.7359 14.186 24.8135 14.0182 24.8678C13.8505 24.9222 13.6548 24.9495 13.4312 24.9495Z" fill="url(#paint11_linear_548_202)"/>
<path d="M19.1041 21.6439C19.0576 21.6486 18.9911 21.6595 18.904 21.6762C18.817 21.6929 18.744 21.7222 18.6848 21.7637C18.6241 21.8035 18.5814 21.8755 18.5567 21.9792C18.5319 22.0831 18.5195 22.2388 18.5195 22.4464V23.7114C18.5195 24.0835 18.3933 24.383 18.1411 24.6097C17.8887 24.8366 17.5549 24.95 17.1396 24.95C16.6558 24.95 16.2812 24.8404 16.0161 24.6217C15.7509 24.4029 15.6184 24.098 15.6184 23.7066V21.9673C15.6184 21.9115 15.6077 21.8635 15.5862 21.8237C15.5646 21.7837 15.5234 21.7478 15.4628 21.7157C15.4213 21.6951 15.3701 21.6782 15.3095 21.6656C15.2487 21.6527 15.1993 21.644 15.1609 21.6391V21.4571H16.9432V21.6391C16.8922 21.6424 16.8403 21.6483 16.7877 21.6571C16.7348 21.666 16.6813 21.6791 16.6271 21.6967C16.5663 21.7157 16.5257 21.7477 16.5049 21.7925C16.4842 21.8372 16.4737 21.8875 16.4737 21.9433V23.6586C16.4737 23.9956 16.5478 24.2407 16.6962 24.394C16.8444 24.5473 17.0597 24.6241 17.3421 24.6241C17.6197 24.6241 17.8373 24.5394 17.9953 24.37C18.1532 24.2009 18.2321 23.9516 18.2321 23.6226V22.4703C18.2321 22.2659 18.2181 22.1129 18.1902 22.0115C18.1623 21.9101 18.1195 21.8371 18.062 21.7924C18.0205 21.7572 17.9482 21.7253 17.8451 21.6966C17.7422 21.6677 17.6698 21.6503 17.6283 21.6438V21.457H19.1041V21.6439Z" fill="url(#paint12_linear_548_202)"/>
<path d="M22.4652 22.3073C22.4652 22.499 22.4258 22.6639 22.3468 22.802C22.2677 22.9401 22.1586 23.0523 22.0198 23.1386C21.8761 23.2279 21.7119 23.2928 21.5274 23.3328C21.3431 23.3725 21.1357 23.3926 20.9058 23.3926H20.6278V24.3485C20.6278 24.4059 20.6386 24.4559 20.6603 24.4981C20.6817 24.5405 20.7229 24.5745 20.7837 24.6C20.8155 24.6129 20.8675 24.6264 20.9392 24.6407C21.0113 24.6552 21.0718 24.6647 21.1214 24.6694V24.8563H19.2791V24.6694C19.3254 24.6647 19.387 24.658 19.4636 24.6491C19.5402 24.6403 19.5938 24.6295 19.6241 24.6167C19.6863 24.5911 19.7274 24.56 19.7475 24.5232C19.7674 24.4866 19.7774 24.4354 19.7774 24.3699V21.972C19.7774 21.9161 19.7679 21.8678 19.7487 21.827C19.7296 21.7863 19.688 21.7524 19.6241 21.7252C19.5794 21.7061 19.5199 21.6889 19.4456 21.6736C19.3714 21.6585 19.3159 21.6484 19.2791 21.6438V21.457H21.1549C21.5941 21.457 21.9224 21.5269 22.1396 21.6665C22.3567 21.8062 22.4652 22.0198 22.4652 22.3073ZM21.5311 22.4294C21.5311 22.1739 21.4795 21.9842 21.3766 21.8605C21.2736 21.7367 21.0904 21.6747 20.8268 21.6747H20.6278V23.1674H20.7285C20.9905 23.1674 21.1898 23.107 21.3262 22.9864C21.4628 22.8659 21.5311 22.6802 21.5311 22.4294Z" fill="url(#paint13_linear_548_202)"/>
<path d="M25.7328 22.3241H25.5508C25.5045 22.1952 25.4246 22.0648 25.3112 21.9328C25.1978 21.8006 25.0852 21.7226 24.9734 21.6988C24.9255 21.6876 24.8589 21.6809 24.7734 21.6784C24.6879 21.6761 24.6173 21.6748 24.5614 21.6748H24.0679V22.9852H24.4176C24.5055 22.9852 24.5853 22.9749 24.6573 22.9541C24.7291 22.9335 24.7945 22.8935 24.8537 22.8343C24.8903 22.7975 24.9274 22.733 24.9649 22.6403C25.0025 22.5476 25.0269 22.467 25.0379 22.3983H25.2201V23.8166H25.0379C25.0284 23.7495 25.0042 23.6653 24.9649 23.5638C24.9258 23.4625 24.8887 23.3925 24.8537 23.3542C24.8009 23.2967 24.7386 23.2572 24.6667 23.2355C24.5949 23.2141 24.5119 23.2034 24.4176 23.2034H24.0679V24.1832C24.0679 24.2855 24.0755 24.3664 24.0906 24.4262C24.1058 24.4861 24.1341 24.532 24.1756 24.564C24.2156 24.5943 24.2703 24.6142 24.3397 24.6239C24.4092 24.6334 24.5039 24.6384 24.6237 24.6384C24.6796 24.6384 24.7467 24.6375 24.8249 24.6359C24.9032 24.6343 24.9719 24.6295 25.031 24.6214C25.0981 24.6135 25.1607 24.6015 25.219 24.5855C25.2772 24.5697 25.3208 24.5464 25.3496 24.5161C25.4261 24.4378 25.5124 24.3185 25.6081 24.1579C25.704 23.9974 25.7671 23.8773 25.7976 23.7974H25.9724L25.9077 24.8562H22.719V24.6693C22.7638 24.6661 22.8245 24.6598 22.901 24.6503C22.9777 24.6406 23.032 24.6295 23.0638 24.6167C23.1246 24.5911 23.1654 24.5588 23.1862 24.5197C23.2067 24.4807 23.2172 24.4306 23.2172 24.37V21.9721C23.2172 21.9145 23.2085 21.867 23.191 21.8295C23.1734 21.7919 23.1311 21.758 23.0638 21.7275C23.0223 21.7085 22.964 21.6909 22.889 21.6749C22.8139 21.6589 22.7573 21.6485 22.719 21.6438V21.457H25.7327V22.3241H25.7328Z" fill="url(#paint14_linear_548_202)"/>
<path d="M30.1602 24.8562H28.8556C28.6306 24.5111 28.4435 24.2365 28.2942 24.032C28.1449 23.8276 27.9596 23.5912 27.7376 23.3229H27.6063V24.3556C27.6063 24.4129 27.6171 24.4617 27.6387 24.5017C27.6601 24.5416 27.7013 24.575 27.7621 24.6022C27.7924 24.6151 27.8398 24.6283 27.9047 24.6418C27.9693 24.6554 28.0248 24.6645 28.071 24.6693V24.8562H26.2576V24.6693C26.3038 24.6646 26.3649 24.6579 26.4408 24.649C26.5167 24.6402 26.5705 24.6294 26.6026 24.6166C26.6633 24.591 26.704 24.5587 26.7247 24.5196C26.7455 24.4806 26.7559 24.4305 26.7559 24.3699V21.972C26.7559 21.9144 26.7472 21.8666 26.7296 21.8282C26.712 21.7898 26.6697 21.7564 26.6026 21.7275C26.5516 21.707 26.4912 21.6893 26.4219 21.6749C26.3524 21.6605 26.2975 21.6503 26.2577 21.6438V21.457H28.1646C28.5911 21.457 28.9149 21.5238 29.1361 21.657C29.3572 21.7904 29.468 21.992 29.468 22.2619C29.468 22.4999 29.3996 22.6913 29.2631 22.8357C29.1264 22.9802 28.9184 23.0933 28.6391 23.1746C28.7476 23.3152 28.8743 23.4782 29.0188 23.6635C29.1632 23.8486 29.3138 24.0379 29.4703 24.2312C29.5198 24.2935 29.5874 24.3697 29.6728 24.46C29.7581 24.5502 29.8336 24.6058 29.8991 24.6265C29.9359 24.6377 29.9826 24.6473 30.0392 24.6552C30.0959 24.663 30.1362 24.6681 30.1603 24.6695V24.8562H30.1602ZM28.5287 22.3287C28.5287 22.1019 28.4652 21.9364 28.3382 21.8315C28.2113 21.727 28.0304 21.6747 27.7955 21.6747H27.6063V23.0977H27.7885C28.0231 23.0977 28.2053 23.0363 28.3345 22.9133C28.4639 22.7903 28.5287 22.5956 28.5287 22.3287Z" fill="url(#paint15_linear_548_202)"/>
<path d="M11.0065 6.9844C11.0647 6.9953 11.1174 7.01594 11.1643 7.04605C11.2111 7.07635 11.2557 7.11906 11.298 7.17437C11.3987 7.30627 11.4329 7.45192 11.4006 7.61196C11.3686 7.77183 11.2803 7.90685 11.1358 8.01703C11.0693 8.06787 10.9949 8.10853 10.9125 8.13847C10.8301 8.16894 10.7535 8.18743 10.6826 8.19503L10.696 8.30646L10.612 8.37053L10.2072 7.87093L10.2924 7.80596C10.3579 7.85556 10.4219 7.89693 10.4842 7.9299C10.5465 7.96261 10.6137 7.98638 10.686 8.00121C10.7541 8.01453 10.8218 8.01506 10.8891 8.00246C10.9567 7.98995 11.0226 7.95876 11.0871 7.90971C11.1354 7.87271 11.1728 7.8342 11.1993 7.7939C11.2257 7.75395 11.2414 7.71365 11.2461 7.67335C11.2508 7.63305 11.2467 7.59329 11.2337 7.55343C11.2206 7.51403 11.1986 7.47381 11.1675 7.43325C11.1221 7.37355 11.0627 7.33084 10.9897 7.30493C10.9167 7.27901 10.8367 7.27803 10.7498 7.30251C10.6903 7.31887 10.6226 7.33879 10.5471 7.36185C10.4714 7.3849 10.4047 7.40268 10.3471 7.41582C10.2341 7.44218 10.1309 7.44254 10.0374 7.41689C9.94405 7.39116 9.85978 7.32887 9.78419 7.22995C9.74094 7.17321 9.71198 7.11146 9.69778 7.04489C9.6833 6.97814 9.68285 6.90916 9.69608 6.83794C9.70904 6.77074 9.73522 6.70542 9.7748 6.64242C9.81439 6.57942 9.86425 6.525 9.92466 6.47907C9.99337 6.42662 10.0628 6.38998 10.1332 6.36952C10.2035 6.34923 10.272 6.3361 10.3382 6.32957L10.3267 6.2252L10.4108 6.16113L10.7972 6.64984L10.7122 6.7148C10.6533 6.66994 10.5946 6.62875 10.5357 6.59157C10.4767 6.5544 10.4159 6.52661 10.3529 6.50811C10.2917 6.49051 10.2302 6.48613 10.1682 6.49507C10.1064 6.50427 10.0439 6.53287 9.98069 6.58094C9.91411 6.63179 9.87372 6.69639 9.85943 6.77503C9.84504 6.85357 9.86139 6.92381 9.90857 6.98556C9.9579 7.04981 10.0137 7.09189 10.0762 7.1112C10.1389 7.13077 10.2092 7.13202 10.2875 7.1154C10.3573 7.10074 10.4238 7.08376 10.487 7.06366C10.55 7.04391 10.6125 7.02666 10.6741 7.01156C10.7301 6.99762 10.7864 6.98761 10.843 6.98091C10.8996 6.97412 10.9541 6.97546 11.0065 6.9844Z" fill="url(#paint16_linear_548_202)"/>
<path d="M12.2463 5.52995C12.298 5.61288 12.3276 5.69688 12.335 5.78096C12.3423 5.86523 12.3301 5.94628 12.2986 6.02429C12.268 6.10158 12.2245 6.1711 12.1685 6.23303C12.1126 6.29487 12.0465 6.34955 11.9701 6.39709L11.7916 6.50834L12.0925 6.99124C12.1088 7.01733 12.1275 7.03788 12.1485 7.05218C12.1694 7.06666 12.1967 7.07086 12.2302 7.06451C12.2468 7.06139 12.2736 7.05129 12.3104 7.03458C12.3473 7.01787 12.38 7.00116 12.4091 6.98409L12.4588 7.0638L11.7751 7.49004L11.7254 7.41033C11.7425 7.39746 11.7669 7.37879 11.7986 7.35386C11.8302 7.32884 11.8511 7.30909 11.8607 7.29488C11.8771 7.27093 11.8845 7.24663 11.8829 7.22169C11.8814 7.19685 11.8716 7.1696 11.8534 7.14056L11.1367 5.99105C11.1203 5.96468 11.1019 5.94368 11.0815 5.92733C11.061 5.91089 11.0335 5.90615 10.9992 5.91303C10.9649 5.9209 10.9323 5.93171 10.9015 5.94503C10.8709 5.95843 10.845 5.97058 10.8239 5.98166L10.7742 5.90195L11.5016 5.44864C11.6498 5.35624 11.7924 5.31692 11.9294 5.33086C12.0665 5.34462 12.1721 5.41102 12.2463 5.52995ZM12.0742 6.01419C12.0774 5.96263 12.071 5.91473 12.0551 5.87113C12.0395 5.82743 12.0219 5.79034 12.0027 5.75952C11.9763 5.71689 11.9442 5.67677 11.9064 5.6387C11.8689 5.6009 11.8275 5.57338 11.7821 5.5556C11.7342 5.53674 11.6827 5.53094 11.628 5.53817C11.5731 5.54523 11.5139 5.56865 11.4503 5.60841L11.2922 5.70697L11.7308 6.41076L11.8452 6.33928C11.9262 6.28897 11.9839 6.23562 12.0189 6.17897C12.0538 6.12249 12.0723 6.06771 12.0742 6.01419Z" fill="url(#paint17_linear_548_202)"/>
<path d="M14.319 5.45557L14.5297 5.96822L13.1297 6.65226L13.0884 6.56773C13.1114 6.55459 13.1415 6.53591 13.1786 6.51125C13.2157 6.48677 13.2388 6.46881 13.248 6.45737C13.2675 6.43306 13.2776 6.40911 13.2782 6.38517C13.2789 6.3614 13.2721 6.33486 13.2577 6.30546L12.6653 5.0933C12.6526 5.06703 12.6368 5.04612 12.6182 5.03004C12.5996 5.01404 12.5733 5.00663 12.5394 5.00752C12.5131 5.0077 12.48 5.01261 12.4399 5.02235C12.3999 5.032 12.3689 5.04112 12.3469 5.05032L12.3057 4.96588L13.6106 4.32812L13.8091 4.73453L13.7199 4.77805C13.6748 4.72559 13.6093 4.67841 13.5234 4.63632C13.4377 4.59441 13.3695 4.58173 13.3189 4.5987C13.2926 4.60764 13.2622 4.61943 13.2274 4.63463C13.1925 4.64973 13.1534 4.66769 13.1099 4.68913L12.8448 4.8187L13.1724 5.4889L13.3625 5.39596C13.4235 5.36621 13.4653 5.33877 13.488 5.3134C13.5104 5.2882 13.5257 5.2571 13.5339 5.21939C13.5401 5.18803 13.54 5.15005 13.5334 5.10581C13.527 5.06122 13.5174 5.02092 13.5047 4.98482L13.5938 4.94139L13.9168 5.60202L13.8277 5.64572C13.8059 5.60926 13.7777 5.57316 13.7432 5.5376C13.7085 5.50212 13.6791 5.47844 13.6549 5.46665C13.6151 5.44788 13.5773 5.44118 13.5413 5.44717C13.5054 5.45297 13.4617 5.46808 13.4101 5.49363L13.2201 5.58639L13.4671 6.0918C13.4917 6.14229 13.5149 6.18071 13.5362 6.20654C13.5577 6.23227 13.5824 6.24755 13.6104 6.25247C13.6383 6.25738 13.6712 6.25336 13.7089 6.24031C13.7468 6.22727 13.7985 6.20475 13.8642 6.17258C13.8904 6.15971 13.9248 6.14282 13.9676 6.12209C14.0104 6.10118 14.0457 6.08197 14.0734 6.06446C14.1021 6.04667 14.1303 6.02559 14.1584 6.00164C14.1864 5.97769 14.2036 5.95517 14.2102 5.93444C14.2279 5.87841 14.238 5.80219 14.2403 5.70523C14.2424 5.60873 14.2403 5.53938 14.2337 5.49747L14.319 5.45557Z" fill="url(#paint18_linear_548_202)"/>
<path d="M15.484 5.66085C15.3788 5.69927 15.2704 5.71527 15.1589 5.70892C15.0473 5.70276 14.94 5.67425 14.8371 5.62341C14.7349 5.57238 14.6416 5.49857 14.5566 5.40233C14.4718 5.30618 14.4036 5.18761 14.3523 5.0466C14.3008 4.90559 14.2757 4.76985 14.2769 4.63939C14.2781 4.50884 14.3016 4.38838 14.3476 4.27766C14.3929 4.16793 14.4587 4.07223 14.545 3.98984C14.6315 3.90781 14.7329 3.84517 14.8495 3.8029C14.9365 3.771 15.0191 3.75322 15.0973 3.74902C15.1754 3.745 15.2535 3.7508 15.3314 3.76644L15.3516 3.66323L15.451 3.62695L15.6915 4.25175L15.5896 4.28892C15.554 4.23263 15.5098 4.17329 15.4571 4.1111C15.4046 4.04935 15.3513 3.99985 15.2976 3.96321C15.2374 3.9213 15.1741 3.89431 15.1078 3.88243C15.0417 3.87046 14.9734 3.87734 14.903 3.9028C14.8228 3.9322 14.7546 3.97724 14.6986 4.03818C14.6425 4.09895 14.6019 4.17338 14.5768 4.2614C14.5533 4.34611 14.5467 4.44539 14.5572 4.55897C14.5678 4.67254 14.5964 4.79309 14.6428 4.92069C14.684 5.03373 14.7359 5.13193 14.7989 5.21557C14.8617 5.29921 14.9327 5.36695 15.0118 5.41887C15.0903 5.47007 15.1731 5.50251 15.26 5.51564C15.347 5.52922 15.4351 5.51966 15.5244 5.48678C15.5914 5.46265 15.6492 5.42941 15.6979 5.38768C15.7465 5.34613 15.7851 5.30056 15.8136 5.25051C15.8417 5.19878 15.8632 5.14436 15.8777 5.08645C15.8922 5.02855 15.8994 4.9685 15.8993 4.90657L16.0088 4.91747C16.0014 5.11817 15.9526 5.27741 15.8624 5.39554C15.7724 5.51314 15.6462 5.60152 15.484 5.66085Z" fill="url(#paint19_linear_548_202)"/>
<path d="M17.0903 5.12415L16.2749 5.34684L16.2502 5.25658C16.2726 5.24845 16.3051 5.23684 16.3477 5.22129C16.3901 5.20619 16.4194 5.19278 16.4353 5.18099C16.4603 5.16249 16.4766 5.14176 16.4842 5.11897C16.4917 5.09627 16.4908 5.06813 16.4817 5.03381L16.1231 3.7222C16.1149 3.69245 16.1035 3.66904 16.0887 3.65143C16.074 3.63419 16.0471 3.62346 16.0086 3.61926C15.9803 3.61605 15.9456 3.61524 15.9044 3.61676C15.8633 3.61855 15.8301 3.62168 15.8049 3.62677L15.7803 3.53634L16.5958 3.31348L16.6204 3.40418C16.5943 3.41222 16.5637 3.42392 16.5286 3.43956C16.4935 3.45502 16.4635 3.47075 16.4387 3.48692C16.4092 3.50596 16.3919 3.52829 16.3871 3.55412C16.3825 3.5803 16.3838 3.60729 16.3916 3.63526L16.7496 4.94562C16.7572 4.97359 16.7702 4.99709 16.7886 5.01532C16.8067 5.03363 16.8324 5.04489 16.8657 5.04963C16.8854 5.05151 16.9166 5.05106 16.9593 5.04802C17.0019 5.04543 17.0373 5.04034 17.0656 5.03346L17.0903 5.12415Z" fill="url(#paint20_linear_548_202)"/>
<path d="M19.0017 4.74885L18.2345 4.89021L18.2175 4.79782C18.2843 4.78084 18.3389 4.7619 18.3812 4.74054C18.4235 4.71963 18.4427 4.69952 18.4392 4.68022C18.4377 4.67227 18.4352 4.66297 18.4313 4.65225C18.4275 4.64099 18.4231 4.6317 18.4181 4.62357L18.189 4.23825L17.5411 4.35737C17.528 4.42269 17.5179 4.47916 17.5111 4.52724C17.5042 4.57496 17.4981 4.6191 17.4931 4.6594C17.4885 4.69881 17.4865 4.73071 17.4863 4.75484C17.4863 4.77896 17.4877 4.79871 17.4904 4.81328C17.4968 4.84813 17.5291 4.86975 17.5872 4.87887C17.6453 4.88789 17.709 4.88771 17.7782 4.87851L17.7951 4.97091L17.0999 5.09887L17.083 5.00665C17.1053 5.00066 17.1326 4.99065 17.1648 4.976C17.1971 4.96152 17.2228 4.94544 17.2419 4.92757C17.2724 4.89763 17.2946 4.86823 17.3091 4.83919C17.3234 4.81015 17.3354 4.77119 17.3455 4.72267C17.3957 4.47425 17.4501 4.19527 17.5088 3.886C17.5674 3.57655 17.6199 3.30088 17.6658 3.05934L17.7701 3.04004L18.6784 4.51902C18.6978 4.55038 18.7176 4.57514 18.7379 4.59292C18.7582 4.61052 18.7848 4.62669 18.8179 4.64117C18.8402 4.64984 18.8681 4.65529 18.9017 4.65735C18.9352 4.65976 18.9631 4.6594 18.9849 4.65627L19.0017 4.74885ZM18.1201 4.13111L17.7087 3.46628L17.5651 4.23343L18.1201 4.13111Z" fill="url(#paint21_linear_548_202)"/>
<path d="M20.4835 4.08408L20.4883 4.64364L19.026 4.76034L19.0185 4.6667C19.0395 4.66312 19.0698 4.65758 19.1095 4.64999C19.1493 4.64239 19.1767 4.63462 19.192 4.62622C19.2173 4.61281 19.2351 4.59458 19.2452 4.57144C19.2553 4.54856 19.2592 4.52006 19.2563 4.48574L19.1494 3.14617C19.1471 3.11623 19.1399 3.09032 19.128 3.06816C19.116 3.04617 19.0946 3.02928 19.0635 3.01749C19.0425 3.00864 19.0132 3.0006 18.9761 2.99336C18.9386 2.9863 18.908 2.98264 18.8843 2.98282L18.8767 2.88917L19.6666 2.82617L19.6741 2.92C19.6495 2.92277 19.6179 2.92965 19.5795 2.94082C19.541 2.95154 19.5131 2.96101 19.4961 2.96861C19.467 2.98166 19.448 3.00123 19.439 3.02759C19.4301 3.05377 19.4268 3.08165 19.4291 3.11069L19.5293 4.36734C19.5339 4.42525 19.5404 4.47002 19.5487 4.50165C19.557 4.53337 19.5723 4.55714 19.5949 4.57296C19.6163 4.58717 19.6472 4.59512 19.6875 4.59673C19.728 4.59852 19.7842 4.59637 19.8563 4.59056C19.8888 4.58788 19.9227 4.58458 19.9577 4.58002C19.9927 4.57546 20.0259 4.56929 20.0571 4.56134C20.0874 4.55357 20.1151 4.54427 20.1404 4.53284C20.1656 4.52158 20.1838 4.50844 20.1949 4.49343C20.2278 4.45018 20.2648 4.38531 20.3062 4.29943C20.3476 4.21356 20.3754 4.14413 20.3898 4.09167L20.4835 4.08408Z" fill="url(#paint22_linear_548_202)"/>
<path d="M22.8534 4.18296L22.7838 4.73269L21.2285 4.6369L21.2344 4.54325C21.2608 4.54325 21.2963 4.54147 21.3406 4.53852C21.3851 4.5353 21.4139 4.53128 21.4275 4.52601C21.4566 4.51439 21.4772 4.49857 21.4895 4.47811C21.5018 4.45756 21.5088 4.43111 21.5109 4.39858L21.5938 3.05176C21.5956 3.0229 21.5924 2.99681 21.5842 2.97384C21.5759 2.95097 21.5566 2.93122 21.5267 2.91522C21.5037 2.90254 21.4724 2.8902 21.4329 2.87894C21.3933 2.86769 21.3617 2.86063 21.3382 2.85732L21.3439 2.76367L22.7935 2.85276L22.7658 3.30447L22.6668 3.29831C22.6534 3.23039 22.6197 3.15694 22.5658 3.07813C22.512 2.99913 22.4587 2.95454 22.4063 2.94418C22.3792 2.93926 22.3468 2.93453 22.309 2.93042C22.2712 2.92622 22.2284 2.92291 22.1799 2.91987L21.8856 2.90155L21.8396 3.64609L22.0509 3.65932C22.1186 3.66334 22.1686 3.66003 22.2006 3.64931C22.2326 3.63841 22.2614 3.61866 22.287 3.59033C22.3079 3.56602 22.3266 3.53278 22.3428 3.49105C22.3591 3.44914 22.3706 3.40956 22.3774 3.37194L22.4764 3.37784L22.4312 4.1121L22.3322 4.10611C22.3312 4.06349 22.3247 4.01827 22.312 3.97037C22.2996 3.92212 22.2856 3.88691 22.2702 3.86493C22.245 3.82883 22.2154 3.80452 22.1812 3.79175C22.1472 3.77924 22.1015 3.77092 22.0442 3.76744L21.833 3.75457L21.7985 4.3161C21.7951 4.37222 21.7963 4.41699 21.8021 4.44996C21.808 4.48285 21.8219 4.50858 21.8438 4.52663C21.8656 4.54477 21.8963 4.55728 21.9356 4.56452C21.9748 4.57176 22.031 4.57766 22.1041 4.5823C22.1332 4.58409 22.1714 4.5865 22.2191 4.58936C22.2665 4.59213 22.3065 4.59312 22.3395 4.5916C22.3731 4.58999 22.4081 4.58561 22.4442 4.57855C22.4805 4.57167 22.5065 4.56077 22.5226 4.54558C22.5655 4.50599 22.6121 4.44451 22.6619 4.36141C22.7115 4.27813 22.7438 4.21691 22.7587 4.17706L22.8534 4.18296Z" fill="url(#paint23_linear_548_202)"/>
<path d="M24.891 4.1482C24.8631 4.30556 24.8095 4.43638 24.7299 4.54147C24.6503 4.64655 24.5568 4.72778 24.4491 4.78479C24.3404 4.84162 24.2234 4.87754 24.098 4.89318C23.9725 4.90828 23.8466 4.90498 23.7197 4.88246L22.9539 4.74672L22.9703 4.65433C22.9954 4.65888 23.0287 4.66219 23.0699 4.66469C23.1111 4.66684 23.1388 4.6663 23.1529 4.66264C23.1809 4.65593 23.2029 4.64235 23.2185 4.62251C23.2342 4.6025 23.2447 4.57676 23.2501 4.5454L23.4865 3.21181C23.4919 3.18205 23.4915 3.1548 23.4855 3.1296C23.4797 3.1044 23.4633 3.08224 23.4361 3.06302C23.4116 3.04524 23.3842 3.03059 23.354 3.01888C23.3238 3.00744 23.2975 2.9986 23.2753 2.99315L23.2916 2.90039L24.0993 3.04354C24.2103 3.06329 24.3168 3.09984 24.4184 3.1531C24.52 3.2068 24.6056 3.26944 24.6751 3.34182C24.7699 3.43833 24.8371 3.55441 24.8767 3.6905C24.9161 3.82624 24.9211 3.97904 24.891 4.1482ZM24.5721 4.09101C24.594 3.96689 24.5973 3.85197 24.5821 3.74599C24.5668 3.63984 24.5342 3.54368 24.4839 3.45781C24.4366 3.37614 24.373 3.30733 24.2929 3.25103C24.2128 3.19492 24.1195 3.15721 24.0126 3.13835C23.9769 3.13183 23.9367 3.12549 23.8917 3.11878C23.8468 3.11226 23.8133 3.10752 23.7916 3.10449L23.5401 4.5244C23.5259 4.6033 23.5393 4.66201 23.5799 4.70061C23.6207 4.73895 23.6887 4.76683 23.7842 4.7839C23.8944 4.80347 23.9943 4.80079 24.0838 4.7763C24.1732 4.75208 24.2496 4.70955 24.3131 4.64923C24.3798 4.58588 24.4342 4.50858 24.4758 4.41708C24.5176 4.32566 24.5497 4.217 24.5721 4.09101Z" fill="url(#paint24_linear_548_202)"/>
<path d="M25.6957 5.34204L24.8804 5.11865L24.9051 5.02839C24.9285 5.03295 24.9625 5.03947 25.0067 5.04796C25.0509 5.05618 25.083 5.05958 25.1028 5.05779C25.1339 5.05422 25.1584 5.04493 25.1764 5.02929C25.1944 5.01365 25.208 4.98881 25.2173 4.95485L25.5765 3.64306C25.5846 3.61349 25.5867 3.5873 25.5829 3.56461C25.5789 3.54209 25.5615 3.51939 25.5303 3.49616C25.5075 3.47891 25.4779 3.46059 25.4417 3.44102C25.4054 3.42145 25.3752 3.40769 25.3511 3.39911L25.3758 3.30859L26.1911 3.53163L26.1664 3.62224C26.1398 3.6159 26.1074 3.61045 26.0693 3.60589C26.0312 3.60151 25.9974 3.59972 25.9678 3.60098C25.9327 3.60241 25.9064 3.61277 25.8893 3.63279C25.8719 3.65271 25.8594 3.67666 25.8516 3.70481L25.4928 5.01499C25.4852 5.04296 25.4845 5.06977 25.4909 5.09479C25.4973 5.11999 25.5137 5.14268 25.5399 5.16377C25.556 5.17539 25.5832 5.19094 25.6212 5.20988C25.6595 5.22909 25.6925 5.24321 25.7203 5.25161L25.6957 5.34204Z" fill="url(#paint25_linear_548_202)"/>
<path d="M27.7946 4.62828L27.7088 4.59736C27.7122 4.56456 27.7115 4.52444 27.707 4.47628C27.7023 4.42802 27.6946 4.38156 27.6838 4.33634C27.6726 4.28916 27.6577 4.24564 27.6385 4.20659C27.6194 4.16719 27.5969 4.14038 27.571 4.12635C27.5466 4.11366 27.515 4.09945 27.4766 4.08355C27.438 4.06773 27.4022 4.05379 27.3691 4.04164L27.2967 4.01536L26.7838 5.42643C26.7738 5.45359 26.7706 5.48103 26.7739 5.50784C26.7772 5.53509 26.791 5.55993 26.8157 5.58281C26.8283 5.59407 26.8568 5.61346 26.9008 5.64053C26.9449 5.66779 26.98 5.68682 27.0063 5.69719L26.9742 5.78538L26.1414 5.48264L26.1733 5.39444C26.1972 5.40114 26.2338 5.41088 26.2832 5.42312C26.3328 5.43546 26.3678 5.44108 26.3888 5.44037C26.4202 5.43948 26.4459 5.43117 26.4662 5.41571C26.4864 5.39989 26.5025 5.37541 26.5151 5.34127L27.032 3.91904L26.9598 3.89285C26.9341 3.88356 26.9021 3.87257 26.8635 3.85997C26.8248 3.8471 26.7873 3.83691 26.7511 3.82825C26.7225 3.82154 26.6882 3.82771 26.6481 3.84639C26.6081 3.86506 26.5687 3.88865 26.5303 3.9168C26.4919 3.94513 26.4556 3.97667 26.4214 4.0117C26.387 4.04655 26.3613 4.07631 26.3439 4.10097L26.2568 4.06943L26.4308 3.59082L27.9686 4.14994L27.7946 4.62828Z" fill="url(#paint26_linear_548_202)"/>
<path d="M28.1706 6.31424L27.4021 5.96235L27.441 5.87683C27.4636 5.88523 27.4958 5.89729 27.5382 5.91257C27.5806 5.92821 27.6116 5.93652 27.6315 5.93813C27.6627 5.93956 27.6884 5.93411 27.7088 5.9216C27.729 5.90927 27.7466 5.88693 27.7611 5.85485L28.3275 4.61857C28.3404 4.59042 28.3467 4.56486 28.3465 4.54216C28.3464 4.51929 28.3329 4.49391 28.3058 4.46594C28.2861 4.44539 28.2599 4.42251 28.2273 4.39731C28.1948 4.37212 28.1671 4.35353 28.1446 4.3412L28.1837 4.25586L28.9522 4.60784L28.9132 4.69345C28.888 4.68291 28.8569 4.67218 28.82 4.66182C28.7831 4.65109 28.75 4.64403 28.7208 4.64019C28.6858 4.63599 28.6583 4.64216 28.6378 4.65896C28.6176 4.67576 28.6015 4.69756 28.5893 4.72392L28.0233 5.95895C28.0112 5.98531 28.0064 6.01158 28.0086 6.03723C28.0108 6.06314 28.0231 6.08825 28.0459 6.11327C28.0597 6.12721 28.0841 6.14696 28.1186 6.17189C28.1532 6.19709 28.1835 6.21612 28.2097 6.22899L28.1706 6.31424Z" fill="url(#paint27_linear_548_202)"/>
<path d="M30.4882 5.70033C30.517 5.8165 30.5215 5.93919 30.5013 6.06858C30.4811 6.19762 30.4344 6.32665 30.3607 6.45497C30.2866 6.58436 30.1986 6.69016 30.0969 6.77202C29.9951 6.85369 29.8862 6.91097 29.7702 6.94305C29.6569 6.97566 29.5419 6.98496 29.4251 6.97093C29.3081 6.95681 29.1965 6.91919 29.0901 6.85825C28.9769 6.79364 28.8844 6.71215 28.8129 6.61474C28.7409 6.51725 28.6924 6.41092 28.6669 6.29582C28.6405 6.18207 28.638 6.06117 28.6594 5.93231C28.6806 5.80399 28.726 5.67916 28.7952 5.55843C28.871 5.426 28.9593 5.31976 29.06 5.23978C29.1607 5.15954 29.2691 5.10261 29.3853 5.06848C29.5001 5.0347 29.6165 5.02514 29.7347 5.03997C29.8527 5.05481 29.9638 5.09216 30.0678 5.15158C30.1758 5.21315 30.2659 5.29188 30.3384 5.38731C30.4106 5.48275 30.4606 5.58676 30.4882 5.70033ZM29.6558 6.75709C29.7385 6.71223 29.8148 6.65093 29.8848 6.57426C29.9547 6.4975 30.0208 6.40475 30.0831 6.29591C30.147 6.1843 30.1949 6.07537 30.2265 5.96975C30.2582 5.86395 30.2717 5.76592 30.2673 5.67594C30.2624 5.58685 30.2388 5.50589 30.196 5.43324C30.1534 5.36068 30.091 5.30072 30.0093 5.25408C29.9174 5.20127 29.8273 5.17768 29.7389 5.18295C29.6506 5.18822 29.5659 5.21449 29.4851 5.26158C29.4082 5.30707 29.3345 5.36953 29.264 5.44888C29.1936 5.5285 29.13 5.61804 29.0729 5.71749C29.0097 5.82767 28.9627 5.93294 28.9318 6.03293C28.9009 6.13319 28.887 6.22988 28.8903 6.32352C28.8932 6.4144 28.9152 6.4967 28.9561 6.57069C28.9972 6.64441 29.0614 6.70625 29.1485 6.7562C29.2303 6.8032 29.3152 6.82626 29.403 6.82572C29.4906 6.82501 29.575 6.80231 29.6558 6.75709Z" fill="url(#paint28_linear_548_202)"/>
<path d="M32.6563 7.08851C32.6361 7.07457 32.6014 7.0575 32.5525 7.03767C32.5036 7.01756 32.4661 7.00666 32.44 7.00496C32.4013 7.00353 32.3589 7.02489 32.3126 7.06832C32.2662 7.11201 32.2145 7.17233 32.1571 7.24927L31.3356 8.35106L31.2431 8.28226L31.2493 6.37105L30.6704 7.14713C30.6055 7.23435 30.5612 7.30503 30.5374 7.35998C30.5135 7.41458 30.5056 7.46051 30.5135 7.49715C30.5182 7.52476 30.541 7.56444 30.5818 7.61582C30.6228 7.66702 30.651 7.69928 30.6667 7.71215L30.6105 7.78748L29.9934 7.32719L30.0497 7.25204C30.0698 7.26473 30.1071 7.28197 30.1616 7.30306C30.2159 7.32469 30.2527 7.33452 30.2712 7.333C30.3107 7.33175 30.3503 7.31432 30.3897 7.28037C30.4293 7.24659 30.4855 7.18055 30.559 7.08235L31.1116 6.34112C31.1359 6.3085 31.1545 6.27195 31.1674 6.23094C31.1803 6.1901 31.184 6.15364 31.1779 6.12183C31.1698 6.07938 31.1502 6.03381 31.1192 5.98466C31.0881 5.93552 31.0597 5.90049 31.034 5.87904L31.0901 5.80371L31.5199 6.12424L31.5103 7.90204L32.0439 7.18663C32.1092 7.09897 32.1537 7.02748 32.1775 6.9719C32.2013 6.91659 32.2084 6.87316 32.1987 6.8417C32.1889 6.81356 32.1663 6.77656 32.131 6.73027C32.0955 6.68416 32.0667 6.65137 32.0444 6.63278L32.1006 6.55763L32.7124 7.01372L32.6563 7.08851Z" fill="url(#paint29_linear_548_202)"/>
<path d="M10.3791 34.2096C10.3145 34.2834 10.2431 34.3361 10.1645 34.3675C10.086 34.3987 10.0051 34.4109 9.92145 34.4033C9.83826 34.3962 9.75918 34.3749 9.68358 34.3392C9.60807 34.3036 9.53658 34.2563 9.46903 34.1971L9.31077 34.0585L8.936 34.4865C8.91572 34.5097 8.90169 34.5334 8.89392 34.5577C8.88614 34.5819 8.89007 34.6092 8.90589 34.6393C8.91366 34.6545 8.93109 34.6774 8.95763 34.7076C8.98444 34.7382 9.01008 34.7647 9.03475 34.7874L8.97282 34.8582L8.3667 34.3274L8.42862 34.2567C8.44569 34.2694 8.4708 34.2872 8.50387 34.3104C8.53693 34.3335 8.56186 34.3477 8.57848 34.3529C8.606 34.3615 8.63147 34.3617 8.65488 34.353C8.67829 34.344 8.70135 34.3268 8.72396 34.3009L9.61629 33.2819C9.63658 33.2586 9.6515 33.2349 9.66115 33.2104C9.67062 33.1861 9.66731 33.1585 9.65096 33.1277C9.63318 33.097 9.61361 33.0689 9.59199 33.0434C9.57018 33.0181 9.55097 32.9967 9.53426 32.9799L9.59619 32.9092L10.241 33.4737C10.3725 33.5887 10.4513 33.7138 10.4777 33.8489C10.5045 33.9841 10.4714 34.1043 10.3791 34.2096ZM9.8656 34.1858C9.91609 34.1736 9.95979 34.1538 9.99714 34.1259C10.0343 34.0982 10.0649 34.0707 10.0886 34.0435C10.1217 34.0055 10.1509 33.9632 10.1762 33.9163C10.2016 33.8693 10.216 33.8215 10.2197 33.7733C10.2238 33.7219 10.2144 33.6707 10.1916 33.6203C10.1691 33.5701 10.1297 33.5201 10.0731 33.4707L9.93289 33.3479L9.38646 33.9719L9.48806 34.0608C9.55973 34.1237 9.62773 34.1634 9.69189 34.1803C9.75614 34.1974 9.81404 34.1991 9.8656 34.1858Z" fill="url(#paint30_linear_548_202)"/>
<path d="M11.2046 36.5431L10.7918 36.2512C10.8018 36.0434 10.8068 35.8612 10.8069 35.7046C10.8069 35.548 10.8033 35.384 10.7951 35.212L10.6385 35.101L10.2946 35.587C10.2767 35.6121 10.2651 35.637 10.2594 35.6617C10.254 35.6866 10.2605 35.7129 10.2794 35.7413C10.2887 35.7555 10.308 35.7763 10.3374 35.8034C10.3666 35.8307 10.3923 35.8527 10.4141 35.8691L10.3599 35.9456L9.71167 35.4874L9.76582 35.4108C9.78432 35.4216 9.81113 35.4367 9.84642 35.4562C9.88172 35.476 9.90772 35.4874 9.92497 35.4907C9.95312 35.4966 9.97849 35.4942 10.001 35.4828C10.0233 35.4718 10.0445 35.452 10.0644 35.424L10.848 34.3161C10.8659 34.2908 10.8781 34.266 10.8848 34.2417C10.891 34.2169 10.8848 34.1903 10.8652 34.1615C10.8519 34.1422 10.8327 34.1197 10.8075 34.0939C10.7827 34.0681 10.7606 34.0474 10.7415 34.0317L10.7957 33.9551L11.503 34.4553C11.5678 34.5012 11.6239 34.5508 11.6715 34.6044C11.7188 34.6581 11.7553 34.7158 11.7805 34.7779C11.8047 34.8382 11.8137 34.9011 11.8076 34.9664C11.8013 35.0316 11.7751 35.0971 11.7287 35.1625C11.6868 35.2216 11.6411 35.2674 11.5911 35.3C11.5408 35.3325 11.4865 35.353 11.4279 35.3614C11.3736 35.3692 11.3157 35.3686 11.2544 35.3592C11.1929 35.3499 11.1293 35.3338 11.0633 35.3109C11.0683 35.4644 11.0714 35.5929 11.073 35.6968C11.0747 35.8006 11.0772 35.9271 11.0807 36.0765C11.082 36.142 11.088 36.1942 11.0989 36.2328C11.11 36.2713 11.1234 36.306 11.1395 36.3368C11.1517 36.3594 11.17 36.3833 11.1944 36.4082C11.2191 36.4332 11.2404 36.4526 11.2585 36.4664L11.2046 36.5431ZM11.4442 34.9993C11.5097 34.9067 11.5349 34.8144 11.5202 34.7223C11.5052 34.6305 11.4492 34.55 11.3519 34.4812L11.1683 34.3514L10.7041 35.0082L10.8455 35.1082C10.9447 35.1784 11.05 35.2051 11.1612 35.1884C11.2725 35.1718 11.3669 35.1085 11.4442 34.9993Z" fill="url(#paint31_linear_548_202)"/>
<path d="M13.0277 36.9246L12.727 37.39L11.3665 36.6301L11.4124 36.5481C11.4362 36.5594 11.4688 36.5734 11.5103 36.5898C11.5515 36.6065 11.5795 36.6152 11.594 36.6163C11.6251 36.6185 11.6505 36.6132 11.6705 36.5999C11.6906 36.5869 11.7083 36.566 11.7243 36.5375L12.3819 35.3596C12.3964 35.3343 12.4045 35.3092 12.4069 35.2851C12.4094 35.2605 12.4008 35.2347 12.3807 35.2074C12.3656 35.1857 12.3425 35.1612 12.3118 35.134C12.2811 35.1069 12.2558 35.0866 12.2358 35.0733L12.2817 34.9912L13.5498 35.6995L13.3289 36.0943L13.2424 36.0461C13.2595 35.9791 13.2611 35.8982 13.2466 35.8038C13.2324 35.7093 13.2037 35.6461 13.1609 35.614C13.1389 35.5977 13.1115 35.5795 13.0794 35.5594C13.0469 35.5396 13.0099 35.5177 12.9674 35.494L12.7098 35.3503L12.3462 36.0017L12.531 36.1047C12.5901 36.138 12.6368 36.1565 12.6703 36.1606C12.7037 36.1646 12.7384 36.1597 12.7738 36.1449C12.803 36.132 12.8342 36.1103 12.8671 36.0795C12.8996 36.0489 12.9273 36.0181 12.9496 35.987L13.0362 36.0355L12.6776 36.6776L12.591 36.6293C12.6086 36.5905 12.622 36.5468 12.6315 36.4982C12.6412 36.4495 12.6438 36.4118 12.6396 36.3851C12.6324 36.3418 12.6161 36.3069 12.591 36.2807C12.5656 36.2545 12.528 36.2274 12.478 36.1994L12.2932 36.0963L12.019 36.5876C11.9914 36.6365 11.9731 36.6774 11.9644 36.7098C11.9554 36.7419 11.957 36.7712 11.9686 36.7969C11.9806 36.8226 12.0026 36.8475 12.0349 36.8709C12.0672 36.8944 12.1152 36.924 12.1792 36.9598C12.2046 36.974 12.2381 36.9928 12.2799 37.016C12.3213 37.0391 12.3571 37.0573 12.3876 37.07C12.4182 37.0831 12.4516 37.0945 12.4874 37.1038C12.523 37.1131 12.5513 37.1146 12.5722 37.108C12.6282 37.0907 12.6966 37.0556 12.7774 37.0021C12.8582 36.9487 12.9139 36.9073 12.9444 36.878L13.0277 36.9246Z" fill="url(#paint32_linear_548_202)"/>
<path d="M15.1492 38.4211L14.3808 38.1091L14.4161 38.022C14.4441 38.0325 14.4811 38.0442 14.5268 38.057C14.5724 38.0699 14.6053 38.075 14.6254 38.0727C14.6569 38.0675 14.6828 38.0572 14.7027 38.0419C14.7226 38.0268 14.7387 38.004 14.7511 37.9738L15.2648 36.7091L15.2465 36.7016L14.0516 37.9424L13.9901 37.9174L14.0394 36.1755L14.0233 36.1692L13.6019 37.2072C13.5611 37.3076 13.5362 37.3867 13.5278 37.444C13.5192 37.5016 13.5232 37.5471 13.5402 37.5805C13.5511 37.6048 13.5819 37.6364 13.6318 37.6747C13.6819 37.7132 13.7153 37.7364 13.7322 37.7441L13.6968 37.8312L12.9946 37.5459L13.0299 37.4589C13.0682 37.4706 13.1092 37.4801 13.1533 37.4876C13.1973 37.495 13.2341 37.4945 13.2635 37.4852C13.3014 37.4741 13.3352 37.4468 13.3651 37.4038C13.395 37.3607 13.4325 37.2836 13.4776 37.1725L13.839 36.2828C13.8599 36.2313 13.8708 36.1868 13.8717 36.1491C13.8728 36.1116 13.8661 36.0776 13.8514 36.048C13.835 36.0157 13.8107 35.9865 13.7782 35.9612C13.7459 35.9356 13.7119 35.9146 13.6766 35.8985L13.712 35.8115L14.3049 36.0523L14.2731 37.5601L15.1417 36.6407C15.1736 36.6071 15.2038 36.5704 15.2324 36.5311C15.2613 36.4919 15.2791 36.4652 15.2861 36.4507L15.8532 36.681L15.8177 36.7679C15.7944 36.7594 15.7638 36.7515 15.7259 36.7434C15.6876 36.7357 15.6591 36.7311 15.6405 36.7302C15.6086 36.7287 15.5833 36.7375 15.5642 36.7564C15.545 36.7752 15.5301 36.7983 15.519 36.8254L15.0099 38.0789C14.9983 38.1074 14.9933 38.1338 14.9953 38.1573C14.9972 38.1806 15.0088 38.2056 15.0307 38.2317C15.0421 38.2458 15.0652 38.2641 15.1 38.286C15.1347 38.3084 15.1628 38.3244 15.1846 38.3339L15.1492 38.4211Z" fill="url(#paint33_linear_548_202)"/>
<path d="M16.3061 38.7374L15.4944 38.5017L15.5207 38.4114C15.5439 38.4164 15.5777 38.4235 15.6218 38.4326C15.666 38.4417 15.6979 38.4456 15.7178 38.4438C15.7488 38.4411 15.7736 38.4319 15.7917 38.4165C15.81 38.4012 15.824 38.3766 15.8339 38.3428L16.2131 37.0371C16.2219 37.0074 16.2244 36.9811 16.2209 36.9586C16.2174 36.9358 16.2001 36.9129 16.1693 36.8893C16.147 36.8715 16.1177 36.8528 16.0818 36.8328C16.0459 36.8127 16.0158 36.7982 15.9917 36.7895L16.0178 36.6992L16.8296 36.9351L16.8035 37.0252C16.7769 37.0184 16.7445 37.0126 16.7067 37.0075C16.6686 37.0024 16.6349 37.0003 16.6053 37.0008C16.57 37.0017 16.5437 37.0117 16.526 37.0315C16.5084 37.0512 16.4956 37.075 16.4874 37.1029L16.1085 38.4075C16.1001 38.4355 16.0993 38.4618 16.1053 38.4871C16.1113 38.5123 16.1271 38.5354 16.1531 38.557C16.169 38.5688 16.1959 38.5848 16.2337 38.6044C16.2716 38.6241 16.3043 38.6383 16.332 38.6472L16.3061 38.7374Z" fill="url(#paint34_linear_548_202)"/>
<path d="M18.836 37.4528C18.8117 37.4489 18.775 37.4471 18.7265 37.4477C18.678 37.448 18.6371 37.4547 18.604 37.4681C18.5706 37.4823 18.5422 37.5193 18.5188 37.5796C18.4954 37.6396 18.4749 37.7147 18.4573 37.8047L18.3009 38.6056C18.2808 38.7077 18.2423 38.7924 18.185 38.8592C18.128 38.9263 18.0601 38.9773 17.9816 39.0122C17.904 39.0455 17.8254 39.0651 17.7456 39.0706C17.6657 39.0761 17.5914 39.072 17.522 39.0585C17.4114 39.0369 17.3153 39.003 17.2346 38.9572C17.1538 38.9114 17.0886 38.858 17.0395 38.7972C16.9912 38.7364 16.9585 38.6713 16.9415 38.6021C16.9244 38.5327 16.9228 38.4635 16.9361 38.3942L17.149 37.305C17.1549 37.2748 17.1549 37.2485 17.149 37.2261C17.143 37.204 17.1266 37.1812 17.0996 37.1577C17.0802 37.1416 17.0546 37.1262 17.0222 37.1124C16.99 37.0983 16.9631 37.0886 16.9418 37.0825L16.9597 36.9902L17.727 37.1402L17.7091 37.2324C17.6847 37.2286 17.6533 37.2265 17.6153 37.2262C17.5773 37.2261 17.5488 37.2273 17.5303 37.2297C17.4988 37.2343 17.4759 37.2479 17.4612 37.2702C17.4465 37.2925 17.4363 37.3178 17.4309 37.3465L17.2321 38.3634C17.2224 38.4127 17.2177 38.4655 17.2179 38.5216C17.2182 38.5778 17.2298 38.6323 17.2527 38.6853C17.2771 38.7395 17.3153 38.7872 17.3676 38.829C17.4195 38.8705 17.4963 38.9014 17.5977 38.9212C17.6928 38.9397 17.7755 38.9402 17.8459 38.9224C17.9163 38.9048 17.9749 38.875 18.0215 38.833C18.0663 38.793 18.1012 38.7492 18.1257 38.701C18.1502 38.6527 18.1679 38.6028 18.1779 38.5508L18.3254 37.7959C18.3442 37.6998 18.3525 37.6203 18.3507 37.5564C18.3489 37.4929 18.3361 37.449 18.313 37.4246C18.2869 37.3971 18.249 37.3722 18.199 37.3499C18.149 37.3276 18.1103 37.3126 18.0829 37.3056L18.1009 37.2135L18.8538 37.3605L18.836 37.4528Z" fill="url(#paint35_linear_548_202)"/>
<path d="M21.0583 39.3861L20.2304 39.3363L20.236 39.2423C20.266 39.2433 20.3047 39.2426 20.3523 39.2401C20.3996 39.2376 20.4323 39.2321 20.4505 39.2236C20.4788 39.2085 20.5002 39.1904 20.5143 39.1698C20.5283 39.149 20.5361 39.1222 20.5382 39.0898L20.6203 37.727L20.6003 37.7257L19.8652 39.2835L19.7992 39.2797L19.2887 37.6137L19.2715 37.6126L19.2042 38.7309C19.1975 38.8392 19.1995 38.9219 19.2098 38.9793C19.22 39.0362 19.2382 39.0779 19.2651 39.1044C19.2834 39.124 19.3223 39.144 19.382 39.1643C19.4418 39.1846 19.4809 39.1959 19.4994 39.1978L19.4937 39.2915L18.7373 39.2462L18.7429 39.1524C18.7827 39.1511 18.8248 39.1472 18.8689 39.1402C18.913 39.1331 18.9475 39.1204 18.9725 39.1024C19.0047 39.0797 19.0281 39.0432 19.0426 38.9928C19.0571 38.9423 19.068 38.8574 19.0752 38.7377L19.1328 37.7791C19.1363 37.7235 19.1323 37.6779 19.1212 37.6417C19.1101 37.6056 19.093 37.5761 19.0696 37.5526C19.0437 37.5272 19.0114 37.5076 18.9725 37.4938C18.9335 37.4801 18.8948 37.4711 18.8561 37.4669L18.8617 37.373L19.5004 37.4114L19.9527 38.8501L20.4815 37.7012C20.5009 37.6592 20.5178 37.6149 20.5325 37.5687C20.5474 37.5222 20.5556 37.491 20.5574 37.4753L21.1683 37.5118L21.1627 37.6056C21.138 37.6051 21.1063 37.6074 21.0676 37.6118C21.0288 37.6167 21.0003 37.6215 20.9825 37.6266C20.9521 37.6355 20.9306 37.6519 20.9186 37.6757C20.9065 37.6998 20.8996 37.7264 20.8979 37.7555L20.8168 39.1063C20.8149 39.137 20.8186 39.1632 20.8279 39.1852C20.8371 39.2067 20.8564 39.2264 20.8853 39.2443C20.9006 39.2539 20.9282 39.264 20.9684 39.2737C21.0084 39.2837 21.0403 39.2897 21.0639 39.2921L21.0583 39.3861Z" fill="url(#paint36_linear_548_202)"/>
<path d="M23.4971 37.5228C23.589 37.5999 23.6651 37.6962 23.7251 37.8122C23.7852 37.9284 23.8235 38.0601 23.8399 38.2073C23.8529 38.3247 23.8497 38.4353 23.8304 38.5386C23.8108 38.6419 23.7772 38.7361 23.7302 38.8211C23.6852 38.9025 23.629 38.9755 23.5616 39.0398C23.4942 39.104 23.4168 39.1576 23.3294 39.2001C23.3417 39.2964 23.386 39.3792 23.4621 39.4482C23.5382 39.5173 23.6152 39.5476 23.6932 39.5389C23.7651 39.5307 23.8196 39.5222 23.8568 39.5132C23.8939 39.5041 23.9245 39.496 23.9485 39.4888L23.9601 39.5927C23.922 39.6087 23.8739 39.6263 23.8163 39.6456C23.7585 39.6647 23.6772 39.6804 23.572 39.692C23.5132 39.6986 23.4548 39.6965 23.397 39.6857C23.3389 39.6751 23.2851 39.6532 23.2353 39.6206C23.1854 39.5881 23.1422 39.5443 23.1055 39.49C23.0689 39.4356 23.0415 39.3668 23.0231 39.2837C22.8974 39.2931 22.7783 39.2792 22.6658 39.2416C22.5533 39.2041 22.4542 39.1468 22.3683 39.0693C22.2815 38.9911 22.2101 38.8959 22.1542 38.784C22.098 38.6716 22.0624 38.5463 22.0468 38.4079C22.0298 38.2562 22.0383 38.1183 22.0725 37.9943C22.1065 37.8704 22.1601 37.7604 22.2338 37.6641C22.3067 37.569 22.395 37.4927 22.499 37.4349C22.6032 37.3773 22.7148 37.3416 22.8337 37.3282C22.9573 37.3144 23.0767 37.3247 23.1913 37.3589C23.3061 37.3932 23.4079 37.4478 23.4971 37.5228ZM23.4491 38.8672C23.4891 38.7821 23.5149 38.6879 23.526 38.5845C23.537 38.4814 23.5354 38.3674 23.5216 38.2428C23.5075 38.1151 23.4818 37.9989 23.4448 37.8948C23.4079 37.7905 23.361 37.7037 23.3045 37.6338C23.2479 37.5647 23.1808 37.5132 23.1036 37.4796C23.0263 37.4463 22.9406 37.4347 22.8467 37.4453C22.7417 37.457 22.6551 37.4912 22.5867 37.5476C22.5186 37.6039 22.4657 37.6752 22.4283 37.761C22.393 37.843 22.3706 37.9368 22.3605 38.0427C22.3508 38.1485 22.352 38.2584 22.3648 38.3723C22.3791 38.4986 22.4031 38.6112 22.4373 38.7102C22.4714 38.8095 22.5176 38.8957 22.5753 38.969C22.6313 39.0409 22.6976 39.0946 22.7745 39.1297C22.8511 39.165 22.9396 39.1772 23.0393 39.1662C23.1331 39.1556 23.2153 39.1242 23.2859 39.072C23.3562 39.0197 23.4107 38.9516 23.4491 38.8672Z" fill="url(#paint37_linear_548_202)"/>
<path d="M25.7553 36.9038C25.7313 36.9103 25.6976 36.9238 25.6533 36.9441C25.6092 36.9645 25.5747 36.9874 25.55 37.0131C25.5255 37.0398 25.5149 37.0851 25.5182 37.1497C25.5216 37.2142 25.5338 37.2909 25.5547 37.3804L25.7413 38.175C25.7652 38.2761 25.7648 38.369 25.7402 38.4538C25.7157 38.5381 25.6748 38.6125 25.6173 38.6767C25.5604 38.7389 25.4967 38.7891 25.4263 38.8269C25.356 38.8647 25.2864 38.8917 25.2177 38.9079C25.1078 38.9338 25.0066 38.9422 24.9141 38.9336C24.8215 38.925 24.7403 38.903 24.6704 38.8679C24.6014 38.8324 24.5449 38.7868 24.5009 38.7304C24.4568 38.6741 24.4267 38.6116 24.4105 38.5429L24.1568 37.4626C24.1496 37.4326 24.1389 37.4086 24.1243 37.3907C24.1097 37.3728 24.0852 37.3588 24.0513 37.3486C24.0269 37.3417 23.9972 37.3386 23.962 37.3391C23.9267 37.3397 23.8983 37.3415 23.8764 37.345L23.855 37.2535L24.616 37.0749L24.6377 37.1662C24.6137 37.1727 24.5843 37.1836 24.5495 37.1993C24.5146 37.2145 24.4892 37.2275 24.4736 37.2373C24.4466 37.2546 24.4312 37.2765 24.4271 37.3027C24.4227 37.329 24.4241 37.3563 24.4306 37.3847L24.6675 38.3933C24.679 38.4421 24.6964 38.4923 24.7196 38.5433C24.743 38.5944 24.7762 38.6394 24.8187 38.6784C24.8632 38.7176 24.9177 38.7457 24.9824 38.7622C25.0468 38.7786 25.1294 38.7751 25.2299 38.7513C25.3245 38.7292 25.4 38.6956 25.4568 38.6507C25.5139 38.6056 25.5549 38.5543 25.5804 38.4967C25.6046 38.4421 25.6183 38.3879 25.6209 38.3338C25.6236 38.2797 25.6189 38.2271 25.6069 38.1753L25.431 37.4267C25.4086 37.3315 25.3835 37.2552 25.3556 37.198C25.3275 37.1407 25.2981 37.1057 25.2671 37.0933C25.2318 37.0786 25.187 37.0716 25.1323 37.0719C25.0775 37.072 25.0363 37.0745 25.0082 37.0792L24.9868 36.9878L25.7337 36.8125L25.7553 36.9038Z" fill="url(#paint38_linear_548_202)"/>
<path d="M28.0826 37.9564L27.3479 38.2192L27.3164 38.1307C27.3796 38.1034 27.4303 38.0759 27.4685 38.0481C27.5069 38.0205 27.5227 37.9974 27.5164 37.9793C27.5137 37.9717 27.5095 37.9627 27.5041 37.9526C27.4984 37.9423 27.4923 37.9338 27.4863 37.9266L27.1983 37.5828L26.5778 37.8046C26.5755 37.8712 26.5746 37.9284 26.5754 37.977C26.5764 38.0252 26.5774 38.0699 26.5788 38.1105C26.5808 38.1501 26.5838 38.1819 26.5877 38.2056C26.5915 38.2297 26.596 38.2485 26.601 38.2628C26.613 38.2961 26.6482 38.3122 26.7072 38.312C26.7658 38.3115 26.8289 38.3014 26.8955 38.2811L26.9272 38.3695L26.2616 38.6075L26.23 38.5191C26.2509 38.5096 26.2763 38.4952 26.3058 38.4758C26.3354 38.4564 26.3581 38.4363 26.3742 38.4156C26.3993 38.3813 26.4168 38.3487 26.4261 38.3175C26.4358 38.2863 26.4417 38.2463 26.4435 38.1968C26.4532 37.9434 26.462 37.6592 26.4703 37.3444C26.4786 37.0295 26.486 36.7494 26.4926 36.5033L26.5922 36.4678L27.7266 37.7818C27.7505 37.8098 27.7739 37.8306 27.7968 37.8451C27.8198 37.8594 27.8487 37.8709 27.8838 37.8799C27.9072 37.8848 27.9354 37.8855 27.969 37.8827C28.0026 37.8793 28.0299 37.8746 28.0508 37.8679L28.0826 37.9564ZM27.1133 37.4884L26.6004 36.8983L26.5817 37.6785L27.1133 37.4884Z" fill="url(#paint39_linear_548_202)"/>
<path d="M29.3644 36.7262L29.5673 37.2476L28.2415 37.8755L28.2014 37.7905C28.2197 37.7797 28.246 37.7639 28.2804 37.743C28.3149 37.7217 28.3378 37.7046 28.3491 37.6914C28.3681 37.6698 28.3781 37.6463 28.3795 37.6214C28.3811 37.5964 28.3743 37.5682 28.3594 37.5372L27.7841 36.3226C27.7715 36.2956 27.7556 36.2739 27.7366 36.2573C27.7176 36.241 27.6916 36.2328 27.6583 36.2328C27.6355 36.2321 27.6053 36.2348 27.568 36.2413C27.5306 36.2479 27.5007 36.2555 27.4784 36.2642L27.4382 36.1791L28.1544 35.8398L28.1945 35.9248C28.1725 35.9362 28.1455 35.9538 28.1135 35.9779C28.0815 36.0019 28.0588 36.0203 28.0453 36.0335C28.0228 36.0559 28.0121 36.081 28.013 36.1086C28.0141 36.1364 28.0208 36.1636 28.0333 36.19L28.5728 37.3292C28.5978 37.382 28.6196 37.4214 28.6386 37.448C28.6574 37.4748 28.6806 37.4916 28.7071 37.4983C28.7321 37.5041 28.7639 37.5004 28.8022 37.4876C28.8405 37.4748 28.8925 37.453 28.9578 37.4221C28.9872 37.408 29.0175 37.3928 29.0487 37.3762C29.0798 37.3595 29.1085 37.3418 29.135 37.3234C29.1605 37.3054 29.1832 37.2867 29.2026 37.2673C29.2224 37.2477 29.2346 37.229 29.2397 37.2111C29.2551 37.1588 29.2667 37.0852 29.275 36.9902C29.2831 36.8951 29.2846 36.8205 29.2796 36.7665L29.3644 36.7262Z" fill="url(#paint40_linear_548_202)"/>
<path d="M30.4995 36.7079L29.7659 37.128L29.7193 37.0465C29.739 37.0331 29.7675 37.0137 29.8049 36.9884C29.8421 36.9629 29.8672 36.9425 29.8797 36.9271C29.8992 36.9029 29.9098 36.8788 29.9113 36.8548C29.9129 36.8311 29.9052 36.8039 29.8875 36.7733L29.2115 35.5934C29.1963 35.5666 29.1792 35.5466 29.1605 35.5334C29.1418 35.5204 29.1131 35.5165 29.0747 35.5223C29.0466 35.5262 29.0128 35.5342 28.9731 35.5459C28.9339 35.558 28.9027 35.5694 28.8795 35.5808L28.833 35.4993L29.5664 35.0791L29.613 35.1606C29.5898 35.1749 29.563 35.194 29.533 35.218C29.5029 35.2417 29.4778 35.2644 29.4577 35.2861C29.4339 35.312 29.4229 35.3381 29.4248 35.3643C29.4268 35.3908 29.435 35.4166 29.4494 35.4418L30.1247 36.6205C30.1392 36.6459 30.1574 36.6651 30.1796 36.6782C30.202 36.6913 30.2297 36.696 30.2631 36.6921C30.2829 36.6892 30.3128 36.6806 30.3532 36.6672C30.3937 36.6535 30.4268 36.6398 30.4525 36.6264L30.4995 36.7079Z" fill="url(#paint41_linear_548_202)"/>
<path d="M31.2753 34.549L31.1999 34.6005C31.1755 34.5789 31.1424 34.5558 31.1005 34.5316C31.0588 34.5073 31.0162 34.4865 30.9732 34.469C30.9285 34.4504 30.8845 34.4375 30.8413 34.4302C30.7982 34.4226 30.7636 34.4255 30.7369 34.4383C30.7124 34.451 30.6824 34.4681 30.6471 34.4901C30.6118 34.5122 30.5795 34.5333 30.5505 34.5533L30.487 34.5965L31.3352 35.8353C31.3518 35.8594 31.3718 35.8779 31.3959 35.891C31.4196 35.904 31.4482 35.9072 31.4809 35.9006C31.4975 35.8969 31.5298 35.885 31.5776 35.8652C31.6255 35.8452 31.6612 35.8275 31.685 35.8123L31.738 35.8898L31.0069 36.3906L30.9537 36.3131C30.9731 36.2976 31.0022 36.2735 31.0411 36.2404C31.0799 36.2073 31.1052 36.1822 31.1168 36.1647C31.1341 36.1388 31.1425 36.1131 31.1415 36.0876C31.1408 36.0617 31.1299 36.0342 31.1095 36.0043L30.2544 34.7558L30.1912 34.7991C30.1686 34.8146 30.141 34.8343 30.1082 34.8583C30.0755 34.8825 30.0452 34.9068 30.0171 34.9313C29.995 34.9506 29.9799 34.9821 29.9718 35.0255C29.9636 35.0691 29.9598 35.1147 29.9605 35.1624C29.961 35.2101 29.9654 35.258 29.9739 35.3062C29.9823 35.3544 29.9914 35.3927 30.0013 35.4212L29.925 35.4737L29.6372 35.0533L30.9872 34.1289L31.2753 34.549Z" fill="url(#paint42_linear_548_202)"/>
<path d="M32.3409 33.1127C32.33 33.1232 32.3157 33.143 32.2978 33.1724C32.2799 33.2018 32.2688 33.225 32.265 33.2423C32.2522 33.2807 32.2448 33.3083 32.2428 33.3249C32.2406 33.3415 32.2416 33.38 32.2459 33.4397C32.2556 33.5582 32.2702 33.6744 32.2897 33.7881C32.3093 33.9018 32.3349 34.0454 32.3668 34.2192C32.3781 34.2832 32.3908 34.3319 32.4048 34.3651C32.4186 34.3982 32.4468 34.4398 32.4888 34.4899L32.7193 34.7641C32.7396 34.7884 32.7622 34.8055 32.7872 34.8151C32.8119 34.8249 32.8407 34.8252 32.8734 34.816C32.8923 34.8097 32.9229 34.7949 32.966 34.772C33.009 34.749 33.0419 34.7286 33.0648 34.7107L33.1252 34.7826L32.4526 35.3475L32.3922 35.2754C32.41 35.2584 32.4362 35.2318 32.4709 35.1964C32.5058 35.1609 32.5279 35.1339 32.5376 35.1155C32.5535 35.085 32.5585 35.057 32.553 35.0319C32.5472 35.0066 32.5336 34.9812 32.5121 34.9555L32.2187 34.6061C32.2095 34.5955 32.1865 34.5811 32.1491 34.5634C32.1119 34.5457 32.0693 34.5271 32.0217 34.5074C31.9154 34.463 31.7992 34.4161 31.6734 34.3663C31.5475 34.3166 31.4391 34.2745 31.3482 34.2404C31.2936 34.2206 31.2495 34.2081 31.2158 34.203C31.182 34.1978 31.1478 34.197 31.113 34.2012C31.0884 34.2046 31.0625 34.2131 31.0354 34.2269C31.0082 34.2403 30.9849 34.2543 30.9655 34.2681L30.9053 34.1963L31.5185 33.6811L31.5788 33.753C31.5112 33.8122 31.4664 33.8577 31.4448 33.8897C31.4234 33.9216 31.4186 33.9449 31.4313 33.9597C31.4346 33.9637 31.4426 33.9693 31.4553 33.9757C31.4677 33.9826 31.4841 33.9904 31.5046 33.9998C31.5282 34.0098 31.5554 34.0214 31.5866 34.0337C31.6176 34.0462 31.6474 34.0583 31.6759 34.0702C31.7579 34.1038 31.8405 34.1363 31.9239 34.1685C32.007 34.2004 32.1154 34.2419 32.2492 34.2933C32.2115 34.0333 32.1805 33.8326 32.1561 33.6903C32.1316 33.548 32.1113 33.4674 32.0955 33.4486C32.0825 33.4331 32.0661 33.4253 32.0467 33.4255C32.0273 33.4258 32.0061 33.4312 31.9827 33.4416C31.9585 33.4528 31.9341 33.4671 31.9098 33.4846C31.8855 33.5021 31.8628 33.5183 31.8413 33.5325L31.7809 33.4608L32.2807 33.041L32.3409 33.1127Z" fill="url(#paint43_linear_548_202)"/>
</g>
<defs>
<linearGradient id="paint0_linear_548_202" x1="41.8955" y1="-17.8772" x2="-11.1001" y2="80.7233" gradientUnits="userSpaceOnUse">
<stop offset="0.1044" stop-color="#BA903F"/>
<stop offset="0.5" stop-color="#996019"/>
<stop offset="0.6412" stop-color="#6F4411"/>
<stop offset="0.7989" stop-color="#472A09"/>
<stop offset="0.924" stop-color="#2E1904"/>
<stop offset="1" stop-color="#251302"/>
</linearGradient>
<linearGradient id="paint1_linear_548_202" x1="55.2588" y1="-49.7747" x2="10.1042" y2="43.5085" gradientUnits="userSpaceOnUse">
<stop stop-color="#FFD744"/>
<stop offset="0.0679" stop-color="#A6761A"/>
<stop offset="0.1851" stop-color="#FFD744"/>
<stop offset="0.3981" stop-color="#FFD744"/>
<stop offset="0.561" stop-color="#FCF4AE"/>
<stop offset="0.6792" stop-color="#FFD744"/>
<stop offset="0.75" stop-color="#A6761A"/>
<stop offset="0.8802" stop-color="#FFD744"/>
<stop offset="0.967" stop-color="#FCF4AE"/>
<stop offset="1" stop-color="#FFD744"/>
</linearGradient>
<linearGradient id="paint2_linear_548_202" x1="39.0994" y1="-35.022" x2="10.7089" y2="52.8536" gradientUnits="userSpaceOnUse">
<stop stop-color="#FFD744"/>
<stop offset="0.0679" stop-color="#A6761A"/>
<stop offset="0.1851" stop-color="#FFD744"/>
<stop offset="0.3981" stop-color="#FFD744"/>
<stop offset="0.561" stop-color="#FCF4AE"/>
<stop offset="0.6792" stop-color="#FFD744"/>
<stop offset="0.75" stop-color="#A6761A"/>
<stop offset="0.8802" stop-color="#FFD744"/>
<stop offset="0.967" stop-color="#FCF4AE"/>
<stop offset="1" stop-color="#FFD744"/>
</linearGradient>
<linearGradient id="paint3_linear_548_202" x1="27.3479" y1="8.00651" x2="11.966" y2="39.4914" gradientUnits="userSpaceOnUse">
<stop stop-color="#FFD744"/>
<stop offset="0.0679" stop-color="#A6761A"/>
<stop offset="0.1851" stop-color="#FFD744"/>
<stop offset="0.3981" stop-color="#FFD744"/>
<stop offset="0.561" stop-color="#FCF4AE"/>
<stop offset="0.6792" stop-color="#FFD744"/>
<stop offset="0.75" stop-color="#A6761A"/>
<stop offset="0.8802" stop-color="#FFD744"/>
<stop offset="0.967" stop-color="#FCF4AE"/>
<stop offset="1" stop-color="#FFD744"/>
</linearGradient>
<linearGradient id="paint4_linear_548_202" x1="32.7949" y1="0.590178" x2="8.27994" y2="43.0106" gradientUnits="userSpaceOnUse">
<stop stop-color="#523E1D"/>
<stop offset="0.0314" stop-color="#584322"/>
<stop offset="0.0714" stop-color="#67522F"/>
<stop offset="0.0843" stop-color="#6E5834"/>
<stop offset="0.1177" stop-color="#806B45"/>
<stop offset="0.2107" stop-color="#AD9A6E"/>
<stop offset="0.2993" stop-color="#D1BF8E"/>
<stop offset="0.3814" stop-color="#EAD9A6"/>
<stop offset="0.4545" stop-color="#FAE9B4"/>
<stop offset="0.5112" stop-color="#FFEFB9"/>
<stop offset="0.5195" stop-color="#F2E1AC"/>
<stop offset="0.5414" stop-color="#D5C28F"/>
<stop offset="0.5662" stop-color="#BCA675"/>
<stop offset="0.5942" stop-color="#A89061"/>
<stop offset="0.627" stop-color="#987F51"/>
<stop offset="0.6675" stop-color="#8D7446"/>
<stop offset="0.7243" stop-color="#876D40"/>
<stop offset="0.882" stop-color="#856B3E"/>
<stop offset="1" stop-color="#543D17"/>
</linearGradient>
<linearGradient id="paint5_linear_548_202" x1="4.18561" y1="45.6336" x2="55.7393" y2="-29.8942" gradientUnits="userSpaceOnUse">
<stop stop-color="#523E1D"/>
<stop offset="0.021" stop-color="#584322"/>
<stop offset="0.0477" stop-color="#67522F"/>
<stop offset="0.0563" stop-color="#6E5834"/>
<stop offset="0.0919" stop-color="#806B45"/>
<stop offset="0.1909" stop-color="#AD9A6E"/>
<stop offset="0.2854" stop-color="#D1BF8E"/>
<stop offset="0.3729" stop-color="#EAD9A6"/>
<stop offset="0.4508" stop-color="#FAE9B4"/>
<stop offset="0.5112" stop-color="#FFEFB9"/>
<stop offset="0.5195" stop-color="#F2E1AC"/>
<stop offset="0.5414" stop-color="#D5C28F"/>
<stop offset="0.5662" stop-color="#BCA675"/>
<stop offset="0.5942" stop-color="#A89061"/>
<stop offset="0.627" stop-color="#987F51"/>
<stop offset="0.6675" stop-color="#8D7446"/>
<stop offset="0.7243" stop-color="#876D40"/>
<stop offset="0.882" stop-color="#856B3E"/>
<stop offset="1" stop-color="#543D17"/>
</linearGradient>
<linearGradient id="paint6_linear_548_202" x1="29.8216" y1="-3.38027" x2="17.9247" y2="25.1002" gradientUnits="userSpaceOnUse">
<stop offset="0.1044" stop-color="#BA903F"/>
<stop offset="0.5" stop-color="#996019"/>
<stop offset="0.6412" stop-color="#6F4411"/>
<stop offset="0.7989" stop-color="#472A09"/>
<stop offset="0.924" stop-color="#2E1904"/>
<stop offset="1" stop-color="#251302"/>
</linearGradient>
<linearGradient id="paint7_linear_548_202" x1="28.6702" y1="-3.86169" x2="16.7733" y2="24.6188" gradientUnits="userSpaceOnUse">
<stop offset="0.1044" stop-color="#BA903F"/>
<stop offset="0.5" stop-color="#996019"/>
<stop offset="0.6412" stop-color="#6F4411"/>
<stop offset="0.7989" stop-color="#472A09"/>
<stop offset="0.924" stop-color="#2E1904"/>
<stop offset="1" stop-color="#251302"/>
</linearGradient>
<linearGradient id="paint8_linear_548_202" x1="27.9727" y1="-4.15308" x2="16.0758" y2="24.3273" gradientUnits="userSpaceOnUse">
<stop offset="0.1044" stop-color="#BA903F"/>
<stop offset="0.5" stop-color="#996019"/>
<stop offset="0.6412" stop-color="#6F4411"/>
<stop offset="0.7989" stop-color="#472A09"/>
<stop offset="0.924" stop-color="#2E1904"/>
<stop offset="1" stop-color="#251302"/>
</linearGradient>
<linearGradient id="paint9_linear_548_202" x1="32.2342" y1="-2.37311" x2="20.3375" y2="26.1071" gradientUnits="userSpaceOnUse">
<stop offset="0.1044" stop-color="#BA903F"/>
<stop offset="0.5" stop-color="#996019"/>
<stop offset="0.6412" stop-color="#6F4411"/>
<stop offset="0.7989" stop-color="#472A09"/>
<stop offset="0.924" stop-color="#2E1904"/>
<stop offset="1" stop-color="#251302"/>
</linearGradient>
<linearGradient id="paint10_linear_548_202" x1="24.7527" y1="-5.49824" x2="12.8559" y2="22.9819" gradientUnits="userSpaceOnUse">
<stop offset="0.1044" stop-color="#BA903F"/>
<stop offset="0.5" stop-color="#996019"/>
<stop offset="0.6412" stop-color="#6F4411"/>
<stop offset="0.7989" stop-color="#472A09"/>
<stop offset="0.924" stop-color="#2E1904"/>
<stop offset="1" stop-color="#251302"/>
</linearGradient>
<linearGradient id="paint11_linear_548_202" x1="14.2661" y1="0.199364" x2="13.1845" y2="30.2422" gradientUnits="userSpaceOnUse">
<stop offset="0.1044" stop-color="#BA903F"/>
<stop offset="0.5" stop-color="#996019"/>
<stop offset="0.6412" stop-color="#6F4411"/>
<stop offset="0.7989" stop-color="#472A09"/>
<stop offset="0.924" stop-color="#2E1904"/>
<stop offset="1" stop-color="#251302"/>
</linearGradient>
<linearGradient id="paint12_linear_548_202" x1="17.8964" y1="0.330433" x2="16.8148" y2="30.3734" gradientUnits="userSpaceOnUse">
<stop offset="0.1044" stop-color="#BA903F"/>
<stop offset="0.5" stop-color="#996019"/>
<stop offset="0.6412" stop-color="#6F4411"/>
<stop offset="0.7989" stop-color="#472A09"/>
<stop offset="0.924" stop-color="#2E1904"/>
<stop offset="1" stop-color="#251302"/>
</linearGradient>
<linearGradient id="paint13_linear_548_202" x1="21.6436" y1="0.465289" x2="20.5621" y2="30.5081" gradientUnits="userSpaceOnUse">
<stop offset="0.1044" stop-color="#BA903F"/>
<stop offset="0.5" stop-color="#996019"/>
<stop offset="0.6412" stop-color="#6F4411"/>
<stop offset="0.7989" stop-color="#472A09"/>
<stop offset="0.924" stop-color="#2E1904"/>
<stop offset="1" stop-color="#251302"/>
</linearGradient>
<linearGradient id="paint14_linear_548_202" x1="25.139" y1="0.591163" x2="24.0575" y2="30.6339" gradientUnits="userSpaceOnUse">
<stop offset="0.1044" stop-color="#BA903F"/>
<stop offset="0.5" stop-color="#996019"/>
<stop offset="0.6412" stop-color="#6F4411"/>
<stop offset="0.7989" stop-color="#472A09"/>
<stop offset="0.924" stop-color="#2E1904"/>
<stop offset="1" stop-color="#251302"/>
</linearGradient>
<linearGradient id="paint15_linear_548_202" x1="29.0162" y1="0.730653" x2="27.9346" y2="30.7734" gradientUnits="userSpaceOnUse">
<stop offset="0.1044" stop-color="#BA903F"/>
<stop offset="0.5" stop-color="#996019"/>
<stop offset="0.6412" stop-color="#6F4411"/>
<stop offset="0.7989" stop-color="#472A09"/>
<stop offset="0.924" stop-color="#2E1904"/>
<stop offset="1" stop-color="#251302"/>
</linearGradient>
<linearGradient id="paint16_linear_548_202" x1="25.8527" y1="-21.6579" x2="-10.4393" y2="46.8402" gradientUnits="userSpaceOnUse">
<stop offset="0.1044" stop-color="#BA903F"/>
<stop offset="0.5" stop-color="#996019"/>
<stop offset="0.6412" stop-color="#6F4411"/>
<stop offset="0.7989" stop-color="#472A09"/>
<stop offset="0.924" stop-color="#2E1904"/>
<stop offset="1" stop-color="#251302"/>
</linearGradient>
<linearGradient id="paint17_linear_548_202" x1="26.3786" y1="-21.3793" x2="-9.91378" y2="47.1195" gradientUnits="userSpaceOnUse">
<stop offset="0.1044" stop-color="#BA903F"/>
<stop offset="0.5" stop-color="#996019"/>
<stop offset="0.6412" stop-color="#6F4411"/>
<stop offset="0.7989" stop-color="#472A09"/>
<stop offset="0.924" stop-color="#2E1904"/>
<stop offset="1" stop-color="#251302"/>
</linearGradient>
<linearGradient id="paint18_linear_548_202" x1="27.3646" y1="-20.8567" x2="-8.92723" y2="47.6411" gradientUnits="userSpaceOnUse">
<stop offset="0.1044" stop-color="#BA903F"/>
<stop offset="0.5" stop-color="#996019"/>
<stop offset="0.6412" stop-color="#6F4411"/>
<stop offset="0.7989" stop-color="#472A09"/>
<stop offset="0.924" stop-color="#2E1904"/>
<stop offset="1" stop-color="#251302"/>
</linearGradient>
<linearGradient id="paint19_linear_548_202" x1="28.4232" y1="-20.2958" x2="-7.86862" y2="48.202" gradientUnits="userSpaceOnUse">
<stop offset="0.1044" stop-color="#BA903F"/>
<stop offset="0.5" stop-color="#996019"/>
<stop offset="0.6412" stop-color="#6F4411"/>
<stop offset="0.7989" stop-color="#472A09"/>
<stop offset="0.924" stop-color="#2E1904"/>
<stop offset="1" stop-color="#251302"/>
</linearGradient>
<linearGradient id="paint20_linear_548_202" x1="29.2507" y1="-19.8579" x2="-7.04156" y2="48.6407" gradientUnits="userSpaceOnUse">
<stop offset="0.1044" stop-color="#BA903F"/>
<stop offset="0.5" stop-color="#996019"/>
<stop offset="0.6412" stop-color="#6F4411"/>
<stop offset="0.7989" stop-color="#472A09"/>
<stop offset="0.924" stop-color="#2E1904"/>
<stop offset="1" stop-color="#251302"/>
</linearGradient>
<linearGradient id="paint21_linear_548_202" x1="30.5563" y1="-19.1649" x2="-5.73509" y2="49.3319" gradientUnits="userSpaceOnUse">
<stop offset="0.1044" stop-color="#BA903F"/>
<stop offset="0.5" stop-color="#996019"/>
<stop offset="0.6412" stop-color="#6F4411"/>
<stop offset="0.7989" stop-color="#472A09"/>
<stop offset="0.924" stop-color="#2E1904"/>
<stop offset="1" stop-color="#251302"/>
</linearGradient>
<linearGradient id="paint22_linear_548_202" x1="31.5524" y1="-18.6372" x2="-4.73912" y2="49.8601" gradientUnits="userSpaceOnUse">
<stop offset="0.1044" stop-color="#BA903F"/>
<stop offset="0.5" stop-color="#996019"/>
<stop offset="0.6412" stop-color="#6F4411"/>
<stop offset="0.7989" stop-color="#472A09"/>
<stop offset="0.924" stop-color="#2E1904"/>
<stop offset="1" stop-color="#251302"/>
</linearGradient>
<linearGradient id="paint23_linear_548_202" x1="33.4044" y1="-17.6564" x2="-2.88706" y2="50.8408" gradientUnits="userSpaceOnUse">
<stop offset="0.1044" stop-color="#BA903F"/>
<stop offset="0.5" stop-color="#996019"/>
<stop offset="0.6412" stop-color="#6F4411"/>
<stop offset="0.7989" stop-color="#472A09"/>
<stop offset="0.924" stop-color="#2E1904"/>
<stop offset="1" stop-color="#251302"/>
</linearGradient>
<linearGradient id="paint24_linear_548_202" x1="34.9179" y1="-16.8553" x2="-1.37425" y2="51.6431" gradientUnits="userSpaceOnUse">
<stop offset="0.1044" stop-color="#BA903F"/>
<stop offset="0.5" stop-color="#996019"/>
<stop offset="0.6412" stop-color="#6F4411"/>
<stop offset="0.7989" stop-color="#472A09"/>
<stop offset="0.924" stop-color="#2E1904"/>
<stop offset="1" stop-color="#251302"/>
</linearGradient>
<linearGradient id="paint25_linear_548_202" x1="36.3539" y1="-16.0931" x2="0.0627832" y2="52.4033" gradientUnits="userSpaceOnUse">
<stop offset="0.1044" stop-color="#BA903F"/>
<stop offset="0.5" stop-color="#996019"/>
<stop offset="0.6412" stop-color="#6F4411"/>
<stop offset="0.7989" stop-color="#472A09"/>
<stop offset="0.924" stop-color="#2E1904"/>
<stop offset="1" stop-color="#251302"/>
</linearGradient>
<linearGradient id="paint26_linear_548_202" x1="37.4963" y1="-15.4888" x2="1.20424" y2="53.0095" gradientUnits="userSpaceOnUse">
<stop offset="0.1044" stop-color="#BA903F"/>
<stop offset="0.5" stop-color="#996019"/>
<stop offset="0.6412" stop-color="#6F4411"/>
<stop offset="0.7989" stop-color="#472A09"/>
<stop offset="0.924" stop-color="#2E1904"/>
<stop offset="1" stop-color="#251302"/>
</linearGradient>
<linearGradient id="paint27_linear_548_202" x1="38.8137" y1="-14.7905" x2="2.52188" y2="53.7073" gradientUnits="userSpaceOnUse">
<stop offset="0.1044" stop-color="#BA903F"/>
<stop offset="0.5" stop-color="#996019"/>
<stop offset="0.6412" stop-color="#6F4411"/>
<stop offset="0.7989" stop-color="#472A09"/>
<stop offset="0.924" stop-color="#2E1904"/>
<stop offset="1" stop-color="#251302"/>
</linearGradient>
<linearGradient id="paint28_linear_548_202" x1="40.2061" y1="-14.0528" x2="3.91483" y2="54.4438" gradientUnits="userSpaceOnUse">
<stop offset="0.1044" stop-color="#BA903F"/>
<stop offset="0.5" stop-color="#996019"/>
<stop offset="0.6412" stop-color="#6F4411"/>
<stop offset="0.7989" stop-color="#472A09"/>
<stop offset="0.924" stop-color="#2E1904"/>
<stop offset="1" stop-color="#251302"/>
</linearGradient>
<linearGradient id="paint29_linear_548_202" x1="42.0734" y1="-13.0638" x2="5.78135" y2="55.4344" gradientUnits="userSpaceOnUse">
<stop offset="0.1044" stop-color="#BA903F"/>
<stop offset="0.5" stop-color="#996019"/>
<stop offset="0.6412" stop-color="#6F4411"/>
<stop offset="0.7989" stop-color="#472A09"/>
<stop offset="0.924" stop-color="#2E1904"/>
<stop offset="1" stop-color="#251302"/>
</linearGradient>
<linearGradient id="paint30_linear_548_202" x1="6.50946" y1="48.4915" x2="13.5995" y2="13.6422" gradientUnits="userSpaceOnUse">
<stop stop-color="#FFD744"/>
<stop offset="0.0679" stop-color="#A6761A"/>
<stop offset="0.1851" stop-color="#FFD744"/>
<stop offset="0.3981" stop-color="#FFD744"/>
<stop offset="0.561" stop-color="#FCF4AE"/>
<stop offset="0.6792" stop-color="#FFD744"/>
<stop offset="0.75" stop-color="#A6761A"/>
<stop offset="0.8802" stop-color="#FFD744"/>
<stop offset="0.967" stop-color="#FCF4AE"/>
<stop offset="1" stop-color="#FFD744"/>
</linearGradient>
<linearGradient id="paint31_linear_548_202" x1="8.00017" y1="48.7954" x2="15.0904" y2="13.9454" gradientUnits="userSpaceOnUse">
<stop stop-color="#FFD744"/>
<stop offset="0.0679" stop-color="#A6761A"/>
<stop offset="0.1851" stop-color="#FFD744"/>
<stop offset="0.3981" stop-color="#FFD744"/>
<stop offset="0.561" stop-color="#FCF4AE"/>
<stop offset="0.6792" stop-color="#FFD744"/>
<stop offset="0.75" stop-color="#A6761A"/>
<stop offset="0.8802" stop-color="#FFD744"/>
<stop offset="0.967" stop-color="#FCF4AE"/>
<stop offset="1" stop-color="#FFD744"/>
</linearGradient>
<linearGradient id="paint32_linear_548_202" x1="9.8134" y1="49.1645" x2="16.9037" y2="14.3142" gradientUnits="userSpaceOnUse">
<stop stop-color="#FFD744"/>
<stop offset="0.0679" stop-color="#A6761A"/>
<stop offset="0.1851" stop-color="#FFD744"/>
<stop offset="0.3981" stop-color="#FFD744"/>
<stop offset="0.561" stop-color="#FCF4AE"/>
<stop offset="0.6792" stop-color="#FFD744"/>
<stop offset="0.75" stop-color="#A6761A"/>
<stop offset="0.8802" stop-color="#FFD744"/>
<stop offset="0.967" stop-color="#FCF4AE"/>
<stop offset="1" stop-color="#FFD744"/>
</linearGradient>
<linearGradient id="paint33_linear_548_202" x1="11.8864" y1="49.5859" x2="18.9766" y2="14.7359" gradientUnits="userSpaceOnUse">
<stop stop-color="#FFD744"/>
<stop offset="0.0679" stop-color="#A6761A"/>
<stop offset="0.1851" stop-color="#FFD744"/>
<stop offset="0.3981" stop-color="#FFD744"/>
<stop offset="0.561" stop-color="#FCF4AE"/>
<stop offset="0.6792" stop-color="#FFD744"/>
<stop offset="0.75" stop-color="#A6761A"/>
<stop offset="0.8802" stop-color="#FFD744"/>
<stop offset="0.967" stop-color="#FCF4AE"/>
<stop offset="1" stop-color="#FFD744"/>
</linearGradient>
<linearGradient id="paint34_linear_548_202" x1="13.6737" y1="49.9487" x2="20.7638" y2="15.0992" gradientUnits="userSpaceOnUse">
<stop stop-color="#FFD744"/>
<stop offset="0.0679" stop-color="#A6761A"/>
<stop offset="0.1851" stop-color="#FFD744"/>
<stop offset="0.3981" stop-color="#FFD744"/>
<stop offset="0.561" stop-color="#FCF4AE"/>
<stop offset="0.6792" stop-color="#FFD744"/>
<stop offset="0.75" stop-color="#A6761A"/>
<stop offset="0.8802" stop-color="#FFD744"/>
<stop offset="0.967" stop-color="#FCF4AE"/>
<stop offset="1" stop-color="#FFD744"/>
</linearGradient>
<linearGradient id="paint35_linear_548_202" x1="15.2434" y1="50.269" x2="22.3337" y2="15.4187" gradientUnits="userSpaceOnUse">
<stop stop-color="#FFD744"/>
<stop offset="0.0679" stop-color="#A6761A"/>
<stop offset="0.1851" stop-color="#FFD744"/>
<stop offset="0.3981" stop-color="#FFD744"/>
<stop offset="0.561" stop-color="#FCF4AE"/>
<stop offset="0.6792" stop-color="#FFD744"/>
<stop offset="0.75" stop-color="#A6761A"/>
<stop offset="0.8802" stop-color="#FFD744"/>
<stop offset="0.967" stop-color="#FCF4AE"/>
<stop offset="1" stop-color="#FFD744"/>
</linearGradient>
<linearGradient id="paint36_linear_548_202" x1="17.4499" y1="50.7176" x2="24.54" y2="15.8677" gradientUnits="userSpaceOnUse">
<stop stop-color="#FFD744"/>
<stop offset="0.0679" stop-color="#A6761A"/>
<stop offset="0.1851" stop-color="#FFD744"/>
<stop offset="0.3981" stop-color="#FFD744"/>
<stop offset="0.561" stop-color="#FCF4AE"/>
<stop offset="0.6792" stop-color="#FFD744"/>
<stop offset="0.75" stop-color="#A6761A"/>
<stop offset="0.8802" stop-color="#FFD744"/>
<stop offset="0.967" stop-color="#FCF4AE"/>
<stop offset="1" stop-color="#FFD744"/>
</linearGradient>
<linearGradient id="paint37_linear_548_202" x1="20.4646" y1="51.331" x2="27.5546" y2="16.4815" gradientUnits="userSpaceOnUse">
<stop stop-color="#FFD744"/>
<stop offset="0.0679" stop-color="#A6761A"/>
<stop offset="0.1851" stop-color="#FFD744"/>
<stop offset="0.3981" stop-color="#FFD744"/>
<stop offset="0.561" stop-color="#FCF4AE"/>
<stop offset="0.6792" stop-color="#FFD744"/>
<stop offset="0.75" stop-color="#A6761A"/>
<stop offset="0.8802" stop-color="#FFD744"/>
<stop offset="0.967" stop-color="#FCF4AE"/>
<stop offset="1" stop-color="#FFD744"/>
</linearGradient>
<linearGradient id="paint38_linear_548_202" x1="21.9931" y1="51.6423" x2="29.0832" y2="16.7926" gradientUnits="userSpaceOnUse">
<stop stop-color="#FFD744"/>
<stop offset="0.0679" stop-color="#A6761A"/>
<stop offset="0.1851" stop-color="#FFD744"/>
<stop offset="0.3981" stop-color="#FFD744"/>
<stop offset="0.561" stop-color="#FCF4AE"/>
<stop offset="0.6792" stop-color="#FFD744"/>
<stop offset="0.75" stop-color="#A6761A"/>
<stop offset="0.8802" stop-color="#FFD744"/>
<stop offset="0.967" stop-color="#FCF4AE"/>
<stop offset="1" stop-color="#FFD744"/>
</linearGradient>
<linearGradient id="paint39_linear_548_202" x1="24.2616" y1="52.1032" x2="31.3517" y2="17.2535" gradientUnits="userSpaceOnUse">
<stop stop-color="#FFD744"/>
<stop offset="0.0679" stop-color="#A6761A"/>
<stop offset="0.1851" stop-color="#FFD744"/>
<stop offset="0.3981" stop-color="#FFD744"/>
<stop offset="0.561" stop-color="#FCF4AE"/>
<stop offset="0.6792" stop-color="#FFD744"/>
<stop offset="0.75" stop-color="#A6761A"/>
<stop offset="0.8802" stop-color="#FFD744"/>
<stop offset="0.967" stop-color="#FCF4AE"/>
<stop offset="1" stop-color="#FFD744"/>
</linearGradient>
<linearGradient id="paint40_linear_548_202" x1="25.3276" y1="52.3201" x2="32.4176" y2="17.4709" gradientUnits="userSpaceOnUse">
<stop stop-color="#FFD744"/>
<stop offset="0.0679" stop-color="#A6761A"/>
<stop offset="0.1851" stop-color="#FFD744"/>
<stop offset="0.3981" stop-color="#FFD744"/>
<stop offset="0.561" stop-color="#FCF4AE"/>
<stop offset="0.6792" stop-color="#FFD744"/>
<stop offset="0.75" stop-color="#A6761A"/>
<stop offset="0.8802" stop-color="#FFD744"/>
<stop offset="0.967" stop-color="#FCF4AE"/>
<stop offset="1" stop-color="#FFD744"/>
</linearGradient>
<linearGradient id="paint41_linear_548_202" x1="26.3258" y1="52.523" x2="33.416" y2="17.6732" gradientUnits="userSpaceOnUse">
<stop stop-color="#FFD744"/>
<stop offset="0.0679" stop-color="#A6761A"/>
<stop offset="0.1851" stop-color="#FFD744"/>
<stop offset="0.3981" stop-color="#FFD744"/>
<stop offset="0.561" stop-color="#FCF4AE"/>
<stop offset="0.6792" stop-color="#FFD744"/>
<stop offset="0.75" stop-color="#A6761A"/>
<stop offset="0.8802" stop-color="#FFD744"/>
<stop offset="0.967" stop-color="#FCF4AE"/>
<stop offset="1" stop-color="#FFD744"/>
</linearGradient>
<linearGradient id="paint42_linear_548_202" x1="27.1832" y1="52.6975" x2="34.2733" y2="17.8477" gradientUnits="userSpaceOnUse">
<stop stop-color="#FFD744"/>
<stop offset="0.0679" stop-color="#A6761A"/>
<stop offset="0.1851" stop-color="#FFD744"/>
<stop offset="0.3981" stop-color="#FFD744"/>
<stop offset="0.561" stop-color="#FCF4AE"/>
<stop offset="0.6792" stop-color="#FFD744"/>
<stop offset="0.75" stop-color="#A6761A"/>
<stop offset="0.8802" stop-color="#FFD744"/>
<stop offset="0.967" stop-color="#FCF4AE"/>
<stop offset="1" stop-color="#FFD744"/>
</linearGradient>
<linearGradient id="paint43_linear_548_202" x1="28.266" y1="52.9174" x2="35.3561" y2="18.0681" gradientUnits="userSpaceOnUse">
<stop stop-color="#FFD744"/>
<stop offset="0.0679" stop-color="#A6761A"/>
<stop offset="0.1851" stop-color="#FFD744"/>
<stop offset="0.3981" stop-color="#FFD744"/>
<stop offset="0.561" stop-color="#FCF4AE"/>
<stop offset="0.6792" stop-color="#FFD744"/>
<stop offset="0.75" stop-color="#A6761A"/>
<stop offset="0.8802" stop-color="#FFD744"/>
<stop offset="0.967" stop-color="#FCF4AE"/>
<stop offset="1" stop-color="#FFD744"/>
</linearGradient>
</defs>
</svg>
