<svg width="45" height="45" viewBox="0 0 45 45" fill="none" xmlns="http://www.w3.org/2000/svg">
<mask id="mask0_548_117" style="mask-type:alpha" maskUnits="userSpaceOnUse" x="0" y="0" width="45" height="45">
<circle cx="22.5" cy="22.5" r="22.5" fill="#D9D9D9"/>
</mask>
<g mask="url(#mask0_548_117)">
<path d="M28.2591 44C27.2268 44 26.1698 43.4817 25.1478 42.9807C24.2312 42.5313 23.2834 42.0664 22.5 42.0664C21.7166 42.0664 20.7687 42.5312 19.8521 42.9807C18.8301 43.4817 17.7732 43.9997 16.741 44C16.4302 44 16.132 43.9523 15.8549 43.8584C14.4931 43.3966 13.7507 41.9783 13.0328 40.6066C12.5626 39.7083 12.0766 38.7795 11.4867 38.3314C10.8847 37.8738 9.87882 37.6739 8.90598 37.4808C7.4461 37.1908 5.93658 36.8909 5.10576 35.6986C4.28383 34.5194 4.47371 32.9364 4.65734 31.4056C4.78139 30.3717 4.90971 29.3025 4.67515 28.5483C4.45616 27.8438 3.80092 27.1195 3.10715 26.3527C2.07121 25.2077 1 24.0235 1 22.5C1 20.9765 2.07121 19.7923 3.10715 18.6472C3.80092 17.8805 4.45625 17.1561 4.67515 16.4516C4.90971 15.6975 4.78139 14.6283 4.65743 13.5944C4.47371 12.0635 4.28383 10.4805 5.10584 9.30121C5.93658 8.10892 7.4461 7.80899 8.90598 7.51907C9.87882 7.32588 10.8846 7.12608 11.4865 6.66845C12.0765 6.22021 12.5626 5.29145 13.0328 4.39309C13.7507 3.02155 14.493 1.60317 15.8548 1.14143C16.1319 1.04774 16.4301 1 16.7409 1C17.7732 1 18.8302 1.51833 19.8522 2.01931C20.7688 2.46872 21.7166 2.9335 22.5 2.9335C23.2834 2.9335 24.2312 2.46881 25.1478 2.01931C26.1699 1.51833 27.2268 1 28.2591 1C28.5699 1 28.868 1.04774 29.1451 1.14161C30.5069 1.60335 31.2493 3.02173 31.9672 4.39327C32.4374 5.29163 32.9235 6.22039 33.5134 6.66863C34.1154 7.12617 35.1213 7.32606 36.094 7.51925C37.5539 7.80908 39.0634 8.10909 39.8942 9.30139C40.7163 10.4806 40.5262 12.0636 40.3427 13.5944C40.2186 14.6283 40.0903 15.6975 40.3249 16.4518C40.5438 17.1562 41.1991 17.8805 41.8929 18.6474C42.9288 19.7925 44 20.9767 44 22.5002C44 24.0237 42.9288 25.2079 41.8929 26.353C41.1992 27.1197 40.5438 27.8441 40.3249 28.5486C40.0903 29.3027 40.2186 30.3718 40.3426 31.4057C40.5262 32.9367 40.7162 34.5197 39.8942 35.6989C39.0634 36.8912 37.5539 37.191 36.094 37.481C35.1212 37.6741 34.1153 37.8741 33.5134 38.3316C32.9234 38.7799 32.4373 39.7085 31.9672 40.6069C31.2493 41.9785 30.507 43.3968 29.1452 43.8587C28.8682 43.9523 28.57 44 28.2591 44Z" fill="url(#paint0_linear_548_117)"/>
<path d="M43.3094 22.5003C43.3094 24.6887 40.282 26.3509 39.668 28.3257C39.0315 30.3725 40.5231 33.571 39.3358 35.2745C38.1366 36.9952 34.7547 36.4961 33.107 37.7483C31.4756 38.9881 30.8919 42.5079 28.9319 43.1725C27.0408 43.8136 24.5958 41.3453 22.5001 41.3453C20.4043 41.3453 17.9594 43.8136 16.0683 43.1725C14.1083 42.5079 13.5246 38.9881 11.8932 37.7483C10.2455 36.4961 6.86352 36.9952 5.66441 35.2745C4.47711 33.571 5.96866 30.3725 5.33234 28.3258C4.71827 26.3509 1.69092 24.6888 1.69092 22.5003C1.69092 20.3117 4.71827 18.6497 5.33234 16.6749C5.96875 14.6281 4.4772 11.4295 5.66449 9.72587C6.8636 8.00523 10.2455 8.50443 11.8932 7.25214C13.5247 6.01238 14.1083 2.4926 16.0683 1.82802C17.9594 1.18677 20.4044 3.65513 22.5002 3.65513C24.596 3.65513 27.041 1.18686 28.932 1.82802C30.8919 2.4926 31.4757 6.01229 33.1071 7.25214C34.7548 8.50443 38.1367 8.00523 39.3359 9.72587C40.5232 11.4295 39.0316 14.628 39.668 16.6747C40.2819 18.6496 43.3094 20.3117 43.3094 22.5003Z" fill="url(#paint1_linear_548_117)"/>
<path d="M22.5 39.0005C13.7872 39.0005 6.69873 31.5982 6.69873 22.4998C6.69873 13.4013 13.7872 5.99902 22.5 5.99902C31.2128 5.99902 38.3012 13.4013 38.3012 22.4998C38.3012 31.5982 31.2128 39.0005 22.5 39.0005Z" fill="url(#paint2_linear_548_117)"/>
<path d="M22.5001 38.2796C14.1682 38.2796 7.38965 31.201 7.38965 22.5001C7.38965 13.7992 14.1682 6.7207 22.5001 6.7207C30.832 6.7207 37.6106 13.7992 37.6106 22.5001C37.6106 31.201 30.8321 38.2796 22.5001 38.2796Z" fill="url(#paint3_linear_548_117)"/>
<path d="M22.5 35.3944C15.6916 35.3944 10.1526 29.6102 10.1526 22.5005C10.1526 15.3908 15.6916 9.60645 22.5 9.60645C29.3084 9.60645 34.8474 15.3908 34.8474 22.5005C34.8474 29.6102 29.3084 35.3944 22.5 35.3944Z" fill="url(#paint4_linear_548_117)"/>
<path d="M22.5001 35.0334C15.8822 35.0334 10.498 29.411 10.498 22.5001C10.498 15.5891 15.8822 9.9668 22.5001 9.9668C29.118 9.9668 34.5021 15.5892 34.5021 22.5001C34.5022 29.4111 29.118 35.0334 22.5001 35.0334Z" fill="url(#paint5_linear_548_117)"/>
<path d="M22.4999 33.5906C16.6437 33.5906 11.8794 28.6154 11.8794 22.4999C11.8794 16.3844 16.6437 11.4092 22.4999 11.4092C28.3561 11.4092 33.1204 16.3843 33.1204 22.4999C33.1204 28.6153 28.3561 33.5906 22.4999 33.5906Z" fill="url(#paint6_radial_548_117)"/>
<path d="M20.0111 25.2598C20.0111 25.3398 19.9961 25.4104 19.9662 25.472C19.9361 25.5335 19.8947 25.5844 19.8415 25.6247C19.7892 25.6651 19.7316 25.6944 19.6689 25.7132C19.6062 25.7319 19.5397 25.7413 19.4694 25.7413H19.305V26.2055C19.305 26.2307 19.309 26.2528 19.3169 26.2719C19.3249 26.2909 19.3412 26.3055 19.3661 26.3155C19.3785 26.3207 19.4003 26.3252 19.4317 26.3296C19.4631 26.3338 19.4918 26.3364 19.5181 26.3371V26.4138H18.8885V26.3371C18.9051 26.3357 18.929 26.3331 18.9604 26.3296C18.9916 26.3259 19.0135 26.3213 19.0259 26.3155C19.0466 26.3062 19.0616 26.2924 19.0709 26.2745C19.0802 26.2566 19.0849 26.2334 19.0849 26.2055V25.1001C19.0849 25.0749 19.0815 25.0522 19.0746 25.0321C19.0676 25.0118 19.0514 24.9966 19.026 24.9866C18.9998 24.9773 18.9738 24.9706 18.948 24.9667C18.9222 24.9627 18.8999 24.9601 18.8813 24.9585V24.8818H19.5512C19.6878 24.8818 19.7985 24.9163 19.8836 24.985C19.9686 25.0537 20.0111 25.1454 20.0111 25.2598ZM19.6968 25.521C19.7203 25.4864 19.7358 25.4507 19.7434 25.4138C19.751 25.3767 19.7547 25.3433 19.7547 25.3137C19.7547 25.2729 19.7501 25.2311 19.7408 25.1886C19.7315 25.1461 19.7155 25.1091 19.6927 25.0774C19.6686 25.0436 19.6369 25.0174 19.5976 24.9987C19.5583 24.9798 19.5095 24.9705 19.4508 24.9705H19.305V25.6474H19.4105C19.485 25.6474 19.5454 25.6353 19.5919 25.6111C19.6384 25.587 19.6734 25.5571 19.6968 25.521Z" fill="#4D2D0B"/>
<path d="M20.9335 25.4871C20.9335 25.5239 20.9248 25.5565 20.9076 25.5849C20.8903 25.6133 20.8638 25.6275 20.828 25.6275C20.7894 25.6275 20.7599 25.6172 20.7396 25.5962C20.7193 25.5754 20.7092 25.5523 20.7092 25.5272C20.7092 25.5112 20.7104 25.4968 20.7128 25.4841C20.7152 25.4709 20.7175 25.4581 20.7195 25.4451C20.6871 25.4451 20.6493 25.4588 20.6058 25.4861C20.5624 25.5137 20.5254 25.5523 20.4951 25.6027V26.2225C20.4951 26.2476 20.4997 26.2682 20.509 26.284C20.5184 26.2999 20.533 26.3119 20.5529 26.3198C20.5702 26.3267 20.5924 26.3323 20.6196 26.3359C20.6469 26.3395 20.6705 26.3419 20.6905 26.3434V26.4147H20.153V26.3434C20.1688 26.3419 20.1853 26.3406 20.202 26.3392C20.2189 26.3376 20.2336 26.3347 20.246 26.3305C20.2653 26.324 20.2796 26.3127 20.2888 26.2964C20.2981 26.2802 20.3028 26.2593 20.3028 26.2334V25.5767C20.3028 25.5544 20.2978 25.5324 20.2879 25.511C20.2779 25.4893 20.2639 25.4721 20.246 25.4592C20.2329 25.4505 20.2174 25.4443 20.1995 25.4403C20.1816 25.4363 20.1622 25.4337 20.1416 25.4323V25.3609L20.4807 25.3371L20.4952 25.3522V25.5023H20.5003C20.543 25.444 20.5906 25.3998 20.643 25.3695C20.6954 25.3392 20.7433 25.3242 20.7867 25.3242C20.8301 25.3242 20.8655 25.3389 20.8927 25.3684C20.9199 25.398 20.9335 25.4374 20.9335 25.4871Z" fill="#4D2D0B"/>
<path d="M22.0147 25.8711C22.0147 25.9459 22.0033 26.0193 21.9806 26.0917C21.9578 26.1641 21.9253 26.2254 21.8832 26.2758C21.8356 26.3335 21.7804 26.3762 21.7177 26.4044C21.6548 26.4324 21.5844 26.4465 21.5065 26.4465C21.4417 26.4465 21.3799 26.4337 21.3213 26.408C21.2626 26.3825 21.2106 26.3454 21.1651 26.2964C21.1202 26.2481 21.0845 26.1894 21.058 26.1199C21.0314 26.0503 21.0181 25.9726 21.0181 25.886C21.0181 25.7198 21.0645 25.5839 21.1573 25.4779C21.25 25.3723 21.3715 25.3193 21.522 25.3193C21.6648 25.3193 21.7826 25.3696 21.8754 25.4699C21.9683 25.5703 22.0147 25.7041 22.0147 25.8711ZM21.8007 25.8732C21.8007 25.8192 21.7956 25.7622 21.7852 25.702C21.7748 25.6419 21.7593 25.591 21.7385 25.5493C21.7165 25.5047 21.6874 25.4688 21.6516 25.4419C21.6157 25.4149 21.5719 25.4014 21.52 25.4014C21.4668 25.4014 21.4215 25.4151 21.3838 25.4424C21.3462 25.4697 21.3156 25.5073 21.2921 25.5546C21.27 25.5986 21.2545 25.6487 21.2456 25.7049C21.2366 25.7609 21.2321 25.8152 21.2321 25.8677C21.2321 25.9369 21.2374 26.0006 21.2481 26.0594C21.2588 26.118 21.2759 26.1705 21.2994 26.2165C21.3229 26.2627 21.3525 26.2988 21.388 26.325C21.4235 26.3514 21.4675 26.3644 21.52 26.3644C21.6063 26.3644 21.6747 26.321 21.7251 26.2337C21.7755 26.1467 21.8007 26.0264 21.8007 25.8732Z" fill="#4D2D0B"/>
<path d="M23.2779 26.3948L22.9211 26.4186L22.9057 26.4035V26.3041L22.8973 26.3019C22.8616 26.3438 22.8173 26.378 22.7647 26.4045C22.712 26.4311 22.6579 26.4445 22.6021 26.4445C22.5443 26.4445 22.4884 26.4309 22.4344 26.404C22.3803 26.377 22.3334 26.339 22.2935 26.2901C22.2528 26.2404 22.2207 26.1807 22.1969 26.1108C22.1732 26.041 22.1614 25.9641 22.1614 25.8799C22.1614 25.8028 22.174 25.7298 22.1996 25.6607C22.2249 25.5916 22.2601 25.5312 22.3049 25.4793C22.3467 25.4312 22.3982 25.3926 22.4591 25.3638C22.52 25.3351 22.5822 25.3207 22.6455 25.3207C22.693 25.3207 22.7396 25.3269 22.7854 25.3397C22.8311 25.3522 22.8706 25.3681 22.9035 25.3875V25.0167C22.9035 24.9864 22.8987 24.9588 22.8891 24.9339C22.8795 24.9092 22.866 24.8901 22.8488 24.877C22.8295 24.8635 22.8034 24.8534 22.7707 24.8473C22.738 24.8413 22.7027 24.8367 22.6648 24.8339V24.767L23.0823 24.7432L23.0978 24.7594V26.1942C23.0978 26.2194 23.1026 26.2408 23.1119 26.2584C23.1211 26.2761 23.1347 26.2909 23.1527 26.3032C23.1658 26.3119 23.1848 26.3171 23.2096 26.3195C23.2345 26.3216 23.2572 26.323 23.2779 26.3237V26.3948V26.3948ZM22.9035 26.2079V25.585C22.898 25.5663 22.8891 25.5461 22.8767 25.5246C22.8644 25.503 22.8489 25.4832 22.8303 25.4652C22.8104 25.4473 22.787 25.4323 22.7602 25.4204C22.7333 25.4085 22.702 25.4026 22.6663 25.4026C22.6251 25.4026 22.587 25.4138 22.5523 25.436C22.5176 25.4583 22.4868 25.4904 22.46 25.5321C22.4346 25.5724 22.4144 25.6237 22.3995 25.686C22.3848 25.7483 22.3774 25.8171 22.3774 25.8927C22.3774 25.9532 22.3828 26.0081 22.3939 26.0574C22.4048 26.1068 22.4235 26.1527 22.4496 26.1952C22.4737 26.2354 22.5045 26.2678 22.542 26.2922C22.5795 26.3166 22.6239 26.329 22.6756 26.329C22.7307 26.329 22.7762 26.3162 22.8124 26.2911C22.8484 26.2659 22.8789 26.2383 22.9035 26.2079Z" fill="#4D2D0B"/>
<path d="M24.4699 26.3948L24.137 26.4186L24.1215 26.4035V26.2684H24.1153C24.0988 26.2865 24.0801 26.3057 24.0596 26.3262C24.0389 26.3468 24.0151 26.3653 23.9883 26.3819C23.9574 26.4013 23.9275 26.416 23.8985 26.426C23.8696 26.4362 23.8287 26.4412 23.7758 26.4412C23.6856 26.4412 23.617 26.4105 23.5698 26.3491C23.5227 26.2876 23.4991 26.1984 23.4991 26.0811V25.5721C23.4991 25.5463 23.4945 25.5245 23.4851 25.5069C23.4757 25.4892 23.4619 25.4741 23.444 25.4611C23.4315 25.4524 23.4159 25.4461 23.3971 25.4422C23.3784 25.4381 23.3587 25.4355 23.3379 25.4341V25.3628L23.6779 25.3369L23.6935 25.352V26.0915C23.6935 26.1685 23.71 26.2264 23.7432 26.2653C23.7762 26.3043 23.8158 26.3236 23.8621 26.3236C23.8999 26.3236 23.9337 26.3174 23.9633 26.3053C23.993 26.2931 24.0178 26.2787 24.0378 26.2622C24.0565 26.247 24.0728 26.2312 24.0869 26.2143C24.1011 26.1974 24.1119 26.1817 24.1194 26.1673V25.5647C24.1194 25.5408 24.1146 25.5199 24.1049 25.5017C24.0953 25.4833 24.0818 25.4676 24.0646 25.4547C24.0522 25.446 24.0337 25.441 24.0093 25.4391C23.9848 25.4371 23.9575 25.4356 23.927 25.4342V25.3628L24.2982 25.337L24.3137 25.3521V26.1966C24.3137 26.2208 24.3185 26.2418 24.3282 26.2591C24.3378 26.2762 24.3513 26.291 24.3685 26.3032C24.3809 26.3112 24.3957 26.3163 24.413 26.319C24.4302 26.3214 24.4491 26.323 24.4699 26.3237V26.3948V26.3948Z" fill="#4D2D0B"/>
<path d="M25.0661 26.4421C24.9186 26.4421 24.8032 26.391 24.7198 26.2889C24.6363 26.1867 24.5947 26.0494 24.5947 25.8774C24.5947 25.8025 24.6059 25.7326 24.6283 25.6675C24.6507 25.6024 24.6832 25.5431 24.726 25.4899C24.7667 25.4389 24.8177 25.3977 24.879 25.3663C24.9404 25.3349 25.0072 25.3193 25.0796 25.3193C25.1795 25.3193 25.2608 25.3443 25.3236 25.3943C25.3863 25.4444 25.4177 25.5125 25.4177 25.599C25.4177 25.6349 25.4094 25.6668 25.3928 25.6944C25.3762 25.7223 25.349 25.7359 25.3111 25.7359C25.2704 25.7359 25.2389 25.7253 25.2165 25.7037C25.1941 25.6823 25.1829 25.6582 25.1829 25.6317C25.1829 25.5993 25.187 25.5663 25.1954 25.532C25.2036 25.498 25.2084 25.4731 25.2097 25.4574C25.1974 25.435 25.179 25.4203 25.1545 25.4127C25.1301 25.4051 25.1038 25.4014 25.0757 25.4014C25.0426 25.4014 25.0112 25.4087 24.9813 25.4236C24.9514 25.4383 24.9223 25.4655 24.8941 25.5051C24.8688 25.541 24.848 25.5896 24.8323 25.6507C24.8164 25.7119 24.8086 25.7849 24.8086 25.8698C24.8086 26.0039 24.8369 26.113 24.8937 26.1976C24.9505 26.2821 25.025 26.3243 25.1172 26.3243C25.1839 26.3243 25.2398 26.3075 25.2849 26.2735C25.3299 26.2393 25.3718 26.1885 25.4102 26.1204L25.4763 26.1657C25.4308 26.2506 25.3708 26.3179 25.2964 26.3675C25.2222 26.4171 25.1454 26.4421 25.0661 26.4421Z" fill="#4D2D0B"/>
<path d="M26.1861 26.3674C26.1413 26.387 26.099 26.4034 26.059 26.4166C26.019 26.4299 25.9701 26.4367 25.9122 26.4367C25.8268 26.4367 25.7666 26.4142 25.7318 26.3692C25.697 26.3242 25.6797 26.2608 25.6797 26.1787V25.4576H25.4956V25.3539H25.6838V25.0225H25.8719V25.3539H26.1645V25.4576H25.8741V26.0522C25.8741 26.097 25.8755 26.1341 25.8787 26.1641C25.8819 26.194 25.8891 26.2201 25.9009 26.2423C25.9119 26.2632 25.9284 26.2791 25.9505 26.2899C25.9725 26.3006 26.0021 26.306 26.0394 26.306C26.0566 26.306 26.082 26.3044 26.1153 26.3011C26.1488 26.298 26.1724 26.2939 26.1862 26.2888V26.3674H26.1861Z" fill="#4D2D0B"/>
<path d="M29.031 28.0762L29.1119 28.5696L28.6879 28.3375L28.2625 28.5696L28.3435 28.0762L28.0005 27.7272L28.4745 27.6549L28.6879 27.2061L28.9 27.6549L29.374 27.7272L29.031 28.0762Z" fill="url(#paint7_linear_548_117)"/>
<path d="M30.3491 25.7226L30.4301 26.2159L30.0061 25.984L29.5806 26.2159L29.6616 25.7226L29.3186 25.3736L29.7926 25.3013L30.0061 24.8525L30.218 25.3013L30.692 25.3736L30.3491 25.7226Z" fill="url(#paint8_linear_548_117)"/>
<path d="M30.8781 22.9629L30.9591 23.4564L30.5351 23.2242L30.1097 23.4564L30.1907 22.9629L29.8477 22.6139L30.3217 22.5417L30.5351 22.0928L30.7471 22.5417L31.2212 22.6139L30.8781 22.9629Z" fill="url(#paint9_linear_548_117)"/>
<path d="M30.4999 20.1444L30.5808 20.6379L30.1569 20.4057L29.7315 20.6379L29.8124 20.1444L29.4695 19.7955L29.9435 19.7232L30.1569 19.2744L30.3689 19.7232L30.8429 19.7955L30.4999 20.1444Z" fill="url(#paint10_linear_548_117)"/>
<path d="M29.3012 17.7031L29.3821 18.1965L28.9582 17.9644L28.5328 18.1965L28.6138 17.7031L28.2708 17.3541L28.7448 17.2819L28.9582 16.833L29.1701 17.2819L29.6442 17.3541L29.3012 17.7031Z" fill="url(#paint11_linear_548_117)"/>
<path d="M27.4382 15.8046L27.5191 16.2981L27.0951 16.0659L26.6698 16.2981L26.7507 15.8046L26.4077 15.4557L26.8817 15.3833L27.0951 14.9346L27.3071 15.3833L27.7811 15.4557L27.4382 15.8046Z" fill="url(#paint12_linear_548_117)"/>
<path d="M25.067 14.6124L25.148 15.1058L24.7241 14.8736L24.2987 15.1058L24.3797 14.6124L24.0366 14.2633L24.5105 14.1911L24.7241 13.7422L24.936 14.1911L25.41 14.2633L25.067 14.6124Z" fill="url(#paint13_linear_548_117)"/>
<path d="M22.35 14.289L22.431 14.7825L22.0071 14.5503L21.5816 14.7825L21.6626 14.289L21.3196 13.94L21.7936 13.8677L22.0071 13.4189L22.2191 13.8677L22.6931 13.94L22.35 14.289Z" fill="url(#paint14_linear_548_117)"/>
<path d="M19.7248 14.9132L19.8058 15.4066L19.3818 15.1745L18.9564 15.4066L19.0374 14.9132L18.6943 14.5642L19.1683 14.4919L19.3818 14.043L19.5937 14.4919L20.0677 14.5642L19.7248 14.9132Z" fill="url(#paint15_linear_548_117)"/>
<path d="M17.5021 16.3535L17.583 16.8469L17.1591 16.6148L16.7337 16.8469L16.8146 16.3535L16.4717 16.0045L16.9457 15.9323L17.1591 15.4834L17.3711 15.9323L17.8451 16.0045L17.5021 16.3535Z" fill="url(#paint16_linear_548_117)"/>
<path d="M15.8384 18.4473L15.9193 18.9407L15.4954 18.7086L15.07 18.9407L15.1509 18.4473L14.8079 18.0983L15.282 18.0261L15.4954 17.5771L15.7073 18.0261L16.1814 18.0983L15.8384 18.4473Z" fill="url(#paint17_linear_548_117)"/>
<path d="M14.8901 21.0302L14.9711 21.5237L14.5471 21.2915L14.1217 21.5237L14.2026 21.0302L13.8596 20.6813L14.3336 20.6089L14.5471 20.1602L14.7591 20.6089L15.2331 20.6813L14.8901 21.0302Z" fill="url(#paint18_linear_548_117)"/>
<path d="M14.8098 23.9013L14.8907 24.3947L14.4668 24.1626L14.0413 24.3947L14.1223 23.9013L13.7793 23.5524L14.2533 23.48L14.4668 23.0312L14.6788 23.48L15.1528 23.5524L14.8098 23.9013Z" fill="url(#paint19_linear_548_117)"/>
<path d="M15.6176 26.5527L15.6985 27.0462L15.2746 26.814L14.8492 27.0462L14.9302 26.5527L14.5872 26.2037L15.0612 26.1315L15.2746 25.6826L15.4866 26.1315L15.9606 26.2037L15.6176 26.5527Z" fill="url(#paint20_linear_548_117)"/>
<path d="M17.1682 28.7432L17.2491 29.2365L16.8252 29.0045L16.3997 29.2365L16.4807 28.7432L16.1377 28.3942L16.6117 28.3219L16.8252 27.873L17.0371 28.3219L17.5111 28.3942L17.1682 28.7432Z" fill="url(#paint21_linear_548_117)"/>
<path d="M19.3046 30.3087L19.3856 30.8021L18.9617 30.5699L18.5362 30.8021L18.6172 30.3087L18.2742 29.9596L18.7482 29.8874L18.9617 29.4385L19.1737 29.8874L19.6477 29.9596L19.3046 30.3087Z" fill="url(#paint22_linear_548_117)"/>
<path d="M21.8712 31.087L21.9522 31.5804L21.5283 31.3482L21.1029 31.5804L21.1838 31.087L20.8408 30.738L21.3148 30.6658L21.5283 30.2168L21.7402 30.6658L22.2142 30.738L21.8712 31.087Z" fill="url(#paint23_linear_548_117)"/>
<path d="M24.6184 30.9287L24.6993 31.4222L24.2753 31.19L23.8499 31.4222L23.9309 30.9287L23.5879 30.5798L24.0619 30.5075L24.2753 30.0586L24.4873 30.5075L24.9613 30.5798L24.6184 30.9287Z" fill="url(#paint24_linear_548_117)"/>
<path d="M27.0665 29.8711L27.1475 30.3646L26.7236 30.1324L26.2982 30.3646L26.3792 29.8711L26.0361 29.5222L26.5101 29.4498L26.7236 29.001L26.9355 29.4498L27.4095 29.5222L27.0665 29.8711Z" fill="url(#paint25_linear_548_117)"/>
<path d="M29.031 28.0762L29.1119 28.5696L28.6879 28.3375L28.2625 28.5696L28.3435 28.0762L28.0005 27.7272L28.4745 27.6549L28.6879 27.2061L28.9 27.6549L29.374 27.7272L29.031 28.0762Z" fill="url(#paint26_linear_548_117)"/>
<path d="M16.7148 19.7529H17.2632V22.8764H18.1656V23.3969H16.7148V19.7529Z" fill="#4D2D0B"/>
<path d="M18.9384 19.7529V22.564C18.9384 22.696 18.9641 22.7879 19.0157 22.84C19.0671 22.8921 19.1361 22.9181 19.2226 22.9181C19.309 22.9181 19.3779 22.8921 19.4295 22.84C19.481 22.7879 19.5068 22.696 19.5068 22.564V19.7529H20.0252V22.5277C20.0252 22.8228 19.9562 23.0493 19.8184 23.2072C19.6804 23.365 19.4769 23.444 19.2077 23.444C18.9385 23.444 18.7349 23.365 18.597 23.2072C18.4591 23.0493 18.3901 22.8228 18.3901 22.5277V19.7529H18.9384Z" fill="#4D2D0B"/>
<path d="M22.2284 19.7529L21.655 21.5228L22.2681 23.397H21.69L21.2414 21.955L20.7876 23.397H20.2742L20.8874 21.5228L20.3141 19.7529H20.8825L21.2962 21.096L21.7199 19.7529H22.2284Z" fill="#4D2D0B"/>
<path d="M23.0657 19.7529V22.564C23.0657 22.696 23.0914 22.7879 23.143 22.84C23.1946 22.8921 23.2636 22.9181 23.3499 22.9181C23.4363 22.9181 23.5052 22.8921 23.5569 22.84C23.6083 22.7879 23.6342 22.696 23.6342 22.564V19.7529H24.1525V22.5277C24.1525 22.8228 24.0835 23.0493 23.9458 23.2072C23.8078 23.365 23.6043 23.444 23.335 23.444C23.0658 23.444 22.8622 23.365 22.7243 23.2072C22.5864 23.0493 22.5176 22.8228 22.5176 22.5277V19.7529H23.0657Z" fill="#4D2D0B"/>
<path d="M25.6732 23.397C25.6665 23.3728 25.6599 23.3503 25.6532 23.3294C25.6465 23.3085 25.6408 23.2826 25.6358 23.2513C25.6308 23.22 25.6275 23.1802 25.6258 23.1316C25.6241 23.0831 25.6234 23.0223 25.6234 22.9493V22.3768C25.6234 22.2067 25.595 22.0869 25.5386 22.0176C25.4821 21.9481 25.3907 21.9133 25.2644 21.9133H25.075V23.397H24.5266V19.7529H25.3543C25.64 19.7529 25.8469 19.8226 25.9748 19.9611C26.1027 20.1002 26.1668 20.3101 26.1668 20.5912V20.8775C26.1668 21.252 26.0472 21.4987 25.8079 21.6167C25.9474 21.6756 26.0431 21.772 26.0945 21.9056C26.1461 22.0391 26.1718 22.2014 26.1718 22.3924V22.9544C26.1718 23.0449 26.1752 23.1238 26.1818 23.1913C26.1885 23.2591 26.2051 23.3275 26.2317 23.3969H25.6732V23.397ZM25.075 20.2736V21.3928H25.2893C25.3923 21.3928 25.473 21.365 25.5311 21.3096C25.5892 21.2543 25.6184 21.1533 25.6184 21.0077V20.6484C25.6184 20.5165 25.5959 20.4213 25.5511 20.362C25.5062 20.3031 25.4356 20.2736 25.3392 20.2736H25.075V20.2736Z" fill="#4D2D0B"/>
<path d="M27.044 22.1894L26.3511 19.7529H26.9243L27.3431 21.4135L27.7619 19.7529H28.2852L27.5923 22.1894V23.397H27.0439V22.1894H27.044Z" fill="#4D2D0B"/>
<path d="M27.9398 23.6719H16.7148V24.0326H27.9398V23.6719Z" fill="#4D2D0B"/>
<path d="M14.9289 11.1897C14.9742 11.1986 15.0151 11.2153 15.0516 11.2398C15.0879 11.2643 15.1226 11.2991 15.1555 11.3439C15.2337 11.451 15.2604 11.5693 15.2353 11.6992C15.2104 11.8289 15.1418 11.9386 15.0295 12.0281C14.9778 12.0694 14.9199 12.1024 14.8558 12.1267C14.7917 12.1514 14.7322 12.1664 14.6771 12.1726L14.6876 12.2631L14.6222 12.3151L14.3075 11.9096L14.3738 11.8568C14.4247 11.8971 14.4745 11.9307 14.5229 11.9574C14.5714 11.984 14.6236 12.0033 14.6799 12.0152C14.7328 12.0261 14.7853 12.0266 14.8377 12.0163C14.8902 12.0062 14.9415 11.9809 14.9916 11.9409C15.0291 11.9109 15.0582 11.8796 15.0788 11.8469C15.0994 11.8145 15.1116 11.7817 15.1153 11.749C15.1188 11.7163 15.1158 11.684 15.1057 11.6517C15.0956 11.6197 15.0785 11.587 15.0542 11.554C15.0189 11.5056 14.9728 11.4709 14.916 11.4499C14.8593 11.4289 14.7971 11.4281 14.7295 11.4479C14.6833 11.4611 14.6307 11.4773 14.572 11.4961C14.5132 11.5148 14.4613 11.5292 14.4166 11.5399C14.3288 11.5614 14.2485 11.5616 14.1758 11.5408C14.1032 11.52 14.0376 11.4694 13.979 11.3891C13.9452 11.343 13.9228 11.2929 13.9118 11.2388C13.9006 11.1847 13.9002 11.1287 13.9106 11.0707C13.9206 11.0162 13.941 10.9632 13.9717 10.9121C14.0024 10.8609 14.0412 10.8168 14.0881 10.7795C14.1415 10.7368 14.1956 10.7072 14.2503 10.6906C14.3049 10.6742 14.3581 10.6634 14.4096 10.6582L14.4006 10.5735L14.466 10.5215L14.7664 10.9182L14.7002 10.971C14.6544 10.9345 14.6088 10.9011 14.563 10.8709C14.5172 10.8408 14.4699 10.8182 14.4209 10.8032C14.3734 10.789 14.3255 10.7853 14.2773 10.7926C14.2293 10.8 14.1807 10.8234 14.1315 10.8624C14.0797 10.9037 14.0483 10.956 14.0373 11.02C14.0261 11.0837 14.0388 11.1407 14.0755 11.1909C14.1138 11.243 14.1571 11.2772 14.2057 11.2929C14.2544 11.3088 14.3091 11.3099 14.37 11.2964C14.4243 11.2845 14.4759 11.2706 14.5251 11.2543C14.574 11.2383 14.6227 11.2243 14.6705 11.212C14.714 11.2007 14.7578 11.1925 14.8018 11.1871C14.8459 11.1815 14.8881 11.1824 14.9289 11.1897Z" fill="url(#paint27_linear_548_117)"/>
<path d="M15.8926 10.0086C15.9328 10.0759 15.9559 10.1441 15.9616 10.2123C15.9672 10.2808 15.9578 10.3465 15.9333 10.4098C15.9095 10.4725 15.8757 10.529 15.8322 10.5794C15.7888 10.6295 15.7374 10.674 15.678 10.7125L15.5392 10.8029L15.7732 11.1948C15.7858 11.216 15.8004 11.2327 15.8167 11.2443C15.8329 11.256 15.8542 11.2594 15.8802 11.2542C15.8932 11.2517 15.914 11.2436 15.9427 11.23C15.9714 11.2165 15.9968 11.2028 16.0194 11.189L16.0581 11.2538L15.5265 11.5998L15.4879 11.5349C15.5012 11.5246 15.5201 11.5094 15.5449 11.4891C15.5694 11.4687 15.5856 11.4528 15.5931 11.4412C15.6058 11.4218 15.6115 11.402 15.6104 11.3817C15.6092 11.3616 15.6015 11.3394 15.5873 11.3159L15.0304 10.3828C15.0176 10.3614 15.0033 10.3443 14.9874 10.3311C14.9715 10.3179 14.9501 10.314 14.9234 10.3195C14.8967 10.3259 14.8715 10.3347 14.8475 10.3455C14.8239 10.3564 14.8037 10.3662 14.7871 10.3753L14.7485 10.3105L15.3139 9.9425C15.4291 9.8675 15.54 9.83567 15.6465 9.84693C15.7528 9.8582 15.8349 9.91202 15.8926 10.0086ZM15.759 10.4017C15.7614 10.3598 15.7564 10.321 15.7441 10.2856C15.7319 10.2501 15.7182 10.22 15.7033 10.195C15.6828 10.1603 15.6579 10.1277 15.6285 10.0969C15.5993 10.0661 15.5672 10.0438 15.5318 10.0294C15.4945 10.0141 15.4545 10.0094 15.412 10.0153C15.3694 10.021 15.3233 10.0399 15.2739 10.0723L15.1509 10.1524L15.4919 10.7237L15.5808 10.6657C15.6437 10.6249 15.6887 10.5816 15.7159 10.5356C15.743 10.4896 15.7573 10.4452 15.759 10.4017Z" fill="url(#paint28_linear_548_117)"/>
<path d="M17.504 9.94952L17.6678 10.3656L16.5795 10.9209L16.5475 10.8523C16.5653 10.8415 16.5887 10.8264 16.6176 10.8064C16.6463 10.7865 16.6643 10.7719 16.6714 10.7627C16.6867 10.7429 16.6945 10.7235 16.695 10.7041C16.6955 10.6848 16.6901 10.6633 16.679 10.6393L16.2185 9.65532C16.2085 9.63404 16.1963 9.61696 16.1818 9.60409C16.1673 9.59104 16.1469 9.58505 16.1206 9.58576C16.1002 9.58594 16.0745 9.58997 16.0432 9.59774C16.0122 9.6057 15.9881 9.61312 15.971 9.62054L15.939 9.55188L16.9533 9.03418L17.1077 9.36406L17.0383 9.39946C17.0032 9.35682 16.9523 9.31855 16.8855 9.2844C16.8188 9.25034 16.7659 9.24006 16.7266 9.25383C16.7062 9.26107 16.6825 9.27064 16.6554 9.28297C16.6284 9.29522 16.5979 9.30979 16.564 9.32723L16.3579 9.43245L16.6126 9.97643L16.7605 9.90098C16.8079 9.87675 16.8403 9.85449 16.858 9.83393C16.8754 9.81346 16.8873 9.78816 16.8937 9.75759C16.8985 9.7322 16.8984 9.70127 16.8932 9.66542C16.8883 9.6293 16.8808 9.59649 16.8709 9.56726L16.9401 9.53195L17.1913 10.0682L17.1221 10.1036C17.1051 10.0741 17.0832 10.0448 17.0563 10.0159C17.0294 9.98716 17.0066 9.96794 16.9877 9.95837C16.9568 9.94309 16.9274 9.93763 16.8994 9.94246C16.8715 9.9472 16.8375 9.95945 16.7974 9.98019L16.6496 10.0556L16.8416 10.4658C16.8609 10.5068 16.8789 10.538 16.8955 10.5589C16.9122 10.5798 16.9313 10.5923 16.9531 10.5963C16.9747 10.6003 17.0002 10.597 17.0296 10.5865C17.0591 10.5759 17.0993 10.5576 17.1504 10.5315C17.1708 10.521 17.1975 10.5073 17.2308 10.4905C17.264 10.4735 17.2916 10.4579 17.313 10.4438C17.3353 10.4293 17.3572 10.4122 17.3791 10.3928C17.4007 10.3734 17.4142 10.355 17.4193 10.3382C17.4331 10.2927 17.4409 10.2309 17.4427 10.1522C17.4444 10.0739 17.4427 10.0176 17.4374 9.9835L17.504 9.94952Z" fill="url(#paint29_linear_548_117)"/>
<path d="M18.4095 10.1157C18.3277 10.1469 18.2435 10.1597 18.1568 10.1546C18.07 10.1496 17.9866 10.1266 17.9066 10.0853C17.8273 10.0438 17.7547 9.98398 17.6887 9.90576C17.6227 9.82771 17.5698 9.73143 17.5299 9.617C17.4898 9.50257 17.4704 9.39235 17.4712 9.2865C17.4722 9.18047 17.4905 9.08276 17.5262 8.99283C17.5614 8.90388 17.6126 8.8261 17.6797 8.75923C17.7469 8.69263 17.8256 8.64185 17.9164 8.60752C17.984 8.58169 18.0482 8.5672 18.109 8.56381C18.1697 8.5605 18.2305 8.56524 18.291 8.57793L18.3067 8.49426L18.3839 8.46484L18.5709 8.972L18.4918 9.00212C18.4641 8.95635 18.4298 8.90826 18.3889 8.85784C18.348 8.80768 18.3066 8.76754 18.2648 8.73778C18.218 8.70371 18.1688 8.6819 18.1173 8.67225C18.0659 8.6625 18.0128 8.66804 17.9581 8.68887C17.8957 8.71274 17.8427 8.74931 17.7992 8.79874C17.7555 8.84809 17.724 8.90853 17.7045 8.97995C17.6863 9.0487 17.6811 9.12925 17.6893 9.22142C17.6976 9.31359 17.7197 9.41148 17.7559 9.51509C17.7879 9.60672 17.8283 9.68655 17.8773 9.75441C17.9261 9.82235 17.9813 9.87733 18.0427 9.91952C18.1038 9.96109 18.168 9.98738 18.2357 9.99811C18.3032 10.0091 18.3718 10.0014 18.4412 9.97468C18.4933 9.95511 18.5382 9.92811 18.5761 9.89423C18.6138 9.86052 18.6438 9.82351 18.666 9.78292C18.6879 9.74091 18.7046 9.69675 18.7158 9.64981C18.7271 9.60279 18.7327 9.55407 18.7326 9.50374L18.8177 9.51259C18.8119 9.67547 18.774 9.80492 18.7039 9.90075C18.6337 9.99569 18.5356 10.0675 18.4095 10.1157Z" fill="url(#paint30_linear_548_117)"/>
<path d="M19.6582 9.68064L19.0244 9.8614L19.0051 9.78809C19.0226 9.78157 19.0478 9.77209 19.0808 9.75958C19.1138 9.74724 19.1365 9.73642 19.1489 9.72686C19.1684 9.71184 19.181 9.69503 19.1869 9.67653C19.1927 9.65811 19.192 9.63522 19.1849 9.60742L18.9062 8.54269C18.8999 8.51847 18.891 8.49951 18.8794 8.48512C18.868 8.47117 18.8472 8.46241 18.8172 8.45902C18.7952 8.45642 18.7682 8.45571 18.7362 8.45705C18.7042 8.45848 18.6784 8.46107 18.6589 8.46519L18.6396 8.39179L19.2736 8.21094L19.2928 8.28451C19.2725 8.29104 19.2487 8.30051 19.2214 8.31321C19.1941 8.32581 19.1708 8.33851 19.1515 8.35165C19.1285 8.36712 19.1151 8.38526 19.1114 8.40618C19.1078 8.42746 19.1089 8.44936 19.1149 8.47207L19.3933 9.5359C19.3991 9.55861 19.4092 9.57756 19.4235 9.59249C19.4376 9.60733 19.4575 9.61654 19.4835 9.62038C19.4988 9.62199 19.5231 9.62155 19.5563 9.61904C19.5894 9.61699 19.6169 9.61279 19.6389 9.60715L19.6582 9.68064Z" fill="url(#paint31_linear_548_117)"/>
<path d="M21.144 9.37556L20.5475 9.49034L20.5343 9.41534C20.5862 9.40157 20.6287 9.3862 20.6616 9.36885C20.6944 9.35187 20.7095 9.33551 20.7067 9.31977C20.7055 9.31342 20.7035 9.30583 20.7006 9.29707C20.6976 9.28795 20.6942 9.28026 20.6903 9.27373L20.5121 8.96093L20.0085 9.05766C19.9983 9.11076 19.9905 9.15653 19.9852 9.1956C19.9798 9.23431 19.9752 9.27016 19.9711 9.30288C19.9676 9.33488 19.966 9.36072 19.9658 9.38029C19.9658 9.39987 19.967 9.41587 19.969 9.42776C19.9741 9.45601 19.9991 9.47363 20.0443 9.48105C20.0895 9.48838 20.1389 9.4882 20.1928 9.48078L20.206 9.55578L19.6655 9.65966L19.6523 9.58484C19.6696 9.57992 19.691 9.57178 19.716 9.55998C19.741 9.54827 19.7611 9.53513 19.7759 9.52074C19.7995 9.49642 19.8169 9.47255 19.8281 9.44895C19.8392 9.42535 19.8486 9.39379 19.8564 9.35428C19.8955 9.15269 19.9377 8.92615 19.9834 8.67512C20.0289 8.42383 20.0698 8.20015 20.1055 8.00401L20.1865 7.98828L20.8925 9.18898C20.9076 9.21437 20.9229 9.23458 20.9388 9.24897C20.9545 9.26327 20.9753 9.27641 21.001 9.28813C21.0182 9.29519 21.04 9.29957 21.0661 9.30127C21.0922 9.30323 21.1138 9.30305 21.1307 9.30037L21.144 9.37556ZM20.4586 8.87412L20.1389 8.33443L20.0271 8.95717L20.4586 8.87412Z" fill="url(#paint32_linear_548_117)"/>
<path d="M22.296 8.83564L22.2996 9.28996L21.1629 9.38473L21.1571 9.30865C21.1735 9.30588 21.197 9.30123 21.2278 9.29515C21.2587 9.28898 21.2801 9.28263 21.292 9.27584C21.3117 9.26493 21.3255 9.25009 21.3333 9.23141C21.3412 9.21281 21.3442 9.18966 21.342 9.16186L21.259 8.07433C21.2571 8.05011 21.2516 8.02901 21.2423 8.01104C21.2331 7.99325 21.2164 7.97939 21.1922 7.96992C21.1759 7.96276 21.1532 7.95624 21.1243 7.95034C21.0952 7.94453 21.0714 7.94158 21.0529 7.94167L21.0471 7.86568L21.6612 7.81445L21.6669 7.89071C21.6477 7.89294 21.6233 7.89858 21.5935 7.90752C21.5636 7.91628 21.5418 7.92397 21.5287 7.93013C21.506 7.94068 21.4912 7.95651 21.4843 7.97796C21.4774 7.99924 21.4748 8.02177 21.4766 8.04546L21.5545 9.06558C21.5581 9.11251 21.5632 9.14889 21.5696 9.17464C21.576 9.20039 21.5879 9.2197 21.6055 9.23248C21.6221 9.24401 21.6461 9.25045 21.6775 9.25179C21.709 9.25322 21.7526 9.25143 21.8087 9.24678C21.8339 9.24464 21.8602 9.24187 21.8874 9.23811C21.9147 9.23445 21.9404 9.22935 21.9648 9.22301C21.9883 9.21675 22.01 9.20915 22.0295 9.19985C22.0491 9.19064 22.0632 9.17992 22.0719 9.16785C22.0975 9.13262 22.1262 9.08015 22.1584 9.01033C22.1906 8.9406 22.2122 8.88437 22.2234 8.84172L22.296 8.83564Z" fill="url(#paint33_linear_548_117)"/>
<path d="M24.1382 8.91583L24.084 9.36211L22.875 9.28442L22.8795 9.20834C22.9001 9.20834 22.9276 9.20691 22.9621 9.2045C22.9966 9.2019 23.0192 9.19869 23.0297 9.1944C23.0523 9.18501 23.0683 9.17205 23.0779 9.15542C23.0874 9.1387 23.0929 9.11724 23.0945 9.09087L23.159 7.99754C23.1603 7.97411 23.1578 7.95293 23.1514 7.93424C23.145 7.91565 23.13 7.89965 23.1067 7.88668C23.0889 7.8764 23.0645 7.86639 23.0339 7.85727C23.0031 7.84806 22.9785 7.84243 22.9602 7.83966L22.9646 7.76367L24.0916 7.83591L24.07 8.20262L23.993 8.19761C23.9825 8.14245 23.9563 8.08282 23.9145 8.01881C23.8727 7.95463 23.8312 7.91851 23.7906 7.91002C23.7695 7.90608 23.7443 7.90215 23.715 7.89893C23.6856 7.89544 23.6522 7.89276 23.6147 7.89035L23.3858 7.87542L23.3501 8.47993L23.5144 8.49066C23.5671 8.49396 23.606 8.49119 23.6309 8.48252C23.6557 8.47358 23.6781 8.45767 23.6979 8.4346C23.7142 8.41485 23.7288 8.38794 23.7414 8.35406C23.754 8.32008 23.7629 8.2879 23.7682 8.25733L23.8452 8.26224L23.8101 8.85826L23.7331 8.85334C23.7324 8.81875 23.7272 8.782 23.7174 8.7432C23.7077 8.70405 23.6968 8.67544 23.6849 8.65765C23.6652 8.62833 23.6423 8.60857 23.6158 8.5982C23.5893 8.5881 23.5538 8.5813 23.5092 8.57844L23.3451 8.56798L23.3182 9.02391C23.3155 9.06951 23.3164 9.1058 23.3209 9.13253C23.3256 9.15926 23.3364 9.18009 23.3534 9.19475C23.3703 9.2095 23.3942 9.21961 23.4248 9.22551C23.4553 9.23141 23.499 9.23623 23.5558 9.23999C23.5784 9.24142 23.6081 9.24339 23.6451 9.24562C23.682 9.24794 23.7131 9.24866 23.7387 9.2475C23.7648 9.24625 23.7919 9.24267 23.8201 9.23695C23.8483 9.2315 23.8686 9.22256 23.881 9.21022C23.9144 9.17812 23.9505 9.12824 23.9893 9.06075C24.0279 8.99316 24.053 8.94345 24.0645 8.91118L24.1382 8.91583Z" fill="url(#paint34_linear_548_117)"/>
<path d="M25.7221 8.88806C25.7004 9.01581 25.6587 9.12192 25.5969 9.20721C25.5351 9.29249 25.4624 9.35838 25.3787 9.40469C25.2943 9.45091 25.2033 9.48005 25.1058 9.49274C25.0082 9.50499 24.9102 9.50231 24.8116 9.48398L24.2163 9.37384L24.2291 9.29875C24.2487 9.3025 24.2744 9.30519 24.3065 9.30724C24.3386 9.30903 24.3601 9.30858 24.371 9.30554C24.3928 9.3 24.4099 9.28901 24.422 9.27291C24.4342 9.25664 24.4424 9.23581 24.4467 9.21034L24.6305 8.12782C24.6346 8.10359 24.6343 8.08142 24.6297 8.06104C24.6252 8.04056 24.6124 8.0226 24.5914 8.00704C24.5722 7.99256 24.551 7.98067 24.5274 7.97119C24.504 7.96189 24.4836 7.95465 24.4663 7.95036L24.479 7.875L25.1068 7.99122C25.1932 8.00722 25.2759 8.03699 25.3548 8.08008C25.4338 8.12362 25.5003 8.17457 25.5544 8.23331C25.6282 8.31162 25.6805 8.40593 25.7112 8.51634C25.7417 8.62675 25.7455 8.75074 25.7221 8.88806ZM25.4741 8.84166C25.4913 8.74091 25.4938 8.64758 25.4819 8.56158C25.4701 8.4754 25.4447 8.39735 25.4057 8.32762C25.3689 8.26129 25.3195 8.20541 25.2573 8.15973C25.1951 8.11414 25.1225 8.08348 25.0394 8.06828C25.0117 8.063 24.9804 8.05791 24.9454 8.05237C24.9105 8.04709 24.8846 8.04334 24.8676 8.04083L24.672 9.19353C24.661 9.25754 24.6715 9.30528 24.7031 9.33657C24.7347 9.36776 24.7877 9.39029 24.8619 9.40415C24.9475 9.42006 25.0251 9.41783 25.0947 9.39807C25.1642 9.37831 25.2237 9.3439 25.273 9.29491C25.3248 9.2435 25.367 9.18074 25.3995 9.10646C25.4319 9.03217 25.4569 8.94393 25.4741 8.84166Z" fill="url(#paint35_linear_548_117)"/>
<path d="M26.3476 9.85679L25.7139 9.67549L25.7331 9.60218C25.7513 9.60585 25.7776 9.61112 25.8121 9.61809C25.8464 9.62471 25.8713 9.62748 25.8867 9.62605C25.9109 9.62319 25.9299 9.61568 25.944 9.6029C25.9579 9.59011 25.9686 9.57009 25.9757 9.54246L26.2549 8.47756C26.2612 8.45351 26.2629 8.43223 26.2599 8.41382C26.2568 8.39558 26.2432 8.37707 26.219 8.35821C26.2013 8.34426 26.1783 8.32942 26.1501 8.31351C26.1219 8.2976 26.0984 8.28651 26.0798 8.27945L26.0989 8.20605L26.7327 8.38709L26.7134 8.46066C26.6928 8.45547 26.6676 8.45109 26.638 8.44743C26.6084 8.44385 26.5821 8.44242 26.5592 8.44341C26.5319 8.44457 26.5115 8.45288 26.4981 8.46924C26.4845 8.48542 26.4748 8.50482 26.4688 8.52771L26.1899 9.59127C26.1841 9.61398 26.1835 9.6357 26.1884 9.656C26.1934 9.67647 26.2061 9.69489 26.2265 9.71196C26.2389 9.72144 26.2601 9.73404 26.2897 9.74951C26.3195 9.76506 26.3451 9.77651 26.3667 9.78339L26.3476 9.85679Z" fill="url(#paint36_linear_548_117)"/>
<path d="M27.9795 9.27706L27.9128 9.25193C27.9154 9.22529 27.9149 9.19275 27.9113 9.15351C27.9077 9.11435 27.9017 9.07671 27.8934 9.03988C27.8846 9.00153 27.873 8.96631 27.8581 8.93457C27.8433 8.90257 27.8257 8.88075 27.8057 8.8694C27.7867 8.85912 27.7622 8.84759 27.7323 8.83471C27.7024 8.82175 27.6745 8.81049 27.6488 8.80065L27.5925 8.77938L27.1938 9.92483C27.1861 9.94682 27.1835 9.96908 27.1862 9.99081C27.1887 10.013 27.1994 10.0332 27.2186 10.0518C27.2285 10.0609 27.2505 10.0765 27.2848 10.0985C27.319 10.1207 27.3463 10.1362 27.3667 10.1446L27.3418 10.2162L26.6943 9.97043L26.7192 9.89882C26.7377 9.90427 26.7662 9.91205 26.8046 9.92215C26.8431 9.93207 26.8704 9.93672 26.8867 9.9361C26.9111 9.93538 26.931 9.92868 26.9469 9.91607C26.9625 9.9032 26.9752 9.88335 26.9848 9.85564L27.3867 8.70115L27.3307 8.67988C27.3107 8.67228 27.2857 8.66343 27.2558 8.65315C27.2257 8.64269 27.1966 8.63446 27.1684 8.6274C27.1462 8.62204 27.1195 8.62695 27.0883 8.64215C27.0571 8.65726 27.0266 8.67648 26.9968 8.69937C26.9669 8.72234 26.9387 8.74791 26.9121 8.77634C26.8854 8.80459 26.8654 8.82881 26.8519 8.84875L26.7841 8.82318L26.9194 8.43457L28.1148 8.88844L27.9795 9.27706Z" fill="url(#paint37_linear_548_117)"/>
<path d="M28.2717 10.6465L27.6743 10.3608L27.7046 10.2914C27.7221 10.2983 27.7473 10.3081 27.7801 10.3204C27.8131 10.3332 27.8372 10.3399 27.8527 10.3411C27.877 10.3423 27.8969 10.3378 27.9127 10.3277C27.9284 10.3177 27.9422 10.2996 27.9535 10.2736L28.3938 9.26997C28.4038 9.24709 28.4087 9.22644 28.4086 9.20793C28.4085 9.18943 28.3979 9.16877 28.3769 9.14616C28.3617 9.12935 28.3412 9.11093 28.3159 9.09046C28.2906 9.06999 28.2691 9.05488 28.2517 9.04478L28.282 8.97559L28.8794 9.2613L28.8491 9.33076C28.8295 9.32209 28.8053 9.31351 28.7767 9.30502C28.7479 9.29626 28.7222 9.29062 28.6995 9.28749C28.6724 9.28401 28.6509 9.2891 28.6351 9.30278C28.6193 9.31628 28.6068 9.33407 28.5973 9.35553L28.1574 10.3581C28.1479 10.3795 28.1441 10.4009 28.1458 10.4217C28.1476 10.4427 28.1572 10.4632 28.1749 10.4834C28.1856 10.4946 28.2045 10.5107 28.2313 10.5309C28.2582 10.5514 28.2818 10.5668 28.3021 10.5773L28.2717 10.6465Z" fill="url(#paint38_linear_548_117)"/>
<path d="M30.0732 10.148C30.0957 10.2423 30.0991 10.342 30.0834 10.447C30.0678 10.5518 30.0315 10.6565 29.9742 10.7607C29.9166 10.8657 29.8483 10.9516 29.7691 11.0181C29.69 11.0844 29.6052 11.1309 29.5152 11.157C29.4272 11.1834 29.3377 11.191 29.2469 11.1796C29.156 11.1681 29.0691 11.1376 28.9864 11.088C28.8984 11.0356 28.8265 10.9695 28.7708 10.8905C28.715 10.8113 28.6772 10.7249 28.6574 10.6316C28.6368 10.5392 28.6349 10.4411 28.6516 10.3365C28.668 10.2322 28.7033 10.131 28.7571 10.0329C28.816 9.92543 28.8847 9.83916 28.9629 9.77417C29.0412 9.709 29.1255 9.66287 29.2157 9.63516C29.305 9.60762 29.3955 9.59993 29.4873 9.61191C29.5791 9.62398 29.6655 9.65429 29.7463 9.70256C29.8301 9.75254 29.9002 9.81645 29.9566 9.89396C30.0129 9.97147 30.0518 10.0559 30.0732 10.148ZM29.4261 11.0059C29.4904 10.9695 29.5497 10.9197 29.6041 10.8574C29.6586 10.7952 29.7099 10.7198 29.7583 10.6316C29.8079 10.5409 29.8452 10.4525 29.8698 10.3668C29.8945 10.2809 29.905 10.2012 29.9016 10.1283C29.8977 10.0559 29.8794 9.99024 29.8462 9.93115C29.8131 9.87233 29.7645 9.82361 29.701 9.7857C29.6296 9.74288 29.5596 9.72375 29.4909 9.72795C29.4222 9.73224 29.3564 9.75352 29.2935 9.79187C29.2337 9.8287 29.1765 9.87939 29.1217 9.94385C29.0669 10.0085 29.0175 10.0812 28.9732 10.1619C28.924 10.2514 28.8875 10.3368 28.8635 10.4179C28.8395 10.4994 28.8287 10.5779 28.8313 10.6539C28.8336 10.7276 28.8507 10.7945 28.8824 10.8545C28.9144 10.9143 28.9643 10.9645 29.0321 11.0052C29.0957 11.0434 29.1617 11.062 29.2298 11.0616C29.2978 11.0611 29.3634 11.0426 29.4261 11.0059Z" fill="url(#paint39_linear_548_117)"/>
<path d="M31.7584 11.2745C31.7427 11.2633 31.7158 11.2494 31.6777 11.2332C31.6397 11.2169 31.6105 11.2081 31.5903 11.2066C31.5602 11.2054 31.5273 11.2228 31.4913 11.2581C31.4553 11.2935 31.415 11.3425 31.3704 11.405L30.7318 12.2994L30.66 12.2435L30.6648 10.6921L30.2149 11.3222C30.1645 11.3929 30.13 11.4504 30.1115 11.495C30.0929 11.5392 30.0867 11.5765 30.0929 11.6063C30.0966 11.6287 30.1143 11.6608 30.146 11.7026C30.1778 11.7441 30.1997 11.7703 30.212 11.7808L30.1682 11.8419L29.6885 11.4683L29.7322 11.4072C29.7479 11.4175 29.7768 11.4314 29.8192 11.4487C29.8615 11.4662 29.89 11.4743 29.9046 11.4729C29.9353 11.4718 29.966 11.4577 29.9967 11.4301C30.0274 11.4026 30.0711 11.3491 30.1282 11.2694L30.5578 10.6676C30.5767 10.6412 30.5912 10.6115 30.6012 10.5782C30.6112 10.5451 30.6141 10.5155 30.6094 10.4896C30.6032 10.4551 30.588 10.4181 30.5638 10.3783C30.5397 10.3385 30.5175 10.3099 30.4976 10.2926L30.5411 10.2314L30.8753 10.4917L30.8677 11.9348L31.2826 11.3541C31.3334 11.2829 31.3679 11.2249 31.3864 11.1798C31.4049 11.1349 31.4104 11.0997 31.4029 11.074C31.3953 11.0511 31.3778 11.0211 31.3502 10.9835C31.3226 10.9461 31.3004 10.9195 31.2829 10.9043L31.3266 10.8433L31.8022 11.2136L31.7584 11.2745Z" fill="url(#paint40_linear_548_117)"/>
<path d="M14.4413 33.2911C14.3911 33.351 14.3355 33.3937 14.2745 33.4193C14.2135 33.4446 14.1505 33.4546 14.0856 33.4484C14.0209 33.4427 13.9594 33.4253 13.9007 33.3964C13.8419 33.3675 13.7865 33.329 13.7338 33.281L13.6108 33.1685L13.3195 33.5159C13.3037 33.5347 13.2928 33.554 13.2868 33.5736C13.2808 33.5934 13.2838 33.6156 13.2961 33.64C13.3021 33.6523 13.3157 33.6708 13.3363 33.6953C13.3571 33.7201 13.3771 33.7417 13.3963 33.7601L13.3481 33.8176L12.877 33.3867L12.9252 33.3293C12.9384 33.3396 12.9579 33.3541 12.9836 33.3728C13.0093 33.3916 13.0287 33.4032 13.0417 33.4074C13.063 33.4143 13.0828 33.4145 13.1011 33.4074C13.1192 33.4002 13.1372 33.3862 13.1548 33.3652L13.8485 32.5379C13.8643 32.5189 13.8759 32.4997 13.8834 32.4799C13.8908 32.4602 13.8882 32.4377 13.8755 32.4127C13.8617 32.388 13.8465 32.3651 13.8297 32.3443C13.8127 32.3238 13.7978 32.3064 13.7847 32.2927L13.8329 32.2354L14.3342 32.6936C14.4364 32.7869 14.4977 32.8886 14.5182 32.9982C14.5387 33.108 14.513 33.2055 14.4413 33.2911ZM14.0422 33.2717C14.0815 33.2618 14.1154 33.2457 14.1444 33.2231C14.1732 33.2006 14.1971 33.1783 14.2155 33.1562C14.2412 33.1253 14.264 33.0911 14.2837 33.053C14.3034 33.0147 14.3146 32.9761 14.3175 32.9369C14.3206 32.8951 14.3134 32.8535 14.2956 32.8127C14.2781 32.7719 14.2475 32.7313 14.2035 32.6913L14.0945 32.5916L13.6697 33.0982L13.7486 33.1704C13.8043 33.2213 13.8572 33.2537 13.9071 33.2674C13.9571 33.2812 14.002 33.2826 14.0422 33.2717Z" fill="url(#paint41_linear_548_117)"/>
<path d="M15.0829 35.1847L14.762 34.9477C14.7698 34.7791 14.7736 34.6311 14.7737 34.504C14.7737 34.3769 14.7709 34.2437 14.7646 34.1041L14.6428 34.014L14.3755 34.4085C14.3615 34.4289 14.3525 34.4491 14.3481 34.4692C14.3439 34.4894 14.3489 34.5107 14.3636 34.5338C14.3709 34.5453 14.3859 34.5622 14.4087 34.5843C14.4315 34.6064 14.4514 34.6243 14.4684 34.6376L14.4262 34.6998L13.9224 34.3278L13.9645 34.2656C13.9789 34.2744 13.9997 34.2867 14.0271 34.3026C14.0545 34.3186 14.0748 34.3278 14.0882 34.3305C14.1101 34.3353 14.1298 34.3332 14.1473 34.3241C14.1645 34.3151 14.1812 34.2991 14.1966 34.2764L14.8057 33.3769C14.8196 33.3565 14.8291 33.3363 14.8343 33.3165C14.8392 33.2964 14.8343 33.2748 14.8191 33.2514C14.8087 33.2358 14.7938 33.2175 14.7742 33.1965C14.7549 33.1757 14.7377 33.1588 14.7229 33.1461L14.765 33.084L15.3148 33.49C15.3651 33.5272 15.4088 33.5675 15.4458 33.611C15.4826 33.6546 15.5109 33.7015 15.5305 33.7519C15.5494 33.801 15.5564 33.8519 15.5516 33.9049C15.5466 33.9579 15.5262 34.0111 15.4903 34.0641C15.4577 34.1121 15.4221 34.1492 15.3833 34.1757C15.3441 34.2022 15.302 34.2187 15.2565 34.2256C15.2142 34.2319 15.1692 34.2314 15.1216 34.2237C15.0738 34.2161 15.0242 34.2032 14.9731 34.1846C14.977 34.3092 14.9794 34.4134 14.9806 34.4978C14.9819 34.582 14.9839 34.6847 14.9866 34.8061C14.9876 34.8592 14.9922 34.9015 15.0008 34.933C15.0094 34.9641 15.0199 34.9924 15.0324 35.0172C15.0418 35.0356 15.0561 35.055 15.0751 35.0752C15.0942 35.0955 15.1108 35.1112 15.1249 35.1224L15.0829 35.1847ZM15.2691 33.9314C15.3202 33.8561 15.3398 33.7811 15.3282 33.7065C15.3166 33.6319 15.2731 33.5666 15.1974 33.5108L15.0547 33.4053L14.6939 33.9385L14.8038 34.0196C14.881 34.0767 14.9628 34.0984 15.0493 34.0848C15.1357 34.0714 15.209 34.02 15.2691 33.9314Z" fill="url(#paint42_linear_548_117)"/>
<path d="M16.4999 35.4941L16.2662 35.872L15.2085 35.2552L15.2442 35.1886C15.2627 35.1978 15.288 35.2091 15.3203 35.2225C15.3523 35.2359 15.3741 35.2431 15.3854 35.244C15.4096 35.2457 15.4293 35.2414 15.4449 35.2307C15.4604 35.2201 15.4743 35.2031 15.4867 35.18L15.998 34.2238C16.0092 34.2034 16.0155 34.183 16.0174 34.1633C16.0193 34.1434 16.0126 34.1225 15.997 34.1002C15.9853 34.0828 15.9673 34.0628 15.9434 34.0408C15.9196 34.0188 15.9 34.0022 15.8845 33.9914L15.9201 33.9248L16.9058 34.4998L16.7343 34.8204L16.6669 34.7811C16.6804 34.7267 16.6816 34.6611 16.6703 34.5845C16.6592 34.5079 16.6369 34.4565 16.6036 34.4304C16.5864 34.4172 16.5653 34.4025 16.5402 34.3861C16.515 34.37 16.4862 34.3522 16.4531 34.333L16.2529 34.2162L15.9702 34.745L16.1139 34.8287C16.1599 34.8557 16.1962 34.8707 16.2222 34.874C16.2482 34.8773 16.2752 34.8733 16.3027 34.8613C16.3253 34.8509 16.3496 34.8333 16.3752 34.8082C16.4005 34.7834 16.4219 34.7583 16.4394 34.7331L16.5067 34.7725L16.228 35.2936L16.1607 35.2544C16.1744 35.2229 16.1848 35.1874 16.1922 35.148C16.1997 35.1084 16.2018 35.0779 16.1985 35.0563C16.1929 35.021 16.1803 34.9928 16.1607 34.9716C16.141 34.9503 16.1117 34.9283 16.0729 34.9056L15.9291 34.8218L15.716 35.2206C15.6947 35.2603 15.6805 35.2936 15.6735 35.3198C15.6665 35.3459 15.6678 35.3697 15.6769 35.3905C15.6862 35.4113 15.7033 35.4315 15.7284 35.4506C15.7535 35.4697 15.7908 35.4936 15.8405 35.5228C15.8603 35.5343 15.8863 35.5496 15.9187 35.5685C15.951 35.5872 15.9788 35.602 16.0024 35.6123C16.0262 35.6229 16.0522 35.6322 16.08 35.6398C16.1078 35.6473 16.1297 35.6486 16.1459 35.6432C16.1895 35.6292 16.2426 35.6006 16.3055 35.5573C16.3683 35.5139 16.4115 35.4803 16.4353 35.4565L16.4999 35.4941Z" fill="url(#paint43_linear_548_117)"/>
<path d="M18.1495 36.71L17.5522 36.4567L17.5796 36.386C17.6014 36.3946 17.6301 36.404 17.6657 36.4144C17.7011 36.4248 17.7267 36.429 17.7423 36.4271C17.7669 36.423 17.7869 36.4145 17.8024 36.4023C17.8179 36.39 17.8305 36.3715 17.84 36.347L18.2392 35.3204L18.225 35.3144L17.2961 36.3216L17.2483 36.3014L17.2867 34.8873L17.2743 34.8823L16.9467 35.7249C16.9149 35.8064 16.8955 35.8706 16.889 35.917C16.8824 35.9638 16.8854 36.0006 16.8986 36.0279C16.9071 36.0476 16.9311 36.0733 16.9699 36.1043C17.0088 36.1356 17.0348 36.1544 17.0479 36.1606L17.0204 36.2313L16.4746 35.9996L16.502 35.9291C16.5317 35.9384 16.5636 35.9463 16.598 35.9523C16.6321 35.9583 16.6607 35.958 16.6837 35.9503C16.7131 35.9413 16.7394 35.9192 16.7626 35.8843C16.7859 35.8493 16.815 35.7867 16.85 35.6966L17.131 34.9743C17.1472 34.9325 17.1557 34.8964 17.1564 34.8658C17.1572 34.8352 17.152 34.8078 17.1406 34.7836C17.128 34.7575 17.1091 34.7338 17.0837 34.7133C17.0585 34.6925 17.0321 34.6755 17.0048 34.6623L17.0323 34.5918L17.4931 34.7872L17.4683 36.0111L18.1435 35.2647C18.1683 35.2373 18.1918 35.2077 18.2142 35.1757C18.2366 35.144 18.2505 35.1222 18.2558 35.1106L18.6966 35.2975L18.669 35.368C18.6509 35.3612 18.6271 35.3547 18.5975 35.3481C18.5678 35.3418 18.5456 35.3382 18.5312 35.3374C18.5064 35.3361 18.4867 35.3433 18.4719 35.3587C18.457 35.3739 18.4453 35.3927 18.4367 35.4146L18.0411 36.4322C18.0321 36.4554 18.0282 36.4768 18.0297 36.4959C18.031 36.5148 18.0402 36.535 18.0572 36.5562C18.0661 36.5678 18.084 36.5826 18.1111 36.6004C18.1381 36.6185 18.16 36.6315 18.1769 36.6393L18.1495 36.71Z" fill="url(#paint44_linear_548_117)"/>
<path d="M19.0485 36.9671L18.4175 36.7757L18.4379 36.7025C18.4559 36.7066 18.4822 36.7122 18.5165 36.7197C18.5509 36.7271 18.5756 36.7303 18.5911 36.7287C18.6152 36.7266 18.6345 36.7192 18.6485 36.7067C18.6628 36.6941 18.6737 36.6742 18.6814 36.6468L18.9762 35.5869C18.983 35.5627 18.985 35.5415 18.9822 35.5232C18.9795 35.5047 18.9661 35.486 18.9421 35.4668C18.9247 35.4524 18.902 35.4373 18.8741 35.4209C18.8462 35.4047 18.8228 35.3929 18.8041 35.3857L18.8245 35.3125L19.4554 35.504L19.4352 35.5771C19.4146 35.5716 19.3893 35.5668 19.3599 35.5627C19.3304 35.5586 19.3041 35.5569 19.2812 35.5573C19.2538 35.558 19.2332 35.5661 19.2196 35.5821C19.2059 35.5981 19.1959 35.6174 19.1897 35.6401L18.8951 36.6992C18.8887 36.7218 18.888 36.7432 18.8926 36.7637C18.8972 36.7841 18.9096 36.8029 18.9298 36.8205C18.9422 36.8301 18.963 36.843 18.9925 36.859C19.0219 36.875 19.0474 36.8865 19.0689 36.8939L19.0485 36.9671Z" fill="url(#paint45_linear_548_117)"/>
<path d="M21.0152 35.9233C20.9963 35.9202 20.9679 35.9187 20.9301 35.9191C20.8924 35.9194 20.8606 35.9249 20.8349 35.9357C20.8088 35.9473 20.7868 35.9773 20.7686 36.0262C20.7504 36.0749 20.7344 36.1359 20.7208 36.209L20.5992 36.8591C20.5836 36.942 20.5536 37.0108 20.5091 37.0651C20.4648 37.1195 20.412 37.1609 20.3509 37.1894C20.2906 37.2164 20.2296 37.2322 20.1675 37.2368C20.1054 37.2412 20.0477 37.2379 19.9938 37.227C19.9077 37.2095 19.8332 37.1819 19.7703 37.1448C19.7076 37.1075 19.6569 37.0642 19.6187 37.0149C19.5811 36.9654 19.5558 36.9126 19.5425 36.8564C19.5293 36.8 19.5281 36.7438 19.5384 36.6876L19.7039 35.8034C19.7085 35.7789 19.7085 35.7575 19.7039 35.7393C19.6993 35.7214 19.6865 35.703 19.6656 35.6838C19.6506 35.6708 19.6306 35.6583 19.6054 35.6471C19.5804 35.6356 19.5594 35.6278 19.5429 35.6228L19.5568 35.5479L20.1533 35.6695L20.1394 35.7444C20.1204 35.7414 20.096 35.7396 20.0664 35.7394C20.0369 35.7393 20.0147 35.7402 20.0004 35.7422C19.9759 35.746 19.9581 35.757 19.9466 35.775C19.9352 35.7932 19.9273 35.8137 19.923 35.837L19.7685 36.6624C19.761 36.7024 19.7573 36.7453 19.7575 36.7907C19.7577 36.8363 19.7668 36.8807 19.7845 36.9237C19.8036 36.9677 19.8332 37.0064 19.8739 37.0403C19.9143 37.0741 19.974 37.099 20.0527 37.1152C20.1266 37.1303 20.1909 37.1306 20.2457 37.1162C20.3004 37.1019 20.346 37.0776 20.3822 37.0437C20.417 37.0112 20.4441 36.9756 20.4631 36.9366C20.4823 36.8974 20.4959 36.8568 20.5038 36.8146L20.6184 36.2019C20.6331 36.1239 20.6395 36.0593 20.6381 36.0074C20.6367 35.9559 20.6268 35.9202 20.6089 35.9004C20.5886 35.8781 20.559 35.8578 20.5202 35.8398C20.4813 35.8217 20.4512 35.8095 20.4299 35.8038L20.4439 35.729L21.0292 35.8484L21.0152 35.9233Z" fill="url(#paint46_linear_548_117)"/>
<path d="M22.7428 37.493L22.0992 37.4525L22.1035 37.3764C22.1268 37.3772 22.1569 37.3765 22.1938 37.3746C22.2307 37.3725 22.2561 37.368 22.2702 37.3612C22.2923 37.3488 22.3088 37.3343 22.3198 37.3175C22.3307 37.3006 22.3367 37.2788 22.3383 37.2526L22.4021 36.1463L22.3867 36.1453L21.8153 37.41L21.7639 37.4069L21.367 36.0544L21.3537 36.0535L21.3014 36.9614C21.2962 37.0493 21.2977 37.1164 21.3057 37.163C21.3137 37.2093 21.3279 37.2431 21.3487 37.2645C21.3629 37.2805 21.3932 37.2967 21.4396 37.3133C21.4861 37.3298 21.5164 37.3389 21.5308 37.3405L21.5263 37.4166L20.9382 37.3799L20.9426 37.3036C20.9735 37.3026 21.0062 37.2994 21.0406 37.2938C21.0748 37.288 21.1017 37.2777 21.1211 37.2631C21.1461 37.2447 21.1643 37.215 21.1757 37.1741C21.1869 37.1331 21.1954 37.0642 21.201 36.9671L21.2458 36.189C21.2486 36.1438 21.2454 36.1068 21.2368 36.0775C21.2282 36.0483 21.2149 36.0242 21.1968 36.0051C21.1766 35.9845 21.1515 35.9686 21.1213 35.9574C21.091 35.9463 21.0609 35.939 21.0308 35.9355L21.0351 35.8594L21.5318 35.8906L21.8833 37.0585L22.2944 36.1257C22.3095 36.0916 22.3226 36.0557 22.3341 36.0181C22.3455 35.9803 22.352 35.9551 22.3534 35.9422L22.8284 35.9719L22.824 36.0481C22.8048 36.0476 22.7802 36.0496 22.7501 36.0531C22.72 36.0571 22.6979 36.0611 22.684 36.0652C22.6604 36.0724 22.6436 36.0857 22.6344 36.105C22.625 36.1246 22.6196 36.1462 22.6182 36.1698L22.5551 37.2664C22.5536 37.2913 22.5565 37.3126 22.5638 37.3304C22.5709 37.3479 22.5859 37.3639 22.6084 37.3784C22.6203 37.3862 22.6417 37.3943 22.6729 37.4023C22.704 37.4104 22.7287 37.4153 22.7472 37.4172L22.7428 37.493Z" fill="url(#paint47_linear_548_117)"/>
<path d="M24.6384 35.9804C24.7099 36.0429 24.7689 36.1211 24.8156 36.2152C24.8623 36.3096 24.8921 36.4165 24.9049 36.5361C24.915 36.6314 24.9125 36.7211 24.8975 36.805C24.8824 36.8889 24.8562 36.9654 24.8196 37.0344C24.7846 37.1004 24.7409 37.1595 24.6886 37.2118C24.6362 37.2639 24.576 37.3073 24.5081 37.342C24.5177 37.4201 24.5522 37.4873 24.6113 37.5433C24.6703 37.5995 24.7303 37.624 24.7909 37.6169C24.8468 37.6104 24.8891 37.6034 24.9181 37.5962C24.9469 37.5887 24.9707 37.5822 24.9894 37.5763L24.9984 37.6606C24.9687 37.6737 24.9314 37.688 24.8866 37.7035C24.8416 37.7191 24.7784 37.7318 24.6966 37.7412C24.6509 37.7466 24.6056 37.7449 24.5606 37.7361C24.5155 37.7274 24.4735 37.7097 24.4348 37.6832C24.3961 37.6568 24.3625 37.6214 24.334 37.5772C24.3055 37.533 24.2841 37.4772 24.2699 37.4097C24.1722 37.4174 24.0795 37.406 23.9921 37.3755C23.9047 37.3451 23.8277 37.2985 23.7609 37.2357C23.6934 37.1722 23.6379 37.095 23.5945 37.004C23.5508 36.9128 23.523 36.8112 23.511 36.6988C23.4977 36.5756 23.5044 36.4637 23.531 36.3629C23.5574 36.2623 23.5991 36.173 23.6563 36.0949C23.713 36.0178 23.7816 35.9558 23.8624 35.9089C23.9434 35.8621 24.0301 35.833 24.1227 35.8222C24.2187 35.811 24.3115 35.8194 24.4007 35.8471C24.4898 35.8752 24.569 35.9194 24.6384 35.9804ZM24.601 37.0717C24.6322 37.0026 24.6522 36.9261 24.6608 36.8423C24.6695 36.7586 24.6682 36.666 24.6574 36.5649C24.6464 36.4612 24.6265 36.3668 24.5977 36.2825C24.569 36.1978 24.5326 36.1273 24.4887 36.0705C24.4446 36.0143 24.3924 35.9726 24.3324 35.9453C24.2723 35.9183 24.2057 35.9089 24.1328 35.9174C24.051 35.9269 23.9837 35.9547 23.9307 36.0005C23.8778 36.0463 23.8367 36.1041 23.8076 36.1737C23.7802 36.2403 23.7626 36.3164 23.7549 36.4025C23.7474 36.4883 23.7483 36.5776 23.7583 36.67C23.7694 36.7725 23.788 36.864 23.8146 36.9443C23.8411 37.0249 23.877 37.0948 23.9218 37.1544C23.9653 37.2127 24.017 37.2564 24.0766 37.2849C24.1363 37.3135 24.205 37.3235 24.2826 37.3145C24.3554 37.3058 24.4193 37.2804 24.4742 37.238C24.5288 37.1955 24.5712 37.1402 24.601 37.0717Z" fill="url(#paint48_linear_548_117)"/>
<path d="M26.3942 35.4777C26.3756 35.4829 26.3493 35.4939 26.315 35.5104C26.2806 35.527 26.2538 35.5456 26.2346 35.5664C26.2154 35.5881 26.2072 35.6248 26.2098 35.6772C26.2124 35.7295 26.2219 35.7918 26.2382 35.8645L26.3833 36.5095C26.4019 36.5917 26.4016 36.667 26.3824 36.7359C26.3634 36.8044 26.3315 36.8648 26.2869 36.9168C26.2427 36.9673 26.1931 37.0081 26.1384 37.0388C26.0838 37.0695 26.0296 37.0913 25.9763 37.1045C25.891 37.1255 25.8122 37.1324 25.7402 37.1253C25.6683 37.1183 25.6052 37.1004 25.5508 37.0719C25.4972 37.0431 25.4532 37.0061 25.4191 36.9604C25.3848 36.9146 25.3615 36.8639 25.3489 36.8082L25.1516 35.9312C25.1461 35.9069 25.1377 35.8874 25.1264 35.8729C25.115 35.8584 25.096 35.847 25.0695 35.8387C25.0507 35.8331 25.0275 35.8305 25.0002 35.831C24.9728 35.8314 24.9506 35.833 24.9337 35.8357L24.917 35.7614L25.5085 35.6164L25.5254 35.6906C25.5068 35.6959 25.484 35.7047 25.4568 35.7175C25.4298 35.7298 25.41 35.7404 25.3979 35.7483C25.3769 35.7623 25.3649 35.78 25.3617 35.8014C25.3583 35.8228 25.3594 35.8449 25.3645 35.8679L25.5487 36.6868C25.5575 36.7263 25.5711 36.7671 25.5892 36.8084C25.6074 36.85 25.6332 36.8863 25.6662 36.9181C25.7008 36.9499 25.7433 36.9727 25.7934 36.9862C25.8435 36.9994 25.9077 36.9966 25.9858 36.9773C26.0593 36.9595 26.118 36.9321 26.1622 36.8956C26.2066 36.859 26.2384 36.8174 26.2583 36.7707C26.277 36.7264 26.2877 36.6824 26.2898 36.6384C26.2919 36.5945 26.2883 36.5517 26.2788 36.5098L26.1421 35.902C26.1247 35.8247 26.1051 35.7628 26.0835 35.7164C26.0616 35.6699 26.0388 35.6415 26.0147 35.6314C25.9873 35.6195 25.9524 35.6139 25.9098 35.614C25.8672 35.6142 25.8352 35.6162 25.8134 35.6199L25.7967 35.5457L26.3773 35.4033L26.3942 35.4777Z" fill="url(#paint49_linear_548_117)"/>
<path d="M28.2032 36.3323L27.6322 36.5457L27.6077 36.4738C27.6568 36.4517 27.6962 36.4293 27.7259 36.4068C27.7557 36.3844 27.768 36.3656 27.7632 36.3509C27.7611 36.3448 27.7578 36.3375 27.7536 36.3293C27.7492 36.3209 27.7446 36.314 27.7397 36.3083L27.5158 36.0291L27.0335 36.2092C27.0317 36.2632 27.031 36.3097 27.0316 36.349C27.0325 36.3883 27.0333 36.4246 27.0344 36.4576C27.0359 36.4897 27.0382 36.5154 27.0412 36.5347C27.0442 36.5542 27.0477 36.5696 27.0517 36.5811C27.061 36.6082 27.0883 36.6214 27.1342 36.621C27.1798 36.6206 27.2287 36.6124 27.2806 36.596L27.3053 36.6678L26.7878 36.8609L26.7632 36.7892C26.7795 36.7815 26.7991 36.7698 26.8222 36.7541C26.8452 36.7383 26.8628 36.722 26.8752 36.7052C26.8948 36.6774 26.9084 36.6509 26.9157 36.6256C26.9232 36.6003 26.9277 36.5678 26.9292 36.5276C26.9367 36.3219 26.9436 36.0911 26.95 35.8356C26.9564 35.58 26.9621 35.3527 26.9674 35.1529L27.0447 35.124L27.9266 36.1907C27.9452 36.2134 27.9634 36.2303 27.9812 36.242C27.9991 36.2537 28.0216 36.263 28.0488 36.2703C28.0669 36.2743 28.0888 36.2749 28.115 36.2725C28.1411 36.2698 28.1624 36.266 28.1786 36.2605L28.2032 36.3323ZM27.4498 35.9524L27.051 35.4734L27.0365 36.1067L27.4498 35.9524Z" fill="url(#paint50_linear_548_117)"/>
<path d="M29.1994 35.3339L29.3572 35.7572L28.3266 36.2669L28.2954 36.1979C28.3096 36.1892 28.3302 36.1764 28.3569 36.1593C28.3837 36.1421 28.4015 36.1281 28.4102 36.1173C28.425 36.0999 28.4328 36.0807 28.4338 36.0605C28.435 36.0402 28.4297 36.0174 28.4183 35.9921L27.971 35.0061C27.9612 34.9842 27.9489 34.9667 27.9341 34.9532C27.9192 34.9399 27.899 34.9332 27.8732 34.9332C27.8556 34.9327 27.832 34.9348 27.803 34.9401C27.774 34.9455 27.7507 34.9516 27.7334 34.9587L27.7021 34.8897L28.2589 34.6143L28.2901 34.6833C28.273 34.6925 28.2521 34.7068 28.2272 34.7263C28.2023 34.7458 28.1846 34.7608 28.1742 34.7715C28.1566 34.7897 28.1483 34.8101 28.149 34.8325C28.1498 34.8551 28.155 34.8771 28.1648 34.8985L28.5842 35.8234C28.6036 35.8662 28.6206 35.8983 28.6354 35.9198C28.65 35.9415 28.668 35.9551 28.6886 35.9607C28.708 35.9653 28.7327 35.9625 28.7625 35.9519C28.7924 35.9415 28.8327 35.9238 28.8835 35.8987C28.9063 35.8873 28.9298 35.8749 28.9542 35.8614C28.9783 35.8479 29.0007 35.8335 29.0213 35.8186C29.0411 35.8041 29.0588 35.7889 29.0738 35.773C29.0892 35.7571 29.0988 35.742 29.1027 35.7274C29.1146 35.685 29.1237 35.6253 29.1301 35.5481C29.1363 35.4709 29.1376 35.4103 29.1336 35.3665L29.1994 35.3339Z" fill="url(#paint51_linear_548_117)"/>
<path d="M30.0819 35.3192L29.5116 35.6601L29.4754 35.5941C29.4907 35.5832 29.5129 35.5674 29.5419 35.547C29.5709 35.5262 29.5903 35.5096 29.6001 35.4972C29.6152 35.4774 29.6234 35.458 29.6247 35.4385C29.626 35.4192 29.6199 35.3971 29.6062 35.3723L29.0808 34.4146C29.069 34.3927 29.0556 34.3766 29.0411 34.3657C29.0267 34.3553 29.0043 34.3522 28.9745 34.3568C28.9526 34.3599 28.9263 34.3665 28.8956 34.3759C28.865 34.3858 28.8408 34.3951 28.8227 34.4042L28.7866 34.3381L29.3567 33.9971L29.393 34.0632C29.3749 34.0748 29.3541 34.0903 29.3308 34.1098C29.3075 34.1291 29.2879 34.1475 29.2723 34.1651C29.2538 34.1861 29.2452 34.2073 29.2467 34.2286C29.2482 34.2501 29.2546 34.2711 29.2659 34.2915L29.7908 35.2484C29.802 35.2689 29.8162 35.2845 29.8335 35.295C29.8509 35.3057 29.8726 35.3096 29.8984 35.3065C29.9137 35.3041 29.937 35.2971 29.9684 35.2862C29.9999 35.275 30.0256 35.2639 30.0457 35.253L30.0819 35.3192Z" fill="url(#paint52_linear_548_117)"/>
<path d="M30.6851 33.5667L30.6265 33.6087C30.6075 33.5911 30.5818 33.5723 30.5492 33.5526C30.5168 33.5329 30.4837 33.516 30.4503 33.5018C30.4155 33.4868 30.3813 33.4763 30.3478 33.4704C30.3142 33.4642 30.2874 33.4664 30.2666 33.4769C30.2475 33.4872 30.2242 33.5011 30.1969 33.519C30.1694 33.5368 30.1443 33.554 30.1218 33.5702L30.0724 33.6053L30.7318 34.611C30.7447 34.6306 30.7603 34.6456 30.7789 34.6561C30.7974 34.6667 30.8196 34.6693 30.845 34.664C30.858 34.661 30.883 34.6512 30.9203 34.6352C30.9575 34.619 30.9851 34.6046 31.0037 34.5923L31.0449 34.6552L30.4766 35.0617L30.4353 34.9989C30.4504 34.9863 30.4729 34.9668 30.5032 34.9399C30.5333 34.913 30.553 34.8927 30.562 34.8784C30.5754 34.8575 30.5819 34.8365 30.5812 34.8158C30.5806 34.795 30.5723 34.7725 30.5564 34.7482L29.8917 33.7347L29.8425 33.7698C29.825 33.7824 29.8036 33.7984 29.7782 33.8178C29.7527 33.8375 29.7291 33.8571 29.7073 33.8771C29.6902 33.8928 29.6784 33.9183 29.6721 33.9536C29.6659 33.9889 29.6629 34.0259 29.6634 34.0646C29.6637 34.1034 29.6672 34.1422 29.6737 34.1813C29.6803 34.2205 29.6874 34.2516 29.695 34.2747L29.6358 34.3172L29.4121 33.9761L30.4615 33.2256L30.6851 33.5667Z" fill="url(#paint53_linear_548_117)"/>
<path d="M31.5133 32.4007C31.5048 32.4094 31.4937 32.4253 31.4797 32.4492C31.4658 32.4731 31.4571 32.492 31.4541 32.506C31.4443 32.5371 31.4386 32.5596 31.4369 32.5731C31.4353 32.5865 31.4361 32.6178 31.4394 32.6662C31.4469 32.7623 31.4583 32.8567 31.4735 32.9491C31.4886 33.0413 31.5087 33.1579 31.5334 33.2991C31.5421 33.351 31.552 33.3904 31.5629 33.4175C31.5737 33.4443 31.5955 33.4781 31.6283 33.5188L31.8075 33.7414C31.8233 33.7612 31.8409 33.775 31.8603 33.7829C31.8795 33.7908 31.9019 33.791 31.9273 33.7836C31.9419 33.7784 31.9657 33.7665 31.9992 33.7478C32.0326 33.7292 32.0582 33.7125 32.076 33.698L32.1229 33.7564L31.6 34.215L31.5531 34.1566C31.567 34.1428 31.5873 34.1211 31.6143 34.0924C31.6414 34.0636 31.6586 34.0417 31.6662 34.0267C31.6785 34.002 31.6824 33.9792 31.6781 33.9588C31.6737 33.9383 31.663 33.9176 31.6463 33.8969L31.4182 33.6132C31.4111 33.6045 31.3932 33.593 31.3642 33.5784C31.3351 33.5641 31.3021 33.549 31.265 33.5329C31.1824 33.497 31.092 33.4588 30.9942 33.4184C30.8964 33.3781 30.8121 33.3439 30.7414 33.3162C30.6991 33.3001 30.6647 33.29 30.6385 33.2859C30.6123 33.2816 30.5857 33.2811 30.5587 33.2843C30.5395 33.2872 30.5194 33.294 30.4983 33.3051C30.4773 33.316 30.4591 33.3274 30.444 33.3386L30.3972 33.2804L30.874 32.8621L30.9208 32.9205C30.8682 32.9685 30.8335 33.0054 30.8167 33.0313C30.8 33.0573 30.7963 33.0761 30.8062 33.0882C30.8087 33.0915 30.8149 33.096 30.8247 33.1012C30.8343 33.1069 30.8472 33.1131 30.863 33.1209C30.8813 33.129 30.9026 33.1382 30.9268 33.1484C30.9508 33.1585 30.974 33.1684 30.9962 33.178C31.06 33.2052 31.1242 33.2317 31.189 33.2578C31.2536 33.2838 31.3379 33.3174 31.4419 33.359C31.4126 33.1482 31.3885 32.9851 31.3695 32.8695C31.3505 32.7541 31.3347 32.6887 31.3224 32.6734C31.3123 32.6608 31.2995 32.6545 31.2845 32.6547C31.2694 32.6549 31.2529 32.6592 31.2347 32.6677C31.216 32.6769 31.197 32.6884 31.178 32.7028C31.1591 32.7169 31.1415 32.73 31.1248 32.7417L31.0779 32.6835L31.4664 32.3428L31.5133 32.4007Z" fill="url(#paint54_linear_548_117)"/>
</g>
<defs>
<linearGradient id="paint0_linear_548_117" x1="-3.80087" y1="77.4304" x2="37.8178" y2="-2.278" gradientUnits="userSpaceOnUse">
<stop offset="0.1044" stop-color="#BA903F"/>
<stop offset="0.5" stop-color="#996019"/>
<stop offset="0.6412" stop-color="#6F4411"/>
<stop offset="0.7989" stop-color="#472A09"/>
<stop offset="0.924" stop-color="#2E1904"/>
<stop offset="1" stop-color="#251302"/>
</linearGradient>
<linearGradient id="paint1_linear_548_117" x1="48.049" y1="-23.3655" x2="23.4708" y2="17.0958" gradientUnits="userSpaceOnUse">
<stop offset="0.1044" stop-color="#BA903F"/>
<stop offset="0.5" stop-color="#996019"/>
<stop offset="0.6412" stop-color="#6F4411"/>
<stop offset="0.7989" stop-color="#472A09"/>
<stop offset="0.924" stop-color="#2E1904"/>
<stop offset="1" stop-color="#251302"/>
</linearGradient>
<linearGradient id="paint2_linear_548_117" x1="55.5307" y1="-51.7198" x2="1.78211" y2="59.0297" gradientUnits="userSpaceOnUse">
<stop stop-color="#FFD744"/>
<stop offset="0.0679" stop-color="#A6761A"/>
<stop offset="0.1851" stop-color="#FFD744"/>
<stop offset="0.3981" stop-color="#FFD744"/>
<stop offset="0.561" stop-color="#FCF4AE"/>
<stop offset="0.6792" stop-color="#FFD744"/>
<stop offset="0.75" stop-color="#A6761A"/>
<stop offset="0.8802" stop-color="#FFD744"/>
<stop offset="0.967" stop-color="#FCF4AE"/>
<stop offset="1" stop-color="#FFD744"/>
</linearGradient>
<linearGradient id="paint3_linear_548_117" x1="34.894" y1="-12.8502" x2="16.1681" y2="36.1282" gradientUnits="userSpaceOnUse">
<stop stop-color="#FFD744"/>
<stop offset="0.0679" stop-color="#A6761A"/>
<stop offset="0.1851" stop-color="#FFD744"/>
<stop offset="0.3981" stop-color="#FFD744"/>
<stop offset="0.561" stop-color="#FCF4AE"/>
<stop offset="0.6792" stop-color="#FFD744"/>
<stop offset="0.75" stop-color="#A6761A"/>
<stop offset="0.8802" stop-color="#FFD744"/>
<stop offset="0.967" stop-color="#FCF4AE"/>
<stop offset="1" stop-color="#FFD744"/>
</linearGradient>
<linearGradient id="paint4_linear_548_117" x1="39.9299" y1="-24.3714" x2="11.4547" y2="45.8484" gradientUnits="userSpaceOnUse">
<stop stop-color="#FFD744"/>
<stop offset="0.0679" stop-color="#A6761A"/>
<stop offset="0.1851" stop-color="#FFD744"/>
<stop offset="0.3981" stop-color="#FFD744"/>
<stop offset="0.561" stop-color="#FCF4AE"/>
<stop offset="0.6792" stop-color="#FFD744"/>
<stop offset="0.75" stop-color="#A6761A"/>
<stop offset="0.8802" stop-color="#FFD744"/>
<stop offset="0.967" stop-color="#FCF4AE"/>
<stop offset="1" stop-color="#FFD744"/>
</linearGradient>
<linearGradient id="paint5_linear_548_117" x1="35.346" y1="-7.76849" x2="13.6351" y2="39.1431" gradientUnits="userSpaceOnUse">
<stop offset="0.1044" stop-color="#BA903F"/>
<stop offset="0.5" stop-color="#996019"/>
<stop offset="0.6412" stop-color="#6F4411"/>
<stop offset="0.7989" stop-color="#472A09"/>
<stop offset="0.924" stop-color="#2E1904"/>
<stop offset="1" stop-color="#251302"/>
</linearGradient>
<radialGradient id="paint6_radial_548_117" cx="0" cy="0" r="1" gradientUnits="userSpaceOnUse" gradientTransform="translate(56.8655 -85.882) scale(167.459 174.873)">
<stop stop-color="#FFD744"/>
<stop offset="0.0679" stop-color="#A6761A"/>
<stop offset="0.1851" stop-color="#FFD744"/>
<stop offset="0.3981" stop-color="#FFD744"/>
<stop offset="0.561" stop-color="#FCF4AE"/>
<stop offset="0.6792" stop-color="#FFD744"/>
<stop offset="0.75" stop-color="#A6761A"/>
<stop offset="0.8802" stop-color="#FFD744"/>
<stop offset="0.967" stop-color="#FCF4AE"/>
<stop offset="1" stop-color="#FFD744"/>
</radialGradient>
<linearGradient id="paint7_linear_548_117" x1="32.4214" y1="19.319" x2="22.4216" y2="40.2661" gradientUnits="userSpaceOnUse">
<stop offset="0.1044" stop-color="#BA903F"/>
<stop offset="0.5" stop-color="#996019"/>
<stop offset="0.6412" stop-color="#6F4411"/>
<stop offset="0.7989" stop-color="#472A09"/>
<stop offset="0.924" stop-color="#2E1904"/>
<stop offset="1" stop-color="#251302"/>
</linearGradient>
<linearGradient id="paint8_linear_548_117" x1="32.6591" y1="19.4334" x2="22.6599" y2="40.3794" gradientUnits="userSpaceOnUse">
<stop offset="0.1044" stop-color="#BA903F"/>
<stop offset="0.5" stop-color="#996019"/>
<stop offset="0.6412" stop-color="#6F4411"/>
<stop offset="0.7989" stop-color="#472A09"/>
<stop offset="0.924" stop-color="#2E1904"/>
<stop offset="1" stop-color="#251302"/>
</linearGradient>
<linearGradient id="paint9_linear_548_117" x1="32.0978" y1="19.1645" x2="22.0981" y2="40.1114" gradientUnits="userSpaceOnUse">
<stop offset="0.1044" stop-color="#BA903F"/>
<stop offset="0.5" stop-color="#996019"/>
<stop offset="0.6412" stop-color="#6F4411"/>
<stop offset="0.7989" stop-color="#472A09"/>
<stop offset="0.924" stop-color="#2E1904"/>
<stop offset="1" stop-color="#251302"/>
</linearGradient>
<linearGradient id="paint10_linear_548_117" x1="30.7643" y1="18.5283" x2="20.7652" y2="39.474" gradientUnits="userSpaceOnUse">
<stop offset="0.1044" stop-color="#BA903F"/>
<stop offset="0.5" stop-color="#996019"/>
<stop offset="0.6412" stop-color="#6F4411"/>
<stop offset="0.7989" stop-color="#472A09"/>
<stop offset="0.924" stop-color="#2E1904"/>
<stop offset="1" stop-color="#251302"/>
</linearGradient>
<linearGradient id="paint11_linear_548_117" x1="28.8887" y1="17.633" x2="18.8896" y2="38.5788" gradientUnits="userSpaceOnUse">
<stop offset="0.1044" stop-color="#BA903F"/>
<stop offset="0.5" stop-color="#996019"/>
<stop offset="0.6412" stop-color="#6F4411"/>
<stop offset="0.7989" stop-color="#472A09"/>
<stop offset="0.924" stop-color="#2E1904"/>
<stop offset="1" stop-color="#251302"/>
</linearGradient>
<linearGradient id="paint12_linear_548_117" x1="26.6603" y1="16.5693" x2="16.661" y2="37.5154" gradientUnits="userSpaceOnUse">
<stop offset="0.1044" stop-color="#BA903F"/>
<stop offset="0.5" stop-color="#996019"/>
<stop offset="0.6412" stop-color="#6F4411"/>
<stop offset="0.7989" stop-color="#472A09"/>
<stop offset="0.924" stop-color="#2E1904"/>
<stop offset="1" stop-color="#251302"/>
</linearGradient>
<linearGradient id="paint13_linear_548_117" x1="24.2673" y1="15.427" x2="14.2675" y2="36.3741" gradientUnits="userSpaceOnUse">
<stop offset="0.1044" stop-color="#BA903F"/>
<stop offset="0.5" stop-color="#996019"/>
<stop offset="0.6412" stop-color="#6F4411"/>
<stop offset="0.7989" stop-color="#472A09"/>
<stop offset="0.924" stop-color="#2E1904"/>
<stop offset="1" stop-color="#251302"/>
</linearGradient>
<linearGradient id="paint14_linear_548_117" x1="21.9029" y1="14.2983" x2="11.9032" y2="35.2452" gradientUnits="userSpaceOnUse">
<stop offset="0.1044" stop-color="#BA903F"/>
<stop offset="0.5" stop-color="#996019"/>
<stop offset="0.6412" stop-color="#6F4411"/>
<stop offset="0.7989" stop-color="#472A09"/>
<stop offset="0.924" stop-color="#2E1904"/>
<stop offset="1" stop-color="#251302"/>
</linearGradient>
<linearGradient id="paint15_linear_548_117" x1="19.9575" y1="13.3693" x2="9.95786" y2="34.3162" gradientUnits="userSpaceOnUse">
<stop offset="0.1044" stop-color="#BA903F"/>
<stop offset="0.5" stop-color="#996019"/>
<stop offset="0.6412" stop-color="#6F4411"/>
<stop offset="0.7989" stop-color="#472A09"/>
<stop offset="0.924" stop-color="#2E1904"/>
<stop offset="1" stop-color="#251302"/>
</linearGradient>
<linearGradient id="paint16_linear_548_117" x1="18.6406" y1="12.7404" x2="8.64096" y2="33.6873" gradientUnits="userSpaceOnUse">
<stop offset="0.1044" stop-color="#BA903F"/>
<stop offset="0.5" stop-color="#996019"/>
<stop offset="0.6412" stop-color="#6F4411"/>
<stop offset="0.7989" stop-color="#472A09"/>
<stop offset="0.924" stop-color="#2E1904"/>
<stop offset="1" stop-color="#251302"/>
</linearGradient>
<linearGradient id="paint17_linear_548_117" x1="18.0224" y1="12.4459" x2="8.02327" y2="33.3917" gradientUnits="userSpaceOnUse">
<stop offset="0.1044" stop-color="#BA903F"/>
<stop offset="0.5" stop-color="#996019"/>
<stop offset="0.6412" stop-color="#6F4411"/>
<stop offset="0.7989" stop-color="#472A09"/>
<stop offset="0.924" stop-color="#2E1904"/>
<stop offset="1" stop-color="#251302"/>
</linearGradient>
<linearGradient id="paint18_linear_548_117" x1="18.1734" y1="12.5178" x2="8.17425" y2="33.4636" gradientUnits="userSpaceOnUse">
<stop offset="0.1044" stop-color="#BA903F"/>
<stop offset="0.5" stop-color="#996019"/>
<stop offset="0.6412" stop-color="#6F4411"/>
<stop offset="0.7989" stop-color="#472A09"/>
<stop offset="0.924" stop-color="#2E1904"/>
<stop offset="1" stop-color="#251302"/>
</linearGradient>
<linearGradient id="paint19_linear_548_117" x1="19.1462" y1="12.9831" x2="9.14711" y2="33.9289" gradientUnits="userSpaceOnUse">
<stop offset="0.1044" stop-color="#BA903F"/>
<stop offset="0.5" stop-color="#996019"/>
<stop offset="0.6412" stop-color="#6F4411"/>
<stop offset="0.7989" stop-color="#472A09"/>
<stop offset="0.924" stop-color="#2E1904"/>
<stop offset="1" stop-color="#251302"/>
</linearGradient>
<linearGradient id="paint20_linear_548_117" x1="20.7748" y1="13.7596" x2="10.7752" y2="34.7065" gradientUnits="userSpaceOnUse">
<stop offset="0.1044" stop-color="#BA903F"/>
<stop offset="0.5" stop-color="#996019"/>
<stop offset="0.6412" stop-color="#6F4411"/>
<stop offset="0.7989" stop-color="#472A09"/>
<stop offset="0.924" stop-color="#2E1904"/>
<stop offset="1" stop-color="#251302"/>
</linearGradient>
<linearGradient id="paint21_linear_548_117" x1="22.8506" y1="14.7504" x2="12.8509" y2="35.6973" gradientUnits="userSpaceOnUse">
<stop offset="0.1044" stop-color="#BA903F"/>
<stop offset="0.5" stop-color="#996019"/>
<stop offset="0.6412" stop-color="#6F4411"/>
<stop offset="0.7989" stop-color="#472A09"/>
<stop offset="0.924" stop-color="#2E1904"/>
<stop offset="1" stop-color="#251302"/>
</linearGradient>
<linearGradient id="paint22_linear_548_117" x1="25.1848" y1="15.8641" x2="15.185" y2="36.8113" gradientUnits="userSpaceOnUse">
<stop offset="0.1044" stop-color="#BA903F"/>
<stop offset="0.5" stop-color="#996019"/>
<stop offset="0.6412" stop-color="#6F4411"/>
<stop offset="0.7989" stop-color="#472A09"/>
<stop offset="0.924" stop-color="#2E1904"/>
<stop offset="1" stop-color="#251302"/>
</linearGradient>
<linearGradient id="paint23_linear_548_117" x1="27.5894" y1="17.0124" x2="17.5897" y2="37.9594" gradientUnits="userSpaceOnUse">
<stop offset="0.1044" stop-color="#BA903F"/>
<stop offset="0.5" stop-color="#996019"/>
<stop offset="0.6412" stop-color="#6F4411"/>
<stop offset="0.7989" stop-color="#472A09"/>
<stop offset="0.924" stop-color="#2E1904"/>
<stop offset="1" stop-color="#251302"/>
</linearGradient>
<linearGradient id="paint24_linear_548_117" x1="29.8045" y1="18.0696" x2="19.8047" y2="39.0166" gradientUnits="userSpaceOnUse">
<stop offset="0.1044" stop-color="#BA903F"/>
<stop offset="0.5" stop-color="#996019"/>
<stop offset="0.6412" stop-color="#6F4411"/>
<stop offset="0.7989" stop-color="#472A09"/>
<stop offset="0.924" stop-color="#2E1904"/>
<stop offset="1" stop-color="#251302"/>
</linearGradient>
<linearGradient id="paint25_linear_548_117" x1="31.4465" y1="18.8535" x2="21.4468" y2="39.8005" gradientUnits="userSpaceOnUse">
<stop offset="0.1044" stop-color="#BA903F"/>
<stop offset="0.5" stop-color="#996019"/>
<stop offset="0.6412" stop-color="#6F4411"/>
<stop offset="0.7989" stop-color="#472A09"/>
<stop offset="0.924" stop-color="#2E1904"/>
<stop offset="1" stop-color="#251302"/>
</linearGradient>
<linearGradient id="paint26_linear_548_117" x1="32.4214" y1="19.319" x2="22.4216" y2="40.2661" gradientUnits="userSpaceOnUse">
<stop offset="0.1044" stop-color="#BA903F"/>
<stop offset="0.5" stop-color="#996019"/>
<stop offset="0.6412" stop-color="#6F4411"/>
<stop offset="0.7989" stop-color="#472A09"/>
<stop offset="0.924" stop-color="#2E1904"/>
<stop offset="1" stop-color="#251302"/>
</linearGradient>
<linearGradient id="paint27_linear_548_117" x1="177.494" y1="15.6829" x2="-29.2249" y2="10.7216" gradientUnits="userSpaceOnUse">
<stop stop-color="#FFD744"/>
<stop offset="0.0679" stop-color="#A6761A"/>
<stop offset="0.1851" stop-color="#FFD744"/>
<stop offset="0.3981" stop-color="#FFD744"/>
<stop offset="0.561" stop-color="#FCF4AE"/>
<stop offset="0.6792" stop-color="#FFD744"/>
<stop offset="0.75" stop-color="#A6761A"/>
<stop offset="0.8802" stop-color="#FFD744"/>
<stop offset="0.967" stop-color="#FCF4AE"/>
<stop offset="1" stop-color="#FFD744"/>
</linearGradient>
<linearGradient id="paint28_linear_548_117" x1="177.513" y1="14.9607" x2="-29.2082" y2="9.99928" gradientUnits="userSpaceOnUse">
<stop stop-color="#FFD744"/>
<stop offset="0.0679" stop-color="#A6761A"/>
<stop offset="0.1851" stop-color="#FFD744"/>
<stop offset="0.3981" stop-color="#FFD744"/>
<stop offset="0.561" stop-color="#FCF4AE"/>
<stop offset="0.6792" stop-color="#FFD744"/>
<stop offset="0.75" stop-color="#A6761A"/>
<stop offset="0.8802" stop-color="#FFD744"/>
<stop offset="0.967" stop-color="#FCF4AE"/>
<stop offset="1" stop-color="#FFD744"/>
</linearGradient>
<linearGradient id="paint29_linear_548_117" x1="177.532" y1="14.1852" x2="-29.1898" y2="9.22378" gradientUnits="userSpaceOnUse">
<stop stop-color="#FFD744"/>
<stop offset="0.0679" stop-color="#A6761A"/>
<stop offset="0.1851" stop-color="#FFD744"/>
<stop offset="0.3981" stop-color="#FFD744"/>
<stop offset="0.561" stop-color="#FCF4AE"/>
<stop offset="0.6792" stop-color="#FFD744"/>
<stop offset="0.75" stop-color="#A6761A"/>
<stop offset="0.8802" stop-color="#FFD744"/>
<stop offset="0.967" stop-color="#FCF4AE"/>
<stop offset="1" stop-color="#FFD744"/>
</linearGradient>
<linearGradient id="paint30_linear_548_117" x1="177.547" y1="13.4784" x2="-29.1732" y2="8.51705" gradientUnits="userSpaceOnUse">
<stop stop-color="#FFD744"/>
<stop offset="0.0679" stop-color="#A6761A"/>
<stop offset="0.1851" stop-color="#FFD744"/>
<stop offset="0.3981" stop-color="#FFD744"/>
<stop offset="0.561" stop-color="#FCF4AE"/>
<stop offset="0.6792" stop-color="#FFD744"/>
<stop offset="0.75" stop-color="#A6761A"/>
<stop offset="0.8802" stop-color="#FFD744"/>
<stop offset="0.967" stop-color="#FCF4AE"/>
<stop offset="1" stop-color="#FFD744"/>
</linearGradient>
<linearGradient id="paint31_linear_548_117" x1="177.554" y1="13.182" x2="-29.165" y2="8.22062" gradientUnits="userSpaceOnUse">
<stop stop-color="#FFD744"/>
<stop offset="0.0679" stop-color="#A6761A"/>
<stop offset="0.1851" stop-color="#FFD744"/>
<stop offset="0.3981" stop-color="#FFD744"/>
<stop offset="0.561" stop-color="#FCF4AE"/>
<stop offset="0.6792" stop-color="#FFD744"/>
<stop offset="0.75" stop-color="#A6761A"/>
<stop offset="0.8802" stop-color="#FFD744"/>
<stop offset="0.967" stop-color="#FCF4AE"/>
<stop offset="1" stop-color="#FFD744"/>
</linearGradient>
<linearGradient id="paint32_linear_548_117" x1="177.561" y1="12.9498" x2="-29.1601" y2="7.98843" gradientUnits="userSpaceOnUse">
<stop stop-color="#FFD744"/>
<stop offset="0.0679" stop-color="#A6761A"/>
<stop offset="0.1851" stop-color="#FFD744"/>
<stop offset="0.3981" stop-color="#FFD744"/>
<stop offset="0.561" stop-color="#FCF4AE"/>
<stop offset="0.6792" stop-color="#FFD744"/>
<stop offset="0.75" stop-color="#A6761A"/>
<stop offset="0.8802" stop-color="#FFD744"/>
<stop offset="0.967" stop-color="#FCF4AE"/>
<stop offset="1" stop-color="#FFD744"/>
</linearGradient>
<linearGradient id="paint33_linear_548_117" x1="177.565" y1="12.6865" x2="-29.1528" y2="7.72513" gradientUnits="userSpaceOnUse">
<stop stop-color="#FFD744"/>
<stop offset="0.0679" stop-color="#A6761A"/>
<stop offset="0.1851" stop-color="#FFD744"/>
<stop offset="0.3981" stop-color="#FFD744"/>
<stop offset="0.561" stop-color="#FCF4AE"/>
<stop offset="0.6792" stop-color="#FFD744"/>
<stop offset="0.75" stop-color="#A6761A"/>
<stop offset="0.8802" stop-color="#FFD744"/>
<stop offset="0.967" stop-color="#FCF4AE"/>
<stop offset="1" stop-color="#FFD744"/>
</linearGradient>
<linearGradient id="paint34_linear_548_117" x1="177.57" y1="12.5947" x2="-29.1516" y2="7.63326" gradientUnits="userSpaceOnUse">
<stop stop-color="#FFD744"/>
<stop offset="0.0679" stop-color="#A6761A"/>
<stop offset="0.1851" stop-color="#FFD744"/>
<stop offset="0.3981" stop-color="#FFD744"/>
<stop offset="0.561" stop-color="#FCF4AE"/>
<stop offset="0.6792" stop-color="#FFD744"/>
<stop offset="0.75" stop-color="#A6761A"/>
<stop offset="0.8802" stop-color="#FFD744"/>
<stop offset="0.967" stop-color="#FCF4AE"/>
<stop offset="1" stop-color="#FFD744"/>
</linearGradient>
<linearGradient id="paint35_linear_548_117" x1="177.567" y1="12.6879" x2="-29.1535" y2="7.72653" gradientUnits="userSpaceOnUse">
<stop stop-color="#FFD744"/>
<stop offset="0.0679" stop-color="#A6761A"/>
<stop offset="0.1851" stop-color="#FFD744"/>
<stop offset="0.3981" stop-color="#FFD744"/>
<stop offset="0.561" stop-color="#FCF4AE"/>
<stop offset="0.6792" stop-color="#FFD744"/>
<stop offset="0.75" stop-color="#A6761A"/>
<stop offset="0.8802" stop-color="#FFD744"/>
<stop offset="0.967" stop-color="#FCF4AE"/>
<stop offset="1" stop-color="#FFD744"/>
</linearGradient>
<linearGradient id="paint36_linear_548_117" x1="177.558" y1="12.9922" x2="-29.1603" y2="8.0309" gradientUnits="userSpaceOnUse">
<stop stop-color="#FFD744"/>
<stop offset="0.0679" stop-color="#A6761A"/>
<stop offset="0.1851" stop-color="#FFD744"/>
<stop offset="0.3981" stop-color="#FFD744"/>
<stop offset="0.561" stop-color="#FCF4AE"/>
<stop offset="0.6792" stop-color="#FFD744"/>
<stop offset="0.75" stop-color="#A6761A"/>
<stop offset="0.8802" stop-color="#FFD744"/>
<stop offset="0.967" stop-color="#FCF4AE"/>
<stop offset="1" stop-color="#FFD744"/>
</linearGradient>
<linearGradient id="paint37_linear_548_117" x1="177.553" y1="13.2624" x2="-29.1668" y2="8.30107" gradientUnits="userSpaceOnUse">
<stop stop-color="#FFD744"/>
<stop offset="0.0679" stop-color="#A6761A"/>
<stop offset="0.1851" stop-color="#FFD744"/>
<stop offset="0.3981" stop-color="#FFD744"/>
<stop offset="0.561" stop-color="#FCF4AE"/>
<stop offset="0.6792" stop-color="#FFD744"/>
<stop offset="0.75" stop-color="#A6761A"/>
<stop offset="0.8802" stop-color="#FFD744"/>
<stop offset="0.967" stop-color="#FCF4AE"/>
<stop offset="1" stop-color="#FFD744"/>
</linearGradient>
<linearGradient id="paint38_linear_548_117" x1="177.54" y1="13.7176" x2="-29.1775" y2="8.75631" gradientUnits="userSpaceOnUse">
<stop stop-color="#FFD744"/>
<stop offset="0.0679" stop-color="#A6761A"/>
<stop offset="0.1851" stop-color="#FFD744"/>
<stop offset="0.3981" stop-color="#FFD744"/>
<stop offset="0.561" stop-color="#FCF4AE"/>
<stop offset="0.6792" stop-color="#FFD744"/>
<stop offset="0.75" stop-color="#A6761A"/>
<stop offset="0.8802" stop-color="#FFD744"/>
<stop offset="0.967" stop-color="#FCF4AE"/>
<stop offset="1" stop-color="#FFD744"/>
</linearGradient>
<linearGradient id="paint39_linear_548_117" x1="177.528" y1="14.2734" x2="-29.1914" y2="9.31204" gradientUnits="userSpaceOnUse">
<stop stop-color="#FFD744"/>
<stop offset="0.0679" stop-color="#A6761A"/>
<stop offset="0.1851" stop-color="#FFD744"/>
<stop offset="0.3981" stop-color="#FFD744"/>
<stop offset="0.561" stop-color="#FCF4AE"/>
<stop offset="0.6792" stop-color="#FFD744"/>
<stop offset="0.75" stop-color="#A6761A"/>
<stop offset="0.8802" stop-color="#FFD744"/>
<stop offset="0.967" stop-color="#FCF4AE"/>
<stop offset="1" stop-color="#FFD744"/>
</linearGradient>
<linearGradient id="paint40_linear_548_117" x1="177.512" y1="15.1095" x2="-29.2132" y2="10.148" gradientUnits="userSpaceOnUse">
<stop stop-color="#FFD744"/>
<stop offset="0.0679" stop-color="#A6761A"/>
<stop offset="0.1851" stop-color="#FFD744"/>
<stop offset="0.3981" stop-color="#FFD744"/>
<stop offset="0.561" stop-color="#FCF4AE"/>
<stop offset="0.6792" stop-color="#FFD744"/>
<stop offset="0.75" stop-color="#A6761A"/>
<stop offset="0.8802" stop-color="#FFD744"/>
<stop offset="0.967" stop-color="#FCF4AE"/>
<stop offset="1" stop-color="#FFD744"/>
</linearGradient>
<linearGradient id="paint41_linear_548_117" x1="176.977" y1="37.3027" x2="-29.7444" y2="32.3413" gradientUnits="userSpaceOnUse">
<stop stop-color="#FFD744"/>
<stop offset="0.0679" stop-color="#A6761A"/>
<stop offset="0.1851" stop-color="#FFD744"/>
<stop offset="0.3981" stop-color="#FFD744"/>
<stop offset="0.561" stop-color="#FCF4AE"/>
<stop offset="0.6792" stop-color="#FFD744"/>
<stop offset="0.75" stop-color="#A6761A"/>
<stop offset="0.8802" stop-color="#FFD744"/>
<stop offset="0.967" stop-color="#FCF4AE"/>
<stop offset="1" stop-color="#FFD744"/>
</linearGradient>
<linearGradient id="paint42_linear_548_117" x1="176.95" y1="38.3748" x2="-29.7697" y2="33.4135" gradientUnits="userSpaceOnUse">
<stop stop-color="#FFD744"/>
<stop offset="0.0679" stop-color="#A6761A"/>
<stop offset="0.1851" stop-color="#FFD744"/>
<stop offset="0.3981" stop-color="#FFD744"/>
<stop offset="0.561" stop-color="#FCF4AE"/>
<stop offset="0.6792" stop-color="#FFD744"/>
<stop offset="0.75" stop-color="#A6761A"/>
<stop offset="0.8802" stop-color="#FFD744"/>
<stop offset="0.967" stop-color="#FCF4AE"/>
<stop offset="1" stop-color="#FFD744"/>
</linearGradient>
<linearGradient id="paint43_linear_548_117" x1="176.933" y1="39.1079" x2="-29.788" y2="34.1465" gradientUnits="userSpaceOnUse">
<stop stop-color="#FFD744"/>
<stop offset="0.0679" stop-color="#A6761A"/>
<stop offset="0.1851" stop-color="#FFD744"/>
<stop offset="0.3981" stop-color="#FFD744"/>
<stop offset="0.561" stop-color="#FCF4AE"/>
<stop offset="0.6792" stop-color="#FFD744"/>
<stop offset="0.75" stop-color="#A6761A"/>
<stop offset="0.8802" stop-color="#FFD744"/>
<stop offset="0.967" stop-color="#FCF4AE"/>
<stop offset="1" stop-color="#FFD744"/>
</linearGradient>
<linearGradient id="paint44_linear_548_117" x1="176.918" y1="39.8209" x2="-29.8053" y2="34.8594" gradientUnits="userSpaceOnUse">
<stop stop-color="#FFD744"/>
<stop offset="0.0679" stop-color="#A6761A"/>
<stop offset="0.1851" stop-color="#FFD744"/>
<stop offset="0.3981" stop-color="#FFD744"/>
<stop offset="0.561" stop-color="#FCF4AE"/>
<stop offset="0.6792" stop-color="#FFD744"/>
<stop offset="0.75" stop-color="#A6761A"/>
<stop offset="0.8802" stop-color="#FFD744"/>
<stop offset="0.967" stop-color="#FCF4AE"/>
<stop offset="1" stop-color="#FFD744"/>
</linearGradient>
<linearGradient id="paint45_linear_548_117" x1="176.901" y1="40.2742" x2="-29.8145" y2="35.3129" gradientUnits="userSpaceOnUse">
<stop stop-color="#FFD744"/>
<stop offset="0.0679" stop-color="#A6761A"/>
<stop offset="0.1851" stop-color="#FFD744"/>
<stop offset="0.3981" stop-color="#FFD744"/>
<stop offset="0.561" stop-color="#FCF4AE"/>
<stop offset="0.6792" stop-color="#FFD744"/>
<stop offset="0.75" stop-color="#A6761A"/>
<stop offset="0.8802" stop-color="#FFD744"/>
<stop offset="0.967" stop-color="#FCF4AE"/>
<stop offset="1" stop-color="#FFD744"/>
</linearGradient>
<linearGradient id="paint46_linear_548_117" x1="176.903" y1="40.5043" x2="-29.8223" y2="35.5428" gradientUnits="userSpaceOnUse">
<stop stop-color="#FFD744"/>
<stop offset="0.0679" stop-color="#A6761A"/>
<stop offset="0.1851" stop-color="#FFD744"/>
<stop offset="0.3981" stop-color="#FFD744"/>
<stop offset="0.561" stop-color="#FCF4AE"/>
<stop offset="0.6792" stop-color="#FFD744"/>
<stop offset="0.75" stop-color="#A6761A"/>
<stop offset="0.8802" stop-color="#FFD744"/>
<stop offset="0.967" stop-color="#FCF4AE"/>
<stop offset="1" stop-color="#FFD744"/>
</linearGradient>
<linearGradient id="paint47_linear_548_117" x1="176.893" y1="40.7329" x2="-29.8263" y2="35.7716" gradientUnits="userSpaceOnUse">
<stop stop-color="#FFD744"/>
<stop offset="0.0679" stop-color="#A6761A"/>
<stop offset="0.1851" stop-color="#FFD744"/>
<stop offset="0.3981" stop-color="#FFD744"/>
<stop offset="0.561" stop-color="#FCF4AE"/>
<stop offset="0.6792" stop-color="#FFD744"/>
<stop offset="0.75" stop-color="#A6761A"/>
<stop offset="0.8802" stop-color="#FFD744"/>
<stop offset="0.967" stop-color="#FCF4AE"/>
<stop offset="1" stop-color="#FFD744"/>
</linearGradient>
<linearGradient id="paint48_linear_548_117" x1="176.897" y1="40.7716" x2="-29.8293" y2="35.81" gradientUnits="userSpaceOnUse">
<stop stop-color="#FFD744"/>
<stop offset="0.0679" stop-color="#A6761A"/>
<stop offset="0.1851" stop-color="#FFD744"/>
<stop offset="0.3981" stop-color="#FFD744"/>
<stop offset="0.561" stop-color="#FCF4AE"/>
<stop offset="0.6792" stop-color="#FFD744"/>
<stop offset="0.75" stop-color="#A6761A"/>
<stop offset="0.8802" stop-color="#FFD744"/>
<stop offset="0.967" stop-color="#FCF4AE"/>
<stop offset="1" stop-color="#FFD744"/>
</linearGradient>
<linearGradient id="paint49_linear_548_117" x1="176.909" y1="40.2133" x2="-29.815" y2="35.2518" gradientUnits="userSpaceOnUse">
<stop stop-color="#FFD744"/>
<stop offset="0.0679" stop-color="#A6761A"/>
<stop offset="0.1851" stop-color="#FFD744"/>
<stop offset="0.3981" stop-color="#FFD744"/>
<stop offset="0.561" stop-color="#FCF4AE"/>
<stop offset="0.6792" stop-color="#FFD744"/>
<stop offset="0.75" stop-color="#A6761A"/>
<stop offset="0.8802" stop-color="#FFD744"/>
<stop offset="0.967" stop-color="#FCF4AE"/>
<stop offset="1" stop-color="#FFD744"/>
</linearGradient>
<linearGradient id="paint50_linear_548_117" x1="176.915" y1="39.9183" x2="-29.8077" y2="34.9569" gradientUnits="userSpaceOnUse">
<stop stop-color="#FFD744"/>
<stop offset="0.0679" stop-color="#A6761A"/>
<stop offset="0.1851" stop-color="#FFD744"/>
<stop offset="0.3981" stop-color="#FFD744"/>
<stop offset="0.561" stop-color="#FCF4AE"/>
<stop offset="0.6792" stop-color="#FFD744"/>
<stop offset="0.75" stop-color="#A6761A"/>
<stop offset="0.8802" stop-color="#FFD744"/>
<stop offset="0.967" stop-color="#FCF4AE"/>
<stop offset="1" stop-color="#FFD744"/>
</linearGradient>
<linearGradient id="paint51_linear_548_117" x1="176.929" y1="39.3308" x2="-29.7937" y2="34.3694" gradientUnits="userSpaceOnUse">
<stop stop-color="#FFD744"/>
<stop offset="0.0679" stop-color="#A6761A"/>
<stop offset="0.1851" stop-color="#FFD744"/>
<stop offset="0.3981" stop-color="#FFD744"/>
<stop offset="0.561" stop-color="#FCF4AE"/>
<stop offset="0.6792" stop-color="#FFD744"/>
<stop offset="0.75" stop-color="#A6761A"/>
<stop offset="0.8802" stop-color="#FFD744"/>
<stop offset="0.967" stop-color="#FCF4AE"/>
<stop offset="1" stop-color="#FFD744"/>
</linearGradient>
<linearGradient id="paint52_linear_548_117" x1="176.942" y1="38.6892" x2="-29.7773" y2="33.7278" gradientUnits="userSpaceOnUse">
<stop stop-color="#FFD744"/>
<stop offset="0.0679" stop-color="#A6761A"/>
<stop offset="0.1851" stop-color="#FFD744"/>
<stop offset="0.3981" stop-color="#FFD744"/>
<stop offset="0.561" stop-color="#FCF4AE"/>
<stop offset="0.6792" stop-color="#FFD744"/>
<stop offset="0.75" stop-color="#A6761A"/>
<stop offset="0.8802" stop-color="#FFD744"/>
<stop offset="0.967" stop-color="#FCF4AE"/>
<stop offset="1" stop-color="#FFD744"/>
</linearGradient>
<linearGradient id="paint53_linear_548_117" x1="176.959" y1="37.9776" x2="-29.76" y2="33.0163" gradientUnits="userSpaceOnUse">
<stop stop-color="#FFD744"/>
<stop offset="0.0679" stop-color="#A6761A"/>
<stop offset="0.1851" stop-color="#FFD744"/>
<stop offset="0.3981" stop-color="#FFD744"/>
<stop offset="0.561" stop-color="#FCF4AE"/>
<stop offset="0.6792" stop-color="#FFD744"/>
<stop offset="0.75" stop-color="#A6761A"/>
<stop offset="0.8802" stop-color="#FFD744"/>
<stop offset="0.967" stop-color="#FCF4AE"/>
<stop offset="1" stop-color="#FFD744"/>
</linearGradient>
<linearGradient id="paint54_linear_548_117" x1="176.982" y1="37.0855" x2="-29.7394" y2="32.1241" gradientUnits="userSpaceOnUse">
<stop stop-color="#FFD744"/>
<stop offset="0.0679" stop-color="#A6761A"/>
<stop offset="0.1851" stop-color="#FFD744"/>
<stop offset="0.3981" stop-color="#FFD744"/>
<stop offset="0.561" stop-color="#FCF4AE"/>
<stop offset="0.6792" stop-color="#FFD744"/>
<stop offset="0.75" stop-color="#A6761A"/>
<stop offset="0.8802" stop-color="#FFD744"/>
<stop offset="0.967" stop-color="#FCF4AE"/>
<stop offset="1" stop-color="#FFD744"/>
</linearGradient>
</defs>
</svg>
