<svg width="42" height="42" viewBox="0 0 42 42" fill="none" xmlns="http://www.w3.org/2000/svg">
<mask id="mask0_548_21" style="mask-type:alpha" maskUnits="userSpaceOnUse" x="0" y="0" width="42" height="42">
<circle cx="21" cy="21" r="21" fill="#D9D9D9"/>
</mask>
<g mask="url(#mask0_548_21)">
<path d="M41.9192 20.9346C41.9192 22.153 40.3835 23.2207 40.1831 24.381C39.9771 25.5742 41.0574 27.1083 40.658 28.2213C40.2514 29.3541 38.4478 29.824 37.8603 30.8537C37.2673 31.8932 37.7636 33.7117 37.0064 34.6259C36.2471 35.5427 34.3945 35.361 33.4907 36.1311C32.5893 36.8989 32.446 38.7817 31.4212 39.383C30.4058 39.9789 28.7271 39.1678 27.6103 39.5802C26.513 39.9853 25.7425 41.7047 24.5661 41.9136C23.4221 42.1168 22.1208 40.7712 20.9193 40.7712C19.718 40.7712 18.4166 42.1169 17.2726 41.9137C16.0962 41.7047 15.3255 39.9854 14.2282 39.5802C13.1114 39.1678 11.4326 39.9789 10.4172 39.383C9.39239 38.7816 9.24906 36.8989 8.34769 36.131C7.44374 35.3609 5.59124 35.5426 4.83196 34.6258C4.07491 33.7117 4.57103 31.8931 3.97805 30.8536C3.3906 29.8238 1.58707 29.3539 1.1804 28.2212C0.780966 27.1083 1.86131 25.5741 1.65525 24.3809C1.45491 23.2206 -0.0808105 22.153 -0.0808105 20.9346C-0.0808105 19.7161 1.45491 18.6486 1.65525 17.4883C1.86131 16.2951 0.780966 14.7609 1.18049 13.6478C1.58707 12.5151 3.3906 12.0452 3.97814 11.0154C4.57112 9.97595 4.075 8.15732 4.83214 7.24321C5.59142 6.32637 7.44392 6.50809 8.34787 5.73808C9.24924 4.97024 9.39248 3.08745 10.4174 2.4861C11.4327 1.89028 13.1115 2.70135 14.2283 2.28897C15.3256 1.88385 16.0961 0.164464 17.2726 -0.0445341C18.4166 -0.247732 19.7179 1.09798 20.9193 1.09798C22.1207 1.09798 23.422 -0.247732 24.566 -0.0445341C25.7424 0.164464 26.513 1.88376 27.6103 2.28897C28.7271 2.70135 30.4059 1.89028 31.4212 2.4861C32.4461 3.08754 32.5894 4.97024 33.4908 5.73808C34.3947 6.50818 36.2472 6.32646 37.0065 7.2433C37.7636 8.15741 37.2674 9.97604 37.8604 11.0155C38.4479 12.0453 40.2514 12.5152 40.658 13.6479C41.0575 14.7609 39.9772 16.295 40.1831 17.4883C40.3835 18.6485 41.9192 19.716 41.9192 20.9346Z" fill="url(#paint0_linear_548_21)"/>
<path d="M24.3225 41.5686C23.8699 41.5686 23.354 41.3079 22.8075 41.0319C22.1973 40.7238 21.5665 40.4051 20.919 40.4051C20.2713 40.4051 19.6404 40.7238 19.0303 41.0319C18.4838 41.3079 17.9678 41.5685 17.5154 41.5686C17.4521 41.5686 17.3929 41.5636 17.3344 41.5532C16.8177 41.4614 16.3577 40.97 15.8707 40.4499C15.4116 39.9595 14.9369 39.4526 14.3513 39.2362C14.0877 39.1389 13.7825 39.0917 13.4182 39.0917C13.0789 39.0917 12.7268 39.1317 12.3863 39.1706C12.0524 39.2086 11.7371 39.2446 11.4409 39.2446C11.073 39.2446 10.805 39.1879 10.5975 39.0662C10.1505 38.8038 9.88609 38.1863 9.60604 37.5325C9.33868 36.9078 9.06202 36.262 8.57921 35.8507C8.09462 35.4378 7.418 35.2726 6.76362 35.1128C6.08199 34.9464 5.43816 34.7893 5.10771 34.3901C4.77896 33.9932 4.73759 33.3243 4.6938 32.616C4.65154 31.9335 4.60802 31.2278 4.28981 30.67C3.97571 30.1195 3.39855 29.7325 2.84032 29.3581C2.25234 28.9639 1.6968 28.5914 1.51888 28.0957C1.34633 27.6153 1.53273 26.9761 1.72986 26.2996C1.92198 25.6403 2.12071 24.9587 2.01 24.3174C1.90313 23.6984 1.49458 23.1382 1.09952 22.5963C0.677748 22.0178 0.279297 21.4713 0.279297 20.9341C0.279297 20.397 0.677748 19.8505 1.09952 19.2719C1.49458 18.7301 1.90313 18.1698 2.01 17.5509C2.12071 16.9096 1.92198 16.228 1.72986 15.5687C1.53264 14.8921 1.34633 14.2529 1.51888 13.7725C1.69689 13.2768 2.25225 12.9044 2.84014 12.5101C3.39846 12.1357 3.97571 11.7486 4.28972 11.198C4.60793 10.6404 4.65154 9.93465 4.69371 9.25219C4.73759 8.5439 4.77896 7.87503 5.10771 7.47788C5.43816 7.07892 6.08208 6.92176 6.76371 6.75536C7.418 6.59567 8.09471 6.43044 8.5793 6.01752C9.06211 5.60632 9.33868 4.96039 9.60613 4.33575C9.886 3.68193 10.1505 3.06436 10.5976 2.80198C10.805 2.68026 11.073 2.62362 11.4409 2.62362C11.7368 2.62362 12.0523 2.6596 12.3863 2.69766C12.7267 2.73645 13.0789 2.77669 13.4181 2.77669C13.7825 2.77669 14.0877 2.72938 14.3513 2.63204C14.9369 2.4158 15.4116 1.9088 15.8707 1.41839C16.3577 0.898249 16.8177 0.407023 17.3344 0.315212C17.392 0.304971 17.4528 0.299805 17.5153 0.299805C17.9678 0.299805 18.4838 0.560463 19.0303 0.836348C19.6403 1.1445 20.2712 1.46316 20.9189 1.46316C21.5665 1.46316 22.1973 1.14459 22.8074 0.836348C23.3538 0.560463 23.8699 0.299805 24.3225 0.299805C24.3858 0.299805 24.445 0.304789 24.5034 0.315212C25.0201 0.407023 25.4801 0.89834 25.9671 1.41848C26.4262 1.9088 26.9009 2.4158 27.4866 2.63214C27.7501 2.72947 28.0553 2.77669 28.4196 2.77669C28.7589 2.77669 29.1109 2.73663 29.4514 2.69775C29.7853 2.65969 30.1008 2.6238 30.3969 2.6238C30.7649 2.6238 31.0329 2.68053 31.2403 2.80216C31.6874 3.06454 31.9518 3.68211 32.2318 4.33584C32.4992 4.96057 32.7758 5.60641 33.2586 6.0177C33.7432 6.43062 34.4198 6.59585 35.0742 6.75554C35.7557 6.92194 36.3997 7.0791 36.7301 7.47815C37.0589 7.87512 37.1002 8.54408 37.1439 9.25228C37.1862 9.93483 37.2297 10.6405 37.5479 11.1982C37.862 11.7488 38.4392 12.1358 38.9974 12.5101C39.5855 12.9045 40.1409 13.2769 40.3188 13.7727C40.4913 14.2531 40.305 14.8922 40.1078 15.5688C39.9157 16.2281 39.7169 16.9097 39.8276 17.5509C39.9345 18.1699 40.3431 18.7301 40.7381 19.272C41.1599 19.8505 41.5583 20.3971 41.5583 20.9342C41.5583 21.4715 41.1599 22.0179 40.7381 22.5964C40.3431 23.1383 39.9345 23.6986 39.8276 24.3174C39.7169 24.9587 39.9157 25.6404 40.1078 26.2997C40.305 26.9763 40.4913 27.6154 40.3188 28.0959C40.1408 28.5915 39.5854 28.964 38.9975 29.3582C38.4393 29.7326 37.862 30.1197 37.5479 30.6703C37.2297 31.2279 37.1862 31.9337 37.1439 32.6162C37.1001 33.3245 37.0588 33.9933 36.73 34.3905C36.3995 34.7895 35.7557 34.9466 35.074 35.113C34.4197 35.2727 33.743 35.4378 33.2584 35.8509C32.7756 36.2621 32.4991 36.908 32.2316 37.5326C31.9517 38.1864 31.6872 38.804 31.2402 39.0664C31.0329 39.1881 30.7648 39.2448 30.3968 39.2448C30.1008 39.2448 29.7855 39.2088 29.4515 39.1707C29.111 39.1319 28.7589 39.0917 28.4196 39.0917C28.0552 39.0917 27.7499 39.139 27.4866 39.2363C26.9008 39.4525 26.4261 39.9596 25.967 40.45C25.48 40.9701 25.0201 41.4614 24.5033 41.5532C24.4459 41.5634 24.385 41.5686 24.3225 41.5686Z" fill="url(#paint1_linear_548_21)"/>
<path d="M24.1144 39.2389C23.9967 39.1823 23.8728 39.1197 23.7719 39.0687C23.0161 38.6871 22.0755 38.2119 20.9191 38.2119C19.7627 38.2119 18.8221 38.6869 18.0663 39.0687C17.9654 39.1198 17.8413 39.1823 17.7236 39.2389C17.6259 39.1389 17.5227 39.0288 17.4394 38.9398C16.8673 38.3287 16.1552 37.5682 15.0915 37.1753C14.5866 36.9889 14.0395 36.8985 13.4183 36.8985C12.9579 36.8985 12.526 36.9477 12.1449 36.9911C12.0077 37.0068 11.8745 37.0219 11.7536 37.0331C11.6964 36.907 11.6378 36.7701 11.5903 36.6593C11.2575 35.8821 10.8435 34.915 9.97068 34.1714C9.09604 33.4263 8.0836 33.1792 7.26999 32.9806C7.15472 32.9525 7.01237 32.9177 6.88066 32.8825C6.86931 32.7457 6.86019 32.5987 6.85287 32.4795C6.80041 31.6316 6.73518 30.5763 6.1623 29.5721C5.59344 28.5749 4.72854 27.9949 4.0335 27.5288C3.9336 27.4618 3.8102 27.3791 3.69716 27.2998C3.7321 27.1706 3.77195 27.0337 3.80448 26.9224C4.04262 26.1051 4.33911 25.088 4.14082 23.9399C3.94593 22.8111 3.33222 21.9692 2.83896 21.2928C2.76255 21.1878 2.66667 21.0564 2.58276 20.935C2.66667 20.8136 2.76255 20.6822 2.83896 20.5771C3.33222 19.9007 3.94593 19.059 4.14082 17.9301C4.33911 16.7821 4.04262 15.7648 3.80448 14.9475C3.77195 14.836 3.7321 14.6992 3.69716 14.57C3.8102 14.4906 3.9336 14.4078 4.0335 14.3409C4.72845 13.8748 5.59353 13.2947 6.16239 12.2974C6.73518 11.2934 6.80041 10.2382 6.85287 9.3903C6.86028 9.27112 6.86931 9.12412 6.88066 8.98726C7.01255 8.9521 7.1549 8.91729 7.27017 8.8892C8.08369 8.69062 9.09622 8.44338 9.97086 7.69838C10.8435 6.95483 11.2576 5.9877 11.5905 5.21053C11.6379 5.09968 11.6965 4.96274 11.7538 4.83667C11.8746 4.84782 12.0078 4.86313 12.1449 4.87872C12.526 4.92213 12.9579 4.97135 13.4183 4.97135C14.0395 4.97135 14.5868 4.88071 15.0916 4.69437C16.1552 4.30167 16.8674 3.54108 17.4395 2.92995C17.5228 2.84095 17.626 2.73083 17.7237 2.63086C17.8414 2.6875 17.9654 2.75004 18.0662 2.80098C18.822 3.18272 19.7626 3.65781 20.919 3.65781C22.0753 3.65781 23.016 3.18272 23.7718 2.80098C23.8728 2.75004 23.9967 2.6875 24.1143 2.63086C24.2122 2.73092 24.3154 2.84104 24.3987 2.93004C24.9708 3.54108 25.6829 4.30157 26.7466 4.69447C27.2514 4.8809 27.7987 4.97135 28.4198 4.97135C28.8802 4.97135 29.3121 4.92222 29.6932 4.87872C29.8302 4.86313 29.9637 4.848 30.0846 4.83667C30.1417 4.96283 30.2004 5.09977 30.2478 5.21053C30.5805 5.9877 30.9947 6.95493 31.8674 7.69838C32.7421 8.44347 33.7545 8.69062 34.5681 8.88929C34.6833 8.91748 34.8258 8.95219 34.9575 8.98744C34.9687 9.12421 34.9778 9.27121 34.9852 9.3904C35.0376 10.2383 35.1029 11.2936 35.6758 12.2978C36.2447 13.295 37.1096 13.8751 37.8045 14.3411C37.9044 14.4081 38.0278 14.4908 38.1409 14.5702C38.1059 14.6994 38.0661 14.8363 38.0336 14.9477C37.7954 15.765 37.4989 16.7821 37.6971 17.9302C37.892 19.059 38.5057 19.9009 38.999 20.5772C39.0755 20.6823 39.1714 20.8136 39.2553 20.935C39.1714 21.0565 39.0755 21.1878 38.999 21.2929C38.5057 21.9692 37.892 22.811 37.6971 23.9399C37.4988 25.088 37.7954 26.1052 38.0336 26.9225C38.066 27.0339 38.1059 27.1708 38.1409 27.2999C38.0278 27.3793 37.9045 27.4621 37.8045 27.529C37.1096 27.9951 36.2446 28.5752 35.6757 29.5725C35.1029 30.5765 35.0377 31.6317 34.9852 32.4796C34.9778 32.5988 34.9687 32.7458 34.9575 32.8826C34.8256 32.9178 34.6832 32.9526 34.568 32.9807C33.7544 33.1794 32.7418 33.4265 31.8673 34.1716C30.9946 34.9152 30.5805 35.8823 30.2476 36.6594C30.2002 36.7703 30.1416 36.9072 30.0844 37.0332C29.9635 37.0221 29.8302 37.0069 29.6932 36.9912C29.312 36.9479 28.8802 36.8986 28.4197 36.8986C27.7985 36.8986 27.2512 36.9892 26.7465 37.1755C25.6827 37.5682 24.9706 38.3288 24.3986 38.94C24.3154 39.0289 24.2122 39.139 24.1144 39.2389Z" fill="url(#paint2_linear_548_21)"/>
<path d="M23.9597 38.3463C23.1921 37.9605 22.1703 37.4801 20.919 37.4801C19.6671 37.4801 18.645 37.961 17.8783 38.3462C17.2939 37.7238 16.5038 36.9181 15.3381 36.4876C14.753 36.2716 14.125 36.1666 13.4183 36.1666C12.9729 36.1666 12.5659 36.2073 12.2006 36.2483C11.861 35.4585 11.3887 34.4239 10.4344 33.6108C9.47888 32.7969 8.3912 32.5029 7.56409 32.2997C7.50941 31.4374 7.4112 30.3005 6.7864 29.2053C6.16402 28.1143 5.24309 27.4643 4.53662 26.9891C4.77681 26.1591 5.06616 25.0584 4.85107 23.8129C4.635 22.561 3.97857 21.6263 3.47485 20.9343C3.98232 20.237 4.63563 19.304 4.85107 18.0557C5.06625 16.8101 4.77663 15.709 4.53662 14.8796C5.24335 14.404 6.1642 13.7541 6.78649 12.6631C7.41138 11.5678 7.50941 10.4306 7.56409 9.56899C8.39138 9.36561 9.47905 9.07169 10.4346 8.25782C11.3885 7.44503 11.861 6.41028 12.2007 5.62042C12.5733 5.66211 12.9773 5.70217 13.4182 5.70217C14.1249 5.70217 14.7529 5.59703 15.3381 5.38106C16.5045 4.95046 17.2949 4.14411 17.8784 3.52246C18.646 3.90819 19.6678 4.38863 20.919 4.38863C22.1709 4.38863 23.193 3.90774 23.9597 3.52246C24.5441 4.14483 25.3342 4.95055 26.4999 5.38115C27.0851 5.59721 27.7131 5.70217 28.4198 5.70217C28.8653 5.70217 29.2723 5.66138 29.6375 5.62042C29.9771 6.41028 30.4494 7.44484 31.4037 8.25791C32.3592 9.07187 33.4469 9.3658 34.274 9.56908C34.3288 10.4314 34.4269 11.5683 35.0518 12.6635C35.6741 13.7544 36.5952 14.4044 37.3016 14.8797C37.0614 15.7096 36.7719 16.8103 36.987 18.0557C37.2031 19.3076 37.8595 20.2423 38.3632 20.9343C37.8557 21.6317 37.2025 22.5647 36.987 23.8129C36.7718 25.0586 37.0615 26.1597 37.3016 26.9891C36.5948 27.4646 35.674 28.1146 35.0517 29.2056C34.4267 30.3009 34.3287 31.438 34.274 32.2997C33.4467 32.503 32.359 32.797 31.4035 33.6108C30.4496 34.4236 29.9771 35.4584 29.6374 36.2482C29.2648 36.2065 28.8608 36.1665 28.4198 36.1665C27.7131 36.1665 27.0851 36.2715 26.4999 36.4876C25.3335 36.9183 24.5431 37.7247 23.9597 38.3463Z" fill="url(#paint3_linear_548_21)"/>
<path d="M20.919 35.8348C12.8183 35.8348 6.22803 29.1506 6.22803 20.9345C6.22803 12.7184 12.8183 6.03418 20.919 6.03418C29.0196 6.03418 35.6099 12.7184 35.6099 20.9345C35.61 29.1506 29.0196 35.8348 20.919 35.8348Z" fill="url(#paint4_linear_548_21)"/>
<path d="M20.919 35.4183C13.045 35.4183 6.63892 28.921 6.63892 20.9348C6.63892 12.9485 13.045 6.45117 20.919 6.45117C28.793 6.45117 35.199 12.9484 35.199 20.9348C35.1991 28.921 28.7931 35.4183 20.919 35.4183Z" fill="url(#paint5_linear_548_21)"/>
<path d="M20.9191 34.5841C13.4983 34.5841 7.46094 28.4607 7.46094 20.9341C7.46094 13.4076 13.4983 7.28418 20.9191 7.28418C28.3399 7.28418 34.3773 13.4076 34.3773 20.9341C34.3773 28.4607 28.34 34.5841 20.9191 34.5841Z" fill="url(#paint6_linear_548_21)"/>
<path d="M30.1947 28.5536L30.3091 29.2303L29.7105 28.912L29.1098 29.2303L29.2241 28.5536L28.7397 28.075L29.409 27.9759L29.7105 27.3604L30.0097 27.9759L30.679 28.075L30.1947 28.5536Z" fill="url(#paint7_linear_548_21)"/>
<path d="M32.0561 25.3251L32.1704 26.0019L31.5718 25.6835L30.9711 26.0019L31.0854 25.3251L30.6011 24.8466L31.2704 24.7475L31.5718 24.1318L31.871 24.7475L32.5403 24.8466L32.0561 25.3251Z" fill="url(#paint8_linear_548_21)"/>
<path d="M32.8031 21.5419L32.9174 22.2186L32.3189 21.9003L31.7181 22.2186L31.8325 21.5419L31.3481 21.0634L32.0174 20.9642L32.3189 20.3486L32.6181 20.9642L33.2874 21.0634L32.8031 21.5419Z" fill="url(#paint9_linear_548_21)"/>
<path d="M32.269 17.6756L32.3833 18.3523L31.7847 18.034L31.1839 18.3523L31.2983 17.6756L30.814 17.1971L31.4833 17.098L31.7847 16.4824L32.0839 17.098L32.7532 17.1971L32.269 17.6756Z" fill="url(#paint10_linear_548_21)"/>
<path d="M30.5764 14.328L30.6907 15.0048L30.092 14.6864L29.4914 15.0048L29.6057 14.328L29.1213 13.8494L29.7906 13.7503L30.092 13.1348L30.3913 13.7503L31.0607 13.8494L30.5764 14.328Z" fill="url(#paint11_linear_548_21)"/>
<path d="M27.9457 11.7234L28.06 12.4002L27.4614 12.0818L26.8608 12.4002L26.975 11.7234L26.4907 11.2449L27.16 11.1458L27.4614 10.5303L27.7607 11.1458L28.43 11.2449L27.9457 11.7234Z" fill="url(#paint12_linear_548_21)"/>
<path d="M24.5979 10.0888L24.7121 10.7655L24.1135 10.4471L23.5129 10.7655L23.6271 10.0888L23.1428 9.61023L23.8121 9.51117L24.1135 8.89551L24.4128 9.51117L25.0821 9.61023L24.5979 10.0888Z" fill="url(#paint13_linear_548_21)"/>
<path d="M20.7617 9.64532L20.876 10.3221L20.2773 10.0038L19.6767 10.3221L19.791 9.64532L19.3066 9.16678L19.976 9.06772L20.2773 8.45215L20.5767 9.06772L21.246 9.16678L20.7617 9.64532Z" fill="url(#paint14_linear_548_21)"/>
<path d="M17.0546 10.5018L17.1689 11.1785L16.5703 10.8602L15.9696 11.1785L16.0839 10.5018L15.5996 10.0232L16.2689 9.92417L16.5703 9.30859L16.8696 9.92417L17.539 10.0232L17.0546 10.5018Z" fill="url(#paint15_linear_548_21)"/>
<path d="M13.9164 12.4774L14.0307 13.1541L13.4321 12.8357L12.8315 13.1541L12.9458 12.4774L12.4614 11.9988L13.1307 11.8998L13.4321 11.2842L13.7314 11.8998L14.4007 11.9988L13.9164 12.4774Z" fill="url(#paint16_linear_548_21)"/>
<path d="M11.5673 15.3485L11.6816 16.0253L11.083 15.7069L10.4823 16.0253L10.5966 15.3485L10.1123 14.87L10.7816 14.7709L11.083 14.1553L11.3823 14.7709L12.0517 14.87L11.5673 15.3485Z" fill="url(#paint17_linear_548_21)"/>
<path d="M10.228 18.8904L10.3423 19.5672L9.74365 19.2489L9.14298 19.5672L9.25727 18.8904L8.77295 18.4119L9.44225 18.3128L9.74365 17.6973L10.0429 18.3128L10.7123 18.4119L10.228 18.8904Z" fill="url(#paint18_linear_548_21)"/>
<path d="M10.1144 22.8271L10.2287 23.5037L9.63013 23.1854L9.02946 23.5037L9.14375 22.8271L8.65942 22.3485L9.32872 22.2494L9.63013 21.6338L9.92939 22.2494L10.5987 22.3485L10.1144 22.8271Z" fill="url(#paint19_linear_548_21)"/>
<path d="M11.2553 26.4638L11.3696 27.1405L10.771 26.8221L10.1703 27.1405L10.2846 26.4638L9.80029 25.9852L10.4696 25.8862L10.771 25.2705L11.0703 25.8862L11.7396 25.9852L11.2553 26.4638Z" fill="url(#paint20_linear_548_21)"/>
<path d="M13.4444 29.4677L13.5588 30.1443L12.9601 29.826L12.3594 30.1443L12.4738 29.4677L11.9895 28.9891L12.6588 28.8901L12.9601 28.2744L13.2595 28.8901L13.9288 28.9891L13.4444 29.4677Z" fill="url(#paint21_linear_548_21)"/>
<path d="M16.4613 31.6151L16.5756 32.2919L15.9771 31.9735L15.3764 32.2919L15.4907 31.6151L15.0063 31.1366L15.6756 31.0374L15.9771 30.4219L16.2763 31.0374L16.9456 31.1366L16.4613 31.6151Z" fill="url(#paint22_linear_548_21)"/>
<path d="M20.0853 32.6825L20.1997 33.3593L19.601 33.0409L19.0003 33.3593L19.1147 32.6825L18.6304 32.204L19.2996 32.1049L19.601 31.4893L19.9003 32.1049L20.5696 32.204L20.0853 32.6825Z" fill="url(#paint23_linear_548_21)"/>
<path d="M23.9643 32.4657L24.0786 33.1425L23.48 32.8241L22.8793 33.1425L22.9937 32.4657L22.5093 31.9872L23.1786 31.888L23.48 31.2725L23.7793 31.888L24.4486 31.9872L23.9643 32.4657Z" fill="url(#paint24_linear_548_21)"/>
<path d="M27.4208 31.0146L27.5351 31.6913L26.9365 31.3729L26.3359 31.6913L26.4501 31.0146L25.9658 30.536L26.6352 30.4369L26.9365 29.8213L27.2359 30.4369L27.9051 30.536L27.4208 31.0146Z" fill="url(#paint25_linear_548_21)"/>
<path d="M30.1947 28.5536L30.3091 29.2303L29.7105 28.912L29.1098 29.2303L29.2241 28.5536L28.7397 28.075L29.409 27.9759L29.7105 27.3604L30.0097 27.9759L30.679 28.075L30.1947 28.5536Z" fill="url(#paint26_linear_548_21)"/>
<path d="M18.4764 26.0832C18.3707 26.0995 18.2852 25.9737 18.2661 25.8459C18.2512 25.7472 18.4149 25.5362 18.4554 25.5299C18.4636 25.5286 18.3647 25.6998 18.394 25.7291C18.6703 25.6863 19.2568 25.2204 19.2066 24.8868C19.1786 24.7012 19.0041 24.6187 18.7522 24.6577C17.5011 24.8514 15.6353 27.3411 15.8976 28.4769C15.9781 28.8186 16.2442 28.8741 16.5569 28.8257C17.3207 28.7075 18.4588 27.8187 19.3026 26.8788C19.3061 26.874 19.3539 26.8876 19.3388 26.8983C18.7305 27.7178 17.3566 29.0014 16.4639 29.1185C16.0279 29.1776 15.6211 29.0425 15.521 28.5435C15.2228 27.1141 17.3272 24.7729 18.6961 24.561C19.0494 24.5063 19.3202 24.6204 19.3679 24.9377C19.4301 25.3494 18.8744 26.0216 18.4764 26.0832Z" fill="#4D2D0B"/>
<path d="M19.3005 27.305C19.6886 26.7348 20.3128 26.132 20.4509 26.1107C20.5443 26.0962 20.7079 26.2988 20.666 26.3517C20.5727 26.4503 20.0821 27.4159 20.099 27.6113C20.3402 27.5023 20.8309 26.8405 21.0503 26.5577C21.0757 26.5328 21.101 26.5624 21.0906 26.5766C20.8458 26.9394 20.44 27.5291 20.1627 27.7574C20.1332 27.7832 20.0766 27.8213 20.0337 27.8406C20.0182 27.8472 20.0026 27.854 19.9729 27.85C19.8873 27.8339 19.7722 27.7043 19.7609 27.6298C19.7256 27.3951 20.0612 26.6685 20.2433 26.4421C20.0203 26.5905 19.7129 26.8952 19.4627 27.2206C19.4275 27.264 19.2911 27.4623 19.2911 27.4623C19.189 27.613 19.1183 27.7504 19.0925 27.8556C19.0684 27.9436 19.0852 28.0002 19.1805 27.998C19.1348 28.026 19.0877 28.0166 19.0434 27.998C19.013 27.9901 18.9107 27.9175 18.8723 27.8561C18.8551 27.8249 18.8434 27.6919 18.9244 27.4009C19.0646 26.8692 19.4955 25.9761 19.7999 25.402C19.8867 25.2326 20.056 24.9492 20.2084 24.7737C20.2658 24.7142 20.319 24.6808 20.3516 24.6757C20.579 24.6406 20.7741 24.859 20.69 24.8258C20.6026 24.7972 20.4939 24.9024 20.366 25.1036C20.0367 25.6225 19.5297 26.5907 19.3005 27.305Z" fill="#4D2D0B"/>
<path d="M22.1314 25.8965C21.396 26.0104 20.756 27.5304 20.9983 27.594C21.2401 27.6534 21.7218 26.9043 21.9307 26.4419C21.9049 26.4081 21.8456 26.2909 21.8556 26.247C21.8616 26.2039 21.9649 26.0613 22.0172 26.049C22.0571 26.0388 22.1067 26.0647 22.1168 26.0757C22.2132 26.1915 22.3249 26.2712 22.4856 26.2337C22.754 26.1669 22.8801 25.9829 22.9254 25.9801C22.9139 26.041 22.7718 26.202 22.5826 26.2989C22.4975 26.3415 22.4135 26.3631 22.3487 26.3731C22.2876 26.3826 22.2459 26.3804 22.2242 26.3754C22.197 26.9403 21.4454 27.6639 21.0111 27.7056C20.8223 27.7222 20.6769 27.5846 20.6534 27.428C20.5522 26.7565 21.3408 25.9471 21.9827 25.8479C22.1371 25.8239 22.2089 25.8592 22.241 25.8795C22.2632 25.8887 22.251 25.8906 22.2347 25.893C22.1935 25.8953 22.1597 25.8921 22.1314 25.8965Z" fill="#4D2D0B"/>
<path d="M22.4915 27.4599C22.4232 27.4494 22.3062 27.3621 22.295 27.2881C22.2591 27.0493 22.7129 26.0597 22.9412 25.8093C22.9585 25.7855 22.9822 25.7776 22.9984 25.7752C23.0919 25.7606 23.2792 25.9005 23.2946 26.0034C23.2971 26.02 23.2737 26.0024 23.2406 26.0033C23.0716 26.0125 22.6563 27.0383 22.6331 27.2148C22.8709 27.1104 23.3778 26.4459 23.589 26.1644C23.6145 26.1394 23.6397 26.1691 23.6295 26.1833C23.3343 26.6255 22.7894 27.3969 22.5406 27.4565C22.5244 27.4589 22.5122 27.4608 22.4915 27.4599ZM23.5368 25.1818C23.5795 25.2171 23.6133 25.2751 23.597 25.2777C23.5889 25.2789 23.554 25.2675 23.5123 25.295C23.4477 25.3347 23.2861 25.5324 23.2481 25.6099C23.2023 25.6929 23.104 25.6196 23.0888 25.5461C23.0667 25.4273 23.1808 25.1354 23.2813 25.0861C23.3729 25.0593 23.4747 25.128 23.5368 25.1818Z" fill="#4D2D0B"/>
<path d="M23.7246 27.0919C24.0921 26.9925 24.6908 26.3308 25.0358 25.9443C25.0468 25.9342 25.0777 25.9462 25.0672 25.9605C24.7681 26.3484 24.0964 27.2155 23.5927 27.2934C23.4627 27.3136 23.2979 27.2126 23.2578 27.084C23.2486 27.0517 23.2425 27.0106 23.2473 26.9592C23.2537 26.781 23.3565 26.4701 23.5884 26.1601C23.8714 25.7749 24.2494 25.4971 24.5378 25.4524C24.6312 25.4379 24.7905 25.5564 24.7998 25.6182C24.8234 25.7749 24.6472 25.9582 24.5287 26.0819C24.5218 26.0914 24.5002 26.0864 24.5065 26.0727C24.5615 25.9968 24.6791 25.6455 24.6421 25.6216C24.2089 25.6971 23.5528 26.7517 23.5961 27.04C23.6061 27.1058 23.6886 27.1014 23.7246 27.0919Z" fill="#4D2D0B"/>
<path d="M24.9715 26.8149C24.9749 26.865 25.0158 26.888 25.105 26.8742C25.4016 26.8283 26.0587 26.1406 26.417 25.7308C26.428 25.7208 26.4596 25.7371 26.4492 25.7513C26.1879 26.0868 25.4979 26.9988 24.9576 27.0824C24.8317 27.102 24.6469 26.9788 24.6302 26.8676C24.6153 26.7685 24.6274 26.6827 24.6463 26.5869C24.7083 26.3369 24.8765 26.0454 25.0995 25.7875C25.3939 25.4509 25.7361 25.2673 25.9108 25.2402C25.9718 25.2307 26.1728 25.2964 26.1903 25.412C26.2286 25.6673 25.538 26.3816 25.0849 26.4643C25.0249 26.562 24.9676 26.7059 24.9715 26.8149ZM25.1254 26.3735C25.4726 26.2775 26.0465 25.5058 26.0473 25.3456C25.6187 25.5637 25.2265 26.1345 25.1254 26.3735Z" fill="#4D2D0B"/>
<path d="M15.948 17.1562C16.4908 17.1562 16.8838 17.2845 17.127 17.5404C17.3699 17.7967 17.4916 18.184 17.4916 18.7027V18.9428C17.4916 19.2886 17.4379 19.5736 17.3306 19.7976C17.2231 20.0219 17.0527 20.1883 16.8192 20.2971C17.1034 20.4061 17.3036 20.5838 17.4206 20.8302C17.5373 21.0768 17.5958 21.3794 17.5958 21.7379V22.2854C17.5958 22.8041 17.4632 23.1996 17.1981 23.4717C16.9329 23.7439 16.5383 23.8799 16.0144 23.8799H14.376V17.1564H15.948V17.1562ZM15.4176 18.1168V19.8936H15.8248C16.0204 19.8936 16.1736 19.8425 16.2841 19.74C16.3945 19.6377 16.4498 19.4518 16.4498 19.1829V18.8082C16.4498 18.5649 16.4072 18.3889 16.3219 18.28C16.2368 18.1712 16.1027 18.1168 15.9195 18.1168H15.4176V18.1168ZM15.4176 20.8541V22.9192H16.0143C16.1909 22.9192 16.3252 22.8712 16.4168 22.7752C16.5082 22.6792 16.5541 22.5063 16.5541 22.2565V21.6706C16.5541 21.357 16.502 21.1423 16.3978 21.0271C16.2936 20.9119 16.1216 20.8541 15.8817 20.8541H15.4176Z" fill="url(#paint27_linear_548_21)"/>
<path d="M19.2624 19.9898H20.6923V20.9502H19.2624V22.9192H21.0617V23.8797H18.2207V17.1562H21.0617V18.1168H19.2624V19.9898Z" fill="url(#paint28_linear_548_21)"/>
<path d="M21.573 18.7697C21.573 18.2254 21.7009 17.8076 21.9566 17.5161C22.2123 17.2248 22.5958 17.0791 23.1071 17.0791C23.6185 17.0791 24.0021 17.2247 24.2577 17.5161C24.5134 17.8076 24.6413 18.2254 24.6413 18.7697V19.029H23.6564V18.7024C23.6564 18.4592 23.6105 18.2879 23.519 18.1885C23.4275 18.0893 23.2996 18.0396 23.1355 18.0396C22.9712 18.0396 22.8434 18.0893 22.7519 18.1885C22.6603 18.2879 22.6146 18.4592 22.6146 18.7024C22.6146 18.933 22.665 19.1364 22.7661 19.3124C22.867 19.4885 22.9935 19.655 23.1449 19.8118C23.2964 19.9686 23.4589 20.1256 23.6327 20.2824C23.8062 20.4393 23.9688 20.6106 24.1203 20.7962C24.2718 20.982 24.398 21.1934 24.4991 21.4302C24.5999 21.6672 24.6505 21.9457 24.6505 22.2658C24.6505 22.8101 24.5195 23.2279 24.2575 23.5192C23.9955 23.8107 23.6089 23.9562 23.0975 23.9562C22.5861 23.9562 22.1993 23.8107 21.9373 23.5192C21.6753 23.228 21.5444 22.8101 21.5444 22.2658V21.8048H22.5293V22.3331C22.5293 22.5765 22.5781 22.7461 22.6761 22.842C22.7738 22.9381 22.9047 22.9861 23.069 22.9861C23.2331 22.9861 23.3641 22.938 23.462 22.842C23.5597 22.7461 23.6088 22.5764 23.6088 22.3331C23.6088 22.1025 23.5582 21.8993 23.4572 21.7231C23.3562 21.5472 23.23 21.3807 23.0785 21.2236C22.9269 21.0668 22.7643 20.91 22.5907 20.7531C22.4169 20.5962 22.2546 20.425 22.103 20.2392C21.9515 20.0535 21.8252 19.8422 21.7242 19.6052C21.6234 19.3684 21.573 19.09 21.573 18.7697Z" fill="url(#paint29_linear_548_21)"/>
<path d="M24.963 17.1562H28.1828V18.1168H27.0937V23.8797H26.052V18.1168H24.9629V17.1562H24.963Z" fill="url(#paint30_linear_548_21)"/>
<path d="M21.0033 15.9385C21.3916 15.3681 22.016 14.7653 22.1541 14.7439C22.2476 14.7295 22.4111 14.9319 22.3692 14.9848C22.2759 15.0836 21.7851 16.0494 21.8021 16.2449C22.0435 16.1358 22.5341 15.4737 22.7534 15.191C22.7789 15.1659 22.8042 15.1958 22.7938 15.21C22.5493 15.5726 22.1431 16.1627 21.8656 16.3911C21.8363 16.4167 21.7797 16.455 21.737 16.4744C21.7213 16.481 21.7057 16.4877 21.6759 16.4839C21.5903 16.4674 21.4752 16.3377 21.4639 16.2635C21.4286 16.0287 21.7641 15.3019 21.9463 15.0756C21.7233 15.2239 21.4157 15.5289 21.1653 15.8543C21.1303 15.8977 20.9937 16.0959 20.9937 16.0959C20.8917 16.2466 20.821 16.3842 20.7952 16.4894C20.7712 16.5774 20.7878 16.6338 20.8832 16.6319C20.8376 16.6599 20.7904 16.6503 20.7459 16.6319C20.7158 16.624 20.6133 16.5514 20.575 16.4897C20.5577 16.4587 20.5461 16.3254 20.627 16.0346C20.7674 15.5026 21.1984 14.6093 21.5028 14.035C21.5895 13.8656 21.7588 13.5821 21.9113 13.4066C21.969 13.3472 22.0221 13.3137 22.0547 13.3085C22.2822 13.2733 22.4772 13.4919 22.3931 13.4585C22.3057 13.43 22.1969 13.5353 22.0691 13.7364C21.7398 14.2557 21.2326 15.2241 21.0033 15.9385Z" fill="#4D2D0B"/>
<path d="M22.657 16.0701C22.6604 16.1202 22.7014 16.1434 22.7907 16.1296C23.0873 16.0835 23.7446 15.3957 24.103 14.9861C24.1138 14.9759 24.1455 14.9921 24.1351 15.0063C23.8739 15.342 23.1836 16.2543 22.6432 16.3379C22.5173 16.3574 22.3326 16.2343 22.3157 16.1231C22.3009 16.024 22.3129 15.9379 22.3316 15.8422C22.3938 15.5923 22.5619 15.3005 22.7851 15.0424C23.0794 14.7058 23.4219 14.522 23.5965 14.495C23.6576 14.4856 23.8588 14.5515 23.876 14.6669C23.9146 14.9223 23.2237 15.6365 22.7707 15.7193C22.7104 15.8174 22.653 15.9612 22.657 16.0701ZM22.811 15.6288C23.1583 15.5329 23.7324 14.7608 23.7329 14.6004C23.3043 14.8187 22.912 15.3897 22.811 15.6288Z" fill="#4D2D0B"/>
<path d="M20.9733 13.606C20.9003 13.6174 20.8172 13.7018 20.7168 13.8355C20.6197 13.9644 20.4901 14.1531 20.3358 14.4259C19.9398 15.1404 19.5076 16.1812 19.3164 16.8705H19.6043C19.8665 16.1511 20.4257 14.9729 20.8289 14.3031C21.0155 13.9958 21.1719 13.8198 21.2653 13.8054C21.2978 13.8004 21.3363 13.807 21.3702 13.8398C21.3076 13.6723 21.1196 13.5834 20.9733 13.606Z" fill="#4D2D0B"/>
<path d="M18.7104 15.5044C18.7224 15.5026 18.7258 15.4978 18.7258 15.4978C18.6909 15.4864 18.2304 15.4102 18.2232 15.1414C18.205 14.5791 19.5697 13.4526 21.6665 13.128C21.7435 13.116 21.8249 13.1035 21.9028 13.0957C22.8908 12.9763 23.6848 13.0854 23.7589 13.1076C23.806 13.1172 23.8349 13.0873 23.7737 13.0675C23.4346 12.9428 22.565 12.8539 21.7032 12.9579C21.6131 12.9676 21.5279 12.9809 21.4385 12.9947C19.5734 13.2835 17.7989 14.2287 17.9086 15.1228C17.9549 15.4865 18.4375 15.5425 18.7104 15.5044Z" fill="#4D2D0B"/>
</g>
<defs>
<linearGradient id="paint0_linear_548_21" x1="-6.88051" y1="73.701" x2="27.5141" y2="10.2384" gradientUnits="userSpaceOnUse">
<stop stop-color="#FFD744"/>
<stop offset="0.0679" stop-color="#A6761A"/>
<stop offset="0.1851" stop-color="#FFD744"/>
<stop offset="0.3981" stop-color="#FFD744"/>
<stop offset="0.561" stop-color="#FCF4AE"/>
<stop offset="0.6792" stop-color="#FFD744"/>
<stop offset="0.75" stop-color="#A6761A"/>
<stop offset="0.8802" stop-color="#FFD744"/>
<stop offset="0.967" stop-color="#FCF4AE"/>
<stop offset="1" stop-color="#FFD744"/>
</linearGradient>
<linearGradient id="paint1_linear_548_21" x1="60.6955" y1="-46.3703" x2="5.07598" y2="45.1156" gradientUnits="userSpaceOnUse">
<stop offset="0.1044" stop-color="#BA903F"/>
<stop offset="0.5" stop-color="#996019"/>
<stop offset="0.6412" stop-color="#6F4411"/>
<stop offset="0.7989" stop-color="#472A09"/>
<stop offset="0.924" stop-color="#2E1904"/>
<stop offset="1" stop-color="#251302"/>
</linearGradient>
<linearGradient id="paint2_linear_548_21" x1="53.719" y1="33.6386" x2="-12.1287" y2="8.84672" gradientUnits="userSpaceOnUse">
<stop stop-color="#FFD744"/>
<stop offset="0.0679" stop-color="#A6761A"/>
<stop offset="0.1851" stop-color="#FFD744"/>
<stop offset="0.3981" stop-color="#FFD744"/>
<stop offset="0.561" stop-color="#FCF4AE"/>
<stop offset="0.6792" stop-color="#FFD744"/>
<stop offset="0.75" stop-color="#A6761A"/>
<stop offset="0.8802" stop-color="#FFD744"/>
<stop offset="0.967" stop-color="#FCF4AE"/>
<stop offset="1" stop-color="#FFD744"/>
</linearGradient>
<linearGradient id="paint3_linear_548_21" x1="13.3356" y1="39.3025" x2="66.143" y2="-85.0352" gradientUnits="userSpaceOnUse">
<stop stop-color="#FFD744"/>
<stop offset="0.0679" stop-color="#A6761A"/>
<stop offset="0.1851" stop-color="#FFD744"/>
<stop offset="0.3981" stop-color="#FFD744"/>
<stop offset="0.561" stop-color="#FCF4AE"/>
<stop offset="0.6792" stop-color="#FFD744"/>
<stop offset="0.75" stop-color="#A6761A"/>
<stop offset="0.8802" stop-color="#FFD744"/>
<stop offset="0.967" stop-color="#FCF4AE"/>
<stop offset="1" stop-color="#FFD744"/>
</linearGradient>
<linearGradient id="paint4_linear_548_21" x1="43.7732" y1="-17.3944" x2="8.25478" y2="40.5115" gradientUnits="userSpaceOnUse">
<stop stop-color="#FFD744"/>
<stop offset="0.0679" stop-color="#A6761A"/>
<stop offset="0.1851" stop-color="#FFD744"/>
<stop offset="0.3981" stop-color="#FFD744"/>
<stop offset="0.561" stop-color="#FCF4AE"/>
<stop offset="0.6792" stop-color="#FFD744"/>
<stop offset="0.75" stop-color="#A6761A"/>
<stop offset="0.8802" stop-color="#FFD744"/>
<stop offset="0.967" stop-color="#FCF4AE"/>
<stop offset="1" stop-color="#FFD744"/>
</linearGradient>
<linearGradient id="paint5_linear_548_21" x1="38.6998" y1="-9.29468" x2="4.57473" y2="47.1031" gradientUnits="userSpaceOnUse">
<stop offset="0.1044" stop-color="#BA903F"/>
<stop offset="0.5" stop-color="#996019"/>
<stop offset="0.6412" stop-color="#6F4411"/>
<stop offset="0.7989" stop-color="#472A09"/>
<stop offset="0.924" stop-color="#2E1904"/>
<stop offset="1" stop-color="#251302"/>
</linearGradient>
<linearGradient id="paint6_linear_548_21" x1="-2.82529" y1="60.8349" x2="58.7038" y2="-39.6752" gradientUnits="userSpaceOnUse">
<stop stop-color="#523E1D"/>
<stop offset="0.0314" stop-color="#584322"/>
<stop offset="0.0714" stop-color="#67522F"/>
<stop offset="0.0843" stop-color="#6E5834"/>
<stop offset="0.1177" stop-color="#806B45"/>
<stop offset="0.2107" stop-color="#AD9A6E"/>
<stop offset="0.2993" stop-color="#D1BF8E"/>
<stop offset="0.3814" stop-color="#EAD9A6"/>
<stop offset="0.4545" stop-color="#FAE9B4"/>
<stop offset="0.5112" stop-color="#FFEFB9"/>
<stop offset="0.5195" stop-color="#F2E1AC"/>
<stop offset="0.5414" stop-color="#D5C28F"/>
<stop offset="0.5662" stop-color="#BCA675"/>
<stop offset="0.5942" stop-color="#A89061"/>
<stop offset="0.627" stop-color="#987F51"/>
<stop offset="0.6675" stop-color="#8D7446"/>
<stop offset="0.7243" stop-color="#876D40"/>
<stop offset="0.882" stop-color="#856B3E"/>
<stop offset="1" stop-color="#543D17"/>
</linearGradient>
<linearGradient id="paint7_linear_548_21" x1="34.9818" y1="16.5444" x2="21.5212" y2="45.5758" gradientUnits="userSpaceOnUse">
<stop offset="0.1044" stop-color="#BA903F"/>
<stop offset="0.5" stop-color="#996019"/>
<stop offset="0.6412" stop-color="#6F4411"/>
<stop offset="0.7989" stop-color="#472A09"/>
<stop offset="0.924" stop-color="#2E1904"/>
<stop offset="1" stop-color="#251302"/>
</linearGradient>
<linearGradient id="paint8_linear_548_21" x1="35.318" y1="16.6999" x2="21.8571" y2="45.7317" gradientUnits="userSpaceOnUse">
<stop offset="0.1044" stop-color="#BA903F"/>
<stop offset="0.5" stop-color="#996019"/>
<stop offset="0.6412" stop-color="#6F4411"/>
<stop offset="0.7989" stop-color="#472A09"/>
<stop offset="0.924" stop-color="#2E1904"/>
<stop offset="1" stop-color="#251302"/>
</linearGradient>
<linearGradient id="paint9_linear_548_21" x1="34.5253" y1="16.3328" x2="21.0643" y2="45.3649" gradientUnits="userSpaceOnUse">
<stop offset="0.1044" stop-color="#BA903F"/>
<stop offset="0.5" stop-color="#996019"/>
<stop offset="0.6412" stop-color="#6F4411"/>
<stop offset="0.7989" stop-color="#472A09"/>
<stop offset="0.924" stop-color="#2E1904"/>
<stop offset="1" stop-color="#251302"/>
</linearGradient>
<linearGradient id="paint10_linear_548_21" x1="32.6423" y1="15.4591" x2="19.1816" y2="44.4907" gradientUnits="userSpaceOnUse">
<stop offset="0.1044" stop-color="#BA903F"/>
<stop offset="0.5" stop-color="#996019"/>
<stop offset="0.6412" stop-color="#6F4411"/>
<stop offset="0.7989" stop-color="#472A09"/>
<stop offset="0.924" stop-color="#2E1904"/>
<stop offset="1" stop-color="#251302"/>
</linearGradient>
<linearGradient id="paint11_linear_548_21" x1="29.994" y1="14.2319" x2="16.5334" y2="43.2632" gradientUnits="userSpaceOnUse">
<stop offset="0.1044" stop-color="#BA903F"/>
<stop offset="0.5" stop-color="#996019"/>
<stop offset="0.6412" stop-color="#6F4411"/>
<stop offset="0.7989" stop-color="#472A09"/>
<stop offset="0.924" stop-color="#2E1904"/>
<stop offset="1" stop-color="#251302"/>
</linearGradient>
<linearGradient id="paint12_linear_548_21" x1="26.8474" y1="12.7721" x2="13.3868" y2="41.8034" gradientUnits="userSpaceOnUse">
<stop offset="0.1044" stop-color="#BA903F"/>
<stop offset="0.5" stop-color="#996019"/>
<stop offset="0.6412" stop-color="#6F4411"/>
<stop offset="0.7989" stop-color="#472A09"/>
<stop offset="0.924" stop-color="#2E1904"/>
<stop offset="1" stop-color="#251302"/>
</linearGradient>
<linearGradient id="paint13_linear_548_21" x1="23.4686" y1="11.2061" x2="10.0077" y2="40.238" gradientUnits="userSpaceOnUse">
<stop offset="0.1044" stop-color="#BA903F"/>
<stop offset="0.5" stop-color="#996019"/>
<stop offset="0.6412" stop-color="#6F4411"/>
<stop offset="0.7989" stop-color="#472A09"/>
<stop offset="0.924" stop-color="#2E1904"/>
<stop offset="1" stop-color="#251302"/>
</linearGradient>
<linearGradient id="paint14_linear_548_21" x1="20.1303" y1="9.65805" x2="6.66967" y2="38.6894" gradientUnits="userSpaceOnUse">
<stop offset="0.1044" stop-color="#BA903F"/>
<stop offset="0.5" stop-color="#996019"/>
<stop offset="0.6412" stop-color="#6F4411"/>
<stop offset="0.7989" stop-color="#472A09"/>
<stop offset="0.924" stop-color="#2E1904"/>
<stop offset="1" stop-color="#251302"/>
</linearGradient>
<linearGradient id="paint15_linear_548_21" x1="17.3832" y1="8.38465" x2="3.92256" y2="37.416" gradientUnits="userSpaceOnUse">
<stop offset="0.1044" stop-color="#BA903F"/>
<stop offset="0.5" stop-color="#996019"/>
<stop offset="0.6412" stop-color="#6F4411"/>
<stop offset="0.7989" stop-color="#472A09"/>
<stop offset="0.924" stop-color="#2E1904"/>
<stop offset="1" stop-color="#251302"/>
</linearGradient>
<linearGradient id="paint16_linear_548_21" x1="15.524" y1="7.52254" x2="2.06336" y2="36.5539" gradientUnits="userSpaceOnUse">
<stop offset="0.1044" stop-color="#BA903F"/>
<stop offset="0.5" stop-color="#996019"/>
<stop offset="0.6412" stop-color="#6F4411"/>
<stop offset="0.7989" stop-color="#472A09"/>
<stop offset="0.924" stop-color="#2E1904"/>
<stop offset="1" stop-color="#251302"/>
</linearGradient>
<linearGradient id="paint17_linear_548_21" x1="14.6513" y1="7.11794" x2="1.19054" y2="36.1496" gradientUnits="userSpaceOnUse">
<stop offset="0.1044" stop-color="#BA903F"/>
<stop offset="0.5" stop-color="#996019"/>
<stop offset="0.6412" stop-color="#6F4411"/>
<stop offset="0.7989" stop-color="#472A09"/>
<stop offset="0.924" stop-color="#2E1904"/>
<stop offset="1" stop-color="#251302"/>
</linearGradient>
<linearGradient id="paint18_linear_548_21" x1="14.8641" y1="7.21616" x2="1.40345" y2="36.2476" gradientUnits="userSpaceOnUse">
<stop offset="0.1044" stop-color="#BA903F"/>
<stop offset="0.5" stop-color="#996019"/>
<stop offset="0.6412" stop-color="#6F4411"/>
<stop offset="0.7989" stop-color="#472A09"/>
<stop offset="0.924" stop-color="#2E1904"/>
<stop offset="1" stop-color="#251302"/>
</linearGradient>
<linearGradient id="paint19_linear_548_21" x1="16.2377" y1="7.85338" x2="2.77704" y2="36.8847" gradientUnits="userSpaceOnUse">
<stop offset="0.1044" stop-color="#BA903F"/>
<stop offset="0.5" stop-color="#996019"/>
<stop offset="0.6412" stop-color="#6F4411"/>
<stop offset="0.7989" stop-color="#472A09"/>
<stop offset="0.924" stop-color="#2E1904"/>
<stop offset="1" stop-color="#251302"/>
</linearGradient>
<linearGradient id="paint20_linear_548_21" x1="18.5373" y1="8.91932" x2="5.07635" y2="37.9513" gradientUnits="userSpaceOnUse">
<stop offset="0.1044" stop-color="#BA903F"/>
<stop offset="0.5" stop-color="#996019"/>
<stop offset="0.6412" stop-color="#6F4411"/>
<stop offset="0.7989" stop-color="#472A09"/>
<stop offset="0.924" stop-color="#2E1904"/>
<stop offset="1" stop-color="#251302"/>
</linearGradient>
<linearGradient id="paint21_linear_548_21" x1="21.4678" y1="10.2784" x2="8.00715" y2="39.3098" gradientUnits="userSpaceOnUse">
<stop offset="0.1044" stop-color="#BA903F"/>
<stop offset="0.5" stop-color="#996019"/>
<stop offset="0.6412" stop-color="#6F4411"/>
<stop offset="0.7989" stop-color="#472A09"/>
<stop offset="0.924" stop-color="#2E1904"/>
<stop offset="1" stop-color="#251302"/>
</linearGradient>
<linearGradient id="paint22_linear_548_21" x1="24.7639" y1="11.8062" x2="11.303" y2="40.8381" gradientUnits="userSpaceOnUse">
<stop offset="0.1044" stop-color="#BA903F"/>
<stop offset="0.5" stop-color="#996019"/>
<stop offset="0.6412" stop-color="#6F4411"/>
<stop offset="0.7989" stop-color="#472A09"/>
<stop offset="0.924" stop-color="#2E1904"/>
<stop offset="1" stop-color="#251302"/>
</linearGradient>
<linearGradient id="paint23_linear_548_21" x1="28.1591" y1="13.3813" x2="14.6986" y2="42.4125" gradientUnits="userSpaceOnUse">
<stop offset="0.1044" stop-color="#BA903F"/>
<stop offset="0.5" stop-color="#996019"/>
<stop offset="0.6412" stop-color="#6F4411"/>
<stop offset="0.7989" stop-color="#472A09"/>
<stop offset="0.924" stop-color="#2E1904"/>
<stop offset="1" stop-color="#251302"/>
</linearGradient>
<linearGradient id="paint24_linear_548_21" x1="31.2869" y1="14.8312" x2="17.8263" y2="43.8626" gradientUnits="userSpaceOnUse">
<stop offset="0.1044" stop-color="#BA903F"/>
<stop offset="0.5" stop-color="#996019"/>
<stop offset="0.6412" stop-color="#6F4411"/>
<stop offset="0.7989" stop-color="#472A09"/>
<stop offset="0.924" stop-color="#2E1904"/>
<stop offset="1" stop-color="#251302"/>
</linearGradient>
<linearGradient id="paint25_linear_548_21" x1="33.6051" y1="15.9055" x2="20.1445" y2="44.9367" gradientUnits="userSpaceOnUse">
<stop offset="0.1044" stop-color="#BA903F"/>
<stop offset="0.5" stop-color="#996019"/>
<stop offset="0.6412" stop-color="#6F4411"/>
<stop offset="0.7989" stop-color="#472A09"/>
<stop offset="0.924" stop-color="#2E1904"/>
<stop offset="1" stop-color="#251302"/>
</linearGradient>
<linearGradient id="paint26_linear_548_21" x1="34.9818" y1="16.5444" x2="21.5212" y2="45.5758" gradientUnits="userSpaceOnUse">
<stop offset="0.1044" stop-color="#BA903F"/>
<stop offset="0.5" stop-color="#996019"/>
<stop offset="0.6412" stop-color="#6F4411"/>
<stop offset="0.7989" stop-color="#472A09"/>
<stop offset="0.924" stop-color="#2E1904"/>
<stop offset="1" stop-color="#251302"/>
</linearGradient>
<linearGradient id="paint27_linear_548_21" x1="27.6965" y1="-3.12426" x2="13.8522" y2="23.4309" gradientUnits="userSpaceOnUse">
<stop offset="0.1044" stop-color="#BA903F"/>
<stop offset="0.5" stop-color="#996019"/>
<stop offset="0.6412" stop-color="#6F4411"/>
<stop offset="0.7989" stop-color="#472A09"/>
<stop offset="0.924" stop-color="#2E1904"/>
<stop offset="1" stop-color="#251302"/>
</linearGradient>
<linearGradient id="paint28_linear_548_21" x1="30.8023" y1="-1.505" x2="16.958" y2="25.05" gradientUnits="userSpaceOnUse">
<stop offset="0.1044" stop-color="#BA903F"/>
<stop offset="0.5" stop-color="#996019"/>
<stop offset="0.6412" stop-color="#6F4411"/>
<stop offset="0.7989" stop-color="#472A09"/>
<stop offset="0.924" stop-color="#2E1904"/>
<stop offset="1" stop-color="#251302"/>
</linearGradient>
<linearGradient id="paint29_linear_548_21" x1="33.5458" y1="-0.075046" x2="19.7015" y2="26.48" gradientUnits="userSpaceOnUse">
<stop offset="0.1044" stop-color="#BA903F"/>
<stop offset="0.5" stop-color="#996019"/>
<stop offset="0.6412" stop-color="#6F4411"/>
<stop offset="0.7989" stop-color="#472A09"/>
<stop offset="0.924" stop-color="#2E1904"/>
<stop offset="1" stop-color="#251302"/>
</linearGradient>
<linearGradient id="paint30_linear_548_21" x1="35.8546" y1="1.12905" x2="22.0103" y2="27.6841" gradientUnits="userSpaceOnUse">
<stop offset="0.1044" stop-color="#BA903F"/>
<stop offset="0.5" stop-color="#996019"/>
<stop offset="0.6412" stop-color="#6F4411"/>
<stop offset="0.7989" stop-color="#472A09"/>
<stop offset="0.924" stop-color="#2E1904"/>
<stop offset="1" stop-color="#251302"/>
</linearGradient>
</defs>
</svg>
