<svg width="42" height="42" viewBox="0 0 42 42" fill="none" xmlns="http://www.w3.org/2000/svg">
<mask id="mask0_548_74" style="mask-type:alpha" maskUnits="userSpaceOnUse" x="0" y="0" width="42" height="42">
<circle cx="21" cy="21" r="21" fill="#D9D9D9"/>
</mask>
<g mask="url(#mask0_548_74)">
<path d="M21 42C32.598 42 42 32.598 42 21C42 9.40201 32.598 0 21 0C9.40201 0 0 9.40201 0 21C0 32.598 9.40201 42 21 42Z" fill="url(#paint0_linear_548_74)"/>
<path d="M21.0002 41.2538C9.83249 41.2538 0.746826 32.1681 0.746826 21.0005C0.746826 9.83264 9.8324 0.74707 21.0002 0.74707C32.168 0.74707 41.2536 9.83264 41.2536 21.0005C41.2535 32.1681 32.168 41.2538 21.0002 41.2538Z" fill="url(#paint1_linear_548_74)"/>
<path d="M20.9999 38.5262C30.6792 38.5262 38.5257 30.6796 38.5257 21.0004C38.5257 11.3212 30.6792 3.47461 20.9999 3.47461C11.3207 3.47461 3.47412 11.3212 3.47412 21.0004C3.47412 30.6796 11.3207 38.5262 20.9999 38.5262Z" fill="url(#paint2_linear_548_74)"/>
<path d="M21.0001 37.7791C11.748 37.7791 4.22095 30.2519 4.22095 20.9999C4.22095 11.7479 11.748 4.2207 21.0001 4.2207C30.2521 4.2207 37.7792 11.7478 37.7792 20.9999C37.7792 30.2519 30.252 37.7791 21.0001 37.7791Z" fill="url(#paint3_linear_548_74)"/>
<path d="M21.0002 36.1509C12.6458 36.1509 5.84912 29.354 5.84912 20.9998C5.84912 12.6454 12.6459 5.84863 21.0002 5.84863C29.3544 5.84863 36.1512 12.6454 36.1512 20.9998C36.1512 29.354 29.3544 36.1509 21.0002 36.1509Z" fill="url(#paint4_linear_548_74)"/>
<path d="M21.0002 35.7783C12.8517 35.7783 6.22241 29.1488 6.22241 21.0004C6.22241 12.8519 12.8518 6.22266 21.0002 6.22266C29.1485 6.22266 35.7779 12.8519 35.7779 21.0004C35.7779 29.1488 29.1485 35.7783 21.0002 35.7783Z" fill="url(#paint5_linear_548_74)"/>
<path d="M24.617 11.0956L24.1025 14.1813H18.0065L17.4919 11.0956C18.1536 12.087 19.624 12.0533 20.2379 11.03L21.0545 9.66895L21.8711 11.03C22.485 12.0532 23.9553 12.087 24.617 11.0956Z" fill="url(#paint6_linear_548_74)"/>
<path d="M24.0426 14.5391L23.9035 15.3697H18.2049L18.0659 14.5391H24.0426Z" fill="url(#paint7_linear_548_74)"/>
<path d="M13.329 19.287L13.4217 19.8274L12.9368 19.5731L12.4502 19.8274L12.5427 19.287L12.1504 18.9047L12.6927 18.8256L12.9368 18.334L13.1791 18.8256L13.7213 18.9047L13.329 19.287Z" fill="url(#paint8_linear_548_74)"/>
<path d="M29.4573 19.287L29.55 19.8274L29.0651 19.5731L28.5785 19.8274L28.6711 19.287L28.2788 18.9047L28.821 18.8256L29.0651 18.334L29.3075 18.8256L29.8496 18.9047L29.4573 19.287Z" fill="url(#paint9_linear_548_74)"/>
<path d="M15.221 20.3441H14.0427V20.1824C14.0802 20.1792 14.1202 20.1755 14.1628 20.1715C14.2051 20.1673 14.2402 20.1611 14.2681 20.1531C14.3139 20.1383 14.3481 20.1126 14.371 20.0757C14.3938 20.039 14.4053 19.9911 14.4053 19.9323V17.1325C14.4053 17.0738 14.3926 17.0186 14.3673 16.9671C14.3419 16.9155 14.3089 16.8751 14.268 16.8457C14.2386 16.826 14.1847 16.8081 14.1063 16.7918C14.0279 16.7753 13.965 16.7656 13.9177 16.7624V16.6056L14.8266 16.5518L14.8609 16.5884V19.9031C14.8609 19.9604 14.8714 20.0072 14.8927 20.0441C14.9139 20.0807 14.9482 20.1089 14.9956 20.1285C15.0315 20.1448 15.067 20.1571 15.1021 20.1653C15.1373 20.1734 15.1769 20.1791 15.2209 20.1824V20.3441H15.221Z" fill="url(#paint10_linear_548_74)"/>
<path d="M18.1144 20.3005L17.3256 20.3544L17.2888 20.3202V20.014H17.2742C17.235 20.0548 17.191 20.0984 17.1421 20.1451C17.0932 20.1915 17.0369 20.2336 16.9734 20.2712C16.9 20.3153 16.8291 20.3487 16.7605 20.3716C16.692 20.3945 16.5951 20.4059 16.4696 20.4059C16.2559 20.4059 16.0932 20.3362 15.9816 20.1966C15.8699 20.0572 15.8142 19.8544 15.8142 19.5885V18.4334C15.8142 18.3746 15.803 18.3254 15.7808 18.2852C15.7586 18.2452 15.7262 18.2106 15.6834 18.1813C15.6538 18.1617 15.6169 18.1474 15.5724 18.1384C15.528 18.1296 15.4812 18.1233 15.4319 18.12V17.9583L16.2379 17.8994L16.2746 17.9339V19.6121C16.2746 19.7867 16.3138 19.9183 16.3922 20.0064C16.4706 20.0947 16.5645 20.1387 16.6739 20.1387C16.7637 20.1387 16.8438 20.1249 16.914 20.0971C16.9843 20.0695 17.0431 20.0368 17.0905 19.9992C17.1345 19.965 17.1733 19.9286 17.2068 19.8904C17.2402 19.8521 17.266 19.8166 17.284 19.784V18.416C17.284 18.3623 17.2725 18.3144 17.2498 18.273C17.2268 18.2314 17.195 18.1959 17.1542 18.1665C17.1248 18.147 17.0811 18.1352 17.023 18.1311C16.9651 18.127 16.9002 18.1233 16.8283 18.12V17.9583L17.7077 17.8994L17.7445 17.9339V19.85C17.7445 19.9054 17.7559 19.9528 17.7789 19.992C17.8017 20.0312 17.8337 20.0646 17.8745 20.0922C17.9038 20.1103 17.9389 20.1221 17.9798 20.1278C18.0206 20.1335 18.0656 20.1371 18.1146 20.1387V20.3005H18.1144Z" fill="url(#paint11_linear_548_74)"/>
<path d="M20.7382 20.3436H19.631V20.1819C19.7047 20.1738 19.7674 20.1657 19.819 20.1575C19.8706 20.1493 19.8964 20.128 19.8964 20.0937C19.8964 20.0791 19.8883 20.0562 19.8719 20.0252C19.8555 19.9942 19.8392 19.9656 19.8229 19.9393C19.782 19.8756 19.7259 19.7902 19.6547 19.6831C19.5837 19.5761 19.4966 19.4483 19.3935 19.2996C19.3084 19.4058 19.2298 19.5091 19.1579 19.6097C19.0859 19.7101 19.0106 19.8168 18.9321 19.9296C18.9206 19.9458 18.9088 19.9662 18.8965 19.9908C18.8843 20.0153 18.8782 20.035 18.8782 20.0495C18.8782 20.0854 18.9015 20.1153 18.948 20.139C18.9947 20.1627 19.0647 20.1785 19.1581 20.1867V20.3435H18.2639V20.1916C18.3749 20.159 18.4644 20.1193 18.5321 20.0727C18.5998 20.0263 18.6623 19.9686 18.7194 19.9001C18.77 19.8344 18.8408 19.7442 18.9317 19.6296C19.0224 19.5147 19.1398 19.3591 19.2838 19.1622C19.2004 19.0434 19.0987 18.898 18.9787 18.7263C18.8586 18.5546 18.7594 18.4117 18.681 18.2977C18.6384 18.2358 18.5897 18.1854 18.535 18.1471C18.4802 18.1087 18.4029 18.0896 18.3032 18.0896V17.9279H19.3541V18.0896C19.3019 18.0896 19.2507 18.0929 19.2002 18.0994C19.1496 18.106 19.1244 18.1206 19.1244 18.1435C19.1244 18.1581 19.1292 18.1745 19.1391 18.1924C19.1488 18.2104 19.1611 18.2301 19.1759 18.2512C19.2117 18.3067 19.2676 18.3925 19.3434 18.5085C19.4191 18.6244 19.5012 18.7467 19.5892 18.8758C19.6465 18.7974 19.7131 18.7061 19.7893 18.6014C19.8653 18.4969 19.9354 18.3974 19.9992 18.3026C20.0057 18.2912 20.0123 18.2769 20.0188 18.2598C20.0253 18.2425 20.0285 18.2258 20.0285 18.2094C20.0285 18.1752 20.0003 18.1478 19.9437 18.1273C19.8872 18.1069 19.8335 18.0927 19.7827 18.0845V17.9277H20.6745V18.0796C20.5487 18.1123 20.4507 18.151 20.3806 18.196C20.3103 18.2409 20.2507 18.2926 20.2016 18.3516C20.1478 18.4185 20.0837 18.501 20.0094 18.5991C19.9352 18.697 19.8312 18.8342 19.6974 19.0107C19.8459 19.2198 19.9668 19.3911 20.0597 19.5252C20.1528 19.659 20.2465 19.797 20.3412 19.9392C20.3885 20.011 20.4413 20.0677 20.4992 20.1095C20.5572 20.151 20.6368 20.1751 20.7381 20.1816V20.3436H20.7382Z" fill="url(#paint12_linear_548_74)"/>
<path d="M23.5334 20.3005L22.7446 20.3544L22.7078 20.3202V20.014H22.6931C22.6539 20.0548 22.6099 20.0984 22.5611 20.1451C22.5121 20.1915 22.4559 20.2336 22.3923 20.2712C22.3189 20.3153 22.248 20.3487 22.1795 20.3716C22.111 20.3945 22.014 20.4059 21.8885 20.4059C21.6749 20.4059 21.5122 20.3362 21.4005 20.1966C21.2888 20.0572 21.233 19.8544 21.233 19.5885V18.4334C21.233 18.3746 21.2219 18.3254 21.1998 18.2852C21.1776 18.2452 21.1451 18.2106 21.1023 18.1813C21.0727 18.1617 21.0358 18.1474 20.9914 18.1384C20.947 18.1296 20.9002 18.1233 20.8508 18.12V17.9583L21.6568 17.8994L21.6936 17.9339V19.6121C21.6936 19.7867 21.7327 19.9183 21.8111 20.0064C21.8895 20.0947 21.9835 20.1387 22.0928 20.1387C22.1825 20.1387 22.2627 20.1249 22.3329 20.0971C22.4031 20.0695 22.462 20.0368 22.5094 19.9992C22.5534 19.965 22.5923 19.9286 22.6257 19.8904C22.6591 19.8521 22.685 19.8166 22.7029 19.784V18.416C22.7029 18.3623 22.6915 18.3144 22.6686 18.273C22.6458 18.2314 22.6138 18.1959 22.573 18.1665C22.5437 18.147 22.4999 18.1352 22.4419 18.1311C22.384 18.127 22.319 18.1233 22.2472 18.12V17.9583L23.1266 17.8994L23.1634 17.9339V19.85C23.1634 19.9054 23.1748 19.9528 23.1976 19.992C23.2205 20.0312 23.2524 20.0646 23.2932 20.0922C23.3226 20.1103 23.3576 20.1221 23.3985 20.1278C23.4393 20.1335 23.4843 20.1371 23.5334 20.1387V20.3005Z" fill="url(#paint13_linear_548_74)"/>
<path d="M25.6796 18.2399C25.6796 18.3232 25.6591 18.397 25.6184 18.4616C25.5775 18.5261 25.5146 18.5584 25.4297 18.5584C25.3382 18.5584 25.2684 18.5347 25.2203 18.4872C25.172 18.4399 25.1481 18.3877 25.1481 18.3305C25.1481 18.2946 25.1509 18.2619 25.1566 18.2324C25.1623 18.2031 25.1677 18.1737 25.1726 18.1443C25.0957 18.1443 25.0059 18.1753 24.903 18.2373C24.8001 18.2995 24.7127 18.3877 24.6409 18.502V19.9081C24.6409 19.9654 24.6519 20.0119 24.674 20.0478C24.696 20.0837 24.7306 20.1107 24.778 20.1286C24.8188 20.1449 24.8716 20.1571 24.936 20.1654C25.0005 20.1735 25.0564 20.1792 25.1039 20.1825V20.3442H23.83V20.1825C23.8675 20.1793 23.9063 20.176 23.9464 20.1727C23.9864 20.1694 24.0211 20.1631 24.0505 20.1532C24.0963 20.1385 24.1302 20.1129 24.1523 20.0761C24.1743 20.0394 24.1853 19.9917 24.1853 19.9329V18.4427C24.1853 18.3922 24.1734 18.3424 24.1498 18.2935C24.1261 18.2446 24.093 18.2054 24.0505 18.176C24.0196 18.1565 23.9828 18.1421 23.9404 18.1332C23.8978 18.1243 23.8521 18.118 23.8032 18.1148V17.9531L24.6068 17.8992L24.641 17.9337V18.2742H24.6533C24.7545 18.1419 24.8673 18.0414 24.9914 17.9729C25.1154 17.9044 25.2289 17.8701 25.3319 17.8701C25.4348 17.8701 25.5185 17.9034 25.583 17.9703C25.6473 18.0374 25.6796 18.1273 25.6796 18.2399Z" fill="url(#paint14_linear_548_74)"/>
<path d="M25.7016 21.1331C25.7016 21.0514 25.724 20.9849 25.769 20.9335C25.8139 20.882 25.8697 20.8564 25.9367 20.8564C25.9889 20.8564 26.0339 20.866 26.0715 20.8855C26.109 20.9048 26.1425 20.9299 26.1719 20.9608C26.1964 20.985 26.2225 21.0184 26.2502 21.0605C26.2779 21.1026 26.3 21.1374 26.3164 21.1649C26.3979 21.1209 26.4955 21.0059 26.6091 20.8202C26.7226 20.6345 26.8046 20.4714 26.8553 20.3313C26.7001 19.9445 26.5598 19.5983 26.434 19.293C26.3083 18.9877 26.1768 18.6718 26.0397 18.3452C26.0086 18.2701 25.9564 18.2116 25.8829 18.17C25.8094 18.1283 25.7359 18.1018 25.6624 18.0904V17.9287H26.7654V18.1003C26.7163 18.1019 26.6575 18.1121 26.5889 18.1309C26.5203 18.1497 26.486 18.1712 26.486 18.1956C26.486 18.2054 26.4897 18.2219 26.497 18.2446C26.5044 18.2675 26.5129 18.2911 26.5228 18.3156C26.5847 18.4773 26.6791 18.7103 26.8062 19.0145C26.9332 19.319 27.0318 19.5625 27.1018 19.7452C27.1753 19.5708 27.2518 19.3899 27.3311 19.2031C27.4104 19.0162 27.4991 18.7955 27.5972 18.541C27.6087 18.5101 27.625 18.4673 27.6462 18.4125C27.6674 18.3578 27.6782 18.311 27.6782 18.2717C27.6782 18.2293 27.641 18.1898 27.5667 18.1529C27.4924 18.1163 27.4217 18.0939 27.3547 18.0857V17.9289H28.2519V18.0807C28.2028 18.0889 28.1383 18.1172 28.0583 18.1653C27.9783 18.2134 27.9187 18.2816 27.8794 18.3698C27.6851 18.8207 27.5124 19.2313 27.3613 19.6021C27.2102 19.9729 27.0955 20.2456 27.0171 20.4204C26.9142 20.649 26.8223 20.8274 26.7414 20.9557C26.6605 21.0838 26.5818 21.1848 26.505 21.2583C26.4299 21.3268 26.3617 21.3729 26.3005 21.3966C26.2392 21.4203 26.1759 21.4322 26.1106 21.4322C25.9832 21.4322 25.8831 21.402 25.8104 21.3415C25.7379 21.2809 25.7016 21.2115 25.7016 21.1331Z" fill="url(#paint15_linear_548_74)"/>
<path d="M11.1759 22.5312C11.6439 22.5312 11.9921 22.6552 12.2206 22.9033C12.4489 23.1517 12.5632 23.5153 12.5632 23.9946V24.7641C12.5632 25.2437 12.449 25.6072 12.2206 25.8554C11.9922 26.1037 11.6439 26.2276 11.1759 26.2276H10.736V28.4521H9.80566V22.5312H11.1759V22.5312ZM10.736 23.377V25.3817H11.1759C11.3225 25.3817 11.4352 25.3423 11.5143 25.2633C11.5931 25.1844 11.6326 25.0377 11.6326 24.8234V23.9352C11.6326 23.7211 11.593 23.5745 11.5143 23.4954C11.4352 23.4165 11.3224 23.377 11.1759 23.377H10.736V23.377Z" fill="url(#paint16_linear_548_74)"/>
<path d="M14.9398 28.4512C14.9285 28.4118 14.9173 28.375 14.9061 28.3413C14.8947 28.3073 14.8849 28.265 14.8764 28.2144C14.868 28.1635 14.8624 28.0988 14.8596 28.0198C14.8567 27.941 14.8553 27.842 14.8553 27.7238V26.7933C14.8553 26.517 14.8074 26.3225 14.7116 26.2096C14.6157 26.0967 14.4607 26.0404 14.2465 26.0404H13.925V28.4511H12.9946V22.5303H14.3986C14.8835 22.5303 15.2345 22.6432 15.4517 22.8686C15.6686 23.094 15.7774 23.4354 15.7774 23.8919V24.3571C15.7774 24.9662 15.5743 25.3666 15.1683 25.5582C15.4051 25.6541 15.5672 25.8108 15.6547 26.0276C15.7419 26.2447 15.7857 26.5084 15.7857 26.8186V27.732C15.7857 27.8788 15.7913 28.0069 15.8026 28.1168C15.8139 28.2267 15.8421 28.3383 15.8872 28.4509H14.9398V28.4512ZM13.9249 23.3761V25.1947H14.2887C14.4633 25.1947 14.6001 25.1497 14.6989 25.0592C14.7974 24.9692 14.8469 24.8055 14.8469 24.5687V23.9851C14.8469 23.7708 14.8089 23.6158 14.7328 23.5199C14.6567 23.4241 14.5367 23.3761 14.3733 23.3761H13.9249V23.3761Z" fill="url(#paint17_linear_548_74)"/>
<path d="M16.3186 23.9517C16.3186 23.4724 16.4397 23.1046 16.6823 22.8478C16.9248 22.5912 17.2743 22.4629 17.7312 22.4629C18.1879 22.4629 18.5374 22.5912 18.78 22.8478C19.0223 23.1046 19.1436 23.4724 19.1436 23.9517V27.0306C19.1436 27.5098 19.0223 27.8778 18.78 28.1343C18.5374 28.3909 18.1879 28.5191 17.7312 28.5191C17.2743 28.5191 16.9247 28.3909 16.6823 28.1343C16.4397 27.8779 16.3186 27.5098 16.3186 27.0306V23.9517ZM17.2491 27.0898C17.2491 27.3039 17.2926 27.4549 17.3802 27.5423C17.4675 27.6297 17.5845 27.6733 17.7313 27.6733C17.8778 27.6733 17.9948 27.6297 18.0823 27.5423C18.1696 27.455 18.2134 27.304 18.2134 27.0898V23.8924C18.2134 23.6783 18.1696 23.5275 18.0823 23.4399C17.9948 23.3524 17.8778 23.3089 17.7313 23.3089C17.5845 23.3089 17.4675 23.3524 17.3802 23.4399C17.2926 23.5274 17.2491 23.6782 17.2491 23.8924V27.0898Z" fill="url(#paint18_linear_548_74)"/>
<path d="M19.7441 22.5312H21.2158C21.6839 22.5312 22.0321 22.6552 22.2605 22.9033C22.4889 23.1517 22.6031 23.5153 22.6031 23.9946V26.9889C22.6031 27.4682 22.489 27.8319 22.2605 28.0799C22.0322 28.3282 21.6839 28.4522 21.2158 28.4522H19.7441V22.5312ZM20.6745 23.377V27.6062H21.1989C21.3455 27.6062 21.4612 27.5639 21.5457 27.4793C21.6303 27.3948 21.6726 27.2455 21.6726 27.0311V23.9522C21.6726 23.738 21.6303 23.5885 21.5457 23.5039C21.4612 23.4193 21.3455 23.377 21.1989 23.377H20.6745V23.377Z" fill="url(#paint19_linear_548_74)"/>
<path d="M24.0832 22.5312V27.0987C24.0832 27.3131 24.1269 27.4624 24.2143 27.547C24.3017 27.6316 24.4186 27.6739 24.5653 27.6739C24.7119 27.6739 24.8288 27.6316 24.9163 27.547C25.0036 27.4624 25.0474 27.3132 25.0474 27.0987V22.5312H25.9272V27.0396C25.9272 27.519 25.81 27.8869 25.5761 28.1434C25.3421 28.4 24.9967 28.5283 24.54 28.5283C24.0833 28.5283 23.7378 28.4 23.5038 28.1434C23.2698 27.887 23.1528 27.519 23.1528 27.0396V22.5312H24.0832Z" fill="url(#paint20_linear_548_74)"/>
<path d="M29.2599 26.2437V27.0306C29.2599 27.5098 29.1428 27.8778 28.9088 28.1343C28.6748 28.3909 28.3294 28.5191 27.8727 28.5191C27.416 28.5191 27.0705 28.3909 26.8366 28.1343C26.6026 27.8779 26.4856 27.5098 26.4856 27.0306V23.9517C26.4856 23.4724 26.6026 23.1046 26.8366 22.8478C27.0705 22.5912 27.416 22.4629 27.8727 22.4629C28.3295 22.4629 28.6748 22.5912 28.9088 22.8478C29.1428 23.1046 29.2599 23.4724 29.2599 23.9517V24.5268H28.3802V23.8925C28.3802 23.6784 28.3364 23.5276 28.2491 23.44C28.1616 23.3525 28.0446 23.3089 27.8981 23.3089C27.7513 23.3089 27.6343 23.3525 27.547 23.44C27.4595 23.5275 27.416 23.6783 27.416 23.8925V27.0899C27.416 27.304 27.4595 27.4536 27.547 27.5382C27.6344 27.6228 27.7513 27.6651 27.8981 27.6651C28.0446 27.6651 28.1616 27.6228 28.2491 27.5382C28.3364 27.4536 28.3802 27.3041 28.3802 27.0899V26.2438H29.2599V26.2437Z" fill="url(#paint21_linear_548_74)"/>
<path d="M29.5725 22.5312H32.4484V23.3771H31.4756V28.4522H30.5453V23.3771H29.5725V22.5312Z" fill="url(#paint22_linear_548_74)"/>
<path d="M30.8 5.16405C29.3383 4.22093 27.7472 3.50525 26.0938 3.02193C24.4389 2.54306 22.7198 2.29969 21 2.30172C19.2802 2.30015 17.5611 2.54343 15.9063 3.0224C14.2531 3.5059 12.6618 4.2213 11.2 5.16405C12.5781 4.10211 14.1528 3.28252 15.8206 2.74405C17.4873 2.1991 19.2445 1.93334 21 1.92871C22.7554 1.9338 24.5127 2.19956 26.1792 2.7446C27.8469 3.28316 29.4216 4.10248 30.8 5.16405Z" fill="url(#paint23_linear_548_74)"/>
<path d="M11.2 36.8359C12.6617 37.7791 14.2528 38.4947 15.9061 38.9781C17.5609 39.4569 19.2801 39.7003 20.9999 39.6982C22.7197 39.6997 24.4388 39.4565 26.0936 38.9775C27.7467 38.494 29.338 37.7787 30.7999 36.8359C29.4217 37.8978 27.8471 38.7175 26.1793 39.2559C24.5126 39.8009 22.7553 40.0667 20.9999 40.0713C19.2445 40.0661 17.4872 39.8003 15.8206 39.2554C14.153 38.7168 12.5783 37.8974 11.2 36.8359Z" fill="url(#paint24_linear_548_74)"/>
</g>
<defs>
<linearGradient id="paint0_linear_548_74" x1="26.5041" y1="1.07689" x2="13.2508" y2="49.0501" gradientUnits="userSpaceOnUse">
<stop stop-color="#FFD744"/>
<stop offset="0.0679" stop-color="#A6761A"/>
<stop offset="0.1851" stop-color="#FFD744"/>
<stop offset="0.3981" stop-color="#FFD744"/>
<stop offset="0.561" stop-color="#FCF4AE"/>
<stop offset="0.6792" stop-color="#FFD744"/>
<stop offset="0.75" stop-color="#A6761A"/>
<stop offset="0.8802" stop-color="#FFD744"/>
<stop offset="0.967" stop-color="#FCF4AE"/>
<stop offset="1" stop-color="#FFD744"/>
</linearGradient>
<linearGradient id="paint1_linear_548_74" x1="40.1471" y1="-25.1773" x2="11.5871" y2="43.7026" gradientUnits="userSpaceOnUse">
<stop stop-color="#FFD744"/>
<stop offset="0.0679" stop-color="#A6761A"/>
<stop offset="0.1851" stop-color="#FFD744"/>
<stop offset="0.3981" stop-color="#FFD744"/>
<stop offset="0.561" stop-color="#FCF4AE"/>
<stop offset="0.6792" stop-color="#FFD744"/>
<stop offset="0.75" stop-color="#A6761A"/>
<stop offset="0.8802" stop-color="#FFD744"/>
<stop offset="0.967" stop-color="#FCF4AE"/>
<stop offset="1" stop-color="#FFD744"/>
</linearGradient>
<linearGradient id="paint2_linear_548_74" x1="2.03317" y1="73.2078" x2="38.2466" y2="-26.4723" gradientUnits="userSpaceOnUse">
<stop offset="0.1044" stop-color="#BA903F"/>
<stop offset="0.5" stop-color="#996019"/>
<stop offset="0.6412" stop-color="#6F4411"/>
<stop offset="0.7989" stop-color="#472A09"/>
<stop offset="0.924" stop-color="#2E1904"/>
<stop offset="1" stop-color="#251302"/>
</linearGradient>
<linearGradient id="paint3_linear_548_74" x1="46.9738" y1="-36.699" x2="7.77371" y2="50.3812" gradientUnits="userSpaceOnUse">
<stop offset="0.1044" stop-color="#BA903F"/>
<stop offset="0.5" stop-color="#996019"/>
<stop offset="0.6412" stop-color="#6F4411"/>
<stop offset="0.7989" stop-color="#472A09"/>
<stop offset="0.924" stop-color="#2E1904"/>
<stop offset="1" stop-color="#251302"/>
</linearGradient>
<linearGradient id="paint4_linear_548_74" x1="32.6064" y1="-6.6399" x2="14.4997" y2="36.4801" gradientUnits="userSpaceOnUse">
<stop stop-color="#FFD744"/>
<stop offset="0.0679" stop-color="#A6761A"/>
<stop offset="0.1851" stop-color="#FFD744"/>
<stop offset="0.3981" stop-color="#FFD744"/>
<stop offset="0.561" stop-color="#FCF4AE"/>
<stop offset="0.6792" stop-color="#FFD744"/>
<stop offset="0.75" stop-color="#A6761A"/>
<stop offset="0.8802" stop-color="#FFD744"/>
<stop offset="0.967" stop-color="#FCF4AE"/>
<stop offset="1" stop-color="#FFD744"/>
</linearGradient>
<linearGradient id="paint5_linear_548_74" x1="30.3269" y1="-1.72786" x2="13.3935" y2="39.537" gradientUnits="userSpaceOnUse">
<stop stop-color="#FFD744"/>
<stop offset="0.0679" stop-color="#A6761A"/>
<stop offset="0.1851" stop-color="#FFD744"/>
<stop offset="0.3981" stop-color="#FFD744"/>
<stop offset="0.561" stop-color="#FCF4AE"/>
<stop offset="0.6792" stop-color="#FFD744"/>
<stop offset="0.75" stop-color="#A6761A"/>
<stop offset="0.8802" stop-color="#FFD744"/>
<stop offset="0.967" stop-color="#FCF4AE"/>
<stop offset="1" stop-color="#FFD744"/>
</linearGradient>
<linearGradient id="paint6_linear_548_74" x1="28.9458" y1="-4.31082" x2="14.9458" y2="24.8091" gradientUnits="userSpaceOnUse">
<stop offset="0.1044" stop-color="#BA903F"/>
<stop offset="0.5" stop-color="#996019"/>
<stop offset="0.6412" stop-color="#6F4411"/>
<stop offset="0.7989" stop-color="#472A09"/>
<stop offset="0.924" stop-color="#2E1904"/>
<stop offset="1" stop-color="#251302"/>
</linearGradient>
<linearGradient id="paint7_linear_548_74" x1="30.0023" y1="-3.80239" x2="16.0025" y2="25.3174" gradientUnits="userSpaceOnUse">
<stop offset="0.1044" stop-color="#BA903F"/>
<stop offset="0.5" stop-color="#996019"/>
<stop offset="0.6412" stop-color="#6F4411"/>
<stop offset="0.7989" stop-color="#472A09"/>
<stop offset="0.924" stop-color="#2E1904"/>
<stop offset="1" stop-color="#251302"/>
</linearGradient>
<linearGradient id="paint8_linear_548_74" x1="20.8976" y1="-7.91376" x2="10.2575" y2="27.9266" gradientUnits="userSpaceOnUse">
<stop offset="0.1044" stop-color="#BA903F"/>
<stop offset="0.5" stop-color="#996019"/>
<stop offset="0.6412" stop-color="#6F4411"/>
<stop offset="0.7989" stop-color="#472A09"/>
<stop offset="0.924" stop-color="#2E1904"/>
<stop offset="1" stop-color="#251302"/>
</linearGradient>
<linearGradient id="paint9_linear_548_74" x1="35.7196" y1="-3.51345" x2="25.0795" y2="32.3269" gradientUnits="userSpaceOnUse">
<stop offset="0.1044" stop-color="#BA903F"/>
<stop offset="0.5" stop-color="#996019"/>
<stop offset="0.6412" stop-color="#6F4411"/>
<stop offset="0.7989" stop-color="#472A09"/>
<stop offset="0.924" stop-color="#2E1904"/>
<stop offset="1" stop-color="#251302"/>
</linearGradient>
<linearGradient id="paint10_linear_548_74" x1="22.2814" y1="-7.50265" x2="11.6416" y2="28.337" gradientUnits="userSpaceOnUse">
<stop offset="0.1044" stop-color="#BA903F"/>
<stop offset="0.5" stop-color="#996019"/>
<stop offset="0.6412" stop-color="#6F4411"/>
<stop offset="0.7989" stop-color="#472A09"/>
<stop offset="0.924" stop-color="#2E1904"/>
<stop offset="1" stop-color="#251302"/>
</linearGradient>
<linearGradient id="paint11_linear_548_74" x1="24.4852" y1="-6.84831" x2="13.8452" y2="28.9918" gradientUnits="userSpaceOnUse">
<stop offset="0.1044" stop-color="#BA903F"/>
<stop offset="0.5" stop-color="#996019"/>
<stop offset="0.6412" stop-color="#6F4411"/>
<stop offset="0.7989" stop-color="#472A09"/>
<stop offset="0.924" stop-color="#2E1904"/>
<stop offset="1" stop-color="#251302"/>
</linearGradient>
<linearGradient id="paint12_linear_548_74" x1="27.0122" y1="-6.09878" x2="16.3722" y2="29.741" gradientUnits="userSpaceOnUse">
<stop offset="0.1044" stop-color="#BA903F"/>
<stop offset="0.5" stop-color="#996019"/>
<stop offset="0.6412" stop-color="#6F4411"/>
<stop offset="0.7989" stop-color="#472A09"/>
<stop offset="0.924" stop-color="#2E1904"/>
<stop offset="1" stop-color="#251302"/>
</linearGradient>
<linearGradient id="paint13_linear_548_74" x1="29.4653" y1="-5.36982" x2="18.8253" y2="30.4703" gradientUnits="userSpaceOnUse">
<stop offset="0.1044" stop-color="#BA903F"/>
<stop offset="0.5" stop-color="#996019"/>
<stop offset="0.6412" stop-color="#6F4411"/>
<stop offset="0.7989" stop-color="#472A09"/>
<stop offset="0.924" stop-color="#2E1904"/>
<stop offset="1" stop-color="#251302"/>
</linearGradient>
<linearGradient id="paint14_linear_548_74" x1="31.5488" y1="-4.75126" x2="20.9089" y2="31.0884" gradientUnits="userSpaceOnUse">
<stop offset="0.1044" stop-color="#BA903F"/>
<stop offset="0.5" stop-color="#996019"/>
<stop offset="0.6412" stop-color="#6F4411"/>
<stop offset="0.7989" stop-color="#472A09"/>
<stop offset="0.924" stop-color="#2E1904"/>
<stop offset="1" stop-color="#251302"/>
</linearGradient>
<linearGradient id="paint15_linear_548_74" x1="33.5376" y1="-4.1612" x2="22.8976" y2="31.679" gradientUnits="userSpaceOnUse">
<stop offset="0.1044" stop-color="#BA903F"/>
<stop offset="0.5" stop-color="#996019"/>
<stop offset="0.6412" stop-color="#6F4411"/>
<stop offset="0.7989" stop-color="#472A09"/>
<stop offset="0.924" stop-color="#2E1904"/>
<stop offset="1" stop-color="#251302"/>
</linearGradient>
<linearGradient id="paint16_linear_548_74" x1="20.6289" y1="-7.99315" x2="9.98885" y2="27.847" gradientUnits="userSpaceOnUse">
<stop offset="0.1044" stop-color="#BA903F"/>
<stop offset="0.5" stop-color="#996019"/>
<stop offset="0.6412" stop-color="#6F4411"/>
<stop offset="0.7989" stop-color="#472A09"/>
<stop offset="0.924" stop-color="#2E1904"/>
<stop offset="1" stop-color="#251302"/>
</linearGradient>
<linearGradient id="paint17_linear_548_74" x1="24.0777" y1="-6.97017" x2="13.4377" y2="28.87" gradientUnits="userSpaceOnUse">
<stop offset="0.1044" stop-color="#BA903F"/>
<stop offset="0.5" stop-color="#996019"/>
<stop offset="0.6412" stop-color="#6F4411"/>
<stop offset="0.7989" stop-color="#472A09"/>
<stop offset="0.924" stop-color="#2E1904"/>
<stop offset="1" stop-color="#251302"/>
</linearGradient>
<linearGradient id="paint18_linear_548_74" x1="27.1014" y1="-6.07186" x2="16.4615" y2="29.768" gradientUnits="userSpaceOnUse">
<stop offset="0.1044" stop-color="#BA903F"/>
<stop offset="0.5" stop-color="#996019"/>
<stop offset="0.6412" stop-color="#6F4411"/>
<stop offset="0.7989" stop-color="#472A09"/>
<stop offset="0.924" stop-color="#2E1904"/>
<stop offset="1" stop-color="#251302"/>
</linearGradient>
<linearGradient id="paint19_linear_548_74" x1="30.1125" y1="-5.1777" x2="19.4724" y2="30.6625" gradientUnits="userSpaceOnUse">
<stop offset="0.1044" stop-color="#BA903F"/>
<stop offset="0.5" stop-color="#996019"/>
<stop offset="0.6412" stop-color="#6F4411"/>
<stop offset="0.7989" stop-color="#472A09"/>
<stop offset="0.924" stop-color="#2E1904"/>
<stop offset="1" stop-color="#251302"/>
</linearGradient>
<linearGradient id="paint20_linear_548_74" x1="33.2126" y1="-4.2573" x2="22.5726" y2="31.5828" gradientUnits="userSpaceOnUse">
<stop offset="0.1044" stop-color="#BA903F"/>
<stop offset="0.5" stop-color="#996019"/>
<stop offset="0.6412" stop-color="#6F4411"/>
<stop offset="0.7989" stop-color="#472A09"/>
<stop offset="0.924" stop-color="#2E1904"/>
<stop offset="1" stop-color="#251302"/>
</linearGradient>
<linearGradient id="paint21_linear_548_74" x1="36.4215" y1="-3.30508" x2="25.7816" y2="32.5348" gradientUnits="userSpaceOnUse">
<stop offset="0.1044" stop-color="#BA903F"/>
<stop offset="0.5" stop-color="#996019"/>
<stop offset="0.6412" stop-color="#6F4411"/>
<stop offset="0.7989" stop-color="#472A09"/>
<stop offset="0.924" stop-color="#2E1904"/>
<stop offset="1" stop-color="#251302"/>
</linearGradient>
<linearGradient id="paint22_linear_548_74" x1="38.8582" y1="-2.58129" x2="28.2182" y2="33.2589" gradientUnits="userSpaceOnUse">
<stop offset="0.1044" stop-color="#BA903F"/>
<stop offset="0.5" stop-color="#996019"/>
<stop offset="0.6412" stop-color="#6F4411"/>
<stop offset="0.7989" stop-color="#472A09"/>
<stop offset="0.924" stop-color="#2E1904"/>
<stop offset="1" stop-color="#251302"/>
</linearGradient>
<linearGradient id="paint23_linear_548_74" x1="47.1235" y1="18.1244" x2="-1.59647" y2="-6.32895" gradientUnits="userSpaceOnUse">
<stop offset="0.1044" stop-color="#BA903F"/>
<stop offset="0.5" stop-color="#996019"/>
<stop offset="0.6412" stop-color="#6F4411"/>
<stop offset="0.7989" stop-color="#472A09"/>
<stop offset="0.924" stop-color="#2E1904"/>
<stop offset="1" stop-color="#251302"/>
</linearGradient>
<linearGradient id="paint24_linear_548_74" x1="34.3044" y1="43.6651" x2="-14.4156" y2="19.2118" gradientUnits="userSpaceOnUse">
<stop offset="0.1044" stop-color="#BA903F"/>
<stop offset="0.5" stop-color="#996019"/>
<stop offset="0.6412" stop-color="#6F4411"/>
<stop offset="0.7989" stop-color="#472A09"/>
<stop offset="0.924" stop-color="#2E1904"/>
<stop offset="1" stop-color="#251302"/>
</linearGradient>
</defs>
</svg>
