<svg width="50" height="50" viewBox="0 0 50 50" fill="none" xmlns="http://www.w3.org/2000/svg">
<path d="M46.0061 33.2942C44.8754 34.0818 43.576 34.5938 42.2119 34.7891C40.8478 34.9845 39.457 34.8578 38.1506 34.4192C38.0323 34.3771 37.9055 34.3641 37.7811 34.3814C37.6566 34.3986 37.5382 34.4457 37.4358 34.5185L33.9202 37.0114L34.8249 38.2856L38.0147 36.02C39.5056 36.4555 41.0748 36.5529 42.6081 36.3052C44.1414 36.0575 45.6001 35.4708 46.878 34.588C47.3384 34.2769 47.7748 33.9317 48.1834 33.5552L47.1241 32.4067C46.7744 32.7304 46.4007 33.0271 46.0061 33.2942Z" fill="#BF9444"/>
<path d="M38.139 21.635C37.0208 22.3494 36.1251 23.3628 35.5533 24.5602C34.9815 25.7576 34.7565 27.0912 34.9038 28.41L24.9999 34.7584L15.0945 28.4139C15.245 27.0947 15.0211 25.7598 14.4484 24.562C13.8757 23.3641 12.9774 22.3516 11.8562 21.6404C10.3679 20.6146 8.55812 20.1633 6.76243 20.3701C5.91541 20.4531 5.09713 20.722 4.36604 21.1577C3.63495 21.5934 3.00907 22.1851 2.53309 22.8906C2.05711 23.5962 1.74278 24.3981 1.61253 25.2391C1.48229 26.0802 1.53934 26.9396 1.77962 27.7561C2.26096 29.4976 3.3577 31.0055 4.86634 31.9998C5.94655 32.7742 7.22315 33.2284 8.5497 33.3103C9.87625 33.3922 11.199 33.0986 12.3663 32.4631L20.0546 37.9217L12.7382 42.6131C12.3924 42.8328 12.0942 43.1198 11.8613 43.4569C11.6283 43.794 11.4655 44.1744 11.3823 44.5756C11.2991 44.9768 11.2972 45.3906 11.3769 45.7925C11.4566 46.1945 11.6161 46.5763 11.846 46.9154C12.0751 47.2539 12.3694 47.5431 12.7118 47.7662C13.0542 47.9892 13.4377 48.1416 13.8398 48.2144C14.2419 48.2872 14.6545 48.2789 15.0534 48.19C15.4522 48.1011 15.8293 47.9334 16.1624 47.6967L24.9999 41.4295L33.8374 47.7014C34.1709 47.9454 34.5503 48.1195 34.9527 48.2134C35.3551 48.3073 35.7723 48.3189 36.1794 48.2477C36.5864 48.1765 36.9749 48.0239 37.3215 47.7989C37.6681 47.574 37.9658 47.2814 38.1967 46.9387C38.4275 46.596 38.5868 46.2102 38.665 45.8045C38.7433 45.3987 38.7387 44.9813 38.6518 44.5774C38.5649 44.1734 38.3973 43.7911 38.1591 43.4535C37.9209 43.1158 37.617 42.8297 37.2656 42.6123L29.9406 37.9248L37.6343 32.4639C38.8015 33.0996 40.1242 33.3935 41.4507 33.3118C42.7773 33.2302 44.0539 32.7763 45.1343 32.0022C48.3452 29.835 49.3937 25.7459 47.4695 22.8865C45.5452 20.0272 41.357 19.4678 38.139 21.635ZM15.2577 46.4256C14.9239 46.6503 14.5155 46.7356 14.1197 46.6634C13.7238 46.5911 13.3719 46.367 13.139 46.0389C13.0263 45.8726 12.9481 45.6853 12.909 45.4882C12.87 45.2911 12.871 45.0882 12.9119 44.8915C12.9527 44.6947 13.0327 44.5082 13.147 44.343C13.2613 44.1778 13.4076 44.0371 13.5773 43.9295L21.4281 38.8951L23.646 40.4686L15.2577 46.4256ZM37.0859 44.892C37.1471 45.1884 37.1177 45.4964 37.0014 45.7759C36.8852 46.0554 36.6876 46.2934 36.4342 46.459C36.1809 46.6246 35.8835 46.7101 35.5809 46.7045C35.2783 46.6988 34.9844 46.6022 34.7374 46.4272L12.832 30.8803C12.6984 30.7856 12.5384 30.7352 12.3747 30.7363C12.211 30.7375 12.0517 30.79 11.9195 30.8865C10.994 31.4906 9.90577 31.7969 8.80108 31.7643C7.6964 31.7318 6.62813 31.3619 5.73978 30.7045C4.54454 29.9205 3.67409 28.7297 3.28978 27.3529C3.10588 26.7515 3.05878 26.1166 3.15192 25.4946C3.24505 24.8726 3.47607 24.2794 3.82807 23.7582C4.18006 23.237 4.64413 22.8011 5.18631 22.4824C5.72849 22.1637 6.33507 21.9703 6.96165 21.9162C8.382 21.7568 9.81198 22.1176 10.9867 22.9319C11.9283 23.5098 12.6706 24.362 13.1138 25.3741C13.5571 26.3861 13.6801 27.5096 13.4663 28.5936C13.4262 28.7525 13.437 28.92 13.4973 29.0724C13.5576 29.2248 13.6643 29.3544 13.8023 29.4428L36.4226 43.9287C36.5923 44.0364 36.7385 44.1772 36.8524 44.3428C36.9664 44.5083 37.0458 44.6951 37.0859 44.892ZM44.2577 30.7029C43.3691 31.3602 42.3006 31.7298 41.1958 31.7621C40.091 31.7943 39.0027 31.4877 38.0773 30.8834C37.945 30.7869 37.7858 30.7343 37.622 30.7332C37.4583 30.7321 37.2983 30.7824 37.1648 30.8772L28.5218 37.0131L26.4499 35.685L36.1952 29.435C36.3329 29.3466 36.4394 29.2173 36.4997 29.0652C36.56 28.9132 36.571 28.746 36.5312 28.5873C36.3217 27.5031 36.447 26.3809 36.8905 25.3696C37.3339 24.3584 38.0746 23.5059 39.014 22.9256C41.514 21.2404 44.7281 21.6123 46.1726 23.7522C47.6171 25.892 46.757 29.0178 44.2577 30.7029Z" fill="#BF9444"/>
<path d="M10.0992 2.99443L9.23435 1.69287C7.34716 2.94335 5.93187 4.78851 5.21325 6.93531C4.49462 9.08212 4.51388 11.4075 5.26794 13.5421L6.7406 13.0202C6.10297 11.2137 6.08723 9.24598 6.69588 7.42952C7.30452 5.61306 8.50266 4.05205 10.1 2.99443H10.0992Z" fill="#BF9444"/>
<path d="M8.39844 15.8344C8.02226 15.4076 7.68889 14.945 7.40313 14.4531L6.05078 15.2344C6.38819 15.8159 6.78201 16.3628 7.22656 16.8672L8.39844 15.8344Z" fill="#BF9444"/>
<path d="M33.578 28.2812L35.8023 17.1609C37.6106 17.0035 39.288 16.1529 40.4835 14.7871C41.679 13.4213 42.3 11.646 42.2166 9.83276C42.1331 8.01953 41.3516 6.30882 40.0357 5.05859C38.7198 3.80836 36.9713 3.11548 35.1562 3.12492C33.5764 3.11933 32.042 3.65258 30.8062 4.63664C30.1625 3.68954 29.2969 2.91428 28.2848 2.37845C27.2728 1.84263 26.1451 1.5625 24.9999 1.5625C23.8548 1.5625 22.727 1.84263 21.715 2.37845C20.703 2.91428 19.8374 3.68954 19.1937 4.63664C17.9579 3.65258 16.4234 3.11933 14.8437 3.12492C13.0347 3.12476 11.2953 3.82177 9.9871 5.07106C8.67885 6.32034 7.90241 8.02577 7.81921 9.83279C7.73602 11.6398 8.35246 13.4094 9.54038 14.7736C10.7283 16.1378 12.3963 16.9917 14.1976 17.1577L16.4218 28.2812L17.953 27.9749L17.5155 25.7812H32.4843L32.0468 27.9687L33.578 28.2812ZM29.807 24.2187L30.4609 19.6421L28.914 19.4202L28.2288 24.2187H25.7812V15.6249H24.2187V24.2187H21.771L21.0859 19.4202L19.539 19.6421L20.1929 24.2187H17.203L15.6093 16.2499C15.5733 16.0735 15.4774 15.9149 15.3379 15.801C15.1984 15.6871 15.0238 15.6249 14.8437 15.6249C13.3933 15.6249 12.0023 15.0488 10.9767 14.0232C9.95109 12.9976 9.37492 11.6066 9.37492 10.1562C9.37492 8.70577 9.95109 7.31477 10.9767 6.28919C12.0023 5.2636 13.3933 4.68742 14.8437 4.68742C15.5882 4.68552 16.3251 4.83716 17.0084 5.13289C17.6916 5.42862 18.3066 5.86207 18.8148 6.40617C18.9016 6.498 19.0094 6.56739 19.129 6.60839C19.2485 6.64939 19.3762 6.66077 19.5011 6.64157C19.626 6.62236 19.7444 6.57314 19.8461 6.49812C19.9478 6.4231 20.0298 6.32453 20.0851 6.21086C20.5314 5.28659 21.2293 4.50689 22.0986 3.96127C22.968 3.41566 23.9735 3.12624 24.9999 3.12624C26.0263 3.12624 27.0319 3.41566 27.9012 3.96127C28.7706 4.50689 29.4685 5.28659 29.9148 6.21086C29.97 6.32453 30.052 6.4231 30.1537 6.49812C30.2554 6.57314 30.3738 6.62236 30.4987 6.64157C30.6236 6.66077 30.7513 6.64939 30.8709 6.60839C30.9904 6.56739 31.0982 6.498 31.1851 6.40617C31.6933 5.86207 32.3082 5.42862 32.9915 5.13289C33.6747 4.83716 34.4117 4.68552 35.1562 4.68742C36.6066 4.68742 37.9976 5.2636 39.0232 6.28919C40.0488 7.31477 40.6249 8.70577 40.6249 10.1562C40.6249 11.6066 40.0488 12.9976 39.0232 14.0232C37.9976 15.0488 36.6066 15.6249 35.1562 15.6249C34.9761 15.6249 34.8015 15.6871 34.662 15.801C34.5224 15.9149 34.4266 16.0735 34.3905 16.2499L32.7968 24.2187H29.807Z" fill="#BF9444"/>
</svg>
