<svg width="16" height="16" viewBox="0 0 16 16" fill="none" xmlns="http://www.w3.org/2000/svg">
<path d="M5.9998 7.1998C6.66255 7.1998 7.1998 6.66255 7.1998 5.9998C7.1998 5.33706 6.66255 4.7998 5.9998 4.7998C5.33706 4.7998 4.7998 5.33706 4.7998 5.9998C4.7998 6.66255 5.33706 7.1998 5.9998 7.1998Z" fill="#BF9444"/>
<path d="M9.9998 7.1998C10.6625 7.1998 11.1998 6.66255 11.1998 5.9998C11.1998 5.33706 10.6625 4.7998 9.9998 4.7998C9.33706 4.7998 8.7998 5.33706 8.7998 5.9998C8.7998 6.66255 9.33706 7.1998 9.9998 7.1998Z" fill="#BF9444"/>
<path d="M8 0C3.5888 0 0 2.8712 0 6.4C0 8.7264 1.5176 10.812 4 11.9472V16L8.272 12.7968C12.5576 12.6816 16 9.856 16 6.4C16 2.8712 12.4112 0 8 0ZM8 11.2H7.7336L5.6 12.8V10.8664L5.0872 10.6688C2.9368 9.8408 1.6 8.2048 1.6 6.4C1.6 3.7528 4.4712 1.6 8 1.6C11.5288 1.6 14.4 3.7528 14.4 6.4C14.4 9.0472 11.5288 11.2 8 11.2Z" fill="#BF9444"/>
</svg>
