<svg width="14" height="14" viewBox="0 0 14 14" fill="none" xmlns="http://www.w3.org/2000/svg">
<path d="M5.24995 6.29971C5.82985 6.29971 6.29995 5.82961 6.29995 5.24971C6.29995 4.66981 5.82985 4.19971 5.24995 4.19971C4.67005 4.19971 4.19995 4.66981 4.19995 5.24971C4.19995 5.82961 4.67005 6.29971 5.24995 6.29971Z" fill="#BF9444"/>
<path d="M8.74995 6.29971C9.32985 6.29971 9.79995 5.82961 9.79995 5.24971C9.79995 4.66981 9.32985 4.19971 8.74995 4.19971C8.17005 4.19971 7.69995 4.66981 7.69995 5.24971C7.69995 5.82961 8.17005 6.29971 8.74995 6.29971Z" fill="#BF9444"/>
<path d="M7 0C3.1402 0 0 2.5123 0 5.6C0 7.6356 1.3279 9.4605 3.5 10.4538V14L7.238 11.1972C10.9879 11.0964 14 8.624 14 5.6C14 2.5123 10.8598 0 7 0ZM7 9.8H6.7669L4.9 11.2V9.5081L4.4513 9.3352C2.5697 8.6107 1.4 7.1792 1.4 5.6C1.4 3.2837 3.9123 1.4 7 1.4C10.0877 1.4 12.6 3.2837 12.6 5.6C12.6 7.9163 10.0877 9.8 7 9.8Z" fill="#BF9444"/>
</svg>
