<svg width="50" height="50" viewBox="0 0 50 50" fill="none" xmlns="http://www.w3.org/2000/svg">
<g clip-path="url(#clip0_275_455)">
<path d="M12.8532 28.5413C9.20935 29.515 6.67338 32.8143 6.66969 36.5861V36.7144C6.16908 36.823 5.74384 37.151 5.51162 37.6076L4.27024 40.0687L1.48753 40.4636C0.833176 40.5524 0.288376 41.0099 0.0878893 41.6391C-0.114812 42.2598 0.0595997 42.9416 0.535275 43.3887L2.53728 45.2966L2.06488 47.9918C1.95041 48.6299 2.211 49.2772 2.73555 49.6581C3.26813 50.0538 3.97996 50.1103 4.56847 49.8039L7.06205 48.5217L9.55563 49.8039C10.1429 50.1092 10.8529 50.0526 11.3844 49.6581C11.9091 49.2773 12.1699 48.6301 12.0559 47.9918L11.8226 46.6588H16.4365L16.3532 47.1078C16.1907 48.0205 16.5633 48.946 17.313 49.4914C17.75 49.8165 18.2804 49.9919 18.8251 49.9913C19.2293 49.991 19.6275 49.8947 19.9874 49.7105L25.0112 47.1628L30.01 49.7105C30.8706 50.1536 31.9084 50.0676 32.6844 49.4889C33.4328 48.9437 33.805 48.0195 33.6434 47.1078L33.56 46.6588H38.1757L37.9424 47.9918C37.8283 48.63 38.0892 49.2773 38.6139 49.6581C39.1464 50.0542 39.8584 50.1108 40.4468 49.8039L42.9404 48.5217L45.434 49.8039C46.0224 50.1106 46.7343 50.0539 47.2669 49.6581C47.7899 49.2762 48.0487 48.6291 47.9334 47.9918L47.461 45.3L49.4647 43.3887C49.9405 42.9416 50.1148 42.2598 49.9121 41.6391C49.7113 41.0095 49.1657 40.5517 48.5107 40.4636L45.728 40.0687L44.4866 37.6076C44.2542 37.1508 43.8286 36.8229 43.3277 36.7144V36.5861C43.3241 32.8143 40.7881 29.5151 37.1442 28.5413L30.5532 26.7825C29.981 25.5483 29.7155 24.194 29.7792 22.8351C30.4174 22.2977 30.9882 21.7853 31.433 21.3712C32.1105 20.74 32.4957 19.8561 32.4969 18.9301V18.227C33.8158 17.8906 34.7959 16.7834 34.9694 15.4334C35.143 14.0833 34.4752 12.7642 33.2843 12.105C33.8841 11.2451 34.1922 10.2155 34.1632 9.16744C34.1458 6.22622 32.2373 3.63039 29.4352 2.73644C29.5639 2.61188 29.7061 2.502 29.8593 2.40902C30.1428 2.2615 30.3171 1.96483 30.3076 1.64536C30.2982 1.32589 30.1069 1.03996 29.8151 0.909422C28.2905 0.274506 26.6498 -0.0342199 24.9987 0.00300758C22.3924 -0.0333999 19.9578 1.299 18.5835 3.51387C16.7848 4.42553 15.7031 6.32208 15.8342 8.33441C15.8463 9.63139 16.2215 10.899 16.9172 11.9935C15.6451 12.588 14.8836 13.9175 15.0144 15.3156C15.1452 16.7137 16.1401 17.8789 17.5004 18.2271V18.9302C17.5016 19.8561 17.8869 20.7401 18.5644 21.3713C19.0093 21.7879 19.5799 22.2977 20.2181 22.8352C20.281 24.194 20.0158 25.5479 19.4449 26.7826L12.8532 28.5413ZM10.2747 44.2427C9.96834 44.534 9.82828 44.9593 9.90142 45.3757L10.4105 48.28L11.2319 48.1367L10.3155 48.3192L7.64949 46.9478C7.27968 46.757 6.84041 46.757 6.47059 46.9478L3.80457 48.3192L4.18529 49.0599L3.70707 48.28L4.21694 45.3724C4.28918 44.954 4.14642 44.5275 3.83704 44.2368L1.72254 42.1139L4.70352 41.6898C5.11934 41.6322 5.48046 41.3745 5.66996 40.9999L7.05877 38.3273C7.10207 38.3273 7.11125 38.3473 7.11625 38.3573L8.44931 40.9992C8.63856 41.3729 8.99854 41.6304 9.41329 41.6891L12.4317 42.1789L10.2747 44.2427ZM31.693 48.1584C31.4248 48.3607 31.0638 48.3899 30.7666 48.2333L25.7678 45.6864C25.2846 45.4419 24.7139 45.4419 24.2306 45.6864L19.2318 48.2333C18.9347 48.3907 18.5733 48.3615 18.3054 48.1584C18.0653 47.9898 17.9444 47.6974 17.9954 47.4086L18.9494 42.0148C19.046 41.473 18.862 40.919 18.4604 40.5427L14.418 36.712C14.1973 36.5156 14.1145 36.2068 14.2072 35.9263C14.3059 35.622 14.574 35.4039 14.892 35.369L20.4816 34.5817C21.0213 34.5076 21.4908 34.1744 21.7388 33.6893L24.2382 28.7813C24.3911 28.5028 24.6836 28.3297 25.0013 28.3297C25.3191 28.3297 25.6116 28.5028 25.7645 28.7813L28.2639 33.6893C28.5129 34.1739 28.9823 34.5068 29.5219 34.5817L35.1115 35.369C35.4295 35.4039 35.6976 35.6221 35.7963 35.9263C35.8891 36.2069 35.8062 36.5156 35.5855 36.712L31.5415 40.5327C31.14 40.9088 30.9559 41.4624 31.0524 42.004L32.0064 47.3986C32.0574 47.6887 31.9352 47.9821 31.6932 48.1501V48.1584H31.693ZM22.7534 28.0222C22.1538 27.8528 21.5828 27.5954 21.0588 27.2583C21.4912 26.2629 21.7551 25.2025 21.8395 24.1207C21.9411 24.1965 22.0386 24.2748 22.1402 24.3489C22.7137 24.7689 23.4056 24.9958 24.1164 24.9971H25.881C26.5915 24.996 27.2833 24.769 27.8564 24.3489C27.9589 24.2748 28.0563 24.1956 28.158 24.1207C28.242 25.2026 28.5058 26.263 28.9386 27.2583C28.4146 27.5954 27.8435 27.8528 27.244 28.0222C26.8066 27.1868 25.9416 26.6634 24.9987 26.6634C24.0558 26.6634 23.1908 27.1868 22.7534 28.0222ZM42.9946 38.3582L44.3276 41.0001C44.517 41.3737 44.8769 41.6313 45.2915 41.69L48.3108 42.1798L46.1605 44.236C45.8529 44.5277 45.7116 44.9539 45.7839 45.3716L46.2937 48.2759L47.1144 48.1326L46.1979 48.3151L43.5319 46.9437C43.1621 46.7529 42.7228 46.7529 42.353 46.9437L39.687 48.3151L40.0677 49.0558L39.5903 48.2759L40.0985 45.3733C40.1724 44.9559 40.0323 44.5292 39.7253 44.2368L37.6058 42.114L40.5868 41.6899C41.0012 41.6317 41.3609 41.3743 41.5498 41.0008L42.9387 38.3273C42.9829 38.3274 42.9946 38.3482 42.9946 38.3582ZM30.1942 28.413L36.7152 30.1534C39.6297 30.9312 41.6583 33.5695 41.6615 36.586V37.2192C41.5549 37.3356 41.4646 37.4659 41.3932 37.6067L40.1518 40.0686L37.3683 40.4635C36.7137 40.552 36.1683 41.0091 35.967 41.6382C35.7652 42.2589 35.9394 42.9403 36.4143 43.3878L38.0997 44.9925H33.2676L32.6844 41.7432L36.7284 37.9224C37.411 37.2856 37.6656 36.3126 37.3824 35.423C37.0903 34.5082 36.2953 33.8447 35.3429 33.7209L29.7475 32.9336L28.0113 29.5236C28.794 29.2733 29.5311 28.8982 30.1942 28.413ZM19.43 4.95934C19.6381 4.88792 19.8105 4.7386 19.9108 4.54279C20.9572 2.73012 22.9061 1.62945 24.9987 1.6693C25.9614 1.66053 26.9215 1.77049 27.8572 1.99673C27.6451 2.26363 27.4651 2.5544 27.3207 2.86321C27.2114 3.09699 27.2166 3.36824 27.3348 3.59767C27.453 3.8271 27.6708 3.98872 27.9247 4.03546C28.1105 4.07048 32.4969 4.94024 32.4969 9.1676C32.5036 9.6532 32.4115 10.135 32.2262 10.584C31.7943 9.7174 30.9099 9.16916 29.9417 9.1676H27.4981C26.1445 9.24255 24.7974 8.93104 23.614 8.26947C22.7732 7.76739 21.8123 7.50196 20.833 7.50131C19.3724 7.5091 18.1091 8.52055 17.7821 9.94405C17.5995 9.42688 17.5044 8.8829 17.5005 8.33441C17.5005 5.67913 19.3584 4.98435 19.43 4.95934ZM19.6991 20.1516C19.3601 19.8359 19.1672 19.3935 19.1668 18.9302V17.4988C19.1668 17.0387 18.7938 16.6657 18.3337 16.6657C17.5807 16.6676 16.9205 16.1628 16.7251 15.4355C16.5297 14.7083 16.848 13.9406 17.5005 13.5648V14.1663C17.5005 14.6264 17.8735 14.9994 18.3336 14.9994C18.7937 14.9994 19.1667 14.6264 19.1667 14.1663V11.6669C19.1667 11.5644 19.2009 9.16752 20.833 9.16752C21.5462 9.17056 22.2445 9.37252 22.8492 9.7507C24.2688 10.5347 25.8782 10.9097 27.4981 10.8337H29.9417C30.3035 10.8302 30.6307 11.0478 30.7673 11.3828C30.805 11.4731 30.8264 11.5692 30.8306 11.6669V14.1663C30.8306 14.6264 31.2036 14.9994 31.6637 14.9994C32.1238 14.9994 32.4968 14.6264 32.4968 14.1663V13.5648C33.1494 13.9406 33.4676 14.7083 33.2722 15.4355C33.0768 16.1628 32.4167 16.6676 31.6637 16.6657C31.2036 16.6657 30.8306 17.0387 30.8306 17.4988V18.9302C30.8301 19.3935 30.6373 19.8359 30.2982 20.1516C29.2162 21.1668 28.0757 22.1177 26.8823 22.9992C26.5928 23.2134 26.2427 23.3301 25.8826 23.3325H24.1163C23.7562 23.3299 23.4062 23.2132 23.1166 22.9992C21.9229 22.1176 20.7818 21.1667 19.6991 20.1516ZM21.987 29.5236L20.2499 32.9311L14.6604 33.7185C13.708 33.8423 12.9131 34.5056 12.6208 35.4206C12.3377 36.3101 12.5923 37.2832 13.2749 37.92L17.3122 41.71L16.7282 44.9925H11.896L13.5848 43.3855C14.0598 42.9379 14.234 42.2565 14.0322 41.6358C13.8308 41.0067 13.2855 40.5496 12.6308 40.4611L9.84812 40.0662L8.60593 37.6043C8.53385 37.4643 8.44299 37.3348 8.33599 37.2194V36.5862C8.33853 33.5689 10.3678 30.9296 13.2831 30.1518L19.8033 28.413C20.4667 28.8982 21.2041 29.2733 21.987 29.5236Z" fill="#BF9444"/>
</g>
<defs>
<clipPath id="clip0_275_455">
<rect width="50" height="50" fill="white"/>
</clipPath>
</defs>
</svg>
