<svg width="28" height="28" viewBox="0 0 28 28" fill="none" xmlns="http://www.w3.org/2000/svg">
<path d="M19.333 8.6665H8.66634C7.93101 8.6665 7.33301 9.2645 7.33301 9.99984V17.9998C7.33301 18.7352 7.93101 19.3332 8.66634 19.3332H19.333C20.0683 19.3332 20.6663 18.7352 20.6663 17.9998V9.99984C20.6663 9.2645 20.0683 8.6665 19.333 8.6665ZM19.333 9.99984V10.3405L13.9997 14.4892L8.66634 10.3412V9.99984H19.333ZM8.66634 17.9998V12.0292L13.5903 15.8592C13.7071 15.9509 13.8512 16.0007 13.9997 16.0007C14.1481 16.0007 14.2923 15.9509 14.409 15.8592L19.333 12.0292L19.3343 17.9998H8.66634Z" fill="#BF9444"/>
<circle cx="14" cy="14" r="13.5" stroke="#BF9444"/>
</svg>
