<svg width="216" height="14" viewBox="0 0 216 14" fill="none" xmlns="http://www.w3.org/2000/svg">
<path d="M207.317 6.48438H12.8389V7.51474H207.317V6.48438Z" fill="#BF9444"/>
<path d="M26.6619 3.98122C26.6619 5.87564 25.0232 7.41186 22.9979 7.41186C20.9768 7.41186 19.3381 5.87564 19.3381 3.98122C19.3381 2.0858 20.9768 0.548584 22.9979 0.548584C25.0234 0.548584 26.6619 2.0858 26.6619 3.98122Z" fill="#BF9444"/>
<path d="M26.6619 10.019C26.6619 11.9144 25.0232 13.4517 22.9979 13.4517C20.9768 13.4517 19.3381 11.9144 19.3381 10.019C19.3381 8.1246 20.9768 6.58838 22.9979 6.58838C25.0234 6.58838 26.6619 8.1246 26.6619 10.019Z" fill="#BF9444"/>
<path d="M20.5145 6.58838C20.5145 8.4828 18.8726 10.019 16.8537 10.019C14.8305 10.019 7.17834 6.17773 -0.000244141 6.58838C7.17834 6.17773 14.8305 3.15674 16.8537 3.15674C18.8729 3.15674 20.5145 4.69296 20.5145 6.58838Z" fill="#BF9444"/>
<path d="M27.1988 0H26.2224V14H27.1988V0Z" fill="#BF9444"/>
<path d="M189.338 3.98122C189.338 5.87564 190.978 7.41186 192.999 7.41186C195.023 7.41186 196.662 5.87564 196.662 3.98122C196.662 2.0858 195.023 0.548584 192.999 0.548584C190.978 0.548584 189.338 2.0858 189.338 3.98122Z" fill="#BF9444"/>
<path d="M189.338 10.019C189.338 11.9144 190.978 13.4517 192.999 13.4517C195.023 13.4517 196.662 11.9144 196.662 10.019C196.662 8.1246 195.023 6.58838 192.999 6.58838C190.978 6.58838 189.338 8.1246 189.338 10.019Z" fill="#BF9444"/>
<path d="M195.485 6.58838C195.485 8.4828 197.124 10.019 199.149 10.019C201.169 10.019 208.823 6.17773 216 6.58838C208.823 6.17773 201.169 3.15674 199.149 3.15674C197.124 3.15674 195.485 4.69296 195.485 6.58838Z" fill="#BF9444"/>
<path d="M189.777 0H188.801V14H189.777V0Z" fill="#BF9444"/>
</svg>
