<svg width="56" height="18" viewBox="0 0 56 18" fill="none" xmlns="http://www.w3.org/2000/svg">
<path d="M14.4311 12.8569C14.4311 12.8569 14.3762 12.9026 14.2693 12.9906C14.1624 13.0786 14.0088 13.2134 13.7856 13.3675C13.3459 13.6804 12.6758 14.1234 11.715 14.5018C11.2341 14.6853 10.6859 14.8619 10.0673 14.9879C9.44863 15.1124 8.75987 15.173 8.01969 15.1493C7.28449 15.1258 6.47606 15.0013 5.69069 14.7569C4.85265 14.4948 4.07444 14.0771 3.31463 13.5291C2.56416 12.9778 1.87167 12.2764 1.29978 11.4392C1.01119 11.0216 0.772769 10.5604 0.561155 10.0766C0.469217 9.82913 0.365124 9.58285 0.295625 9.32226L0.23828 9.12804L0.223944 9.07933L0.216776 9.05498C0.222386 9.08816 0.201193 8.98313 0.201505 8.98526L0.183429 8.89728L0.110502 8.54354C-0.103294 7.42447 -0.00294089 6.24757 0.37759 5.13307C0.555545 4.56988 0.8351 4.03744 1.15392 3.52448C1.33344 3.28185 1.49176 3.01914 1.70088 2.79477L2.00318 2.44682L2.33697 2.12413C3.23266 1.26199 4.39358 0.637617 5.6508 0.299096L5.76829 0.265305L5.79759 0.256781L5.87612 0.240646L5.92723 0.2306L6.13137 0.190416L6.54088 0.109743C6.86095 0.0695591 7.22123 0.0245042 7.54597 0.00745636C8.18487 -0.013549 8.82968 0.00715193 9.45517 0.103959C10.7115 0.281439 11.9157 0.646749 13.0314 1.13109C14.1518 1.61026 15.2061 2.17862 16.219 2.77164C16.7236 3.07363 17.2123 3.37349 17.7069 3.68826C18.1871 3.99238 18.6683 4.29864 19.1539 4.61889C20.1238 5.24753 21.0556 5.89382 21.9843 6.53342C22.9128 7.17211 23.8228 7.8117 24.7197 8.44369C25.6185 9.06685 26.5061 9.6824 27.3794 10.2876C29.129 11.4843 30.8372 12.5997 32.5049 13.5714C32.9194 13.8192 33.3326 14.0542 33.744 14.278C34.1495 14.5066 34.5687 14.727 34.9638 14.9392C35.7592 15.3621 36.5212 15.7185 37.2757 15.9389C37.6525 16.0501 38.0265 16.1283 38.3961 16.1721C38.4887 16.181 38.5809 16.1901 38.6725 16.1989C38.7654 16.2017 38.858 16.2044 38.9499 16.2071C39.0506 16.2102 39.1506 16.2132 39.2504 16.2163C39.347 16.2184 39.4271 16.2105 39.5156 16.2084C40.2112 16.1898 40.9218 16.0635 41.5354 15.8598C42.155 15.6513 42.6957 15.359 43.1679 15.0452C43.6437 14.7304 44.0053 14.3498 44.3185 13.9924C44.9003 13.2442 45.1945 12.5221 45.3139 12.0164C45.3924 11.7662 45.4062 11.5644 45.4383 11.4316C45.4632 11.2971 45.476 11.2277 45.476 11.2277C45.476 11.2277 45.476 11.298 45.4763 11.4341C45.4679 11.5695 45.4953 11.7768 45.456 12.0408C45.4392 12.1738 45.4202 12.3227 45.3996 12.4862C45.3681 12.6481 45.3192 12.8225 45.2731 13.0143C45.2295 13.2073 45.1381 13.3997 45.0615 13.6153C44.9758 13.8265 44.8495 14.0357 44.7305 14.2658C44.4491 14.6972 44.1062 15.1721 43.6275 15.5934C43.1563 16.0202 42.5732 16.4075 41.8985 16.7259C41.2144 17.037 40.4639 17.2672 39.5957 17.3874C39.4888 17.4014 39.3725 17.4215 39.2706 17.4303C39.1712 17.4364 39.0711 17.4428 38.9708 17.4489C38.8614 17.4547 38.7514 17.4608 38.6404 17.4666C38.5286 17.4656 38.4157 17.4644 38.3026 17.4635C37.8495 17.4495 37.3876 17.3941 36.9282 17.3012C36.0073 17.1171 35.1072 16.7825 34.2333 16.4117C33.7926 16.2269 33.3679 16.0324 32.9247 15.8239C32.4815 15.6211 32.0362 15.4074 31.5905 15.1812C29.8007 14.2856 27.9775 13.2363 26.1471 12.0913C24.3133 10.9494 22.4646 9.72289 20.6015 8.48296C19.6706 7.86437 18.7235 7.24852 17.7857 6.64119C17.321 6.33889 16.8392 6.03599 16.3543 5.73339C15.8856 5.4384 15.3978 5.14585 14.9222 4.86213C13.0218 3.73545 11.0618 2.75672 9.09303 2.4456C8.60248 2.35701 8.11599 2.34027 7.63542 2.33966C7.40074 2.34605 7.20471 2.36462 6.97066 2.37862L6.55865 2.44621L6.35327 2.48L6.30185 2.48852C6.31712 2.48517 6.23172 2.50192 6.32958 2.48183L6.30901 2.4873L6.22642 2.50922C5.34288 2.7211 4.50733 3.12629 3.83665 3.71353C2.46599 4.85573 1.77256 6.65945 1.96236 8.24429L2.00973 8.60199L2.02157 8.69088C2.02438 8.70885 2.00661 8.61691 2.01627 8.6647L2.02064 8.68358L2.02905 8.72163L2.06302 8.87415C2.0998 9.07811 2.16992 9.27386 2.22508 9.47204C2.36408 9.86049 2.52676 10.238 2.72529 10.5941C3.12265 11.305 3.63875 11.9354 4.22217 12.4481C4.80122 12.958 5.4638 13.3708 6.09646 13.6506C6.78117 13.9492 7.44468 14.1255 8.10321 14.2217C9.41559 14.4092 10.6114 14.2734 11.5613 14.0418C12.5106 13.7988 13.2362 13.492 13.7086 13.2497C13.9477 13.1331 14.1275 13.0292 14.2478 12.9604C14.3687 12.8923 14.4311 12.8569 14.4311 12.8569Z" fill="#BF9444"/>
<path d="M41.5683 5.14336C41.5683 5.14336 41.6231 5.0977 41.7297 5.00972C41.8369 4.92174 41.9903 4.78688 42.2134 4.63284C42.6532 4.31989 43.3232 3.87695 44.2841 3.49855C44.7649 3.31498 45.3131 3.13872 45.9318 3.01238C46.5504 2.88787 47.2392 2.82729 47.9797 2.85104C48.7149 2.87448 49.5233 2.99899 50.3087 3.24344C51.1467 3.50555 51.9249 3.92322 52.6847 4.47119C53.4352 5.0225 54.1277 5.7239 54.6996 6.56107C54.9882 6.97874 55.2269 7.43994 55.4385 7.92368C55.5305 8.17117 55.6345 8.41745 55.704 8.67804L55.7617 8.87227L55.776 8.92097L55.7832 8.94533C55.7776 8.91215 55.7988 9.01717 55.7985 9.01504L55.8166 9.10302L55.8895 9.45676C56.1033 10.5758 56.0029 11.7527 55.6224 12.8672C55.4444 13.4304 55.1649 13.9629 54.8461 14.4758C54.6662 14.7184 54.5079 14.9812 54.2988 15.2055L53.9965 15.5535L53.6627 15.8762C52.767 16.7383 51.6058 17.3627 50.3489 17.7012L50.2314 17.735L50.2021 17.7435L50.1235 17.7594L50.0724 17.7694L49.8683 17.8096L49.4588 17.8903C49.1387 17.9304 48.7784 17.9755 48.4537 17.9925C47.8148 18.0135 47.17 17.9928 46.5445 17.8963C45.2882 17.7189 44.084 17.3532 42.9683 16.8692C41.8479 16.39 40.7935 15.8217 39.7806 15.2287C39.2761 14.9264 38.7874 14.6268 38.2928 14.312C37.8125 14.0079 37.3313 13.7014 36.8458 13.3814C35.8759 12.7528 34.9441 12.1065 34.0153 11.4669C33.0869 10.8282 32.1769 10.1886 31.2796 9.55661C30.3808 8.93346 29.4932 8.31791 28.62 7.71271C26.8703 6.51601 25.1621 5.4006 23.4945 4.42918C23.08 4.18138 22.6667 3.94636 22.2553 3.72261C21.8499 3.49398 21.4307 3.27358 21.0355 3.0614C20.2402 2.63855 19.4782 2.28207 18.7237 2.06166C18.3469 1.95055 17.9729 1.87231 17.6033 1.82847C17.5107 1.81965 17.4184 1.81051 17.3268 1.80168C17.2339 1.79894 17.1414 1.7962 17.0494 1.79347C16.9488 1.79042 16.8484 1.78738 16.749 1.78433C16.6524 1.7822 16.5723 1.79012 16.4838 1.79225C15.7882 1.81082 15.0776 1.93715 14.4639 2.14081C13.8444 2.34935 13.3037 2.64159 12.8312 2.95546C12.3553 3.27023 11.9938 3.65076 11.6806 4.00816C11.0984 4.75644 10.8045 5.47853 10.6851 5.98388C10.6066 6.23412 10.5929 6.43595 10.5608 6.56898C10.5358 6.70354 10.5231 6.77295 10.5231 6.77295C10.5231 6.77295 10.5231 6.70263 10.5231 6.56655C10.5315 6.43108 10.5041 6.22377 10.5433 5.95983C10.5602 5.8268 10.5792 5.67793 10.5997 5.51446C10.6312 5.3525 10.6801 5.17807 10.7263 4.98628C10.7699 4.79327 10.8612 4.60087 10.9379 4.38534C11.0239 4.17407 11.1498 3.96493 11.2689 3.73478C11.5503 3.30341 11.8931 2.82882 12.3718 2.40719C12.843 1.98038 13.4261 1.59315 14.1009 1.27472C14.785 0.963602 15.5354 0.733456 16.4037 0.613208C16.5106 0.599205 16.6268 0.579113 16.7287 0.570284C16.8282 0.564196 16.9282 0.557803 17.0286 0.551714C17.1379 0.54593 17.248 0.539842 17.3589 0.534058C17.4708 0.534971 17.5836 0.536189 17.6967 0.537102C18.1499 0.551105 18.6118 0.606511 19.0711 0.699361C19.9921 0.883233 20.8922 1.2178 21.766 1.58828C22.2064 1.77307 22.6312 1.9679 23.0747 2.17613C23.5178 2.37887 23.9632 2.59258 24.4089 2.81877C26.1987 3.71439 28.0219 4.76374 29.8522 5.90869C31.686 7.05059 33.5348 8.27711 35.3978 9.51704C36.3287 10.1356 37.2759 10.7515 38.2136 11.3588C38.6786 11.6614 39.1601 11.9637 39.6451 12.2666C40.1138 12.5616 40.6015 12.8541 41.0771 13.1379C42.9776 14.2645 44.9376 15.2433 46.9063 15.5544C47.3969 15.643 47.8834 15.6597 48.3639 15.6603C48.5986 15.6539 48.7946 15.6354 49.0287 15.6214L49.4407 15.5538L49.6461 15.52L49.6975 15.5115C49.6822 15.5148 49.7676 15.4981 49.6698 15.5179L49.6903 15.5124L49.7729 15.4905C50.6565 15.2786 51.492 14.8734 52.1627 14.2862C53.5334 13.144 54.2268 11.3402 54.037 9.7554L53.9896 9.3977L53.9778 9.30881C53.975 9.29085 53.9927 9.38279 53.9831 9.33499L53.9787 9.31612L53.9703 9.27806L53.9366 9.12646C53.8999 8.9225 53.8298 8.72675 53.7746 8.52857C53.6356 8.14043 53.4726 7.76294 53.2744 7.40646C52.877 6.69563 52.3609 6.06516 51.7775 5.55251C51.1984 5.0426 50.5359 4.6298 49.9032 4.35003C49.2185 4.05139 48.555 3.87513 47.8965 3.77893C46.5841 3.5914 45.3883 3.72717 44.4383 3.95884C43.489 4.20177 42.7635 4.50863 42.291 4.75096C42.052 4.86786 41.8722 4.97136 41.7519 5.04016C41.6306 5.10805 41.5683 5.14336 41.5683 5.14336Z" fill="#BF9444"/>
</svg>
