<svg width="28" height="28" viewBox="0 0 28 28" fill="none" xmlns="http://www.w3.org/2000/svg">
<g clip-path="url(#clip0_931_232)">
<path d="M18.166 14.94C17.642 16.002 16.932 17.06 16.206 18.01C15.5173 18.9056 14.7809 19.7635 14 20.58C13.2191 19.7635 12.4827 18.9056 11.794 18.01C11.068 17.06 10.358 16.002 9.834 14.94C9.304 13.867 9 12.862 9 12C9 10.6739 9.52678 9.40215 10.4645 8.46447C11.4021 7.52678 12.6739 7 14 7C15.3261 7 16.5979 7.52678 17.5355 8.46447C18.4732 9.40215 19 10.6739 19 12C19 12.862 18.695 13.867 18.166 14.94ZM14 22C14 22 20 16.314 20 12C20 10.4087 19.3679 8.88258 18.2426 7.75736C17.1174 6.63214 15.5913 6 14 6C12.4087 6 10.8826 6.63214 9.75736 7.75736C8.63214 8.88258 8 10.4087 8 12C8 16.314 14 22 14 22Z" fill="#BF9444"/>
<path d="M14 14C13.4696 14 12.9609 13.7893 12.5858 13.4142C12.2107 13.0391 12 12.5304 12 12C12 11.4696 12.2107 10.9609 12.5858 10.5858C12.9609 10.2107 13.4696 10 14 10C14.5304 10 15.0391 10.2107 15.4142 10.5858C15.7893 10.9609 16 11.4696 16 12C16 12.5304 15.7893 13.0391 15.4142 13.4142C15.0391 13.7893 14.5304 14 14 14ZM14 15C14.7956 15 15.5587 14.6839 16.1213 14.1213C16.6839 13.5587 17 12.7956 17 12C17 11.2044 16.6839 10.4413 16.1213 9.87868C15.5587 9.31607 14.7956 9 14 9C13.2044 9 12.4413 9.31607 11.8787 9.87868C11.3161 10.4413 11 11.2044 11 12C11 12.7956 11.3161 13.5587 11.8787 14.1213C12.4413 14.6839 13.2044 15 14 15Z" fill="#BF9444"/>
</g>
<circle cx="14" cy="14" r="13.5" stroke="#BF9444"/>
<defs>
<clipPath id="clip0_931_232">
<rect width="16" height="16" fill="white" transform="translate(6 6)"/>
</clipPath>
</defs>
</svg>
