<svg width="60" height="59" viewBox="0 0 60 59" fill="none" xmlns="http://www.w3.org/2000/svg">
<path d="M7.08309 48.5855C5.92837 49.2205 4.68888 50.2164 3.57769 51.5559C3.02442 52.2271 2.50134 52.9838 2.05547 53.8403C1.83312 54.27 1.63166 54.7266 1.46678 55.2136L1.39712 55.4293L1.30597 55.7638C1.25082 55.9875 1.20437 56.2112 1.17244 56.4321C1.11264 56.8692 1.08187 57.2857 1.03601 57.7395L1.04588 57.7406C1.49988 57.7802 1.90917 57.8267 2.34633 57.8525C2.5681 57.86 2.79626 57.8537 3.02674 57.8319C3.14285 57.8187 3.25664 57.8101 3.37391 57.7928L3.54808 57.7665L3.65665 57.7475C4.18727 57.6437 4.68017 57.4773 5.14229 57.2869C6.06538 56.8979 6.85784 56.3868 7.55102 55.8441C8.93333 54.7484 9.91273 53.5035 10.5688 52.3826C11.2248 51.2593 11.5447 50.2508 11.6921 49.559C11.8373 48.8603 11.8344 48.4702 11.8396 48.4708C11.8268 48.4501 11.3839 50.0116 9.7821 51.837C8.9908 52.7411 7.92258 53.7135 6.60588 54.5413C5.94985 54.9509 5.22879 55.3267 4.46943 55.5957C4.08916 55.7288 3.69787 55.8372 3.31179 55.8986L3.25026 55.9066L3.25258 55.9049C3.25374 55.9038 3.252 55.9038 3.252 55.9026L3.25142 55.8997C3.25142 55.898 3.25316 55.8969 3.25316 55.8969C3.25316 55.8969 3.252 55.8974 3.25026 55.8974L3.24735 55.8963L3.24561 55.8952L3.27754 55.7816C3.39714 55.3903 3.54518 55.0031 3.71296 54.6262C4.05026 53.869 4.45607 53.1599 4.88336 52.5059C5.74433 51.2014 6.70515 50.1309 7.62591 49.3685C8.54203 48.5998 9.42912 48.1564 10.0892 47.9625C10.7476 47.768 11.154 47.7789 11.1505 47.7697C11.1505 47.7801 10.7702 47.6464 10.0375 47.6716C9.31069 47.6929 8.24014 47.9395 7.08309 48.5855Z" fill="#BF9444"/>
<path d="M11.7688 46.9326C11.7688 47.8572 13.2144 47.8572 13.2144 46.9326C13.2144 46.0068 11.7688 46.0068 11.7688 46.9326Z" fill="#BF9444"/>
<path d="M8.48522 51.9944C8.48522 50.6995 6.45618 50.6995 6.45618 51.9944C6.45618 53.2887 8.48522 53.2887 8.48522 51.9944Z" fill="#BF9444"/>
<path d="M16.7418 41.3035C16.6838 41.3139 16.6013 41.3265 16.5781 41.3328C16.5049 41.3489 16.4347 41.3684 16.3627 41.3873C16.221 41.4252 16.0829 41.4728 15.9488 41.525C15.6811 41.6323 15.4297 41.7723 15.2167 41.9467C15.003 42.1211 14.8364 42.3351 14.7371 42.5468C14.5357 42.9863 14.6019 43.3512 14.6564 43.564C14.7191 43.7832 14.7813 43.8876 14.7795 43.8893C14.7813 43.8899 14.7952 43.766 14.8538 43.564C14.909 43.3655 15.0239 43.089 15.2556 42.8979C15.4814 42.7069 15.817 42.5956 16.2425 42.5336C16.3494 42.5193 16.4608 42.5078 16.5769 42.498L16.7528 42.486C16.797 42.4826 16.7819 42.4866 16.79 42.4883L16.7946 42.4946C16.8045 42.5107 16.7917 42.5216 16.7912 42.5221C16.7912 42.5221 16.8045 42.513 16.8167 42.5285C16.8289 42.5061 16.7993 42.6065 16.7853 42.6547L16.7325 42.8285C16.6988 42.941 16.6646 43.0477 16.6257 43.1458C16.48 43.5508 16.3023 43.8423 16.0538 44.0368C15.8065 44.2307 15.5093 44.3208 15.3061 44.3707C15.0965 44.4172 14.9711 44.4298 14.9717 44.4315C14.9729 44.4298 15.0785 44.4946 15.2945 44.5635C15.5093 44.63 15.8541 44.7144 16.3105 44.6076C16.5357 44.5514 16.779 44.4372 16.9949 44.268C17.215 44.0965 17.4089 43.8796 17.5685 43.6398C17.6504 43.5181 17.7218 43.3942 17.7903 43.264C17.8234 43.2014 17.8553 43.1355 17.8878 43.0712C17.9209 42.9949 17.9372 42.9685 17.9952 42.8193C18.1798 42.3236 18.3639 41.782 18.5485 41.2324L18.5619 41.1899C18.0045 41.2066 17.4727 41.2083 16.9398 41.2766L16.7418 41.3035Z" fill="#BF9444"/>
<path d="M12.1793 41.6376C12.1578 41.6829 12.1253 41.7466 12.1183 41.7655C12.0939 41.8223 12.0713 41.8814 12.051 41.9388C12.0097 42.0558 11.9714 42.1746 11.9436 42.2933C11.8878 42.5309 11.86 42.7741 11.8785 43.0071C11.8989 43.2394 11.9645 43.4609 12.0672 43.6353C12.2774 43.9876 12.5665 44.1252 12.7453 44.1901C12.9282 44.2566 13.0338 44.2641 13.0333 44.2658C13.0344 44.2652 12.9531 44.193 12.8394 44.0541C12.7279 43.9187 12.5891 43.7018 12.57 43.4494C12.5462 43.1993 12.6333 42.9135 12.8005 42.5888C12.8411 42.5068 12.8893 42.4236 12.9386 42.341L13.0182 42.213C13.0356 42.1792 13.0321 42.1941 13.0367 42.1895L13.0431 42.1889C13.06 42.1906 13.0617 42.205 13.0611 42.2056C13.0611 42.2056 13.0611 42.1924 13.0785 42.1912C13.0687 42.1694 13.1256 42.2406 13.1529 42.2738L13.2498 42.3937C13.3102 42.4735 13.37 42.5486 13.4211 42.6244C13.6341 42.925 13.752 43.1924 13.7648 43.4591C13.781 43.7254 13.698 43.9732 13.6318 44.1402C13.5616 44.3071 13.5105 44.4006 13.5116 44.4012C13.5111 44.4001 13.6086 44.3582 13.7648 44.244C13.9157 44.1281 14.1468 43.9325 14.2937 43.5636C14.3662 43.3806 14.4045 43.1585 14.3929 42.9239C14.3819 42.6886 14.3233 42.4477 14.2339 42.2176C14.1868 42.1029 14.1357 41.9904 14.0783 41.8808C14.0492 41.8246 14.0202 41.7724 13.99 41.7196C13.9517 41.6576 13.9413 41.6335 13.8646 41.5199C13.6074 41.1482 13.3148 40.7557 13.0193 40.3541L12.9973 40.3254C12.732 40.7184 12.4719 41.0851 12.2588 41.4884L12.1793 41.6376Z" fill="#BF9444"/>
<path d="M15.3624 45.3632C15.2411 45.5101 15.197 45.6024 15.1958 45.6007C15.1964 45.6024 15.2893 45.552 15.4617 45.4883C15.6295 45.424 15.8814 45.3494 16.1502 45.3661C16.4196 45.3799 16.6843 45.4929 16.9775 45.6965C17.0518 45.7458 17.1279 45.7992 17.2039 45.8606L17.3224 45.9524C17.3555 45.9782 17.4246 46.0292 17.4054 46.0206C17.4037 46.0367 17.3903 46.0367 17.3903 46.0367C17.3909 46.0367 17.4054 46.039 17.406 46.0568L17.4054 46.0637C17.4013 46.0677 17.4135 46.0642 17.3822 46.0809L17.251 46.1526C17.1633 46.2013 17.078 46.2438 16.9944 46.2834C16.6646 46.4411 16.372 46.5197 16.1206 46.4951C15.8675 46.4756 15.6544 46.343 15.5203 46.2369C15.3856 46.1291 15.3177 46.0533 15.3171 46.0551C15.3189 46.0545 15.3229 46.152 15.381 46.3281C15.4437 46.4951 15.5697 46.7716 15.9203 46.9706C16.0899 47.0687 16.3105 47.1336 16.5444 47.1525C16.7778 47.1708 17.0234 47.149 17.2643 47.0945C17.3851 47.0687 17.5053 47.0366 17.6249 46.9947C17.6829 46.9752 17.7439 46.9546 17.8013 46.9322C17.8211 46.9253 17.8861 46.8972 17.9325 46.8748L18.0847 46.8048C18.4974 46.6023 18.8748 46.358 19.2794 46.1113L19.251 46.0906C18.8591 45.809 18.4736 45.5296 18.1073 45.2846C17.9958 45.2112 17.9691 45.1986 17.9111 45.1647C17.8577 45.1355 17.8042 45.1079 17.7514 45.0793C17.6428 45.0248 17.5314 44.9754 17.417 44.9312C17.1889 44.8469 16.9479 44.7878 16.7122 44.7758C16.4759 44.7637 16.2489 44.7987 16.0649 44.867C15.6881 45.0024 15.4838 45.2204 15.3624 45.3632Z" fill="#BF9444"/>
<path d="M5.08541 36.8569L4.9333 37.0077L4.81429 37.1362C4.39513 37.5946 4.03286 38.077 3.73561 38.5675C3.13299 39.5485 2.79975 40.5582 2.70454 41.4158C2.60353 42.2763 2.72544 42.9635 2.85142 43.407C2.97799 43.851 3.10223 44.0713 3.09758 44.073C3.10164 44.073 3.09061 43.82 3.14112 43.38C3.18757 42.9446 3.30774 42.3268 3.60789 41.6424C3.90107 40.958 4.37597 40.2151 5.02213 39.4837C5.34492 39.1171 5.70951 38.7528 6.10487 38.3949C6.13738 38.365 6.13738 38.3673 6.13854 38.3685L6.14551 38.369C6.14957 38.369 6.15479 38.3702 6.15944 38.3713C6.16583 38.3736 6.16989 38.3771 6.17221 38.3811C6.17686 38.3885 6.17511 38.3977 6.17395 38.4017L6.17279 38.404C6.17279 38.404 6.17569 38.3983 6.18266 38.3972C6.18614 38.3966 6.19079 38.3972 6.19601 38.4C6.20066 38.3822 6.21575 38.5836 6.22214 38.6966C6.25291 39.2209 6.23375 39.7206 6.16176 40.1858C6.01778 41.1169 5.63171 41.8954 5.14346 42.4771C4.6587 43.0622 4.11414 43.4494 3.72749 43.7001C3.33387 43.9491 3.09642 44.0707 3.09816 44.073C3.09758 44.0696 3.36406 44.0656 3.83837 43.9749C4.30804 43.8803 5.01226 43.6978 5.78092 43.1873C6.54899 42.6899 7.34029 41.7783 7.72927 40.5822C7.93072 39.9891 8.04103 39.3437 8.06018 38.6788C8.06367 38.4981 8.06889 38.3994 8.05148 38.0793C8.03406 37.7833 7.99981 37.4833 7.95104 37.1942C7.90401 36.9062 7.84189 36.6211 7.76932 36.3589L7.53246 35.5954L7.36584 35.0728C6.90952 35.3946 6.48513 35.6722 6.04449 36.0096C5.82446 36.1834 5.60617 36.3681 5.39426 36.5626C5.2886 36.6601 5.18701 36.7559 5.08541 36.8569Z" fill="#BF9444"/>
<path d="M5.45694 41.3484C5.26014 40.4451 3.8459 40.7464 4.03922 41.6486C4.23545 42.5519 5.65027 42.2529 5.45694 41.3484Z" fill="#BF9444"/>
<path d="M2.88452 33.7496C2.88452 34.6748 4.33359 34.6748 4.33359 33.7496C4.33359 32.8279 2.88452 32.8279 2.88452 33.7496Z" fill="#BF9444"/>
<path d="M8.84741 31.4336C8.84741 30.1393 6.81836 30.1393 6.81836 31.4336C6.81894 32.7285 8.84741 32.7285 8.84741 31.4336Z" fill="#BF9444"/>
<path d="M6.21289 27.3456C6.21405 27.3364 5.04771 27.4328 4.49386 27.5917C3.60503 27.9009 2.66685 28.3088 1.95915 28.8956C1.70428 29.1297 1.47787 29.3838 1.29151 29.6552C0.813708 30.3384 0.593097 31.1071 0.562908 31.7984C0.528074 32.4914 0.637219 33.1224 0.852606 33.6662C1.06741 34.2066 1.40181 34.638 1.76234 34.9317C2.50719 35.5278 3.26076 35.584 3.70488 35.5725C4.16585 35.549 4.38878 35.4733 4.38994 35.479C4.38994 35.4733 4.15017 35.5238 3.68921 35.4911C3.24508 35.4521 2.52403 35.296 1.92722 34.669C1.32866 34.0609 1.00297 32.9623 1.21836 31.7559C1.32692 31.1622 1.59398 30.5621 2.05262 30.0642C2.13041 29.9758 2.22214 29.8955 2.31213 29.8164C2.31503 29.825 3.86976 28.5279 6.0126 28.6811C6.05208 28.6828 7.54469 28.5038 8.56821 29.5989C9.33397 30.4164 11.1546 31.7588 11.0408 36.5879C10.9433 36.6464 10.8469 36.7095 10.7523 36.7795C10.6756 36.8357 10.5967 36.8988 10.5218 36.9631C10.4626 37.0182 10.4097 37.0664 10.3581 37.1168C10.3546 36.9872 10.3476 36.857 10.336 36.7279C10.2716 36.0992 10.0631 35.553 9.78564 35.0677C9.50871 34.5864 9.14819 34.1734 8.72496 33.8877C8.30812 33.5922 7.78214 33.4723 7.4489 33.5177C7.11624 33.5544 6.98387 33.6473 6.98155 33.6381C6.97806 33.645 7.16384 33.6238 7.41232 33.6932C7.66138 33.7609 7.84774 33.9881 8.08809 34.2456C8.68258 34.875 9.08026 36.0143 9.11684 37.7289L8.97286 39.6479C8.95312 39.7396 8.93861 39.8291 8.92758 39.9129C8.84107 40.6581 8.66226 41.8553 8.65762 41.8525C8.6611 41.8525 9.23817 40.6581 9.67998 40.0351C9.98129 39.614 10.3795 39.0937 10.851 38.5533C10.6721 39.4402 10.3528 40.2967 9.93368 41.1067C9.66895 41.6173 9.49942 42.2449 9.19579 42.7652C10.5851 41.0895 11.4513 39.2727 11.8878 37.4874C11.9726 37.4192 12.0655 37.3486 12.1613 37.2832C12.3784 37.1329 12.606 36.9935 12.8336 36.8759C13.2922 36.6396 13.741 36.4875 14.1195 36.456C14.4992 36.4175 14.8266 36.5191 15.0275 36.6321C15.233 36.7451 15.3305 36.8369 15.3329 36.834C15.3288 36.8352 15.3311 36.7204 15.2284 36.522C15.1326 36.3344 14.8585 36.024 14.2704 35.8944C13.6934 35.7624 12.9572 35.8307 12.2675 36.0395C12.224 36.0544 12.1845 36.0688 12.1439 36.0825C12.1758 35.8158 12.1996 35.5479 12.2129 35.2851C12.5543 28.665 7.23932 27.349 6.21289 27.3456Z" fill="#BF9444"/>
<path d="M3.09418 21.0295C3.5894 19.2184 3.81814 17.0987 3.56675 14.9274C3.53947 14.6733 3.50638 14.4231 3.46574 14.1753C3.58591 14.3526 3.7026 14.5459 3.80769 14.765C4.08577 15.337 4.29129 16.0426 4.39753 16.8589C4.60885 18.4881 4.44165 20.5499 3.79607 22.7809C3.637 23.3448 3.428 23.8783 3.1952 24.503C2.96936 25.1163 2.75107 25.7582 2.55949 26.4449C2.39983 27.045 2.24831 27.6697 2.19316 28.3816C2.76152 28.0202 3.35833 27.7207 3.98185 27.5027C4.01727 27.2463 4.05849 26.9916 4.10958 26.7415C4.23846 26.0961 4.39985 25.4662 4.57228 24.853C4.74529 24.2501 4.92816 23.5909 5.04079 22.9822C5.50814 20.5264 5.44428 18.355 5.01757 16.6593C4.8016 15.8097 4.48984 15.0874 4.11945 14.5264C3.88258 14.1638 3.62655 13.8747 3.37575 13.6401C3.07038 11.973 2.58213 10.4373 2.20593 9.03698C1.9679 8.15984 1.7769 7.32515 1.66427 6.53636C1.54932 5.747 1.51332 5.00467 1.54525 4.3243C1.60389 2.96528 1.9023 1.87589 2.1351 1.13873C2.37313 0.40042 2.54904 0.000573667 2.54497 0C2.54846 0.00114733 2.31507 0.367147 1.97835 1.07735C1.65208 1.78755 1.21434 2.86088 1.01346 4.27783C0.916511 4.98459 0.881097 5.77109 0.940314 6.60922C0.993725 7.44792 1.13712 8.33251 1.33219 9.24407C1.57893 10.4029 1.89765 11.6024 2.15368 12.849C2.13974 12.8433 2.12349 12.8381 2.10956 12.8324C2.11652 12.8553 2.12117 12.8788 2.12755 12.9023C2.14265 12.9104 2.15484 12.9167 2.16819 12.9276C2.30811 13.616 2.43002 14.321 2.50898 15.0415C2.74352 17.0941 2.59664 19.0652 2.2187 20.8247C1.84656 22.5899 1.31884 24.1709 1.01404 25.5454C0.69706 26.9199 0.605332 28.0672 0.619265 28.8514C0.632038 29.6351 0.70751 30.063 0.703446 30.063C0.722024 30.0722 0.631457 28.3007 1.53016 25.6842C1.95281 24.3757 2.60477 22.8463 3.09418 21.0295Z" fill="#BF9444"/>
<path d="M6.03351 20.107C6.18097 20.3869 6.28837 20.7678 6.31101 21.2227C6.3354 21.68 6.2814 22.2135 6.16181 22.8061C5.93133 23.997 5.40883 25.4002 4.96702 27.1573C4.96354 27.1717 4.96122 27.1866 4.95715 27.2015C5.1557 27.1527 5.36064 27.1097 5.57022 27.0828C5.57429 27.0822 5.57719 27.0799 5.58125 27.0799C5.59751 27.0776 5.61376 27.0787 5.63002 27.0776C5.82973 27.0541 6.03002 27.0403 6.23786 27.0403C6.24367 27.0403 6.24773 27.0426 6.25354 27.0437C6.47241 25.4484 6.77081 24.024 6.81145 22.8216C6.83758 22.1848 6.80391 21.6134 6.69012 21.1287C6.57981 20.6439 6.38416 20.255 6.17865 19.9911C5.96906 19.7255 5.76123 19.574 5.62189 19.4828C5.48082 19.3916 5.40186 19.3583 5.40244 19.3572C5.40128 19.3583 5.47501 19.4082 5.59751 19.5241C5.71768 19.6377 5.88779 19.8259 6.03351 20.107Z" fill="#BF9444"/>
<path d="M5.77459 32.0047C6.06951 32.2508 6.39114 32.431 6.72438 32.571C6.32089 32.3575 6.02133 31.9553 6.02133 31.3638C6.02133 30.8905 6.21349 30.5388 6.49622 30.3076C6.40508 30.1728 6.3296 30.0127 6.27097 29.8314C6.19782 29.591 6.1595 29.3225 6.13802 29.0425C5.45761 28.9186 4.57922 29.1785 4.57922 29.1785C4.77719 29.9588 5.20448 31.5337 5.77459 32.0047Z" fill="#BF9444"/>
<path d="M2.51415 30.2472C2.69934 30.5564 2.98672 30.806 3.32751 30.9437C3.49935 31.0154 3.68165 31.0544 3.86975 31.0716C4.06133 31.0911 4.41779 31.0843 4.74755 31.4342L4.1101 29.2202C4.05959 29.2277 2.83403 29.7589 2.45203 30.1439C2.47118 30.1801 2.49092 30.2145 2.51415 30.2472Z" fill="#BF9444"/>
<path d="M11.0269 24.2949C11.028 24.3018 11.0344 24.2892 11.0286 24.3253L11.0129 24.4768C11.0019 24.5772 10.9891 24.673 10.974 24.7654C10.9125 25.1326 10.8057 25.4177 10.6292 25.6093C10.4585 25.8027 10.2106 25.8962 10.0335 25.9421C9.85646 25.9857 9.74558 25.9949 9.74674 25.996C9.7479 25.9949 9.83847 26.0534 10.0289 26.1096C10.2158 26.1613 10.5351 26.2278 10.9282 26.0654C11.118 25.984 11.3102 25.8446 11.4675 25.6638C11.626 25.4854 11.7555 25.2703 11.8565 25.0413C11.9082 24.9266 11.9511 24.8078 11.9877 24.6856C12.0092 24.626 12.026 24.5634 12.0411 24.5032C12.0475 24.4808 12.0603 24.4114 12.0701 24.3603L12.0992 24.1916C12.1723 23.7321 12.1851 23.2737 12.2135 22.7917L12.177 22.8049C11.687 22.9524 11.2057 23.097 10.7633 23.2456C10.6292 23.2932 10.606 23.3064 10.538 23.3333C10.4806 23.358 10.4237 23.3833 10.365 23.4131C10.2501 23.4665 10.1375 23.5284 10.0295 23.5938C9.81641 23.7269 9.61785 23.8899 9.46401 24.074C9.30668 24.2599 9.2016 24.4659 9.1476 24.6592C9.03962 25.0494 9.11045 25.35 9.16154 25.5353C9.22075 25.7258 9.27242 25.8187 9.27068 25.8199C9.27242 25.8199 9.28694 25.712 9.33512 25.5313C9.38099 25.3569 9.46807 25.1039 9.64456 24.895C9.82279 24.6833 10.0846 24.5365 10.4434 24.4194C10.5311 24.3907 10.6263 24.3632 10.7267 24.3345L10.8794 24.2955C10.9253 24.2846 11.0112 24.2616 10.9915 24.2714C11.0042 24.2829 10.9961 24.2938 10.9961 24.2938C10.9967 24.2932 11.0065 24.2829 11.0211 24.2921L11.0269 24.2949Z" fill="#BF9444"/>
<path d="M9.55343 27.6658C9.43442 27.5643 9.37404 27.4937 9.37404 27.4954C9.37578 27.4949 9.37926 27.5844 9.43151 27.7467C9.48783 27.9005 9.59987 28.1535 9.90641 28.3428C10.0597 28.4346 10.2507 28.4983 10.4562 28.519C10.6588 28.5402 10.8742 28.5241 11.0867 28.4811C11.1923 28.4593 11.298 28.4295 11.4031 28.3962C11.4542 28.3795 11.5041 28.3612 11.5575 28.3388C11.5743 28.3331 11.6295 28.3084 11.6719 28.2912L11.8054 28.2292C12.1648 28.0514 12.494 27.8345 12.8458 27.6159L12.8208 27.5964C12.4748 27.3319 12.1375 27.072 11.8135 26.8408C11.7148 26.7708 11.6934 26.7599 11.6423 26.7278C11.5947 26.7008 11.5488 26.6744 11.4995 26.6463C11.406 26.5947 11.3079 26.5482 11.2074 26.5057C11.0066 26.4243 10.797 26.3663 10.5897 26.3514C10.3819 26.3359 10.1857 26.3635 10.0214 26.4231C9.69509 26.5413 9.51627 26.7347 9.41003 26.8632C9.30437 26.9951 9.26663 27.0789 9.26489 27.0783C9.26547 27.0795 9.34965 27.037 9.49828 26.9796C9.64516 26.9263 9.86635 26.8597 10.1015 26.8792C10.3366 26.8999 10.5706 27.0055 10.8289 27.1965C10.8922 27.243 10.9595 27.2963 11.0263 27.3503L11.1314 27.4363C11.1627 27.461 11.2214 27.5115 11.2057 27.5029C11.204 27.5172 11.1918 27.5178 11.1918 27.5178C11.1923 27.5172 11.2045 27.5201 11.2057 27.5339V27.5396C11.2011 27.5436 11.2121 27.5408 11.1848 27.5551L11.0698 27.6211C10.9926 27.6618 10.9206 27.6985 10.8469 27.7341C10.5584 27.8729 10.3041 27.9389 10.0835 27.9131C9.85996 27.8907 9.6707 27.7657 9.55343 27.6658Z" fill="#BF9444"/>
<path d="M7.89069 22.0598C7.66311 22.4046 7.43901 22.7253 7.25149 23.0759L7.18415 23.2056C7.16557 23.2446 7.13945 23.3014 7.1319 23.3174C7.10926 23.3668 7.08952 23.419 7.07094 23.4695C7.03437 23.5716 6.99953 23.6754 6.97399 23.7793C6.9229 23.9847 6.89793 24.197 6.90955 24.3989C6.92 24.5991 6.97109 24.7913 7.05352 24.9405C7.22072 25.2492 7.46108 25.3639 7.6068 25.4196C7.76238 25.4764 7.84715 25.4821 7.84715 25.4838C7.84831 25.4827 7.78386 25.4207 7.69098 25.3014C7.59925 25.1832 7.4872 24.9985 7.47559 24.7781C7.45991 24.5601 7.53829 24.3111 7.68343 24.0294C7.72 23.9577 7.7618 23.8871 7.80418 23.8126L7.87269 23.7007C7.88837 23.6743 7.8843 23.6852 7.88837 23.6812L7.89417 23.6806C7.90752 23.6812 7.90869 23.6938 7.9081 23.6944C7.9081 23.6944 7.90869 23.6829 7.9232 23.6812C7.91565 23.6651 7.95919 23.7236 7.98358 23.7529L8.06079 23.8573C8.11304 23.9267 8.15832 23.9916 8.20012 24.057C8.37371 24.3151 8.46544 24.5475 8.47415 24.7799C8.48286 25.0111 8.40796 25.2285 8.34875 25.372C8.28779 25.5165 8.24309 25.5992 8.24425 25.5997C8.24367 25.5986 8.3232 25.559 8.45615 25.4603C8.58445 25.3588 8.78184 25.1855 8.91189 24.8671C8.97633 24.7064 9.0129 24.5137 9.0071 24.3088C9.00187 24.1034 8.95659 23.8969 8.88634 23.6978C8.85209 23.598 8.80855 23.4999 8.76385 23.4069C8.74178 23.3582 8.71798 23.3123 8.69128 23.2641C8.66283 23.213 8.6547 23.1924 8.59084 23.0942C8.38358 22.7712 8.14787 22.4316 7.90752 22.0885L7.89069 22.0598Z" fill="#BF9444"/>
<path d="M8.96824 26.5875C8.96824 25.6629 7.51917 25.6629 7.51917 26.5875C7.51975 27.5126 8.96824 27.5126 8.96824 26.5875Z" fill="#BF9444"/>
<path d="M0.936794 52.0356C1.03317 51.1671 1.29732 50.162 1.85175 49.196C2.10139 48.7537 2.41605 48.3223 2.78006 47.9138C3.0657 47.5908 3.38675 47.2839 3.73682 46.9925C3.91621 46.8433 4.10257 46.6982 4.29706 46.56C4.82711 46.1859 5.3798 45.8693 5.93887 45.6186C6.49098 45.3673 7.06283 45.186 7.62597 45.0449C8.74703 44.7655 9.80248 44.6623 10.6873 44.6932C11.572 44.7231 12.2838 44.898 12.7564 45.081C13.2318 45.2594 13.4716 45.4247 13.4745 45.4184C13.4693 45.4241 13.2899 45.1952 12.8539 44.894C12.4254 44.59 11.7195 44.232 10.7749 44.0266C9.83674 43.8173 8.67214 43.7484 7.40478 43.9297C6.77371 44.0215 6.10259 44.1706 5.43611 44.4288C4.77021 44.6835 4.11883 45.0294 3.50518 45.466C3.45467 45.4998 3.40997 45.5365 3.36294 45.5738C2.98906 45.8486 2.64305 46.1498 2.32839 46.4745C1.6741 47.1531 1.15799 47.915 0.822424 48.694C0.291214 49.8907 0.184392 51.0793 0.254639 52.0247C0.326628 52.977 0.554207 53.7061 0.727213 54.1932C0.906024 54.6796 1.04071 54.9321 1.03665 54.9332C1.04013 54.9332 0.987302 54.6521 0.935052 54.1467C0.885705 53.643 0.836358 52.9076 0.936794 52.0356Z" fill="#BF9444"/>
<path d="M3.05353 45.2026C2.83641 44.5991 2.57167 44.0071 2.28488 43.4151C2.14148 43.1173 1.99286 42.8305 1.84597 42.5471C1.76818 42.3985 1.70664 42.2838 1.65033 42.1599C1.58995 42.0365 1.53944 41.9109 1.49067 41.7847C1.30083 41.2793 1.19227 40.7567 1.15105 40.249C1.07209 39.2365 1.27529 38.2991 1.64104 37.6061C2.00214 36.9085 2.52639 36.4674 2.92929 36.235C3.3351 35.9998 3.60622 35.9339 3.60216 35.9287C3.60332 35.935 3.32872 35.9115 2.84511 36.04C2.36906 36.1674 1.66484 36.5035 1.07558 37.2344C0.48631 37.9532 0.0462475 39.03 0.00386683 40.2685C-0.0181943 40.8846 0.0526336 41.5397 0.255248 42.1943C0.305757 42.3566 0.363232 42.519 0.431737 42.6825C0.496179 42.8431 0.578038 43.0072 0.641319 43.1409L1.05932 43.9973C1.33915 44.5744 1.60969 45.1326 1.83901 45.6667C1.92319 45.8606 1.99576 46.0511 2.06717 46.2387C2.38125 45.9151 2.72494 45.6139 3.09824 45.338C3.08198 45.2921 3.06921 45.2474 3.05353 45.2026Z" fill="#BF9444"/>
<path d="M2.8793 48.2499L2.97044 48.5878C3.03198 48.8127 3.0674 49.0399 3.08597 49.2636C3.12661 49.7111 3.08481 50.1396 2.99831 50.5211C2.82124 51.2881 2.43459 51.8491 2.10425 52.1715C1.77333 52.4996 1.52137 52.6213 1.52834 52.6259C1.52428 52.619 1.79772 52.5851 2.23372 52.3402C2.66565 52.0981 3.2555 51.5915 3.64041 50.7391C3.83141 50.3203 3.97655 49.8223 4.01777 49.2688C4.03867 48.994 4.03635 48.7043 4.00209 48.406C3.96552 48.1191 3.92778 47.8615 3.8796 47.5684C3.86682 47.4915 3.85057 47.4095 3.83315 47.3286C3.48598 47.6195 3.16493 47.9264 2.8793 48.2499Z" fill="#BF9444"/>
<path d="M22.6902 53.7452L22.5416 53.8995L22.4174 54.0211C21.9605 54.4439 21.4804 54.8127 20.9915 55.1202C20.0168 55.7375 19.0025 56.0897 18.1381 56.2027C17.2702 56.3209 16.5729 56.2159 16.1224 56.1012C15.6713 55.9848 15.4449 55.8677 15.4437 55.8723C15.4431 55.8677 15.6998 55.8735 16.1404 55.8167C16.5822 55.7582 17.2046 55.6262 17.889 55.3147C18.5723 55.0095 19.3126 54.5236 20.0371 53.8656C20.4005 53.5409 20.761 53.1726 21.1146 52.7705C21.1442 52.7372 21.1413 52.7378 21.1402 52.7366V52.7298C21.1396 52.7257 21.1384 52.7223 21.1378 52.7189C21.1355 52.7131 21.132 52.7091 21.128 52.7068C21.1204 52.7022 21.1111 52.7039 21.1065 52.7057L21.1042 52.7068C21.1042 52.7068 21.11 52.704 21.1111 52.6971C21.1111 52.6936 21.1105 52.689 21.1076 52.6844C21.1251 52.6793 20.9242 52.6661 20.8081 52.6621C20.2769 52.6431 19.7718 52.6753 19.3044 52.7573C18.3686 52.9196 17.5877 53.3189 17.0136 53.814C16.4324 54.3068 16.0533 54.8569 15.8083 55.2441C15.5651 55.636 15.4472 55.874 15.4449 55.8723C15.4478 55.8723 15.4466 55.6119 15.5256 55.1392C15.6132 54.6711 15.7799 53.9706 16.2821 53.1996C16.7674 52.4292 17.669 51.6272 18.8696 51.213C19.4641 51.0036 20.1143 50.8803 20.786 50.8441C20.9689 50.8367 21.0687 50.8298 21.3904 50.8395C21.6923 50.851 21.993 50.8803 22.2891 50.9198C22.5817 50.9594 22.8714 51.0145 23.1373 51.081L23.9152 51.2985L24.447 51.4488C24.1318 51.9094 23.8595 52.3357 23.5286 52.7785C23.3602 53 23.1762 53.2202 22.9863 53.4342C22.8882 53.5404 22.7907 53.6453 22.6902 53.7452Z" fill="#BF9444"/>
<path d="M18.1439 53.4794C19.0601 53.6545 18.7895 55.06 17.8734 54.8884C16.9544 54.7145 17.2249 53.3072 18.1439 53.4794Z" fill="#BF9444"/>
<path d="M25.8792 55.8534C24.9474 55.8741 24.9132 54.4405 25.8473 54.4204C26.7826 54.4003 26.8145 55.8334 25.8792 55.8534Z" fill="#BF9444"/>
<path d="M28.0865 49.9056C29.3945 49.8741 29.4421 51.881 28.1341 51.9091C26.8255 51.9378 26.7814 49.9338 28.0865 49.9056Z" fill="#BF9444"/>
<path d="M32.2794 52.4159C32.2886 52.4148 32.2167 53.5701 32.0686 54.1243C31.7783 55.0112 31.3841 55.9468 30.8088 56.6599C30.5777 56.9175 30.3258 57.1469 30.0558 57.3368C29.376 57.8244 28.605 58.0591 27.9054 58.1072C27.2053 58.1537 26.5655 58.0602 26.0111 57.8617C25.4607 57.6615 25.0172 57.3391 24.7118 56.9874C24.0929 56.2669 24.0204 55.5229 24.0215 55.0812C24.0325 54.6262 24.1074 54.4037 24.101 54.4031C24.1074 54.4025 24.0587 54.6406 24.1045 55.0961C24.1539 55.5344 24.3269 56.244 24.9736 56.8199C25.6012 57.3988 26.7182 57.6942 27.9333 57.4538C28.5313 57.3339 29.131 57.0569 29.625 56.5922C29.7121 56.5107 29.7893 56.4207 29.8695 56.3295C29.8608 56.3272 31.1345 54.7616 30.933 52.6419C30.9307 52.6064 31.0782 51.1257 29.9496 50.1361C29.1066 49.3984 27.7075 47.6298 22.829 47.8484C22.7722 47.9465 22.71 48.0434 22.6444 48.1381C22.5864 48.2178 22.5272 48.2947 22.461 48.371C22.4093 48.4301 22.3594 48.484 22.3089 48.5356C22.4401 48.5362 22.5719 48.5402 22.7031 48.5488C23.3405 48.5987 23.8967 48.7932 24.3931 49.0542C24.886 49.3204 25.3133 49.6675 25.6117 50.0799C25.9194 50.4826 26.0523 51.003 26.0128 51.3305C25.9838 51.6609 25.8932 51.7929 25.9014 51.7958C25.895 51.7992 25.9135 51.6179 25.8375 51.3735C25.7632 51.1286 25.5269 50.9467 25.2639 50.715C24.6143 50.1436 23.4514 49.7742 21.7173 49.777L19.7811 49.9646C19.6917 49.983 19.6017 49.999 19.5164 50.0122C18.7651 50.1166 17.5593 50.3197 17.5617 50.3243C17.5617 50.3209 18.7564 49.7243 19.3759 49.2705C19.7922 48.9664 20.3123 48.558 20.8453 48.0807C19.9553 48.2792 19.0966 48.6136 18.285 49.0456C17.7776 49.3192 17.1466 49.5011 16.6246 49.8126C18.2879 48.4019 20.1057 47.5059 21.8996 47.0349C21.9669 46.9471 22.0366 46.8536 22.1004 46.7572C22.2502 46.5421 22.3838 46.3109 22.4981 46.0832C22.7234 45.6254 22.8703 45.1774 22.8941 44.8028C22.9248 44.4259 22.8116 44.1046 22.6932 43.9084C22.5748 43.7076 22.4796 43.6124 22.4825 43.6101C22.4819 43.6147 22.5968 43.6095 22.8 43.7071C22.9951 43.7977 23.3109 44.0616 23.4555 44.6404C23.6041 45.2078 23.5513 45.9375 23.3556 46.6242C23.3434 46.6672 23.3277 46.7073 23.3156 46.7469C23.5855 46.7102 23.8543 46.6804 24.1196 46.6614C30.8042 46.1767 32.2532 51.4005 32.2794 52.4159Z" fill="#BF9444"/>
<path d="M38.7345 55.3583C40.554 54.826 42.6887 54.5535 44.8896 54.7542C45.1468 54.7755 45.4005 54.803 45.6542 54.8346C45.4701 54.7221 45.2722 54.6108 45.0504 54.5122C44.4664 54.2517 43.7459 54.0613 42.918 53.9741C41.2692 53.8037 39.1879 54.0142 36.9452 54.7015C36.3786 54.8741 35.8445 55.0921 35.221 55.3359C34.6062 55.5729 33.9618 55.8046 33.2726 56.0071C32.6689 56.181 32.0413 56.3416 31.3231 56.415C31.6755 55.8454 31.9629 55.2482 32.1725 54.6269C32.4279 54.5839 32.6845 54.5374 32.9359 54.484C33.5879 54.3395 34.2213 54.1657 34.8378 53.9821C35.4433 53.7979 36.1029 53.6 36.7148 53.4755C39.1879 52.9598 41.3848 52.9747 43.1096 53.3568C43.97 53.5513 44.7079 53.8444 45.2855 54.1984C45.6571 54.4244 45.952 54.6711 46.1941 54.9149C47.8893 55.1776 49.4516 55.6262 50.8722 55.9676C51.7674 56.1838 52.6151 56.3542 53.4139 56.4489C54.2151 56.5452 54.9663 56.5613 55.6525 56.5154C57.0256 56.4282 58.1205 56.1092 58.8601 55.8626C59.6009 55.6096 59.9986 55.426 59.9992 55.4295C59.9974 55.4266 59.6334 55.6658 58.9222 56.014C58.2145 56.3554 57.1399 56.8114 55.7112 57.0415C54.9994 57.1556 54.2052 57.2044 53.3564 57.1677C52.5077 57.1332 51.6078 57.0093 50.6853 56.8378C49.5085 56.6192 48.2882 56.333 47.0231 56.107C47.0289 56.1207 47.0347 56.1339 47.0411 56.1477C47.0173 56.1414 46.9935 56.1368 46.9668 56.1316C46.9587 56.119 46.9523 56.107 46.943 56.0943C46.2417 55.971 45.5282 55.866 44.7984 55.8046C42.7171 55.6176 40.7305 55.8069 38.9604 56.2194C37.1844 56.6261 35.5972 57.1854 34.2149 57.5176C32.8326 57.8641 31.6749 57.9788 30.8819 57.9828C30.0894 57.9869 29.6558 57.922 29.6552 57.9266C29.6459 57.9083 31.4381 57.9559 34.0605 57.0128C35.3777 56.5636 36.9087 55.8827 38.7345 55.3583Z" fill="#BF9444"/>
<path d="M39.6001 52.432C39.3139 52.292 38.9261 52.1962 38.4663 52.1813C38.0036 52.1675 37.4654 52.2352 36.8698 52.3666C35.6715 52.6208 34.2642 53.1681 32.5005 53.6466C32.4848 53.6501 32.468 53.6535 32.4535 53.6569C32.5017 53.4567 32.5377 53.2536 32.5597 53.0482C32.5603 53.0442 32.5621 53.0413 32.5626 53.0373C32.5638 53.0178 32.5626 53.0023 32.5638 52.9863C32.583 52.7912 32.5922 52.5904 32.5882 52.3844C32.5882 52.3787 32.5859 52.3747 32.5847 52.3695C34.1911 52.1176 35.6257 51.7918 36.8402 51.7246C37.4811 51.6822 38.0617 51.7028 38.554 51.8049C39.0463 51.9031 39.4434 52.0889 39.7151 52.2863C39.9885 52.4877 40.1459 52.6896 40.2411 52.8256C40.3357 52.9627 40.3717 53.0402 40.3729 53.0402C40.3717 53.0408 40.32 52.969 40.2004 52.8509C40.0803 52.7338 39.8875 52.5697 39.6001 52.432Z" fill="#BF9444"/>
<path d="M27.5809 52.9547C27.3254 52.6679 27.1362 52.354 26.9875 52.0276C27.2122 52.4223 27.6262 52.7098 28.2253 52.6971C28.7014 52.6868 29.0526 52.4889 29.2802 52.2043C29.4183 52.2909 29.5815 52.3621 29.7661 52.4137C30.0105 52.4837 30.2834 52.5158 30.5661 52.5279C30.706 53.2009 30.4639 54.0752 30.4639 54.0752C29.6697 53.8957 28.0691 53.509 27.5809 52.9547Z" fill="#BF9444"/>
<path d="M29.4276 56.1403C29.1135 55.9636 28.8558 55.6859 28.7089 55.3509C28.6322 55.1828 28.5893 55.0026 28.5643 54.8173C28.5411 54.628 28.5399 54.2757 28.1788 53.9573L30.4343 54.539C30.4279 54.5867 29.9153 55.8127 29.5356 56.1988C29.4996 56.181 29.4642 56.1615 29.4276 56.1403Z" fill="#BF9444"/>
<path d="M35.2547 47.5857C35.2483 47.5851 35.2605 47.5805 35.2245 47.5851L35.0718 47.6035C34.9702 47.619 34.8738 47.6339 34.7804 47.6511C34.4111 47.7194 34.1249 47.8318 33.9351 48.0103C33.7435 48.1835 33.6547 48.4302 33.6146 48.6064C33.5722 48.7825 33.5653 48.8921 33.5635 48.8915C33.5653 48.8904 33.5066 48.8014 33.4428 48.615C33.3865 48.4314 33.3121 48.117 33.4706 47.7245C33.5455 47.5352 33.6825 47.3419 33.8619 47.1824C34.0384 47.0217 34.2526 46.8869 34.482 46.7842C34.5969 46.7308 34.7159 46.6861 34.8384 46.6436C34.8982 46.6241 34.9609 46.6063 35.0219 46.5903C35.0434 46.5834 35.1136 46.5691 35.1647 46.5582L35.3354 46.5237C35.7981 46.4434 36.2585 46.4205 36.745 46.3792L36.7351 46.4176C36.5969 46.9053 36.4611 47.3843 36.3212 47.8227C36.2794 47.9558 36.266 47.9827 36.2376 48.0476C36.2138 48.1078 36.1894 48.164 36.1638 48.2231C36.1093 48.3367 36.0518 48.4486 35.985 48.5559C35.855 48.7722 35.6977 48.9724 35.5125 49.1285C35.3307 49.2857 35.1229 49.3952 34.9313 49.4538C34.5365 49.5697 34.2335 49.5066 34.0431 49.4601C33.8521 49.4056 33.7569 49.3562 33.7557 49.358C33.7551 49.3562 33.8648 49.3396 34.0425 49.288C34.2213 49.2392 34.4744 49.1468 34.6823 48.9684C34.8895 48.7871 35.0323 48.5249 35.1426 48.1669C35.1722 48.0774 35.1978 47.985 35.2222 47.8852L35.2588 47.7332C35.2686 47.6878 35.293 47.5995 35.2808 47.6218C35.2692 47.6069 35.2582 47.6178 35.2582 47.6178C35.2588 47.6167 35.2692 47.6041 35.2599 47.5909L35.2547 47.5857Z" fill="#BF9444"/>
<path d="M31.8828 49.1194C31.985 49.2359 32.0593 49.2933 32.0582 49.2939C32.0582 49.2921 31.9659 49.2904 31.8033 49.2422C31.6466 49.1929 31.3865 49.0873 31.1891 48.7855C31.0915 48.6392 31.0248 48.4493 30.9975 48.2485C30.9714 48.0454 30.983 47.832 31.023 47.6249C31.0434 47.5199 31.0689 47.4143 31.1003 47.3105C31.1159 47.26 31.1328 47.2066 31.1542 47.1561C31.1595 47.1395 31.1833 47.0816 31.1995 47.042L31.2599 46.9083C31.4312 46.5491 31.6437 46.2181 31.8538 45.8635L31.8765 45.8876C32.1522 46.2244 32.4216 46.5549 32.6625 46.867C32.7368 46.9634 32.7473 46.9846 32.7804 47.0362C32.8088 47.081 32.8367 47.1257 32.8663 47.1739C32.9197 47.268 32.9708 47.361 33.0149 47.4596C33.1038 47.6564 33.1647 47.8658 33.1845 48.0678C33.2048 48.2726 33.181 48.4706 33.1276 48.6318C33.0149 48.9594 32.8204 49.1378 32.6933 49.2457C32.5621 49.353 32.4779 49.392 32.4791 49.3931C32.4768 49.3931 32.5209 49.3116 32.5731 49.1602C32.6265 49.0144 32.6863 48.7941 32.6608 48.5618C32.6382 48.3294 32.5238 48.1034 32.3241 47.8492C32.2765 47.7872 32.2207 47.7218 32.1644 47.657L32.0744 47.5555C32.0495 47.5279 31.9995 47.4682 32.0088 47.4837C31.992 47.4855 31.992 47.5004 31.992 47.5004C31.9926 47.4998 31.9897 47.4843 31.9752 47.4843L31.9694 47.4855C31.9653 47.4923 31.9682 47.4786 31.9543 47.5084L31.8933 47.6237C31.8515 47.6977 31.8155 47.7729 31.783 47.8435C31.6506 48.1343 31.5868 48.3874 31.6181 48.6054C31.6489 48.824 31.7789 49.0053 31.8828 49.1194Z" fill="#BF9444"/>
<path d="M37.5827 50.641C37.242 50.8734 36.9226 51.1006 36.572 51.294L36.4419 51.3645C36.403 51.384 36.3467 51.411 36.3299 51.4179C36.2811 51.4397 36.2283 51.4603 36.1784 51.4821C36.0756 51.5206 35.9723 51.5538 35.8678 51.5825C35.6617 51.6393 35.4475 51.6686 35.2431 51.6617C35.0376 51.6565 34.8448 51.6101 34.6921 51.5315C34.3769 51.3726 34.2556 51.1379 34.1963 50.9945C34.1354 50.8424 34.1278 50.7581 34.1261 50.7581C34.1267 50.7575 34.1888 50.8195 34.3136 50.9084C34.4344 50.9962 34.6248 51.1018 34.8472 51.1098C35.0678 51.1207 35.318 51.0375 35.599 50.8872C35.6704 50.8476 35.7412 50.8069 35.8155 50.7632L35.9276 50.6933C35.9537 50.6772 35.9432 50.6812 35.9473 50.6772V50.6715C35.9461 50.6583 35.9334 50.6571 35.9328 50.6577C35.9328 50.6577 35.9444 50.6565 35.9456 50.6428C35.9624 50.6502 35.902 50.6055 35.8695 50.5842L35.7627 50.5108C35.6942 50.4609 35.6251 50.4173 35.5601 50.3748C35.2953 50.2113 35.0591 50.1235 34.8234 50.1224C34.5894 50.1195 34.3717 50.1976 34.2283 50.2584C34.0831 50.3232 34.0001 50.3691 34.0001 50.368C34.0013 50.3685 34.0361 50.2888 34.1354 50.1551C34.2358 50.0249 34.403 49.8269 34.7258 49.691C34.8837 49.6238 35.0811 49.5837 35.2861 49.5842C35.4922 49.5848 35.7052 49.6238 35.9084 49.691C36.0071 49.7231 36.1064 49.7615 36.2045 49.8063C36.2521 49.8269 36.3015 49.8499 36.3479 49.8722C36.403 49.9021 36.4245 49.9101 36.525 49.9692C36.853 50.1689 37.2019 50.3943 37.5566 50.625L37.5827 50.641Z" fill="#BF9444"/>
<path d="M32.9859 49.6773C33.9177 49.6549 33.9525 51.0874 33.0178 51.1109C32.0825 51.131 32.0512 49.6973 32.9859 49.6773Z" fill="#BF9444"/>
<path d="M7.44253 58.1892C8.31859 58.0728 9.33108 57.7917 10.2931 57.2198C10.7349 56.9627 11.1639 56.6444 11.5685 56.2738C11.889 55.9846 12.1921 55.6605 12.476 55.3077C12.6252 55.127 12.7686 54.9389 12.9032 54.7438C13.2702 54.212 13.575 53.6578 13.8165 53.0997C14.0574 52.5467 14.2287 51.9782 14.3593 51.4188C14.6176 50.3048 14.6977 49.2555 14.6449 48.3836C14.5962 47.5093 14.4028 46.8094 14.2095 46.3459C14.0168 45.8801 13.8443 45.646 13.8501 45.6426C13.8449 45.6472 14.0789 45.8204 14.393 46.2421C14.7099 46.662 15.0873 47.3498 15.3178 48.2786C15.55 49.205 15.6429 50.3518 15.4896 51.6127C15.4107 52.2392 15.2742 52.9029 15.0281 53.5707C14.7854 54.2321 14.4528 54.8866 14.026 55.5028C13.9924 55.551 13.9552 55.5986 13.9192 55.6456C13.6493 56.0214 13.3526 56.3701 13.0321 56.688C12.3604 57.35 11.6016 57.8789 10.8237 58.2294C9.62368 58.7778 8.42425 58.9115 7.46749 58.8633C6.50318 58.8157 5.76123 58.6069 5.26544 58.444C4.76964 58.2776 4.51129 58.1531 4.51013 58.1554C4.51013 58.1531 4.79519 58.1961 5.30956 58.2397C5.82219 58.2742 6.56414 58.3068 7.44253 58.1892Z" fill="#BF9444"/>
<path d="M14.3007 55.9429C14.9172 56.1419 15.5216 56.3909 16.1265 56.6635C16.4301 56.7989 16.7233 56.9377 17.0136 57.076C17.1651 57.1511 17.2818 57.2079 17.409 57.2642C17.5349 57.3175 17.6632 57.3674 17.7915 57.411C18.3065 57.5877 18.84 57.6836 19.3515 57.7099C20.3768 57.7685 21.3196 57.5441 22.0122 57.1678C22.7094 56.7948 23.1437 56.267 23.3701 55.8637C23.5983 55.4569 23.6592 55.1878 23.6645 55.1907C23.6575 55.1895 23.6848 55.4609 23.5658 55.9423C23.4491 56.4162 23.1263 57.1196 22.4006 57.7185C21.6865 58.3175 20.6084 58.7759 19.3602 58.8471C18.7379 58.8832 18.0714 58.8264 17.4078 58.6411C17.2394 58.5958 17.0746 58.5413 16.9108 58.4799C16.7442 58.4174 16.5764 58.3428 16.4406 58.2802L15.5657 57.8884C14.9758 57.625 14.4057 57.3686 13.8606 57.154C13.6632 57.0748 13.4705 57.0066 13.2777 56.9406C13.5988 56.6233 13.8948 56.2739 14.1654 55.8987C14.2118 55.9136 14.2565 55.9279 14.3007 55.9429Z" fill="#BF9444"/>
<path d="M11.2265 56.1842L10.8829 56.0988C10.6518 56.0437 10.4231 56.0133 10.1972 55.9995C9.74438 55.972 9.31128 56.0196 8.9287 56.1171C8.15714 56.3087 7.59864 56.7034 7.27992 57.0373C6.95538 57.374 6.83869 57.6241 6.83289 57.6196C6.84043 57.623 6.8683 57.3494 7.10633 56.9134C7.34145 56.4814 7.84073 55.8865 8.69067 55.4872C9.11273 55.2859 9.61201 55.1344 10.1688 55.0799C10.4492 55.053 10.7418 55.0478 11.0437 55.0759C11.3351 55.1086 11.5958 55.1373 11.893 55.1786C11.9708 55.1895 12.0544 55.2067 12.1369 55.2193C11.8501 55.571 11.547 55.8922 11.2265 56.1842Z" fill="#BF9444"/>
</svg>
