<svg width="148" height="147" viewBox="0 0 148 147" fill="none" xmlns="http://www.w3.org/2000/svg">
<path d="M130.528 25.6263C133.378 24.044 136.435 21.5627 139.175 18.2267C140.54 16.553 141.831 14.6692 142.928 12.5353C143.477 11.4647 143.975 10.327 144.38 9.1135L144.551 8.57751L144.779 7.74565C144.915 7.18822 145.029 6.6308 145.106 6.07908C145.254 4.98995 145.331 3.95228 145.444 2.8217L145.417 2.81884C144.299 2.72165 143.288 2.60588 142.209 2.54156C141.662 2.52155 141.1 2.5387 140.531 2.59158C140.245 2.62446 139.964 2.6459 139.673 2.68877L139.244 2.75595L138.976 2.80312C137.667 3.06182 136.453 3.47632 135.311 3.95085C133.034 4.92135 131.079 6.19343 129.37 7.54555C125.958 10.2755 123.544 13.3771 121.926 16.17C120.308 18.9686 119.519 21.4798 119.155 23.205C118.795 24.9459 118.804 25.9178 118.791 25.9164C118.823 25.9693 119.915 22.0773 123.866 17.5292C125.817 15.2767 128.452 12.854 131.701 10.7915C133.319 9.77098 135.098 8.83335 136.971 8.16444C137.908 7.83284 138.873 7.5627 139.826 7.40977L139.983 7.38547L139.975 7.38976C139.973 7.39262 139.977 7.39404 139.977 7.39547L139.978 7.40405C139.978 7.40834 139.975 7.40977 139.975 7.40977C139.975 7.40977 139.978 7.40834 139.983 7.40834L139.99 7.4112L139.993 7.41405L139.914 7.69849C139.619 8.67184 139.254 9.63805 138.84 10.5771C138.008 12.4638 137.007 14.2304 135.951 15.8584C133.828 19.1101 131.458 21.7771 129.186 23.6753C126.927 25.5905 124.738 26.6954 123.11 27.1785C121.486 27.663 120.482 27.6373 120.488 27.6587C120.488 27.633 121.432 27.966 123.236 27.9031C125.035 27.8502 127.676 27.2342 130.528 25.6263Z" fill="#BF9444"/>
<path d="M118.97 29.7456C118.97 27.4413 115.404 27.4413 115.404 29.7456C115.404 32.0513 118.97 32.0513 118.97 29.7456Z" fill="#BF9444"/>
<path d="M127.068 17.1332C127.068 20.3592 132.073 20.3592 132.073 17.1332C132.075 13.9087 127.068 13.9087 127.068 17.1332Z" fill="#BF9444"/>
<path d="M106.702 43.7685C106.844 43.7428 107.049 43.7127 107.106 43.6956C107.287 43.6513 107.461 43.6084 107.638 43.5598C107.987 43.4655 108.328 43.3468 108.659 43.2168C109.319 42.9495 109.939 42.6007 110.464 42.1691C110.991 41.7317 111.402 41.2 111.647 40.6712C112.146 39.5778 111.98 38.6673 111.848 38.137C111.693 37.591 111.54 37.3309 111.544 37.328C111.541 37.3266 111.506 37.6353 111.361 38.1384C111.226 38.633 110.94 39.3219 110.371 39.7964C109.814 40.2724 108.987 40.5511 107.937 40.7041C107.672 40.7398 107.398 40.7698 107.112 40.7927L106.678 40.8227C106.569 40.8327 106.605 40.8213 106.586 40.817L106.575 40.8012C106.551 40.7627 106.581 40.7341 106.582 40.7326C106.582 40.7326 106.551 40.7541 106.519 40.7169C106.49 40.7727 106.562 40.5225 106.596 40.4025L106.725 39.9694C106.808 39.6892 106.893 39.4234 106.989 39.179C107.347 38.1699 107.786 37.4438 108.399 36.9593C109.009 36.4762 109.743 36.2518 110.244 36.1288C110.761 36.0131 111.07 35.9802 111.069 35.9759C111.067 35.9802 110.805 35.8187 110.27 35.6472C109.744 35.4814 108.893 35.2698 107.768 35.5371C107.212 35.6786 106.612 35.9616 106.079 36.3847C105.537 36.8106 105.058 37.3523 104.665 37.9498C104.463 38.2485 104.287 38.5644 104.116 38.886C104.034 39.0418 103.957 39.2061 103.876 39.3662C103.794 39.5563 103.755 39.6221 103.611 39.9937C103.157 41.2286 102.701 42.5793 102.246 43.9457L102.213 44.0529C103.588 44.0115 104.899 44.0072 106.214 43.8357L106.702 43.7685Z" fill="#BF9444"/>
<path d="M117.958 42.9367C118.011 42.8238 118.085 42.6651 118.108 42.6179C118.168 42.4764 118.223 42.3292 118.274 42.1863C118.379 41.8947 118.47 41.5989 118.539 41.303C118.677 40.7113 118.745 40.1052 118.695 39.5249C118.649 38.9461 118.488 38.3944 118.234 37.9613C117.716 37.0808 117.003 36.7392 116.561 36.5763C116.11 36.4105 115.851 36.3933 115.851 36.389C115.85 36.3905 116.049 36.5706 116.329 36.915C116.606 37.2538 116.947 37.7926 116.994 38.4215C117.054 39.0461 116.838 39.7608 116.425 40.5655C116.325 40.7699 116.208 40.9771 116.085 41.1829L115.888 41.5031C115.845 41.586 115.855 41.5488 115.843 41.5631H115.827C115.787 41.5617 115.781 41.5202 115.782 41.5188C115.784 41.5188 115.782 41.5531 115.741 41.5588C115.764 41.6103 115.623 41.4331 115.558 41.3487L115.317 41.05C115.168 40.8513 115.021 40.6627 114.895 40.4754C114.369 39.7265 114.078 39.0618 114.045 38.3972C114.007 37.734 114.211 37.1166 114.375 36.7006C114.548 36.2847 114.674 36.0517 114.671 36.0503C114.673 36.0532 114.432 36.1589 114.047 36.4419C113.674 36.7306 113.104 37.218 112.742 38.1371C112.562 38.593 112.469 39.1462 112.497 39.7308C112.525 40.3168 112.668 40.9185 112.89 41.4888C113.006 41.7747 113.132 42.0548 113.271 42.3278C113.345 42.4679 113.418 42.5979 113.493 42.7294C113.587 42.8838 113.613 42.9438 113.802 43.2268C114.436 44.153 115.158 45.1307 115.887 46.1312L115.941 46.2026C116.594 45.2236 117.237 44.3102 117.763 43.3054L117.958 42.9367Z" fill="#BF9444"/>
<path d="M110.105 33.6544C110.404 33.2885 110.514 33.0584 110.517 33.0613C110.516 33.057 110.286 33.1842 109.861 33.3414C109.447 33.5015 108.824 33.6873 108.166 33.6473C107.498 33.6116 106.845 33.33 106.122 32.824C105.937 32.7011 105.755 32.5667 105.563 32.4152L105.271 32.1851C105.191 32.1208 105.019 31.9936 105.067 32.015C105.069 31.975 105.104 31.975 105.104 31.975C105.102 31.975 105.067 31.9707 105.065 31.925L105.068 31.9078C105.078 31.8978 105.048 31.9078 105.125 31.8649L105.449 31.6848C105.665 31.5634 105.876 31.4576 106.082 31.3633C106.895 30.9673 107.617 30.7715 108.237 30.833C108.862 30.8816 109.389 31.2118 109.718 31.4762C110.05 31.7463 110.218 31.9321 110.219 31.9293C110.215 31.9307 110.205 31.6877 110.062 31.2489C109.907 30.833 109.596 30.1455 108.731 29.6481C108.312 29.4037 107.769 29.2393 107.192 29.1964C106.616 29.1493 106.01 29.205 105.416 29.3408C105.118 29.4051 104.822 29.4852 104.527 29.5895C104.383 29.6381 104.233 29.6895 104.091 29.7439C104.043 29.761 103.881 29.831 103.768 29.8882L103.392 30.064C102.374 30.5686 101.443 31.1774 100.445 31.792L100.514 31.8435C101.481 32.5467 102.433 33.2414 103.337 33.8531C103.61 34.0346 103.677 34.0675 103.821 34.1504C103.955 34.2233 104.084 34.2919 104.214 34.3662C104.482 34.4991 104.757 34.6221 105.039 34.7321C105.602 34.9408 106.196 35.088 106.778 35.1195C107.359 35.1495 107.921 35.0623 108.375 34.8922C109.301 34.552 109.805 34.0103 110.105 33.6544Z" fill="#BF9444"/>
<path d="M135.456 54.8469L135.831 54.4725L136.12 54.1509C137.157 53.0088 138.051 51.8068 138.784 50.5862C140.27 48.1421 141.092 45.6265 141.326 43.4897C141.575 41.3457 141.274 39.6334 140.964 38.5286C140.65 37.4237 140.342 36.872 140.356 36.8691C140.344 36.8677 140.374 37.4995 140.249 38.5943C140.134 39.6792 139.839 41.2199 139.098 42.9237C138.376 44.6303 137.203 46.4812 135.609 48.3021C134.813 49.2155 133.915 50.1245 132.938 51.0164C132.858 51.0907 132.86 51.085 132.855 51.0821H132.838C132.827 51.0807 132.818 51.0793 132.808 51.0764C132.789 51.0707 132.779 51.0636 132.775 51.0536C132.764 51.035 132.766 51.0121 132.769 51.0021L132.771 50.9964C132.771 50.9964 132.762 51.0107 132.746 51.0135C132.738 51.015 132.726 51.0135 132.714 51.0064C132.702 51.0507 132.665 50.5476 132.649 50.266C132.573 48.9625 132.62 47.7161 132.798 46.5584C133.152 44.2386 134.105 42.2991 135.31 40.8498C136.506 39.3919 137.849 38.4271 138.803 37.8025C139.774 37.1822 140.361 36.8791 140.355 36.8734C140.356 36.882 139.699 36.892 138.525 37.1193C137.369 37.3551 135.632 37.8096 133.737 39.0817C131.841 40.3195 129.892 42.5921 128.931 45.5736C128.435 47.0501 128.162 48.658 128.115 50.316C128.107 50.7663 128.094 51.0121 128.137 51.8082C128.181 52.5458 128.264 53.2933 128.386 54.0136C128.5 54.7326 128.655 55.4415 128.834 56.0947L129.418 57.9986L129.829 59.3006C130.955 58.4988 132.002 57.8056 133.087 56.9652C133.63 56.5307 134.168 56.0718 134.693 55.5873C134.955 55.3386 135.204 55.0999 135.456 54.8469Z" fill="#BF9444"/>
<path d="M134.54 43.6558C135.025 45.9087 138.514 45.161 138.037 42.9096C137.552 40.6582 134.062 41.4059 134.54 43.6558Z" fill="#BF9444"/>
<path d="M140.885 62.5913C140.885 60.287 137.311 60.287 137.311 62.5913C137.311 64.887 140.885 64.887 140.885 62.5913Z" fill="#BF9444"/>
<path d="M126.175 68.3595C126.175 71.5841 131.18 71.5841 131.18 68.3595C131.18 65.135 126.175 65.135 126.175 68.3595Z" fill="#BF9444"/>
<path d="M132.674 78.5462C132.67 78.5691 135.547 78.329 136.914 77.9331C139.108 77.1627 141.419 76.1464 143.167 74.6857C143.795 74.1011 144.355 73.4679 144.813 72.7933C145.992 71.091 146.536 69.18 146.612 67.4534C146.697 65.7254 146.429 64.1531 145.896 62.7996C145.368 61.4532 144.54 60.3784 143.653 59.6465C141.815 58.1601 139.956 58.0214 138.86 58.05C137.723 58.1086 137.173 58.2987 137.172 58.283C137.171 58.2987 137.762 58.1729 138.901 58.253C139.996 58.3516 141.775 58.7389 143.247 60.3012C144.723 61.8162 145.527 64.5519 144.995 67.5592C144.728 69.0385 144.07 70.5321 142.937 71.7742C142.74 71.9943 142.519 72.1958 142.296 72.3917C142.29 72.3702 138.454 75.6019 133.168 75.2202C133.071 75.216 129.389 75.6619 126.864 72.9334C124.975 70.8966 120.484 67.552 120.765 55.5216C121.006 55.3772 121.243 55.2186 121.477 55.0442C121.666 54.9041 121.862 54.7469 122.047 54.5868C122.191 54.4482 122.323 54.3295 122.449 54.2038C122.459 54.5268 122.475 54.8512 122.503 55.1728C122.662 56.7393 123.177 58.1 123.86 59.3092C124.544 60.5084 125.432 61.5375 126.476 62.2493C127.504 62.9854 128.802 63.2841 129.624 63.1741C130.444 63.0797 130.769 62.8482 130.776 62.8668C130.785 62.8539 130.327 62.9082 129.714 62.7353C129.1 62.5695 128.64 61.9992 128.046 61.3589C126.579 59.7909 125.6 56.9523 125.509 52.6787L125.866 47.8977C125.91 47.669 125.95 47.446 125.976 47.2359C126.19 45.3792 126.631 42.3977 126.642 42.4048C126.633 42.4048 125.21 45.3792 124.122 46.9315C123.377 47.9806 122.396 49.2769 121.233 50.6233C121.674 48.4136 122.462 46.2783 123.494 44.2572C124.149 42.9909 124.568 41.4243 125.315 40.1294C121.889 44.3044 119.752 48.831 118.676 53.279C118.468 53.4505 118.237 53.6263 118.001 53.7878C117.464 54.1637 116.904 54.5096 116.341 54.8041C115.21 55.3915 114.103 55.7703 113.171 55.8489C112.234 55.9446 111.426 55.6917 110.931 55.4101C110.424 55.1285 110.183 54.9013 110.178 54.907C110.188 54.9041 110.182 55.1885 110.436 55.6845C110.672 56.1533 111.349 56.9252 112.798 57.2482C114.222 57.5769 116.038 57.4068 117.739 56.888C117.846 56.8508 117.945 56.8137 118.044 56.7808C117.965 57.4454 117.907 58.1129 117.874 58.7675C117.032 75.2588 130.141 78.5377 132.674 78.5462Z" fill="#BF9444"/>
<path d="M140.366 94.283C139.142 98.7953 138.581 104.077 139.201 109.488C139.267 110.12 139.351 110.743 139.45 111.362C139.153 110.92 138.864 110.438 138.606 109.891C137.919 108.466 137.412 106.708 137.15 104.674C136.629 100.615 137.04 95.4778 138.635 89.9193C139.027 88.5143 139.541 87.1864 140.117 85.6299C140.674 84.102 141.213 82.5026 141.685 80.7917C142.079 79.2967 142.451 77.7402 142.589 75.9664C141.187 76.8669 139.715 77.613 138.177 78.1561C138.089 78.795 137.989 79.4296 137.862 80.0514C137.544 81.6593 137.146 83.2301 136.72 84.7581C136.294 86.2603 135.842 87.9025 135.566 89.419C134.413 95.5364 134.571 100.946 135.622 105.173C136.155 107.288 136.924 109.091 137.839 110.487C138.423 111.392 139.055 112.112 139.673 112.695C140.426 116.849 141.629 120.674 142.559 124.164C143.146 126.349 143.617 128.429 143.895 130.397C144.178 132.361 144.266 134.212 144.189 135.906C144.047 139.293 143.311 142.007 142.735 143.844C142.148 145.684 141.715 146.68 141.724 146.681C141.715 146.677 142.291 145.766 143.122 143.996C143.928 142.226 145.006 139.553 145.502 136.021C145.742 134.262 145.828 132.301 145.684 130.213C145.552 128.123 145.198 125.921 144.716 123.648C144.108 120.761 143.321 117.772 142.689 114.665C142.724 114.679 142.762 114.693 142.798 114.706C142.781 114.649 142.768 114.589 142.751 114.532C142.716 114.512 142.686 114.496 142.653 114.469C142.308 112.754 142.007 110.997 141.813 109.201C141.234 104.088 141.596 99.1797 142.529 94.7918C143.447 90.3938 144.748 86.4546 145.5 83.03C146.284 79.6054 146.508 76.7468 146.474 74.793C146.443 72.8405 146.256 71.7743 146.266 71.7743C146.221 71.7514 146.444 76.1651 144.227 82.6841C143.182 85.9458 141.574 89.7563 140.366 94.283Z" fill="#BF9444"/>
<path d="M133.115 96.5815C132.753 95.884 132.488 94.9349 132.432 93.8015C132.374 92.6623 132.505 91.3331 132.8 89.8566C133.367 86.8894 134.658 83.3933 135.749 79.0153C135.756 78.9796 135.763 78.9424 135.772 78.9053C135.282 79.0268 134.778 79.134 134.26 79.2011C134.25 79.2026 134.242 79.2083 134.232 79.2083C134.192 79.2126 134.152 79.2111 134.112 79.2154C133.621 79.274 133.121 79.3083 132.613 79.3083C132.598 79.3083 132.588 79.3026 132.576 79.2998C132.036 83.2718 131.3 86.8236 131.199 89.8194C131.135 91.406 131.218 92.8296 131.499 94.0373C131.771 95.2451 132.253 96.2142 132.76 96.8716C133.277 97.5334 133.79 97.9107 134.134 98.138C134.482 98.3653 134.676 98.4482 134.675 98.4524C134.678 98.4496 134.497 98.3252 134.195 98.0365C133.896 97.7492 133.476 97.2833 133.115 96.5815Z" fill="#BF9444"/>
<path d="M133.757 66.9388C133.03 66.3256 132.235 65.8754 131.413 65.5281C132.408 66.0598 133.149 67.0574 133.149 68.5339C133.149 69.7145 132.675 70.5907 131.977 71.1667C132.204 71.5026 132.388 71.9013 132.53 72.353C132.712 72.9519 132.809 73.6208 132.858 74.3183C134.538 74.627 136.703 73.9824 136.703 73.9824C136.216 72.0357 135.162 68.1123 133.757 66.9388Z" fill="#BF9444"/>
<path d="M141.799 71.3168C141.342 70.5464 140.634 69.9247 139.792 69.5816C139.368 69.4015 138.919 69.3058 138.453 69.2615C137.981 69.2143 137.101 69.23 136.288 68.3582L137.86 73.8753C137.987 73.8567 141.008 72.5332 141.95 71.5784C141.905 71.4826 141.856 71.3969 141.799 71.3168Z" fill="#BF9444"/>
<path d="M120.799 86.1475C120.798 86.1304 120.782 86.1618 120.796 86.0732L120.834 85.6959C120.861 85.4457 120.892 85.207 120.928 84.9755C121.081 84.0622 121.345 83.3504 121.78 82.873C122.201 82.3913 122.813 82.1583 123.249 82.044C123.686 81.9354 123.958 81.9125 123.957 81.9096C123.954 81.9139 123.729 81.7681 123.261 81.6266C122.798 81.498 122.012 81.3322 121.041 81.7367C120.573 81.9397 120.099 82.287 119.711 82.7372C119.32 83.1803 119.002 83.7163 118.751 84.2866C118.624 84.5724 118.518 84.8683 118.428 85.1727C118.378 85.32 118.335 85.4772 118.297 85.6273C118.282 85.6844 118.25 85.8559 118.224 85.986L118.154 86.4034C117.974 87.5482 117.941 88.6903 117.872 89.8909L117.962 89.858C119.171 89.4907 120.357 89.1305 121.448 88.7603C121.779 88.6417 121.837 88.6088 122.005 88.5416C122.147 88.4802 122.286 88.4173 122.432 88.3429C122.715 88.21 122.992 88.0556 123.258 87.8927C123.785 87.5625 124.275 87.1552 124.653 86.6964C125.042 86.2333 125.299 85.723 125.435 85.2399C125.701 84.268 125.526 83.5176 125.4 83.0574C125.254 82.5828 125.127 82.3513 125.131 82.3484C125.127 82.347 125.091 82.6171 124.972 83.0659C124.859 83.5019 124.644 84.1308 124.21 84.6525C123.771 85.1799 123.125 85.5458 122.238 85.8374C122.024 85.9088 121.787 85.9832 121.541 86.0489L121.164 86.1461C121.051 86.1747 120.839 86.2319 120.888 86.2061C120.856 86.1775 120.875 86.1504 120.875 86.1504C120.874 86.1518 120.849 86.179 120.814 86.1561L120.799 86.1475Z" fill="#BF9444"/>
<path d="M124.434 77.7487C124.728 78.0017 124.877 78.1818 124.877 78.1775C124.872 78.1775 124.864 77.9517 124.735 77.5472C124.597 77.1642 124.32 76.5338 123.563 76.0593C123.188 75.8335 122.714 75.6734 122.207 75.6219C121.703 75.5705 121.175 75.6091 120.652 75.7163C120.39 75.7735 120.131 75.8449 119.872 75.9278C119.746 75.9693 119.622 76.015 119.491 76.0636C119.449 76.0836 119.313 76.1465 119.209 76.1879L118.879 76.3423C117.993 76.7854 117.185 77.3271 116.312 77.8645L116.373 77.9203C117.227 78.5792 118.059 79.2266 118.858 79.8027C119.101 79.9799 119.153 80.0042 119.279 80.0842C119.398 80.1514 119.511 80.2186 119.632 80.2886C119.863 80.4158 120.106 80.5316 120.354 80.6388C120.85 80.8403 121.367 80.9861 121.878 81.0233C122.391 81.0619 122.875 80.9933 123.28 80.8446C124.085 80.5488 124.526 80.0685 124.786 79.7483C125.047 79.4196 125.142 79.2124 125.143 79.2124C125.143 79.2095 124.935 79.3138 124.569 79.4568C124.206 79.5897 123.661 79.7555 123.081 79.7069C122.501 79.6554 121.924 79.3924 121.285 78.9165C121.129 78.8021 120.963 78.6692 120.798 78.5334L120.54 78.319C120.463 78.259 120.32 78.1318 120.359 78.1532C120.363 78.1175 120.391 78.1161 120.391 78.1161C120.39 78.1175 120.359 78.1118 120.357 78.0761L120.359 78.0618C120.369 78.0532 120.341 78.0603 120.409 78.0232L120.692 77.8602C120.883 77.7588 121.06 77.6673 121.242 77.583C121.954 77.2328 122.584 77.0684 123.125 77.1341C123.678 77.1885 124.143 77.4986 124.434 77.7487Z" fill="#BF9444"/>
<path d="M128.535 91.7159C129.097 90.8569 129.651 90.0579 130.109 89.1846L130.278 88.8601C130.324 88.7629 130.389 88.6229 130.41 88.5814C130.463 88.4585 130.512 88.3284 130.556 88.2041C130.648 87.9497 130.732 87.691 130.795 87.4323C130.92 86.922 130.983 86.3932 130.954 85.8886C130.928 85.3898 130.804 84.911 130.598 84.5408C130.185 83.7718 129.592 83.4845 129.233 83.3473C128.851 83.2058 128.64 83.1915 128.641 83.1887C128.639 83.1901 128.796 83.3459 129.025 83.6432C129.251 83.9376 129.528 84.3978 129.557 84.9467C129.594 85.4898 129.402 86.1102 129.042 86.8119C128.954 86.9892 128.849 87.1664 128.745 87.3522L128.574 87.6309C128.537 87.6967 128.545 87.671 128.535 87.681H128.521C128.488 87.6795 128.485 87.6481 128.487 87.6467C128.487 87.6467 128.485 87.6767 128.45 87.6795C128.468 87.7196 128.361 87.5738 128.301 87.5023L128.112 87.2422C127.983 87.0692 127.87 86.9091 127.768 86.7433C127.34 86.1002 127.111 85.5227 127.092 84.9424C127.07 84.3664 127.255 83.8261 127.404 83.4674C127.552 83.1072 127.662 82.9014 127.658 82.9014C127.659 82.9028 127.463 83.0014 127.135 83.2473C126.817 83.5002 126.33 83.9319 126.011 84.7266C125.852 85.1268 125.762 85.607 125.776 86.1173C125.789 86.6276 125.898 87.1435 126.075 87.6395C126.161 87.8882 126.267 88.1326 126.379 88.3627C126.433 88.4857 126.493 88.6 126.558 88.7186C126.628 88.8458 126.649 88.8973 126.808 89.1417C127.317 89.9464 127.898 90.794 128.491 91.6473L128.535 91.7159Z" fill="#BF9444"/>
<path d="M125.877 80.436C125.877 82.7388 129.451 82.7388 129.451 80.436C129.451 78.1317 125.877 78.1317 125.877 80.436Z" fill="#BF9444"/>
<path d="M145.69 17.0305C145.454 19.1945 144.801 21.6986 143.433 24.1055C142.817 25.2075 142.041 26.2824 141.143 27.3C140.438 28.1047 139.647 28.8694 138.783 29.5969C138.342 29.9685 137.881 30.3302 137.401 30.6746C136.094 31.6065 134.729 32.3955 133.351 33.0201C131.989 33.6447 130.579 34.0978 129.191 34.4508C126.426 35.1469 123.822 35.4042 121.638 35.327C119.456 35.2484 117.702 34.8167 116.536 34.3651C115.363 33.9177 114.776 33.5046 114.765 33.5204C114.779 33.5061 115.219 34.0764 116.29 34.8268C117.351 35.5843 119.092 36.4762 121.422 36.9879C123.736 37.5096 126.608 37.6811 129.737 37.2294C131.293 37.0007 132.947 36.6291 134.593 35.9859C136.234 35.3513 137.842 34.4894 139.356 33.4017C139.48 33.3174 139.591 33.2259 139.707 33.133C140.63 32.4484 141.482 31.698 142.257 30.889C143.873 29.1982 145.143 27.3 145.972 25.3605C147.282 22.3775 147.546 19.416 147.373 17.0605C147.195 14.6879 146.634 12.8712 146.207 11.6577C145.766 10.4457 145.435 9.81536 145.445 9.8125C145.435 9.81393 145.565 10.5129 145.694 11.7721C145.816 13.0256 145.936 14.8579 145.69 17.0305Z" fill="#BF9444"/>
<path d="M140.467 34.0507C141.003 35.5614 141.657 37.0336 142.363 38.5087C142.717 39.2505 143.085 39.9651 143.446 40.6726C143.641 41.0428 143.79 41.3273 143.93 41.6374C144.077 41.9447 144.202 42.2577 144.324 42.5722C144.791 43.8314 145.06 45.1335 145.161 46.3984C145.355 48.9212 144.855 51.2566 143.95 52.9832C143.061 54.7213 141.77 55.8204 140.777 56.3993C139.775 56.9853 139.107 57.1482 139.115 57.1654C139.112 57.1454 139.79 57.204 140.984 56.8852C142.158 56.5708 143.896 55.7304 145.349 53.9109C146.803 52.1185 147.888 49.4357 147.991 46.3513C148.046 44.8148 147.869 43.1839 147.371 41.5517C147.249 41.1457 147.105 40.7412 146.937 40.3353C146.777 39.9351 146.576 39.5263 146.42 39.1933L145.389 37.0551C144.7 35.6215 144.032 34.2308 143.466 32.8986C143.258 32.417 143.079 31.941 142.903 31.4736C142.128 32.2812 141.281 33.0301 140.36 33.7162C140.397 33.832 140.429 33.942 140.467 34.0507Z" fill="#BF9444"/>
<path d="M140.898 26.4623L140.673 25.6205C140.521 25.0588 140.434 24.4956 140.388 23.9368C140.289 22.8219 140.391 21.7571 140.606 20.8052C141.042 18.8942 141.996 17.4963 142.811 16.693C143.629 15.8755 144.252 15.5725 144.233 15.561C144.244 15.5782 143.569 15.6625 142.493 16.2728C141.428 16.876 139.973 18.1381 139.022 20.2592C138.551 21.304 138.193 22.5446 138.091 23.9253C138.041 24.6114 138.045 25.3318 138.131 26.075C138.224 26.7897 138.314 27.43 138.433 28.1618C138.463 28.3562 138.505 28.5577 138.546 28.7592C139.403 28.0331 140.193 27.2685 140.898 26.4623Z" fill="#BF9444"/>
<path d="M92.0298 12.7696L92.3964 12.3865L92.7028 12.0835C93.8313 11.0301 95.0142 10.1111 96.22 9.34355C98.6244 7.80562 101.125 6.92946 103.259 6.64788C105.398 6.35345 107.118 6.61501 108.231 6.9023C109.343 7.19102 109.902 7.4826 109.905 7.47116C109.906 7.4826 109.273 7.46831 108.186 7.60981C107.096 7.7556 105.563 8.08434 103.873 8.86188C102.189 9.62084 100.361 10.8329 98.5743 12.4709C97.6778 13.2784 96.7885 14.1975 95.9164 15.1994C95.8405 15.2809 95.8505 15.2795 95.8533 15.2823V15.2995C95.8562 15.3095 95.8576 15.3195 95.8605 15.3266C95.8662 15.3409 95.8748 15.3509 95.8849 15.3566C95.9035 15.3681 95.9264 15.3638 95.9378 15.3595L95.9436 15.3566C95.9436 15.3566 95.9292 15.3638 95.9264 15.3809C95.9249 15.3895 95.9264 15.4009 95.935 15.4124C95.892 15.4252 96.3875 15.4581 96.6754 15.4681C97.9857 15.5153 99.2301 15.4338 100.384 15.2309C102.691 14.8264 104.619 13.833 106.035 12.5981C107.467 11.3732 108.404 10.0025 109.007 9.03768C109.607 8.06004 109.898 7.46688 109.903 7.47259C109.896 7.47259 109.899 8.1215 109.704 9.30067C109.488 10.4656 109.074 12.2107 107.838 14.1332C106.641 16.0484 104.416 18.0509 101.456 19.0828C99.9891 19.6045 98.3852 19.9118 96.7326 20.0019C96.2772 20.0219 96.0324 20.0376 95.2347 20.0133C94.4943 19.9862 93.7525 19.9118 93.0222 19.8132C92.3004 19.7146 91.5858 19.5759 90.9299 19.4116L89.011 18.8699L87.6992 18.4954C88.4754 17.3477 89.1485 16.2857 89.9633 15.1823C90.3786 14.6305 90.834 14.0817 91.3008 13.55C91.5429 13.2813 91.782 13.0197 92.0298 12.7696Z" fill="#BF9444"/>
<path d="M103.245 13.4334C100.985 12.9974 101.653 9.49663 103.913 9.92403C106.18 10.36 105.511 13.8622 103.245 13.4334Z" fill="#BF9444"/>
<path d="M84.1625 7.51984C86.461 7.46838 86.5455 11.0392 84.2413 11.0892C81.9343 11.1392 81.8569 7.56987 84.1625 7.51984Z" fill="#BF9444"/>
<path d="M78.7181 22.3374C75.4903 22.416 75.3743 17.4163 78.6007 17.3462C81.8286 17.2748 81.9374 22.2659 78.7181 22.3374Z" fill="#BF9444"/>
<path d="M68.377 16.0829C68.3541 16.0858 68.5316 13.2072 68.8968 11.8265C69.6128 9.61819 70.5809 7.28557 72.0029 5.5118C72.5729 4.86861 73.1958 4.29689 73.8603 3.82379C75.5372 2.60888 77.439 2.0243 79.1632 1.90424C80.8903 1.78846 82.4698 2.02144 83.836 2.51598C85.195 3.01481 86.2891 3.81808 87.041 4.69424C88.5675 6.48945 88.7465 8.34325 88.7437 9.44096C88.7179 10.5773 88.5317 11.1318 88.5475 11.1333C88.5317 11.1361 88.652 10.5415 88.5389 9.40666C88.4172 8.31467 87.989 6.54519 86.3951 5.1116C84.847 3.67086 82.0918 2.93476 79.093 3.53221C77.6195 3.83094 76.1387 4.52129 74.92 5.67903C74.7067 5.88199 74.5162 6.10496 74.3171 6.33365C74.3386 6.33937 71.1953 10.2399 71.6936 15.5198C71.6993 15.6098 71.3356 19.2974 74.1195 21.7644C76.1989 23.6011 79.6501 28.0076 91.6837 27.4602C91.824 27.2201 91.9773 26.9785 92.1405 26.7413C92.2837 26.544 92.4298 26.3511 92.5916 26.1624C92.7205 26.0152 92.8422 25.8808 92.9668 25.7522C92.6432 25.7493 92.3181 25.7407 91.9944 25.7193C90.4177 25.595 89.0516 25.1104 87.8257 24.4572C86.6099 23.7983 85.5559 22.9322 84.8198 21.9059C84.0608 20.9026 83.7343 19.6062 83.8303 18.7886C83.9019 17.9668 84.1267 17.6366 84.1095 17.6309C84.1224 17.6223 84.078 18.074 84.2642 18.6828C84.4475 19.2932 85.0303 19.7477 85.6791 20.3251C87.2815 21.7501 90.15 22.6692 94.4275 22.6592L99.2034 22.1946C99.4225 22.1489 99.6459 22.1089 99.8564 22.0774C101.71 21.8173 104.684 21.3113 104.677 21.2999C104.677 21.3085 101.73 22.7949 100.202 23.9255C99.1748 24.6831 97.8931 25.7007 96.577 26.8899C98.7724 26.3954 100.89 25.5607 102.894 24.4858C104.144 23.804 105.702 23.3495 106.99 22.5748C102.887 26.0881 98.4029 28.3235 93.9778 29.4955C93.8117 29.7142 93.6399 29.9472 93.4823 30.1873C93.1143 30.7233 92.7849 31.2979 92.5014 31.8667C91.9443 33.0073 91.5834 34.1236 91.5247 35.057C91.4488 35.996 91.7281 36.7964 92.0202 37.2852C92.3124 37.7855 92.5458 38.0228 92.5386 38.0285C92.5415 38.017 92.2565 38.0299 91.7553 37.7869C91.2755 37.5611 90.4951 36.9036 90.1385 35.4614C89.7719 34.0464 89.9008 32.2298 90.3848 30.5189C90.4135 30.4117 90.4535 30.3117 90.4851 30.213C89.8149 30.3059 89.1547 30.3788 88.5017 30.426C72.0158 31.6281 68.4414 18.6128 68.377 16.0829Z" fill="#BF9444"/>
<path d="M52.4534 8.75049C47.9653 10.0769 42.7011 10.7558 37.2721 10.2555C36.6377 10.2027 36.0119 10.1341 35.3876 10.0526C35.8401 10.3356 36.3284 10.6129 36.8755 10.8587C38.3161 11.5062 40.0933 11.9807 42.134 12.198C46.201 12.6239 51.3306 12.0993 56.867 10.3856C58.2632 9.95539 59.5821 9.41225 61.1202 8.8048C62.6367 8.2145 64.2249 7.63563 65.9262 7.13251C67.4155 6.69944 68.9635 6.29923 70.735 6.11771C69.8657 7.53701 69.1583 9.02634 68.6413 10.5729C68.0112 10.68 67.3783 10.7958 66.7582 10.9287C65.1486 11.2889 63.5862 11.722 62.0653 12.1794C60.5717 12.6382 58.9449 13.1313 57.4355 13.4415C51.3306 14.7264 45.9146 14.6892 41.6628 13.7373C39.5391 13.2528 37.7204 12.5224 36.2955 11.6405C35.3775 11.0774 34.6515 10.4628 34.0543 9.85534C29.8727 9.20215 26.019 8.083 22.5134 7.23257C20.3066 6.69515 18.2143 6.26921 16.2438 6.03481C14.269 5.79469 12.4159 5.75467 10.7218 5.87044C7.33643 6.08769 4.63557 6.88096 2.81113 7.49699C0.982391 8.12731 0.00143206 8.58469 0 8.57468C0.00286411 8.58183 0.902196 7.98724 2.65503 7.11965C4.40214 6.26921 7.05288 5.13292 10.5757 4.55977C12.3314 4.27534 14.2905 4.15241 16.3842 4.24532C18.4778 4.33108 20.6975 4.63695 22.9731 5.06717C25.8758 5.61173 28.8846 6.32496 32.0065 6.8881C31.9921 6.8538 31.9778 6.82093 31.9635 6.78662C32.0222 6.80377 32.0809 6.81378 32.1468 6.82664C32.1669 6.85809 32.184 6.8881 32.2055 6.91955C33.9369 7.22685 35.694 7.48841 37.497 7.63849C42.6309 8.10587 47.5314 7.6342 51.8977 6.60653C56.2784 5.59315 60.1922 4.19958 63.6034 3.37201C67.0145 2.50872 69.8672 2.22142 71.8248 2.21285C73.7795 2.20284 74.8493 2.36436 74.8493 2.35292C74.8736 2.39866 70.4515 2.28003 63.9829 4.6298C60.7335 5.74895 56.9572 7.44553 52.4534 8.75049Z" fill="#BF9444"/>
<path d="M50.3192 16.0399C51.0309 16.3915 51.9803 16.6288 53.116 16.6659C54.2573 16.7002 55.5848 16.5316 57.0555 16.2043C60.0113 15.5711 63.4812 14.2075 67.8332 13.0155C67.8762 13.0069 67.9134 12.9983 67.9492 12.9897C67.8303 13.4886 67.7416 13.9945 67.6871 14.5062C67.6857 14.5162 67.68 14.5234 67.68 14.5334C67.6771 14.5806 67.68 14.6206 67.6757 14.6606C67.6284 15.148 67.6055 15.6468 67.617 16.1599C67.617 16.1742 67.6227 16.1842 67.6241 16.1971C63.6645 16.8246 60.123 17.6364 57.1271 17.8036C55.5419 17.9108 54.1141 17.8565 52.8997 17.605C51.6853 17.3606 50.7058 16.8975 50.0356 16.4058C49.3625 15.9041 48.9745 15.401 48.7382 15.0622C48.5047 14.7206 48.416 14.5262 48.4131 14.5277C48.416 14.5262 48.5434 14.7035 48.8384 14.9993C49.132 15.2909 49.6089 15.6997 50.3192 16.0399Z" fill="#BF9444"/>
<path d="M79.9662 14.7404C80.5963 15.4508 81.0646 16.2355 81.4298 17.0502C80.8756 16.0668 79.8545 15.3508 78.378 15.3822C77.198 15.4094 76.3374 15.901 75.776 16.61C75.4352 16.3941 75.0328 16.2169 74.5788 16.0897C73.9759 15.9153 73.3028 15.8353 72.6054 15.8038C72.2603 14.1273 72.8575 11.9504 72.8575 11.9504C74.8137 12.3964 78.7633 13.3612 79.9662 14.7404Z" fill="#BF9444"/>
<path d="M75.4095 6.80399C76.1828 7.24422 76.8201 7.93457 77.1824 8.77072C77.3714 9.1895 77.4759 9.63687 77.539 10.1C77.5962 10.5702 77.5991 11.4492 78.4898 12.2425L72.9277 10.7932C72.9421 10.6745 74.208 7.62012 75.1446 6.6582C75.2333 6.70251 75.3207 6.75397 75.4095 6.80399Z" fill="#BF9444"/>
<path d="M61.0364 28.1177C61.0536 28.1177 61.0221 28.1306 61.1109 28.1177L61.4875 28.072C61.7367 28.0334 61.9759 27.9962 62.205 27.9533C63.1158 27.7832 63.8232 27.5031 64.2901 27.0586C64.7627 26.6269 64.9818 26.0123 65.0806 25.5721C65.1851 25.1333 65.2023 24.8617 65.2066 24.8632C65.2023 24.8646 65.3469 25.0861 65.5059 25.5521C65.6448 26.0095 65.8281 26.7927 65.4372 27.7704C65.2524 28.242 64.9144 28.7237 64.4719 29.1211C64.0366 29.5213 63.5096 29.8543 62.9425 30.113C62.659 30.2459 62.3654 30.3574 62.0632 30.4618C61.9157 30.5104 61.7625 30.5547 61.6107 30.5961C61.5548 30.6133 61.3844 30.649 61.2598 30.6776L60.8374 30.7633C59.696 30.962 58.5576 31.0192 57.3604 31.1207L57.3847 31.0249C57.7255 29.81 58.0606 28.6165 58.4058 27.5245C58.5089 27.1929 58.5418 27.1258 58.612 26.9642C58.6707 26.8142 58.7294 26.6727 58.7938 26.5255C58.9285 26.2396 59.0702 25.9666 59.2349 25.6965C59.5557 25.1576 59.9438 24.6588 60.4006 24.27C60.8488 23.8784 61.3615 23.6054 61.8341 23.4582C62.8079 23.1709 63.5554 23.3281 64.0266 23.4439C64.4977 23.5797 64.7326 23.7026 64.734 23.6983C64.7354 23.7026 64.4662 23.744 64.0266 23.8727C63.5855 23.9942 62.9597 24.2243 62.4499 24.6688C61.9386 25.1204 61.5849 25.7736 61.3128 26.6655C61.2398 26.8885 61.1768 27.1186 61.1166 27.3673L61.0264 27.7461C61.0021 27.859 60.9419 28.0791 60.972 28.0234C61.0006 28.0591 61.0293 28.0348 61.0293 28.0348C61.0278 28.0362 61.0021 28.0677 61.025 28.102L61.0364 28.1177Z" fill="#BF9444"/>
<path d="M69.3553 24.297C69.1019 24.0069 68.92 23.864 68.9228 23.864C68.9214 23.8683 69.1506 23.8725 69.5501 23.9912C69.9368 24.1141 70.574 24.3771 71.0652 25.1289C71.3058 25.4934 71.4719 25.9679 71.5378 26.4682C71.6008 26.9741 71.5736 27.5044 71.4748 28.0218C71.4247 28.2834 71.3616 28.5464 71.2829 28.8051C71.2442 28.9309 71.2027 29.0638 71.1497 29.1896C71.1368 29.231 71.0767 29.3754 71.038 29.474L70.8891 29.807C70.4666 30.7003 69.941 31.5265 69.4241 32.4098L69.3668 32.3497C68.688 31.5122 68.0235 30.6875 67.4278 29.9114C67.2445 29.6727 67.2187 29.6198 67.1371 29.4897C67.0669 29.3782 66.9982 29.2667 66.9251 29.1467C66.7934 28.9137 66.6717 28.6793 66.56 28.4349C66.3394 27.9446 66.1905 27.4244 66.1418 26.9198C66.0917 26.4096 66.1504 25.9165 66.2821 25.5148C66.56 24.6987 67.0383 24.2542 67.3533 23.9855C67.677 23.7182 67.8846 23.621 67.8817 23.6167C67.886 23.6181 67.7772 23.8211 67.6498 24.197C67.518 24.56 67.3705 25.1089 67.4335 25.6878C67.4894 26.2681 67.7715 26.8298 68.2627 27.463C68.3801 27.6173 68.5176 27.7803 68.6565 27.9418L68.8785 28.1948C68.9415 28.2634 69.0646 28.412 69.0403 28.3734C69.0832 28.3691 69.0832 28.3334 69.0832 28.3334C69.0832 28.3334 69.0875 28.372 69.1248 28.3734L69.1377 28.372C69.1477 28.3591 69.1405 28.3877 69.1749 28.3134L69.3253 28.0261C69.4298 27.8417 69.5172 27.6545 69.5988 27.4773C69.9253 26.7526 70.0828 26.1223 70.0055 25.5791C69.9324 25.0317 69.6117 24.5815 69.3553 24.297Z" fill="#BF9444"/>
<path d="M55.2969 20.5052C56.1375 19.9263 56.9251 19.3631 57.7887 18.8786L58.1094 18.7028C58.2054 18.6542 58.3457 18.587 58.3858 18.5699C58.5075 18.5156 58.6364 18.4655 58.761 18.4098C59.0131 18.314 59.268 18.2311 59.5272 18.1625C60.0356 18.0182 60.5626 17.9453 61.0681 17.9624C61.575 17.9753 62.049 18.0896 62.4257 18.2869C63.2047 18.6828 63.5026 19.2674 63.6515 19.6247C63.8004 20.0035 63.8176 20.2136 63.8219 20.2136C63.8205 20.2164 63.6687 20.0606 63.3594 19.8391C63.0672 19.6204 62.5932 19.3603 62.0447 19.3374C61.5005 19.3103 60.8833 19.5175 60.1888 19.892C60.0126 19.9906 59.8379 20.0921 59.6546 20.2007L59.3797 20.3765C59.3152 20.4165 59.341 20.4065 59.331 20.4165V20.4308C59.3338 20.4637 59.3639 20.4666 59.3668 20.4651C59.3668 20.4651 59.3381 20.4666 59.3353 20.5023C59.2952 20.4851 59.4441 20.5952 59.5229 20.6481L59.7878 20.831C59.9568 20.9554 60.1272 21.0654 60.2862 21.1712C60.9392 21.5771 61.5235 21.7973 62.1034 21.7987C62.6806 21.8058 63.2161 21.6114 63.5713 21.4585C63.9293 21.2984 64.1327 21.1841 64.1327 21.1884C64.1312 21.1869 64.0439 21.3856 63.799 21.7186C63.5527 22.0417 63.1388 22.5362 62.3426 22.8749C61.9545 23.0422 61.4662 23.1422 60.9564 23.1394C60.4523 23.1394 59.9267 23.0407 59.4255 22.8749C59.182 22.7949 58.9357 22.7006 58.6951 22.5877C58.5777 22.5348 58.456 22.479 58.3429 22.4233C58.2068 22.3518 58.1553 22.329 57.9061 22.1817C57.0984 21.6843 56.2363 21.1226 55.3628 20.5495L55.2969 20.5052Z" fill="#BF9444"/>
<path d="M66.6334 22.9068C64.3363 22.964 64.2504 19.3946 66.556 19.3375C68.8616 19.286 68.939 22.8568 66.6334 22.9068Z" fill="#BF9444"/>
<path d="M129.641 1.69821C127.48 1.98836 124.984 2.68872 122.609 4.11516C121.521 4.75406 120.463 5.55019 119.464 6.47209C118.674 7.19388 117.926 8.00144 117.226 8.87903C116.857 9.32927 116.504 9.79808 116.171 10.284C115.267 11.609 114.514 12.9897 113.918 14.3804C113.322 15.7611 112.901 17.1733 112.578 18.5669C111.94 21.344 111.741 23.9568 111.875 26.1307C111.995 28.309 112.472 30.0527 112.949 31.2076C113.424 32.3682 113.849 32.9514 113.834 32.96C113.848 32.9485 113.268 32.5169 112.495 31.4663C111.713 30.4215 110.782 28.7078 110.213 26.3923C109.641 24.084 109.411 21.2268 109.788 18.0866C109.981 16.5258 110.319 14.8721 110.927 13.2084C111.525 11.5618 112.346 9.92957 113.4 8.3945C113.481 8.27587 113.576 8.15581 113.662 8.0386C114.328 7.10241 115.059 6.23339 115.85 5.44156C117.507 3.79214 119.377 2.47432 121.298 1.60245C124.258 0.236031 127.215 -0.0984262 129.576 0.0230647C131.955 0.141697 133.784 0.661964 135.008 1.06789C136.231 1.48238 136.868 1.79111 136.871 1.7854C136.871 1.79111 136.168 1.68392 134.899 1.57529C133.638 1.48524 131.806 1.4052 129.641 1.69821Z" fill="#BF9444"/>
<path d="M112.724 7.29558C111.203 6.79962 109.711 6.1793 108.219 5.50038C107.47 5.16306 106.747 4.8186 106.031 4.47271C105.657 4.28547 105.369 4.14397 105.055 4.0039C104.745 3.87097 104.428 3.74948 104.112 3.63799C102.84 3.1992 101.524 2.9605 100.264 2.8919C97.7347 2.74611 95.4091 3.30497 93.7006 4.24259C91.9807 5.17164 90.9081 6.4866 90.3511 7.48997C89.7883 8.50335 89.6379 9.17512 89.625 9.16654C89.6422 9.1694 89.5749 8.49477 89.8685 7.29415C90.1563 6.11355 90.9511 4.36122 92.7426 2.86903C94.5055 1.37826 97.1662 0.23482 100.244 0.0575863C101.779 -0.0310306 103.423 0.109041 105.06 0.570707C105.475 0.683622 105.882 0.819405 106.286 0.972341C106.697 1.12956 107.112 1.31394 107.447 1.46974L109.605 2.44595C111.059 3.10343 112.465 3.7409 113.81 4.27546C114.296 4.47271 114.776 4.64137 115.249 4.80574C114.457 5.59757 113.727 6.46659 113.059 7.40278C112.943 7.36848 112.833 7.33132 112.724 7.29558Z" fill="#BF9444"/>
<path d="M120.307 6.69211L121.155 6.9065C121.725 7.04086 122.288 7.11947 122.846 7.15377C123.963 7.22095 125.031 7.10232 125.977 6.86077C127.88 6.38338 129.257 5.40002 130.044 4.56959C130.844 3.72916 131.133 3.10598 131.145 3.11885C131.128 3.11027 131.059 3.79062 130.47 4.87832C129.89 5.95459 128.659 7.43535 126.562 8.43157C125.52 8.93183 124.288 9.31059 122.915 9.44495C122.225 9.51499 121.503 9.52642 120.757 9.45495C120.039 9.37491 119.396 9.30345 118.663 9.20197C118.471 9.17481 118.265 9.13193 118.062 9.10049C118.769 8.22146 119.515 7.42105 120.307 6.69211Z" fill="#BF9444"/>
</svg>
