<svg width="148" height="147" viewBox="0 0 148 147" fill="none" xmlns="http://www.w3.org/2000/svg">
<path d="M25.8619 17.3139C24.2667 14.491 21.762 11.4653 18.3955 8.74452C16.7065 7.39191 14.8052 6.11444 12.6513 5.02413C11.5715 4.47969 10.4238 3.9877 9.19963 3.58645L8.65827 3.41631L7.81808 3.1923C7.25651 3.0576 6.6935 2.94418 6.13771 2.8662C5.03766 2.72016 3.99104 2.64501 2.85058 2.53442L2.84769 2.55711C2.74952 3.66727 2.63259 4.66684 2.56763 5.73588C2.54886 6.27891 2.56474 6.83612 2.61815 7.40042C2.65136 7.68398 2.67445 7.96329 2.71632 8.2497L2.78273 8.67504L2.83181 8.94018C3.09311 10.2375 3.51031 11.4426 3.98959 12.5727C4.96837 14.8284 6.25175 16.7666 7.61742 18.4609C10.3719 21.841 13.5016 24.2357 16.3196 25.8379C19.1447 27.4429 21.6754 28.2255 23.4179 28.5856C25.1748 28.9401 26.1564 28.9344 26.1535 28.9472C26.1997 28.916 22.276 27.8384 17.691 23.9167C15.4173 21.9828 12.9733 19.3712 10.893 16.1527C9.8637 14.5477 8.91957 12.7853 8.24251 10.9294C7.90903 10.0007 7.63619 9.04368 7.48027 8.09941L7.45718 7.94344L7.46006 7.95053C7.46295 7.95337 7.4644 7.95053 7.46584 7.95053L7.4745 7.94912C7.47739 7.94912 7.48027 7.95195 7.48027 7.95195C7.48027 7.95195 7.47883 7.9477 7.47883 7.94344L7.48316 7.93636L7.48605 7.9321L7.77333 8.01008C8.75499 8.30357 9.73088 8.66512 10.6779 9.07771C12.5763 9.89863 14.3635 10.8897 16.0078 11.9361C19.2891 14.0401 21.9742 16.3895 23.8943 18.641C25.8258 20.8797 26.9418 23.0476 27.4239 24.6625C27.9176 26.2717 27.8917 27.267 27.9133 27.2614C27.8873 27.2614 28.2237 26.327 28.1602 24.5363C28.1068 22.7612 27.4846 20.1425 25.8619 17.3139Z" fill="#BF9444"/>
<path d="M30.0186 28.7688C27.6943 28.7688 27.6943 32.3109 30.0186 32.3109C32.3442 32.3109 32.3442 28.7688 30.0186 28.7688Z" fill="#BF9444"/>
<path d="M17.2935 20.7423C20.5474 20.7423 20.5474 15.7827 17.2935 15.7827C14.0395 15.7827 14.0395 20.7423 17.2935 20.7423Z" fill="#BF9444"/>
<path d="M44.1673 40.9309C44.1414 40.7849 44.1081 40.5835 44.0865 40.5254C44.0475 40.3524 44.0056 40.1752 43.9566 39.998C43.8613 39.652 43.7415 39.3132 43.6115 38.9856C43.3416 38.332 42.9908 37.7167 42.5476 37.1963C42.1131 36.6746 41.5775 36.2662 41.0376 36.0238C39.9404 35.5304 39.0223 35.6949 38.4867 35.8253C37.9352 35.9798 37.6725 36.1301 37.6696 36.1259C37.6667 36.1287 37.98 36.1684 38.4867 36.3074C38.9862 36.4421 39.682 36.7242 40.1541 37.2885C40.6406 37.8415 40.9221 38.6624 41.0737 39.7016C41.1126 39.9625 41.1429 40.2347 41.1646 40.5197L41.1964 40.9564C41.205 41.0571 41.1949 41.0202 41.1906 41.0401L41.1747 41.0514C41.1343 41.0755 41.1069 41.0443 41.1054 41.0429C41.1069 41.0429 41.1271 41.0755 41.0895 41.1053C41.1444 41.1351 40.8932 41.0628 40.769 41.0287L40.336 40.8997C40.053 40.8175 39.7845 40.7338 39.5304 40.6459C38.5199 40.283 37.7865 39.8477 37.2986 39.2409C36.8049 38.6369 36.5854 37.9095 36.4598 37.4133C36.3429 36.9 36.3097 36.5938 36.3054 36.5952C36.3097 36.598 36.148 36.8575 35.9748 37.3892C35.8073 37.9081 35.5864 38.7517 35.8636 39.8675C36.0065 40.4176 36.2924 41.0117 36.7182 41.5477C37.1484 42.0793 37.6927 42.5529 38.2961 42.9428C38.5978 43.1427 38.9125 43.3256 39.2345 43.4858C39.399 43.5666 39.5636 43.6489 39.7268 43.724C39.9173 43.8048 39.9837 43.8445 40.3605 43.9863C41.6063 44.4358 42.9691 44.8881 44.3478 45.3389L44.4561 45.3715C44.4113 44.009 44.407 42.7131 44.2381 41.4059L44.1673 40.9309Z" fill="#BF9444"/>
<path d="M43.3285 29.7726C43.2159 29.7201 43.0556 29.6464 43.0066 29.6294C42.8564 29.5628 42.7149 29.5075 42.5634 29.4578C42.2689 29.3558 41.9715 29.2622 41.6755 29.1955C41.0808 29.0594 40.4672 28.9914 39.8854 29.0438C39.3008 29.0864 38.745 29.2466 38.3032 29.4975C37.4111 30.0108 37.0747 30.7183 36.9101 31.155C36.7427 31.603 36.7254 31.8596 36.721 31.8596C36.7225 31.8625 36.9044 31.664 37.2508 31.3861C37.593 31.1195 38.1372 30.775 38.7724 30.7268C39.4018 30.6687 40.1179 30.8813 40.935 31.2897C41.14 31.3903 41.3421 31.5066 41.5572 31.6271L41.8791 31.8214C41.9556 31.8639 41.9253 31.854 41.9354 31.8667L41.9368 31.8823C41.9354 31.9234 41.8979 31.9277 41.8979 31.9277C41.8979 31.9277 41.9296 31.9277 41.9339 31.9688C41.9859 31.9447 41.8112 32.0837 41.7261 32.1503L41.4229 32.3885C41.2222 32.5359 41.0274 32.682 40.8426 32.8068C40.0876 33.3271 39.4163 33.6163 38.745 33.6489C38.0751 33.6872 37.4529 33.4887 37.0328 33.3228C36.6142 33.1513 36.3774 33.0251 36.3774 33.0294C36.3803 33.0279 36.4843 33.2661 36.773 33.6461C37.0646 34.0162 37.5554 34.5805 38.4822 34.9392C38.937 35.1178 39.5 35.2114 40.0904 35.1816C40.6809 35.1547 41.2886 35.0143 41.8646 34.7917C42.1534 34.684 42.4363 34.5521 42.7121 34.416C42.8478 34.3408 42.9863 34.27 43.1177 34.1948C43.2736 34.1083 43.3343 34.08 43.6187 33.8886C44.5541 33.259 45.5401 32.5445 46.5492 31.8228L46.6214 31.7689C45.6325 31.1266 44.71 30.4843 43.6981 29.9626L43.3285 29.7726Z" fill="#BF9444"/>
<path d="M33.9634 37.5536C33.5939 37.2573 33.3614 37.1496 33.3643 37.1467C33.36 37.1467 33.4812 37.3821 33.6458 37.7961C33.8075 38.2058 33.9952 38.8226 33.9548 39.4819C33.9187 40.1369 33.6343 40.7849 33.1247 41.5023C33.0005 41.6838 32.859 41.8709 32.7132 42.0553L32.4808 42.3445C32.4159 42.431 32.2845 42.594 32.309 42.5487C32.2614 42.5458 32.2614 42.5118 32.2614 42.5118C32.2614 42.5132 32.2571 42.5487 32.2181 42.5501L32.2008 42.5487C32.1907 42.5387 32.2008 42.5685 32.1574 42.4919L31.9712 42.1715C31.8543 41.9574 31.7475 41.7476 31.6435 41.5505C31.2508 40.7381 31.0473 40.0221 31.1152 39.4082C31.1642 38.79 31.4963 38.2753 31.7648 37.9421C32.0376 37.6118 32.2253 37.4459 32.221 37.4445C32.2224 37.4487 31.9756 37.4587 31.5352 37.6004C31.1166 37.755 30.4208 38.0612 29.9198 38.9176C29.673 39.3344 29.507 39.8718 29.4636 40.4446C29.416 41.0146 29.4709 41.6143 29.608 42.2041C29.673 42.499 29.7538 42.7939 29.8563 43.0846C29.9068 43.2278 29.9588 43.3767 30.0137 43.5156C30.031 43.5638 30.1017 43.724 30.1551 43.836L30.3356 44.216C30.8452 45.2184 31.4587 46.14 32.0795 47.1297L32.1329 47.0602C32.8403 46.1017 33.5433 45.1603 34.1597 44.2642C34.3431 43.992 34.3691 43.9325 34.46 43.7836C34.5336 43.6574 34.6029 43.5227 34.6708 43.3937C34.8123 43.1271 34.935 42.8549 35.0476 42.577C35.2583 42.0184 35.407 41.43 35.4388 40.8544C35.4691 40.2773 35.3811 39.7215 35.2093 39.2721C34.8686 38.3505 34.3214 37.8514 33.9634 37.5536Z" fill="#BF9444"/>
<path d="M55.3473 12.4296L54.9633 12.0638L54.6457 11.7704C53.4864 10.7424 52.2738 9.85628 51.0409 9.13035C48.5824 7.65723 46.0431 6.84197 43.8892 6.60945C41.7238 6.36275 39.9972 6.66049 38.8827 6.96958C37.7683 7.28008 37.211 7.58492 37.2081 7.57074C37.2067 7.58492 37.8448 7.55514 38.9448 7.67708C40.0449 7.7905 41.5982 8.08399 43.3175 8.81701C45.0398 9.53302 46.9064 10.6956 48.7456 12.2737C49.6666 13.0634 50.5833 13.9538 51.4827 14.9208C51.5577 15.0002 51.552 15.0002 51.5491 15.003V15.0214C51.5476 15.037 51.5462 15.047 51.5433 15.054C51.5375 15.0696 51.5303 15.0796 51.5202 15.0852C51.5 15.0966 51.4783 15.0923 51.4668 15.0895L51.461 15.0867C51.461 15.0867 51.4755 15.0937 51.4783 15.1108C51.4798 15.1193 51.4783 15.1306 51.4711 15.1434C51.5159 15.1547 51.0077 15.1916 50.719 15.2072C49.4082 15.2823 48.1494 15.2355 46.9829 15.0597C44.6413 14.7081 42.6838 13.7624 41.2214 12.57C39.7518 11.3847 38.7774 10.0534 38.1465 9.10767C37.52 8.14496 37.2139 7.56365 37.2081 7.56932C37.2168 7.56932 37.2269 8.2201 37.4564 9.38273C37.6932 10.5269 38.1537 12.2496 39.4356 14.131C40.6844 16.0068 42.9783 17.9393 45.9854 18.8935C47.4752 19.3841 49.0964 19.6535 50.7652 19.6989C51.2243 19.7074 51.4726 19.7201 52.2695 19.6776C53.0201 19.6351 53.7665 19.5514 54.5013 19.4323C55.226 19.3175 55.942 19.1657 56.6018 18.9871L58.5232 18.4086L59.8297 18.006C59.0285 16.8859 58.3211 15.8494 57.4809 14.7719C57.0435 14.2345 56.5801 13.7 56.0907 13.1825C55.8424 12.9259 55.5941 12.6792 55.3473 12.4296Z" fill="#BF9444"/>
<path d="M44.0505 13.3389C46.3256 12.8567 45.5677 9.39969 43.2998 9.8733C41.0261 10.354 41.784 13.8125 44.0505 13.3389Z" fill="#BF9444"/>
<path d="M63.153 7.05029C60.8346 7.05029 60.8346 10.5924 63.153 10.5924C65.4773 10.5924 65.4773 7.05029 63.153 7.05029Z" fill="#BF9444"/>
<path d="M68.9806 21.6285C72.2273 21.6285 72.2273 16.6689 68.9806 16.6689C65.7267 16.6689 65.7267 21.6285 68.9806 21.6285Z" fill="#BF9444"/>
<path d="M79.2517 15.1873C79.282 15.1901 79.0395 12.3403 78.6324 10.9848C77.8615 8.81129 76.8293 6.51866 75.3611 4.78891C74.7721 4.16507 74.1341 3.61211 73.444 3.15699C71.7333 1.9887 69.7974 1.44992 68.0636 1.3762C66.3197 1.29113 64.7346 1.55768 63.3675 2.08511C62.0091 2.60971 60.9249 3.42921 60.1858 4.3111C58.6858 6.13018 58.5458 7.97194 58.5747 9.05941C58.6267 10.1866 58.8259 10.731 58.81 10.7325C58.8259 10.7339 58.6988 10.1469 58.7797 9.02113C58.8793 7.93508 59.2705 6.1713 60.8455 4.71235C62.3743 3.24915 65.1345 2.45233 68.169 2.97976C69.6617 3.2449 71.1688 3.8971 72.4219 5.0186C72.6428 5.21143 72.8406 5.43261 73.0456 5.65379C73.0239 5.66088 76.2836 9.46066 75.8924 14.6995C75.8881 14.796 76.3442 18.4454 73.5912 20.9479C71.537 22.8195 68.1618 27.2714 56.0224 26.9935C55.8693 26.7553 55.7163 26.5186 55.5402 26.2875C55.3987 26.1003 55.2399 25.9061 55.0782 25.7232C54.9396 25.5786 54.8198 25.4524 54.6856 25.3233C55.0162 25.3148 55.3453 25.2992 55.6716 25.2695C57.2523 25.1121 58.618 24.6017 59.8393 23.9239C61.0491 23.2462 62.0928 22.3657 62.8117 21.3321C63.5552 20.3127 63.8569 19.0282 63.7414 18.2115C63.6505 17.3991 63.418 17.0758 63.4339 17.0687C63.4224 17.0602 63.47 17.5139 63.3025 18.1222C63.1308 18.7318 62.5533 19.1884 61.9123 19.774C60.3301 21.2286 57.466 22.2027 53.1481 22.2892L48.325 21.9361C48.1012 21.8936 47.876 21.8525 47.6638 21.8256C45.7914 21.6157 42.7829 21.1776 42.7887 21.1663C42.7887 21.1748 45.7914 22.5855 47.3577 23.6716C48.4159 24.4017 49.7238 25.3758 51.0808 26.5271C48.8519 26.0904 46.6994 25.3106 44.6582 24.2869C43.382 23.6375 41.8027 23.2221 40.4948 22.4877C44.7 25.8763 49.2749 27.9945 53.7544 29.0622C53.9349 29.2677 54.1096 29.496 54.2756 29.7314C54.6524 30.2631 54.9974 30.8245 55.2933 31.3746C55.8867 32.4947 56.2764 33.5935 56.3558 34.518C56.4526 35.4452 56.1898 36.2463 55.9054 36.7383C55.6268 37.2402 55.3987 37.4798 55.4045 37.4841C55.4016 37.4741 55.6903 37.4798 56.1826 37.2289C56.6619 36.9935 57.4357 36.3243 57.7677 34.8866C58.0983 33.4759 57.9265 31.6766 57.3952 29.9894C57.3649 29.8831 57.3274 29.7852 57.2956 29.6874C57.9655 29.7654 58.6324 29.8235 59.2994 29.8561C75.9415 30.6898 79.243 17.6968 79.2517 15.1873Z" fill="#BF9444"/>
<path d="M95.1376 7.56363C99.6908 8.77587 105.012 9.33308 110.472 8.71916C111.117 8.65252 111.745 8.57028 112.369 8.47387C111.917 8.76736 111.438 9.05235 110.886 9.30897C109.448 9.98953 107.667 10.4914 105.615 10.7509C101.526 11.2684 96.343 10.8629 90.7273 9.28062C89.3154 8.89213 87.97 8.38171 86.4065 7.81175C84.8648 7.26021 83.2493 6.72569 81.5257 6.2578C80.0156 5.8679 78.4464 5.49927 76.6563 5.36174C77.5644 6.74979 78.3107 8.21157 78.8651 9.73432C79.5031 9.82081 80.1427 9.92148 80.7706 10.0462C82.3991 10.3624 83.9841 10.7566 85.5259 11.1791C87.0417 11.6002 88.699 12.0511 90.2278 12.3233C96.4007 13.4646 101.859 13.3087 106.124 12.2666C108.253 11.7391 110.07 10.9778 111.487 10.0703C112.399 9.49187 113.118 8.86519 113.707 8.25269C117.906 7.50549 121.765 6.3131 125.279 5.39293C127.492 4.81162 129.588 4.34515 131.57 4.06868C133.557 3.78795 135.423 3.70004 137.127 3.77802C140.551 3.91839 143.291 4.64857 145.143 5.21854C147 5.80126 147.997 6.22945 148 6.21952C147.996 6.22803 147.078 5.65806 145.29 4.8343C143.506 4.03607 140.815 2.96702 137.252 2.47504C135.477 2.23826 133.492 2.15177 131.384 2.29639C129.279 2.42683 127.052 2.77845 124.768 3.25484C121.855 3.85742 118.838 4.63723 115.703 5.26391C115.718 5.22988 115.732 5.19018 115.747 5.15615C115.689 5.17316 115.621 5.18451 115.563 5.20152C115.543 5.23697 115.527 5.26674 115.507 5.29935C113.769 5.64247 112.001 5.93879 110.192 6.13162C105.026 6.70726 100.078 6.34571 95.6544 5.4227C91.2167 4.51387 87.241 3.22365 83.7792 2.47787C80.3289 1.70232 77.4402 1.47972 75.474 1.51233C73.4962 1.54494 72.4294 1.72926 72.4279 1.71791C72.4048 1.76328 76.857 1.5421 83.4298 3.73974C86.7256 4.77192 90.57 6.36698 95.1376 7.56363Z" fill="#BF9444"/>
<path d="M97.4543 14.751C96.7469 15.1098 95.7956 15.3721 94.645 15.426C93.4959 15.4841 92.162 15.3537 90.6721 15.0601C87.6723 14.4986 84.1513 13.2196 79.7324 12.1391C79.6963 12.1306 79.6588 12.1249 79.6212 12.115C79.7439 12.5999 79.845 13.1005 79.9186 13.6138C79.9215 13.6237 79.9258 13.6308 79.9258 13.6393C79.9301 13.6804 79.9287 13.7201 79.933 13.7599C79.9908 14.2476 80.0269 14.7439 80.0269 15.2459C80.0269 15.2601 80.0211 15.27 80.0197 15.2828C84.0228 15.8188 87.6102 16.5476 90.6346 16.6469C92.2284 16.7107 93.672 16.6284 94.8904 16.3505C96.1088 16.0811 97.0804 15.6018 97.7445 15.0998C98.4186 14.588 98.7983 14.0789 99.0293 13.7386C99.2516 13.3926 99.3426 13.2012 99.3454 13.2026C99.3426 13.1997 99.2097 13.3798 98.9196 13.6804C98.6279 13.9768 98.1631 14.3923 97.4543 14.751Z" fill="#BF9444"/>
<path d="M67.5466 14.1138C66.9273 14.8341 66.4668 15.6252 66.1232 16.4362C66.6602 15.4494 67.665 14.7164 69.1562 14.7164C70.3487 14.7164 71.2322 15.1871 71.8125 15.8776C72.1517 15.655 72.5458 15.4707 73.0093 15.3331C73.6127 15.1488 74.2883 15.0538 74.9841 15.0028C75.2959 13.3397 74.6449 11.1917 74.6449 11.1917C72.6888 11.678 68.7304 12.7201 67.5466 14.1138Z" fill="#BF9444"/>
<path d="M71.9573 6.14414C71.1864 6.59643 70.5599 7.30251 70.2134 8.13194C70.033 8.55161 69.9348 8.99823 69.8901 9.45761C69.8352 9.92691 69.8511 10.7975 68.9791 11.6042L74.5457 10.046C74.527 9.92266 73.1844 6.92678 72.2215 5.99243C72.132 6.03922 72.0454 6.08884 71.9573 6.14414Z" fill="#BF9444"/>
<path d="M86.9277 26.9623C86.9103 26.9638 86.9421 26.9751 86.8526 26.9652L86.4643 26.9226C86.2116 26.8957 85.9778 26.8631 85.7453 26.8276C84.8229 26.6759 84.0982 26.4151 83.6247 25.984C83.1324 25.5658 82.9 24.9618 82.7874 24.5279C82.6776 24.0955 82.6545 23.8247 82.6517 23.8261C82.656 23.8289 82.5073 24.0515 82.3658 24.5152C82.2287 24.9731 82.0699 25.76 82.477 26.7142C82.682 27.1779 83.0328 27.6486 83.4803 28.0328C83.9336 28.4241 84.4749 28.7431 85.051 28.9842C85.3397 29.1104 85.6385 29.2153 85.9446 29.3046C86.0933 29.3556 86.252 29.3968 86.4036 29.4336C86.4542 29.4492 86.6332 29.4818 86.7588 29.5059L87.1875 29.5768C88.3352 29.7555 89.4872 29.7867 90.6999 29.8547L90.6739 29.7668C90.3043 28.5687 89.9405 27.3919 89.5608 26.3101C89.4482 25.984 89.415 25.9259 89.3472 25.7657C89.2851 25.6182 89.2158 25.4807 89.1465 25.3361C89.0123 25.0539 88.8563 24.7803 88.6918 24.5152C88.3511 23.9948 87.9469 23.5085 87.4849 23.1328C87.0186 22.7486 86.4946 22.4948 86.0153 22.3587C85.0351 22.0964 84.2786 22.2679 83.8065 22.3927C83.3345 22.5373 83.1006 22.6635 83.0977 22.6592C83.0963 22.6635 83.3691 22.6989 83.821 22.8166C84.2613 22.9286 84.8965 23.1399 85.422 23.5723C85.9532 24.009 86.3242 24.6484 86.6173 25.5261C86.6895 25.7444 86.7573 25.9727 86.8237 26.218L86.9291 26.5909C86.9565 26.7029 87.0143 26.9127 86.9897 26.8659C86.9609 26.8971 86.9334 26.8773 86.9334 26.8773C86.9349 26.8801 86.9623 26.9042 86.9392 26.9453L86.9277 26.9623Z" fill="#BF9444"/>
<path d="M78.4538 23.3541C78.7093 23.0635 78.884 22.9146 78.8811 22.9146C78.8811 22.9189 78.6545 22.9288 78.2503 23.0564C77.8648 23.1925 77.2282 23.4676 76.7503 24.2162C76.515 24.5905 76.3606 25.0584 76.31 25.5603C76.2581 26.0622 76.297 26.5825 76.4053 27.1C76.4587 27.3581 76.5295 27.6175 76.619 27.8728C76.6608 27.9975 76.7056 28.1223 76.7547 28.2513C76.7691 28.2924 76.8326 28.4328 76.8817 28.5306L77.0376 28.8567C77.4837 29.7358 78.0236 30.5411 78.5722 31.4046L78.6227 31.3379C79.2954 30.4915 79.948 29.6677 80.5283 28.8766C80.7015 28.6355 80.7246 28.5831 80.8127 28.4597C80.8805 28.3406 80.947 28.2286 81.0119 28.1081C81.1462 27.8798 81.2631 27.6388 81.3656 27.3935C81.5764 26.9015 81.7222 26.3897 81.7597 25.8821C81.7987 25.3745 81.7294 24.8939 81.5793 24.4926C81.2804 23.6944 80.7954 23.2577 80.4662 22.9983C80.1342 22.7402 79.9306 22.6481 79.9321 22.6438C79.9292 22.6452 80.0346 22.8508 80.1746 23.2138C80.3118 23.5725 80.4763 24.1141 80.4229 24.6883C80.3782 25.2639 80.1068 25.8353 79.6318 26.4677C79.5091 26.6236 79.3821 26.7881 79.2391 26.9568L79.0284 27.2064C78.9649 27.2829 78.8393 27.4261 78.8609 27.3864C78.8248 27.3836 78.8234 27.3538 78.8234 27.3538C78.8248 27.3552 78.819 27.385 78.7844 27.3879L78.77 27.3864C78.7613 27.3765 78.7685 27.4035 78.731 27.3368L78.5664 27.0561C78.4639 26.8675 78.3715 26.6917 78.2791 26.5102C77.9341 25.8056 77.7681 25.1846 77.8331 24.6444C77.8894 24.1027 78.2026 23.6405 78.4538 23.3541Z" fill="#BF9444"/>
<path d="M92.5389 19.2889C91.6713 18.7331 90.873 18.183 89.9909 17.7293L89.6646 17.562C89.5607 17.5166 89.425 17.4528 89.3831 17.4358C89.2532 17.3776 89.1291 17.3309 89.002 17.2841C88.7451 17.1947 88.4852 17.1139 88.2225 17.0473C87.7013 16.9225 87.1744 16.8616 86.6648 16.8899C86.1538 16.9154 85.6788 17.0402 85.2977 17.243C84.5297 17.6513 84.2395 18.2383 84.0937 18.5984C83.958 18.9755 83.9436 19.184 83.9407 19.1825C83.9421 19.1854 84.0923 19.028 84.3925 18.8011C84.6899 18.5771 85.162 18.3077 85.7149 18.2751C86.262 18.2369 86.8886 18.4283 87.5974 18.7841C87.7764 18.872 87.954 18.9755 88.1416 19.079L88.4231 19.2478C88.4895 19.286 88.4636 19.2775 88.4737 19.286V19.3002C88.4722 19.3328 88.4405 19.3357 88.439 19.3343C88.439 19.3343 88.4693 19.3357 88.4722 19.3711C88.5126 19.3527 88.3654 19.459 88.286 19.5186L88.0232 19.7057C87.8558 19.8333 87.6869 19.9453 87.5266 20.0474C86.8785 20.4714 86.2952 20.701 85.7106 20.7166C85.1288 20.7379 84.5831 20.555 84.2222 20.4132C83.857 20.2601 83.6505 20.1523 83.6505 20.1552C83.652 20.1538 83.7443 20.348 83.9999 20.6755C84.2554 20.9945 84.6827 21.4709 85.4926 21.7871C85.8881 21.9445 86.3818 22.0338 86.8958 22.021C87.4039 22.0083 87.9309 21.9005 88.4332 21.7247C88.6844 21.6396 88.9226 21.5347 89.1623 21.4241C89.285 21.3703 89.4005 21.3121 89.5145 21.2469C89.6502 21.1774 89.7022 21.1562 89.949 21.0045C90.7531 20.494 91.6078 19.9184 92.4768 19.33L92.5389 19.2889Z" fill="#BF9444"/>
<path d="M81.1642 21.9237C83.4812 21.9237 83.4812 18.3801 81.1642 18.3801C78.84 18.3815 78.84 21.9237 81.1642 21.9237Z" fill="#BF9444"/>
<path d="M17.1889 2.28801C19.3731 2.52337 21.8995 3.16848 24.3277 4.52534C25.4392 5.13643 26.5191 5.90489 27.5498 6.79387C28.3626 7.49286 29.1335 8.27692 29.8668 9.13329C30.2407 9.5714 30.6074 10.0279 30.9539 10.5029C31.8951 11.7974 32.6906 13.1514 33.3214 14.5168C33.9523 15.8666 34.4056 17.266 34.7651 18.6413C35.4681 21.3819 35.7265 23.9652 35.6485 26.126C35.5677 28.2896 35.1317 30.0264 34.6712 31.1834C34.2237 32.346 33.8079 32.933 33.8238 32.9401C33.8094 32.9301 34.3782 32.4878 35.1418 31.4287C35.8997 30.3738 36.7991 28.6483 37.3231 26.3443C37.8501 24.0474 38.0161 21.2004 37.5671 18.1011C37.3361 16.5585 36.9608 14.918 36.3112 13.2875C35.6702 11.6613 34.8026 10.0676 33.7054 8.56757C33.6203 8.44422 33.5264 8.33647 33.4326 8.2202C32.7411 7.3057 31.9817 6.45926 31.169 5.6908C29.4626 4.09148 27.5469 2.83103 25.5865 2.00869C22.5737 0.711379 19.5926 0.450498 17.2149 0.622056C14.82 0.797866 12.988 1.35507 11.7638 1.77759C10.5425 2.21286 9.90731 2.5418 9.90442 2.53471C9.90586 2.5418 10.6118 2.41277 11.8807 2.28517C13.1482 2.16324 14.9917 2.04414 17.1889 2.28801Z" fill="#BF9444"/>
<path d="M34.3612 7.46297C35.8828 6.93271 37.3726 6.28476 38.861 5.58435C39.6088 5.23415 40.3306 4.86976 41.038 4.51105C41.4176 4.3239 41.7049 4.17077 42.0167 4.03324C42.3271 3.88579 42.6433 3.76386 42.9594 3.64334C44.2298 3.17971 45.5435 2.91458 46.8139 2.81391C49.3677 2.62109 51.7237 3.11874 53.4589 4.01198C55.2187 4.89387 56.3288 6.17558 56.9121 7.15956C57.5025 8.15204 57.6685 8.81417 57.6815 8.80566C57.6642 8.80849 57.7161 8.13786 57.3942 6.95539C57.0781 5.79135 56.2364 4.06869 54.3929 2.62817C52.5884 1.18766 49.8845 0.112945 46.772 0.00944351C45.2216 -0.044434 43.5759 0.128541 41.9301 0.623364C41.5216 0.748133 41.113 0.888498 40.7031 1.05438C40.3003 1.21176 39.886 1.41168 39.5438 1.56622L37.3914 2.58706C35.9478 3.27045 34.5431 3.93258 33.2005 4.49262C32.714 4.69679 32.2333 4.87402 31.7627 5.04841C32.5711 5.81546 33.3334 6.65623 34.0263 7.56931C34.1418 7.53387 34.2529 7.50126 34.3612 7.46297Z" fill="#BF9444"/>
<path d="M26.707 7.03767L25.8568 7.26169C25.2851 7.41056 24.7206 7.49705 24.1576 7.54384C23.033 7.64308 21.9532 7.541 20.9975 7.32833C19.0688 6.89589 17.6584 5.9502 16.8471 5.14203C16.0228 4.33245 15.7167 3.71995 15.7052 3.73413C15.7225 3.72704 15.8063 4.392 16.4241 5.45821C17.0333 6.51307 18.3066 7.95642 20.4417 8.89786C21.5028 9.36575 22.753 9.7202 24.1461 9.82087C24.8376 9.87191 25.5651 9.86624 26.3158 9.78259C27.0376 9.69327 27.6829 9.60111 28.4206 9.48201C28.6126 9.45082 28.8191 9.41112 29.0241 9.37142C28.2907 8.52072 27.5198 7.73524 26.707 7.03767Z" fill="#BF9444"/>
<path d="M12.8886 55.4678L12.5046 55.1063L12.1985 54.8014C11.136 53.6842 10.2078 52.5117 9.43541 51.3164C7.88352 48.9331 6.99858 46.4547 6.71563 44.3421C6.41824 42.221 6.68243 40.5168 6.97115 39.4137C7.26276 38.3107 7.55726 37.7577 7.54716 37.7549C7.55726 37.7535 7.54427 38.3801 7.68574 39.4634C7.83299 40.5367 8.16503 42.058 8.94603 43.731C9.71548 45.4083 10.9368 47.2175 12.5897 48.9898C13.4054 49.8773 14.3322 50.7578 15.3442 51.6156C15.4264 51.695 15.425 51.6893 15.4293 51.6851H15.4452C15.4553 51.6836 15.4654 51.6808 15.4726 51.6794C15.4871 51.6737 15.4972 51.6638 15.503 51.6553C15.5145 51.6283 15.5102 51.6071 15.5058 51.5957L15.503 51.5901C15.503 51.5901 15.5102 51.6028 15.5275 51.6071C15.5362 51.6071 15.5477 51.6057 15.5607 51.5986C15.5737 51.6439 15.5997 51.1491 15.6141 50.8656C15.6646 49.5739 15.5824 48.3319 15.3774 47.1962C14.9688 44.9022 13.9669 42.9923 12.7211 41.5887C11.4825 40.1694 10.0995 39.2422 9.12504 38.6424C8.13904 38.0484 7.54138 37.7606 7.54716 37.7549C7.54571 37.762 8.20112 37.7591 9.39066 37.9562C10.5658 38.1632 12.327 38.5801 14.2658 39.7994C16.1959 40.9861 18.2184 43.1908 19.2607 46.1243C19.7862 47.5776 20.098 49.167 20.1875 50.8103C20.2063 51.2555 20.2236 51.4993 20.1991 52.2905C20.1702 53.0235 20.0966 53.765 19.997 54.4824C19.8974 55.197 19.7573 55.9045 19.5913 56.5553L19.0456 58.4566L18.6688 59.7568C17.5096 58.9869 16.4384 58.3205 15.3254 57.5109C14.7682 57.0997 14.2153 56.6489 13.6782 56.1853C13.4068 55.9513 13.1426 55.7131 12.8886 55.4678Z" fill="#BF9444"/>
<path d="M13.5596 44.3538C13.1208 46.5998 9.58824 45.932 10.0199 43.6916C10.453 41.4455 13.9913 42.1077 13.5596 44.3538Z" fill="#BF9444"/>
<path d="M7.59284 63.2719C7.54087 60.9861 11.1442 60.9081 11.1947 63.1868C11.2438 65.474 7.64337 65.5506 7.59284 63.2719Z" fill="#BF9444"/>
<path d="M22.5435 68.6668C22.6229 71.8583 17.5788 71.9731 17.5067 68.7759C17.433 65.5787 22.4727 65.4696 22.5435 68.6668Z" fill="#BF9444"/>
<path d="M16.2333 78.9117C16.2362 78.9344 13.3316 78.7642 11.9385 78.3956C9.71103 77.6853 7.35792 76.7268 5.56638 75.3161C4.9182 74.7518 4.34075 74.135 3.86435 73.4757C2.63872 71.814 2.04972 69.9297 1.92846 68.2198C1.81152 66.5085 2.04683 64.9432 2.54633 63.5949C3.04871 62.2423 3.86002 61.1576 4.74496 60.4119C6.55671 58.899 8.4262 58.7204 9.53202 58.7246C10.6797 58.7516 11.2384 58.9345 11.2398 58.9189C11.2427 58.9345 10.6422 58.8225 9.49737 58.9274C8.39589 59.0479 6.61157 59.4718 5.16361 61.0527C3.70989 62.5868 2.96642 65.3175 3.56841 68.2879C3.87157 69.7497 4.56595 71.2157 5.73529 72.4237C5.94028 72.6364 6.16549 72.832 6.39502 73.022C6.4008 73.0008 10.3361 76.1214 15.6631 75.6209C15.754 75.6152 19.4757 75.9754 21.9573 73.2163C23.8167 71.1562 28.263 67.742 27.7058 55.8124C27.4661 55.6706 27.2236 55.526 26.984 55.3573C26.7848 55.2198 26.5899 55.0709 26.3993 54.9107C26.2506 54.7831 26.1149 54.6682 25.985 54.5378C25.9835 54.8582 25.9734 55.1815 25.9518 55.5005C25.8262 57.0644 25.3368 58.4184 24.6742 59.6335C24.013 60.8372 23.1382 61.8821 22.1031 62.6123C21.0897 63.3652 19.7817 63.6885 18.9574 63.6006C18.1288 63.5226 17.7953 63.3085 17.7895 63.3241C17.7809 63.3127 18.2356 63.351 18.8492 63.1653C19.4656 62.9909 19.9232 62.4138 20.5079 61.7659C21.9443 60.1751 22.8653 57.3394 22.8581 53.093L22.3933 48.3589C22.3471 48.1405 22.3052 47.9194 22.2705 47.7124C22.0136 45.8763 21.5025 42.9272 21.4895 42.9343C21.4982 42.9343 22.9981 45.855 24.1386 47.3692C24.9037 48.3943 25.9301 49.6576 27.1269 50.962C26.6303 48.7871 25.7887 46.6873 24.6987 44.7037C24.0159 43.4631 23.5583 41.9205 22.7758 40.6501C26.3214 44.7108 28.5763 49.1529 29.7586 53.5396C29.9795 53.7041 30.2148 53.8742 30.4501 54.0373C30.9972 54.396 31.5776 54.7221 32.1507 55.0028C33.3027 55.5615 34.4287 55.9131 35.37 55.9712C36.317 56.0464 37.1182 55.7699 37.6191 55.4792C38.123 55.19 38.3612 54.9646 38.3669 54.9716C38.3554 54.9702 38.3684 55.251 38.1244 55.7415C37.8963 56.2179 37.2323 56.9906 35.7785 57.3508C34.3508 57.7081 32.5174 57.579 30.7908 57.0998C30.6825 57.0715 30.5829 57.0388 30.4819 57.002C30.5757 57.6655 30.6493 58.3191 30.697 58.9671C31.9183 75.3033 18.7856 78.8479 16.2333 78.9117Z" fill="#BF9444"/>
<path d="M8.83462 94.6909C10.1729 99.1387 10.8586 104.363 10.3533 109.744C10.2999 110.372 10.2292 110.992 10.144 111.606C10.4327 111.156 10.7113 110.68 10.9611 110.13C11.615 108.702 12.0929 106.941 12.3123 104.918C12.7411 100.887 12.2127 95.8025 10.4832 90.3169C10.0487 88.9388 9.50157 87.6273 8.88803 86.1017C8.29326 84.5988 7.70859 83.0236 7.20188 81.3378C6.76446 79.8619 6.36025 78.3292 6.17691 76.5725C7.60898 77.4331 9.11035 78.1392 10.6724 78.6482C10.7806 79.272 10.8976 79.9001 11.0318 80.5169C11.3956 82.1091 11.8316 83.6574 12.295 85.1645C12.7569 86.6448 13.255 88.2611 13.5683 89.7597C14.8646 95.8025 14.8271 101.17 13.8671 105.386C13.3777 107.49 12.6415 109.293 11.7522 110.705C11.1834 111.614 10.5626 112.334 9.95054 112.927C9.2908 117.07 8.16189 120.891 7.30294 124.37C6.76158 126.551 6.33138 128.624 6.09462 130.583C5.85209 132.536 5.81167 134.37 5.92861 136.049C6.14804 139.405 6.94925 142.082 7.57001 143.89C8.2052 145.702 8.66716 146.68 8.65705 146.681C8.66427 146.677 8.06373 145.787 7.18745 144.05C6.32993 142.312 5.1837 139.684 4.60625 136.199C4.31897 134.461 4.19626 132.512 4.28865 130.437C4.37527 128.362 4.6842 126.17 5.11873 123.907C5.66731 121.037 6.38768 118.054 6.95502 114.955C6.92182 114.969 6.88862 114.983 6.85397 114.999C6.87129 114.942 6.8814 114.882 6.89439 114.824C6.92615 114.804 6.95647 114.789 6.98823 114.767C7.29861 113.052 7.56135 111.304 7.71148 109.517C8.18499 104.436 7.70859 99.5754 6.67063 95.2439C5.64854 90.9025 4.24246 87.0233 3.40804 83.6432C2.53609 80.2702 2.24737 77.4345 2.23726 75.502C2.22716 73.5582 2.39173 72.5047 2.37874 72.5033C2.42493 72.4736 2.30511 76.8546 4.67554 83.2732C5.8059 86.4931 7.51804 90.2276 8.83462 94.6909Z" fill="#BF9444"/>
<path d="M16.1887 96.8063C16.5452 96.1073 16.7834 95.1659 16.8152 94.0345C16.8556 92.903 16.6867 91.5944 16.3561 90.1369C15.718 87.2005 14.3408 83.7609 13.1383 79.4493C13.1296 79.4138 13.121 79.377 13.1123 79.3401C13.6147 79.4507 14.1272 79.54 14.6425 79.5939C14.6526 79.5953 14.6599 79.601 14.67 79.601C14.7176 79.6038 14.758 79.601 14.7985 79.6038C15.2878 79.6577 15.7946 79.6804 16.3114 79.669C16.3258 79.669 16.3359 79.6634 16.3489 79.6605C16.9812 83.5837 17.8012 87.0942 17.9687 90.0631C18.0769 91.627 18.0177 93.0491 17.768 94.2514C17.5211 95.4551 17.0548 96.4193 16.5582 97.0828C16.0515 97.7506 15.5448 98.1434 15.2027 98.3702C14.8576 98.5999 14.6628 98.6949 14.6642 98.6963C14.6628 98.6935 14.8418 98.5602 15.1406 98.2681C15.4336 97.9817 15.8465 97.5167 16.1887 96.8063Z" fill="#BF9444"/>
<path d="M14.8795 67.43C15.5927 66.799 16.3881 66.3368 17.2095 65.981C16.2134 66.5254 15.4945 67.5349 15.5277 68.9995C15.5551 70.1706 16.0517 71.0284 16.7663 71.5785C16.5483 71.9231 16.3693 72.3158 16.2409 72.7667C16.0647 73.365 15.9839 74.0371 15.9536 74.7233C14.2616 75.065 12.0645 74.4738 12.0645 74.4738C12.5134 72.537 13.4821 68.6252 14.8795 67.43Z" fill="#BF9444"/>
<path d="M6.87139 71.9459C7.31458 71.1718 8.01185 70.5408 8.85637 70.1821C9.27935 69.995 9.72976 69.8901 10.1975 69.8362C10.6725 69.7724 11.5588 69.7695 12.36 68.8862L10.8977 74.4002C10.7778 74.3846 7.6957 73.1369 6.72559 72.211C6.76745 72.1146 6.81653 72.0281 6.87139 71.9459Z" fill="#BF9444"/>
<path d="M28.3756 86.191C28.377 86.1683 28.3886 86.2052 28.377 86.1102L28.3236 85.7373C28.2919 85.4892 28.2543 85.2538 28.211 85.0327C28.0334 84.1295 27.7563 83.422 27.3073 82.9655C26.8713 82.4905 26.2506 82.2736 25.8074 82.1743C25.3656 82.0779 25.0899 82.0609 25.0913 82.0566C25.0928 82.0609 25.3151 81.912 25.7857 81.7617C26.2477 81.6185 27.0373 81.4427 28.0176 81.8227C28.5012 82.0099 28.9862 82.3487 29.3876 82.7783C29.7918 83.2164 30.1238 83.7325 30.3894 84.294C30.5237 84.5747 30.6377 84.8654 30.7345 85.1645C30.7908 85.3162 30.8355 85.4637 30.8759 85.6196C30.8933 85.6679 30.9294 85.838 30.9582 85.967L31.0376 86.3796C31.2455 87.511 31.3033 88.6439 31.4057 89.8334L31.309 89.8093C30.0819 89.4719 28.878 89.133 27.7779 88.7899C27.443 88.6878 27.3752 88.6552 27.212 88.5928C27.0604 88.529 26.919 88.4695 26.7703 88.4043C26.4815 88.2781 26.1986 88.1306 25.9344 87.9747C25.3902 87.65 24.8863 87.2657 24.4951 86.8191C24.0967 86.3683 23.8238 85.8607 23.6766 85.3914C23.3864 84.4329 23.5452 83.6857 23.6622 83.2263C23.795 82.7528 23.9235 82.5189 23.9177 82.5174C23.922 82.516 23.9639 82.784 24.088 83.2263C24.2179 83.656 24.4475 84.2755 24.8979 84.7831C25.3526 85.2964 26.0124 85.6452 26.9117 85.9146C27.1355 85.9798 27.3679 86.0422 27.6191 86.1017L28.0002 86.1967C28.1143 86.2208 28.3308 86.2733 28.2803 86.2506C28.3106 86.2222 28.2919 86.1953 28.2919 86.1953C28.2933 86.1967 28.3178 86.2222 28.3597 86.1995L28.3756 86.191Z" fill="#BF9444"/>
<path d="M24.5211 77.9407C24.2295 78.1987 24.0779 78.3731 24.0765 78.3703C24.0794 78.3703 24.0851 78.152 24.2122 77.7465C24.3363 77.3636 24.6019 76.7327 25.3599 76.2464C25.728 76.0082 26.2 75.8451 26.7111 75.7842C27.2192 75.7133 27.7563 75.7416 28.2789 75.8423C28.543 75.8891 28.8072 75.9515 29.0685 76.0295C29.1956 76.0748 29.3298 76.116 29.4569 76.1613C29.4987 76.1741 29.6445 76.2322 29.7441 76.2719L30.0791 76.425C30.9813 76.839 31.8143 77.3566 32.7064 77.8769L32.6458 77.9265C31.7999 78.6 30.9683 79.2593 30.1844 79.8477C29.9434 80.0292 29.8899 80.0547 29.7586 80.1355C29.646 80.2064 29.5261 80.2815 29.4121 80.3468C29.1768 80.4772 28.9343 80.6048 28.6932 80.7097C28.198 80.9281 27.6725 81.0755 27.1644 81.1308C26.649 81.1804 26.151 81.1209 25.7467 80.9848C24.9224 80.7083 24.4735 80.2418 24.2035 79.9257C23.9336 79.601 23.8354 79.4039 23.8311 79.4053C23.8325 79.4011 24.0375 79.5017 24.4172 79.6364C24.7853 79.7598 25.3382 79.9058 25.9185 79.8434C26.4989 79.7881 27.0749 79.5074 27.7072 79.0211C27.8689 78.9048 28.0291 78.7744 28.1966 78.6312L28.4521 78.4114C28.5214 78.3504 28.6715 78.2285 28.6253 78.2512C28.621 78.2158 28.5921 78.2158 28.5907 78.2158C28.5921 78.2172 28.6239 78.2115 28.6239 78.1761L28.6224 78.1619C28.6123 78.152 28.6426 78.159 28.5705 78.1165L28.2817 77.9676C28.0955 77.8726 27.9064 77.7776 27.7216 77.6968C26.9969 77.3721 26.3603 77.2176 25.8117 77.2998C25.2631 77.3693 24.8069 77.6883 24.5211 77.9407Z" fill="#BF9444"/>
<path d="M20.6957 91.8821C20.1125 91.0413 19.5351 90.2615 19.0543 89.4052L18.8768 89.0876C18.8277 88.9926 18.7598 88.8579 18.7425 88.8139C18.6876 88.6948 18.6299 88.5729 18.5808 88.4439C18.4841 88.1929 18.4004 87.9405 18.3239 87.691C18.1853 87.1806 18.1116 86.6574 18.129 86.1569C18.142 85.6607 18.2574 85.1843 18.4567 84.81C18.8565 84.0401 19.447 83.7424 19.8065 83.5977C20.189 83.4489 20.4012 83.4304 20.3998 83.4262C20.4027 83.4276 20.2453 83.585 20.0216 83.887C19.8007 84.1819 19.5322 84.6455 19.5148 85.19C19.4889 85.7287 19.6967 86.3398 20.075 87.0275C20.1746 87.2033 20.2756 87.3819 20.3868 87.5577L20.5644 87.8314C20.6048 87.8952 20.5947 87.8697 20.6048 87.8796H20.6192C20.6524 87.8767 20.6553 87.847 20.6539 87.8455C20.6539 87.8455 20.6553 87.8753 20.6914 87.8767C20.6741 87.9179 20.7867 87.7704 20.8401 87.6981L21.0249 87.4358C21.149 87.2614 21.2616 87.0998 21.3612 86.9339C21.777 86.2859 21.9993 85.7089 22.0008 85.1332C22.008 84.5604 21.8116 84.0288 21.6514 83.6771C21.4955 83.3227 21.38 83.1213 21.3843 83.1213C21.3829 83.1228 21.5836 83.2163 21.9185 83.4517C22.2447 83.697 22.7442 84.1124 23.0849 84.8936C23.2538 85.2821 23.3549 85.7628 23.352 86.2675C23.352 86.7694 23.2524 87.2883 23.0864 87.7846C23.0055 88.0327 22.9102 88.2751 22.7962 88.5077C22.7428 88.631 22.6865 88.7445 22.6302 88.8621C22.5551 88.9912 22.5349 89.045 22.3862 89.2903C21.8838 90.0985 21.3179 90.9506 20.7376 91.8112L20.6957 91.8821Z" fill="#BF9444"/>
<path d="M23.1165 80.6372C23.1685 82.9216 19.5738 83.001 19.5147 80.7152C19.4656 78.4309 23.066 78.3514 23.1165 80.6372Z" fill="#BF9444"/>
<path d="M1.71915 18.1932C2.0122 20.3356 2.71813 22.8111 4.15742 25.1675C4.80272 26.2408 5.60105 27.2886 6.53507 28.2797C7.26266 29.0637 8.0783 29.8039 8.96325 30.4986C9.41799 30.8644 9.89005 31.2146 10.3809 31.5449C11.7177 32.441 13.1108 33.191 14.514 33.778C15.8999 34.3678 17.3319 34.7847 18.738 35.1051C21.5401 35.736 24.1761 35.9331 26.369 35.8027C28.5676 35.6836 30.326 35.21 31.491 34.7393C32.6618 34.2672 33.2508 33.8461 33.2594 33.8617C33.2479 33.8489 32.8105 34.4231 31.7508 35.1902C30.6955 35.9643 28.9675 36.8873 26.6317 37.4516C24.3032 38.0202 21.4203 38.247 18.2501 37.8727C16.6765 37.687 15.0048 37.3467 13.3288 36.7441C11.6628 36.1515 10.02 35.3376 8.47097 34.2941C8.35115 34.2119 8.22989 34.1226 8.11151 34.0332C7.16738 33.3739 6.28966 32.648 5.49133 31.8654C3.82683 30.2306 2.49726 28.369 1.61665 26.4663C0.237988 23.5328 -0.0983761 20.6007 0.0228882 18.2613C0.142709 15.9049 0.668188 14.0915 1.07818 12.8792C1.49538 11.667 1.80865 11.036 1.80288 11.0332C1.80865 11.0332 1.70038 11.7294 1.59211 12.987C1.50405 14.2304 1.4232 16.0466 1.71915 18.1932Z" fill="#BF9444"/>
<path d="M7.36674 34.959C6.86725 36.4718 6.24072 37.9449 5.55499 39.4209C5.2143 40.1638 4.86639 40.8812 4.51847 41.5902C4.32936 41.9616 4.18644 42.248 4.04496 42.5571C3.91071 42.8648 3.78511 43.1781 3.6754 43.4929C3.23221 44.7519 2.99112 46.0563 2.92327 47.3068C2.77602 49.8121 3.34048 52.1175 4.28605 53.8104C5.2244 55.5203 6.55109 56.5766 7.56452 57.1296C8.5866 57.6868 9.26511 57.8371 9.25356 57.8498C9.25789 57.8328 8.5765 57.9051 7.3653 57.6145C6.17431 57.3295 4.40587 56.5327 2.90017 54.759C1.39592 53.0136 0.242462 50.3779 0.0634531 47.3267C-0.0260515 45.8039 0.115424 44.1749 0.581714 42.5529C0.694316 42.1488 0.83146 41.7376 0.985928 41.3378C1.14473 40.9365 1.33095 40.5197 1.48831 40.1879L2.4743 38.0484C3.13693 36.6065 3.77934 35.2128 4.3207 33.88C4.51847 33.3979 4.68882 32.9286 4.85484 32.4551C5.65316 33.2391 6.53233 33.9651 7.47646 34.6244C7.44037 34.7406 7.40283 34.8498 7.36674 34.959Z" fill="#BF9444"/>
<path d="M6.75723 27.4446L6.97233 26.6038C7.10658 26.0424 7.18742 25.4837 7.22207 24.928C7.29137 23.8206 7.1701 22.7629 6.92613 21.8257C6.44396 19.94 5.45219 18.5761 4.61345 17.7963C3.7646 17.0023 3.13662 16.7159 3.14961 16.7031C3.14095 16.7201 3.82811 16.7896 4.92527 17.3723C6.01087 17.9466 7.50647 19.1673 8.51123 21.2459C9.0165 22.278 9.39761 23.4988 9.53187 24.8656C9.60549 25.5447 9.6156 26.2593 9.54053 26.998C9.46402 27.7097 9.39039 28.3478 9.2879 29.0737C9.26047 29.2637 9.21716 29.4678 9.1854 29.6692C8.30046 28.9674 7.49347 28.2272 6.75723 27.4446Z" fill="#BF9444"/>
</svg>
