<svg width="26" height="27" viewBox="0 0 26 27" fill="none" xmlns="http://www.w3.org/2000/svg">
<path d="M22.6311 6.57086C22.8747 6.57086 23.1095 6.47444 23.2827 6.30155L25.8353 3.75442C26.1764 3.41406 25.9543 2.82993 25.4737 2.79983L24.1153 2.71475L25.0017 1.83029C25.1505 1.68188 25.1505 1.44124 25.0017 1.29288C24.8529 1.14446 24.6118 1.14446 24.4631 1.29288L23.5767 2.17734L23.4914 0.82189C23.4612 0.341479 22.8753 0.121364 22.5348 0.461062L19.9821 3.00819C19.7951 3.19471 19.6975 3.45267 19.714 3.71591L19.8018 5.11078C17.6713 3.29818 14.9255 2.25872 12.0169 2.25872C5.37523 2.25872 0 7.62163 0 14.2495C0 17.2406 1.11007 20.1055 3.12583 22.3163C3.26746 22.4715 3.50831 22.4829 3.66386 22.3416C3.81945 22.2004 3.83083 21.96 3.6893 21.8048C1.80141 19.7343 0.761717 17.0511 0.761717 14.2495C0.761717 8.05684 5.81078 3.01873 12.0169 3.01873C14.9252 3.01873 17.6619 4.13096 19.709 6.03664L17.9711 7.77065C16.3995 6.33114 14.307 5.45022 12.0169 5.45022C7.15445 5.45022 3.19855 9.39754 3.19855 14.2494C3.19855 15.6458 3.53614 17.0367 4.17497 18.2717C4.17502 18.2718 4.17502 18.2719 4.17507 18.2719C5.65529 21.1338 8.63639 23.0487 12.0169 23.0487C16.1825 23.0487 19.8053 20.1128 20.6521 16.0385C20.6948 15.833 20.5624 15.6318 20.3565 15.5892C20.1506 15.5466 19.949 15.6787 19.9062 15.8842C19.135 19.5951 15.8171 22.2886 12.017 22.2886C8.98998 22.2886 6.24445 20.6159 4.85198 17.9233C4.85198 17.9233 4.85193 17.9232 4.85193 17.9232C4.26033 16.7793 3.96032 15.5433 3.96032 14.2494C3.96032 9.81664 7.57451 6.21029 12.0169 6.21029C14.0974 6.21029 15.9996 7.00592 17.4327 8.30791L15.7104 10.0265C14.7219 9.16471 13.4296 8.64179 12.0169 8.64179C8.91818 8.64179 6.39715 11.1573 6.39715 14.2494C6.39715 17.3414 8.91818 19.857 12.0169 19.857C15.1157 19.857 17.6368 17.3414 17.6368 14.2494C17.6368 12.8398 17.1127 11.5502 16.249 10.564L17.9714 8.84528C19.2661 10.2638 20.0616 12.1435 20.0734 14.2026C20.0746 14.4117 20.2449 14.5805 20.4542 14.5805H20.4565C20.6668 14.5793 20.8363 14.4081 20.8351 14.1983C20.8221 11.9315 19.9415 9.86346 18.5101 8.30776L20.248 6.5736C22.1496 8.60241 23.2721 11.317 23.2721 14.2493C23.272 20.4421 18.223 25.4802 12.0169 25.4802C9.4459 25.4802 6.93193 24.5928 4.93811 22.9814C4.77454 22.8494 4.5349 22.8744 4.40242 23.0375C4.27003 23.2006 4.29522 23.4399 4.45863 23.572C6.58768 25.2927 9.27192 26.2403 12.0169 26.2403C18.6586 26.2403 24.0338 20.8774 24.0338 14.2495C24.0338 11.6545 23.2165 9.18472 21.6704 7.10732C21.5104 6.89222 21.3437 6.68371 21.1714 6.48118C22.6644 6.57477 22.5839 6.57086 22.6311 6.57086ZM16.875 14.2495C16.875 16.9224 14.6957 19.097 12.0169 19.097C9.33814 19.097 7.15882 16.9224 7.15882 14.2495C7.15882 11.5765 9.33814 9.40195 12.0169 9.40195C13.2195 9.40195 14.3212 9.84041 15.1705 10.5653L13.4373 12.2947C13.038 12.005 12.5472 11.8334 12.0169 11.8334C10.6818 11.8334 9.5956 12.9173 9.5956 14.2495C9.5956 15.5817 10.6818 16.6655 12.0169 16.6655C13.352 16.6655 14.4382 15.5817 14.4382 14.2495C14.4382 13.7202 14.2663 13.2305 13.976 12.8321L15.7092 11.1027C16.4356 11.9501 16.875 13.0495 16.875 14.2495ZM11.7475 14.5182C11.8963 14.6667 12.1374 14.6667 12.2862 14.5182L13.4278 13.3791C13.5853 13.6322 13.6765 13.9304 13.6765 14.2495C13.6765 15.1627 12.932 15.9055 12.0168 15.9055C11.1017 15.9055 10.3573 15.1626 10.3573 14.2495C10.3573 13.3364 11.1017 12.5936 12.0168 12.5936C12.3367 12.5936 12.6356 12.6846 12.8892 12.8416L11.7475 13.9808C11.5988 14.1292 11.5988 14.3698 11.7475 14.5182ZM20.4743 3.66828C20.4714 3.62263 20.4883 3.57788 20.5207 3.54561L22.7591 1.31218L22.8586 2.89393L20.5692 5.17827L20.4743 3.66828ZM21.1079 5.71569L23.3972 3.43134L24.9824 3.53061L22.744 5.76408C22.7117 5.79641 22.6665 5.81359 22.6211 5.81044L21.1079 5.71569Z" fill="#BF9444"/>
</svg>
