<svg width="28" height="28" viewBox="0 0 28 28" fill="none" xmlns="http://www.w3.org/2000/svg">
<path d="M17.0464 20.6668C17.2234 20.6678 17.3989 20.6335 17.5626 20.566C17.7263 20.4985 17.8749 20.399 17.9997 20.2734L19.8064 18.4668C19.9305 18.3419 20.0002 18.1729 20.0002 17.9968C20.0002 17.8206 19.9305 17.6517 19.8064 17.5268L17.1397 14.8601C17.0148 14.7359 16.8458 14.6662 16.6697 14.6662C16.4936 14.6662 16.3246 14.7359 16.1997 14.8601L15.133 15.9201C14.3945 15.7232 13.7106 15.3607 13.133 14.8601C12.6338 14.2816 12.2715 13.598 12.073 12.8601L13.133 11.7934C13.2572 11.6685 13.3269 11.4996 13.3269 11.3234C13.3269 11.1473 13.2572 10.9783 13.133 10.8534L10.4664 8.18676C10.3415 8.06259 10.1725 7.9929 9.99636 7.9929C9.82024 7.9929 9.65127 8.06259 9.52636 8.18676L7.72636 10.0001C7.60078 10.1249 7.50133 10.2735 7.43379 10.4372C7.36626 10.6009 7.33201 10.7764 7.33303 10.9534C7.39351 13.515 8.41708 15.9596 10.1997 17.8001C12.0402 19.5827 14.4848 20.6063 17.0464 20.6668ZM9.9997 9.60676L11.7264 11.3334L10.8664 12.1934C10.7849 12.2697 10.7239 12.3653 10.689 12.4712C10.654 12.5772 10.6463 12.6903 10.6664 12.8001C10.9155 13.9137 11.4431 14.9459 12.1997 15.8001C13.0533 16.5577 14.0857 17.0854 15.1997 17.3334C15.3078 17.356 15.4199 17.3514 15.5257 17.32C15.6316 17.2886 15.7281 17.2313 15.8064 17.1534L16.6664 16.2734L18.393 18.0001L17.0597 19.3334C14.8489 19.2765 12.7394 18.3942 11.1464 16.8601C9.6083 15.2664 8.72344 13.1542 8.66636 10.9401L9.9997 9.60676ZM19.333 13.3334H20.6664C20.6836 12.5408 20.5403 11.7528 20.2449 11.017C19.9495 10.2813 19.5081 9.61292 18.9475 9.05229C18.3869 8.49166 17.7185 8.05034 16.9828 7.75493C16.247 7.45952 15.459 7.31614 14.6664 7.33343V8.66676C15.285 8.64536 15.9014 8.75143 16.4772 8.97838C17.0531 9.20533 17.5761 9.54831 18.0138 9.98599C18.4515 10.4237 18.7945 10.9467 19.0214 11.5226C19.2484 12.0984 19.3544 12.7148 19.333 13.3334Z" fill="#BF9444"/>
<path d="M14.667 11.3333C16.067 11.3333 16.667 11.9333 16.667 13.3333H18.0003C18.0003 11.1867 16.8137 10 14.667 10V11.3333Z" fill="#BF9444"/>
<circle cx="14" cy="14" r="13.5" stroke="#BF9444"/>
</svg>
