<svg width="14" height="14" viewBox="0 0 14 14" fill="none" xmlns="http://www.w3.org/2000/svg">
<path d="M7 0C5.15082 0.0235825 3.38401 0.768652 2.07633 2.07633C0.768652 3.38401 0.0235825 5.15082 0 7C0.00864422 8.07724 0.265804 9.13795 0.751458 10.0995C1.23711 11.0611 1.93815 11.8977 2.8 12.544V12.6H2.87C4.05523 13.5082 5.50679 14.0005 7 14.0005C8.49321 14.0005 9.94477 13.5082 11.13 12.6H11.2V12.544C12.0618 11.8977 12.7629 11.0611 13.2485 10.0995C13.7342 9.13795 13.9914 8.07724 14 7C13.9764 5.15082 13.2313 3.38401 11.9237 2.07633C10.616 0.768652 8.84918 0.0235825 7 0ZM4.249 11.851C4.35119 11.383 4.61031 10.964 4.98336 10.6635C5.35641 10.3631 5.82098 10.1991 6.3 10.199H7.7C8.17902 10.1991 8.64359 10.3631 9.01664 10.6635C9.38969 10.964 9.64881 11.383 9.751 11.851C8.91721 12.3416 7.9674 12.6003 7 12.6003C6.0326 12.6003 5.08279 12.3416 4.249 11.851ZM10.927 10.948C10.6607 10.3117 10.2124 9.76819 9.63825 9.38585C9.06411 9.00351 8.3898 8.79934 7.7 8.799H6.3C5.6102 8.79934 4.93589 9.00351 4.36175 9.38585C3.78762 9.76819 3.33926 10.3117 3.073 10.948C2.54846 10.4321 2.13073 9.81788 1.84367 9.14047C1.55661 8.46305 1.40585 7.73571 1.4 7C1.41816 5.52043 2.01398 4.10657 3.06028 3.06028C4.10657 2.01398 5.52043 1.41816 7 1.4C8.47957 1.41816 9.89343 2.01398 10.9397 3.06028C11.986 4.10657 12.5818 5.52043 12.6 7C12.5942 7.73571 12.4434 8.46305 12.1563 9.14047C11.8693 9.81788 11.4515 10.4321 10.927 10.948Z" fill="#BF9444"/>
<path d="M6.99996 2.80006C6.6299 2.79144 6.26194 2.85797 5.91833 2.99563C5.57472 3.13329 5.26261 3.33922 5.00087 3.60097C4.73913 3.86271 4.5332 4.17482 4.39553 4.51843C4.25787 4.86204 4.19134 5.23 4.19996 5.60006C4.19134 5.97012 4.25787 6.33808 4.39553 6.68169C4.5332 7.0253 4.73913 7.33741 5.00087 7.59915C5.26261 7.86089 5.57472 8.06682 5.91833 8.20449C6.26194 8.34215 6.6299 8.40868 6.99996 8.40006C7.37002 8.40868 7.73798 8.34215 8.08159 8.20449C8.4252 8.06682 8.73731 7.86089 8.99905 7.59915C9.2608 7.33741 9.46673 7.0253 9.60439 6.68169C9.74205 6.33808 9.80858 5.97012 9.79996 5.60006C9.80858 5.23 9.74205 4.86204 9.60439 4.51843C9.46673 4.17482 9.2608 3.86271 8.99905 3.60097C8.73731 3.33922 8.4252 3.13329 8.08159 2.99563C7.73798 2.85797 7.37002 2.79144 6.99996 2.80006ZM6.99996 7.00006C6.81373 7.00906 6.62767 6.97901 6.45373 6.91184C6.2798 6.84467 6.12184 6.74186 5.99 6.61002C5.85816 6.47818 5.75535 6.32022 5.68818 6.14629C5.62101 5.97235 5.59096 5.78629 5.59996 5.60006C5.59096 5.41382 5.62101 5.22776 5.68818 5.05383C5.75535 4.8799 5.85816 4.72194 5.99 4.5901C6.12184 4.45826 6.2798 4.35545 6.45373 4.28828C6.62767 4.2211 6.81373 4.19106 6.99996 4.20006C7.1862 4.19106 7.37226 4.2211 7.54619 4.28828C7.72012 4.35545 7.87808 4.45826 8.00992 4.5901C8.14176 4.72194 8.24457 4.8799 8.31174 5.05383C8.37892 5.22776 8.40896 5.41382 8.39996 5.60006C8.40896 5.78629 8.37892 5.97235 8.31174 6.14629C8.24457 6.32022 8.14176 6.47818 8.00992 6.61002C7.87808 6.74186 7.72012 6.84467 7.54619 6.91184C7.37226 6.97901 7.1862 7.00906 6.99996 7.00006Z" fill="#BF9444"/>
</svg>
